<svg width="348" height="333" viewBox="0 0 348 333" fill="none" xmlns="http://www.w3.org/2000/svg">
<g filter="url(#filter0_d)">
<path fill-rule="evenodd" clip-rule="evenodd" d="M254.681 89.4864H93.9682C90.4553 89.4864 87.3816 86.4127 87.3816 82.8998C87.3816 79.387 90.4553 76.3132 93.9682 76.3132C95.2855 76.3132 241.069 76.3132 241.069 76.3132C243.704 76.3132 245.46 74.5568 245.46 71.9222V67.5311C245.46 57.8707 237.556 49.9668 227.896 49.9668H130.853H78.5994C68.9391 49.9668 61.0352 57.8707 61.0352 67.5311V208.045C61.0352 217.706 68.9391 225.61 78.5994 225.61H254.242C263.903 225.61 271.807 217.706 271.807 208.045V107.051C271.807 97.3904 264.342 89.9256 254.681 89.4864ZM227.896 194.872C220.431 194.872 214.723 189.164 214.723 181.699C214.723 174.234 220.431 168.526 227.896 168.526C235.361 168.526 241.069 174.234 241.069 181.699C241.069 189.164 234.922 194.872 227.896 194.872Z" fill="white"/>
</g>
<g filter="url(#filter1_d)">
<rect x="109.703" y="12.2832" width="108.79" height="45.0135" rx="6" fill="white"/>
</g>
<path d="M134.71 44.9136C134.71 44.9136 143.077 41.9297 143.077 31.1666V27.3302C143.077 26.9039 142.767 26.5842 142.354 26.4776C139.668 26.3711 137.086 25.8382 134.71 24.666C132.335 25.7317 129.752 26.3711 127.067 26.4776C126.654 26.4776 126.344 26.9039 126.344 27.3302V31.1666C126.344 41.9297 134.71 44.9136 134.71 44.9136Z" fill="#00ADEE"/>
<path d="M138.122 32.6582C138.018 31.4859 137.089 31.0597 135.849 30.9531V29.248H134.816V30.8465H133.99V29.248H133.06V30.8465H131.098V31.9122H132.337V37.1339H131.304V38.3062H132.957V40.0112H133.887V38.3062H134.61V39.9047H135.643V38.3062C137.295 38.1996 138.431 37.7733 138.535 36.2814C138.741 35.3223 138.225 34.4698 137.295 34.2567H137.192C137.812 33.937 138.225 33.2976 138.122 32.6582ZM136.675 36.1748C136.675 37.4536 134.61 37.2405 133.99 37.2405V35.1092C134.713 35.0026 136.675 34.7895 136.675 36.1748ZM136.262 33.0844C136.262 34.1501 134.61 34.0435 133.99 34.0435V32.0188C134.61 32.0188 136.262 31.9122 136.262 33.0844Z" fill="white"/>
<path d="M159.705 38.0907C159.705 38.8367 159.601 39.5826 159.188 40.222C158.878 40.7549 158.465 41.2877 157.845 41.6074C157.226 41.9271 156.606 42.2468 155.986 42.3533C155.263 42.4599 154.54 42.5665 153.817 42.5665H147.723V27.0078H153.817C154.437 27.0078 155.056 27.1144 155.676 27.2209C156.296 27.3275 156.812 27.5406 157.329 27.8603C157.845 28.18 158.259 28.6063 158.568 29.0326C158.878 29.672 159.085 30.3114 158.982 31.0573C158.982 31.8033 158.775 32.5493 158.259 33.1887C157.742 33.7215 157.122 34.1477 156.399 34.3609C156.812 34.4674 157.226 34.574 157.639 34.7871C158.052 35.0003 158.362 35.2134 158.672 35.5331C158.982 35.8528 159.188 36.1725 159.291 36.5988C159.601 37.1316 159.705 37.5579 159.705 38.0907ZM155.573 31.4836C155.573 30.9508 155.366 30.5245 154.953 30.3114C154.437 29.9917 153.817 29.8851 153.197 29.9917H151.441V33.1887H153.404C153.92 33.1887 154.54 33.0821 154.953 32.7624C155.263 32.4427 155.573 32.0164 155.573 31.4836ZM155.986 37.771C156.089 37.2382 155.779 36.7053 155.263 36.3856C154.643 36.0659 154.024 35.9594 153.404 35.9594H151.338V39.5826H153.404C153.714 39.5826 154.024 39.5826 154.333 39.4761C154.643 39.4761 154.953 39.3695 155.16 39.1564C155.676 38.9432 156.089 38.4104 155.986 37.771Z" fill="#231F20"/>
<path d="M164.565 28.0755C164.565 28.3952 164.462 28.6084 164.359 28.8215C164.255 29.0346 164.152 29.2478 163.946 29.4609C163.739 29.674 163.532 29.7806 163.326 29.8872C163.119 29.9937 162.809 29.9937 162.499 29.9937C161.983 29.9937 161.467 29.7806 161.053 29.4609C160.64 29.1412 160.434 28.6084 160.434 28.0755C160.434 27.8624 160.537 27.5427 160.64 27.3296C160.743 27.1164 160.847 26.9033 161.053 26.6902C161.26 26.477 161.467 26.3705 161.673 26.2639C161.88 26.1573 162.19 26.0508 162.499 26.0508C162.809 26.0508 163.016 26.0508 163.326 26.1573C163.532 26.2639 163.739 26.3705 163.946 26.5836C164.152 26.7967 164.255 27.0099 164.359 27.223C164.565 27.5427 164.565 27.8624 164.565 28.0755ZM160.743 42.6751V31.5922H164.255V42.6751H160.743Z" fill="#231F20"/>
<path d="M170.758 34.3648V38.6274C170.758 39.0537 170.862 39.48 171.068 39.7997C171.378 40.1194 171.688 40.2259 172.101 40.2259C172.308 40.2259 172.514 40.2259 172.618 40.2259C172.824 40.2259 172.928 40.1194 173.134 40.1194V42.7835C172.824 42.8901 172.514 42.9967 172.204 42.9967C171.791 43.1032 171.481 43.1032 171.068 43.1032C170.448 43.1032 169.829 42.9967 169.209 42.7835C168.796 42.5704 168.383 42.3573 168.073 41.931C167.763 41.6113 167.556 41.185 167.453 40.6522C167.35 40.1194 167.35 39.48 167.35 38.9471V34.2582H165.594V31.5941H167.246V28.7168H170.758V31.5941H173.237V34.2582H170.758V34.3648Z" fill="#231F20"/>
<path d="M185.942 42.6757C184.909 42.8888 183.772 43.102 182.636 42.9954C181.5 42.9954 180.364 42.7823 179.331 42.356C178.298 42.0363 177.472 41.3969 176.645 40.651C175.922 39.905 175.302 39.0525 174.889 37.9868C174.063 35.7489 174.063 33.4045 174.889 31.1666C175.302 30.2075 175.922 29.2484 176.645 28.5024C177.368 27.7565 178.298 27.2236 179.331 26.9039C180.364 26.4777 181.5 26.3711 182.533 26.3711C183.669 26.3711 184.805 26.5842 185.838 26.9039C186.768 27.2236 187.594 27.7565 188.317 28.3959L186.148 31.3797C185.735 30.9534 185.219 30.5272 184.702 30.314C184.082 29.9943 183.463 29.8878 182.74 29.8878C182.12 29.8878 181.5 29.9943 180.984 30.2075C179.847 30.7403 179.021 31.5928 178.608 32.7651C178.401 33.4045 178.298 34.0439 178.298 34.6833C178.298 35.3227 178.401 36.0686 178.608 36.708C178.814 37.2408 179.124 37.7737 179.537 38.3065C179.951 38.7328 180.467 39.159 180.984 39.3722C181.603 39.5853 182.326 39.7984 182.946 39.6919C183.359 39.6919 183.772 39.6919 184.186 39.5853C184.495 39.4787 184.909 39.3722 185.219 39.2656V36.3883H182.326V33.2979H188.627V41.6101C187.801 42.1429 186.871 42.4626 185.942 42.6757Z" fill="#231F20"/>
<path d="M201.853 37.1333C201.853 37.9859 201.749 38.8384 201.336 39.5843C201.026 40.3303 200.613 40.9697 200.097 41.5025C199.58 42.0354 198.857 42.4616 198.237 42.6748C196.791 43.2076 195.139 43.2076 193.692 42.6748C192.969 42.3551 192.35 42.0354 191.833 41.5025C191.317 40.9697 190.8 40.3303 190.594 39.5843C189.974 37.9859 189.974 36.2808 190.594 34.6823C190.904 33.9363 191.317 33.4035 191.833 32.8707C192.35 32.3378 193.073 32.0181 193.692 31.6985C195.139 31.1656 196.791 31.1656 198.237 31.6985C198.96 31.9116 199.58 32.3378 200.097 32.8707C200.613 33.4035 201.13 33.9363 201.336 34.6823C201.749 35.4283 201.853 36.2808 201.853 37.1333ZM198.444 37.1333C198.444 36.8136 198.341 36.3874 198.237 36.0677C198.134 35.748 197.927 35.4283 197.721 35.2151C197.514 35.002 197.204 34.7889 196.895 34.5757C196.172 34.256 195.448 34.256 194.725 34.5757C194.416 34.6823 194.106 34.8954 193.899 35.2151C193.693 35.4283 193.486 35.748 193.383 36.0677C193.279 36.3874 193.176 36.8136 193.176 37.1333C193.176 37.453 193.279 37.8793 193.383 38.199C193.486 38.5187 193.693 38.8384 193.899 39.1581C194.106 39.4778 194.416 39.6909 194.725 39.7975C195.448 40.1172 196.172 40.1172 196.895 39.7975C197.204 39.6909 197.514 39.3712 197.721 39.1581C197.927 38.8384 198.134 38.5187 198.237 38.199C198.444 37.7727 198.444 37.453 198.444 37.1333Z" fill="#231F20"/>
<path fill-rule="evenodd" clip-rule="evenodd" d="M13.8866 105.662C20.2033 105.662 25.324 100.541 25.324 94.2245C25.324 87.9078 20.2033 82.7871 13.8866 82.7871C7.56992 82.7871 2.44922 87.9078 2.44922 94.2245C2.44922 100.541 7.56992 105.662 13.8866 105.662Z" fill="#BEBEBE"/>
<path d="M13.9714 94.2246L15.9497 93.5168L16.4514 91.7266L16.4227 91.685L14.4731 92.3788L15.878 87.2441H11.8927L10.0578 93.9331L8.50955 94.4743L8.00781 96.3339L9.54171 95.7927L8.45221 99.7339H19.0748L19.7629 97.2776H13.1256L13.9714 94.2246Z" fill="white"/>
<path d="M172.828 178.816C170.983 186.213 163.492 190.714 156.094 188.87C148.699 187.026 144.197 179.533 146.042 172.137C147.886 164.739 155.378 160.237 162.773 162.081C170.17 163.925 174.672 171.418 172.828 178.816Z" fill="#F7931A"/>
<path fill-rule="evenodd" clip-rule="evenodd" d="M165.522 173.508C165.797 171.671 164.398 170.683 162.486 170.024L163.106 167.535L161.591 167.158L160.987 169.581C160.589 169.482 160.18 169.388 159.773 169.295L160.382 166.856L158.868 166.479L158.247 168.966C157.917 168.891 157.594 168.817 157.279 168.739L157.281 168.731L155.192 168.21L154.789 169.828C154.789 169.828 155.913 170.085 155.889 170.101C156.503 170.254 156.614 170.66 156.595 170.982C156.028 173.257 155.463 175.525 154.895 177.8C154.82 177.987 154.63 178.266 154.201 178.16C154.216 178.182 153.1 177.885 153.1 177.885L152.348 179.619L154.319 180.111C154.539 180.166 154.757 180.223 154.972 180.279L154.972 180.279C155.115 180.316 155.258 180.353 155.399 180.389L154.772 182.907L156.285 183.284L156.906 180.794C157.32 180.906 157.721 181.009 158.114 181.107L157.495 183.586L159.01 183.963L159.637 181.451C162.22 181.94 164.162 181.743 164.98 179.406C165.639 177.525 164.947 176.44 163.588 175.732C164.578 175.504 165.324 174.853 165.522 173.508ZM162.06 178.361C161.63 180.087 158.928 179.374 157.692 179.047L157.692 179.047C157.581 179.018 157.482 178.992 157.397 178.971L158.229 175.636C158.332 175.661 158.458 175.69 158.601 175.722L158.601 175.722C159.88 176.009 162.5 176.597 162.06 178.361ZM158.859 174.175C159.89 174.45 162.138 175.05 162.529 173.481C162.929 171.876 160.744 171.393 159.677 171.156C159.557 171.13 159.451 171.106 159.365 171.085L158.611 174.109C158.682 174.127 158.765 174.15 158.859 174.175Z" fill="white"/>
<g filter="url(#filter2_d)">
<path fill-rule="evenodd" clip-rule="evenodd" d="M271.807 142.933C278.339 142.933 283.634 137.638 283.634 131.106C283.634 124.574 278.339 119.279 271.807 119.279C265.275 119.279 259.98 124.574 259.98 131.106C259.98 137.638 265.275 142.933 271.807 142.933Z" fill="#5975BE"/>
<path fill-rule="evenodd" clip-rule="evenodd" d="M275.933 131.243L271.711 123.396L267.489 131.243H267.488L267.489 131.243L267.488 131.244H267.489L271.711 134.012L275.933 131.244H275.934L275.933 131.243L275.934 131.243H275.933ZM275.933 131.243H267.489L267.489 131.243L267.489 131.244H275.933L275.933 131.243L275.933 131.243ZM271.71 135.059L267.488 132.389L271.71 138.619V138.621L271.71 138.62L271.711 138.621V138.619L275.932 132.389L271.71 135.059ZM271.71 135.059L271.711 135.06V138.619L271.71 138.62L271.71 138.619V135.06L271.71 135.059Z" fill="white"/>
</g>
<g filter="url(#filter3_d)">
<path fill-rule="evenodd" clip-rule="evenodd" d="M52.3929 161.669C63.0343 161.669 71.6609 153.042 71.6609 142.401C71.6609 131.759 63.0343 123.133 52.3929 123.133C41.7515 123.133 33.125 131.759 33.125 142.401C33.125 153.042 41.7515 161.669 52.3929 161.669Z" fill="#2853C3"/>
<path d="M47.7954 133.729L57.553 139.366V145.116L42.6211 136.492L47.4121 133.729C47.5307 133.661 47.6768 133.661 47.7954 133.729Z" fill="#D9EEFF"/>
<path d="M57.5528 133.619L52.5781 136.494L57.5528 139.368V133.619Z" fill="#BBDDFF"/>
<path d="M57.5547 133.619L62.3457 136.382C62.4654 136.451 62.5386 136.579 62.5373 136.717V147.992L57.5547 145.118V133.619Z" fill="#A0CCFF"/>
<path d="M62.5376 147.991L57.7466 150.754C57.6276 150.821 57.4823 150.821 57.3633 150.754L47.5977 145.117V139.359L62.5376 147.991Z" fill="#BBDDFF"/>
<path d="M42.6211 136.492V147.767C42.6199 147.905 42.6931 148.033 42.8127 148.102L47.6038 150.865V139.359L42.6211 136.492Z" fill="white"/>
<path d="M47.6055 150.864L52.5801 147.99L47.6055 145.115V150.864Z" fill="#D9EEFF"/>
</g>
<path fill-rule="evenodd" clip-rule="evenodd" d="M74.5472 273.641C81.1726 273.641 86.5436 268.27 86.5436 261.645C86.5436 255.019 81.1726 249.648 74.5472 249.648C67.9217 249.648 62.5508 255.019 62.5508 261.645C62.5508 268.27 67.9217 273.641 74.5472 273.641Z" fill="#F3BA2F"/>
<path d="M70.8981 260.216L74.3749 256.74L77.8536 260.218L79.8767 258.195L74.3749 252.693L68.875 258.193L70.8981 260.216Z" fill="white"/>
<path d="M69.4683 261.644L67.4453 259.621L65.4222 261.644L67.4452 263.667L69.4683 261.644Z" fill="white"/>
<path d="M70.8971 263.074L74.374 266.551L77.8525 263.072L79.8767 265.094L79.8757 265.095L74.374 270.597L68.8739 265.097L68.8711 265.094L70.8971 263.074Z" fill="white"/>
<path d="M81.3011 263.668L83.3242 261.645L81.3012 259.621L79.2781 261.645L81.3011 263.668Z" fill="white"/>
<path d="M76.4263 261.643H76.4271L74.3742 259.59L72.8571 261.107H72.8569L72.6827 261.281L72.3231 261.641L72.3203 261.644L72.3231 261.647L74.3742 263.698L76.4271 261.645L76.4281 261.644L76.4263 261.643Z" fill="white"/>
<g filter="url(#filter4_d)">
<path fill-rule="evenodd" clip-rule="evenodd" d="M223.856 283.117C232.221 283.117 239.002 276.336 239.002 267.972C239.002 259.607 232.221 252.826 223.856 252.826C215.492 252.826 208.711 259.607 208.711 267.972C208.711 276.336 215.492 283.117 223.856 283.117Z" fill="#23292F"/>
<path d="M230.848 259.762H233.618L227.852 265.666C225.764 267.805 222.383 267.805 220.295 265.666L214.531 259.762H217.301L221.681 264.248C222.982 265.586 225.109 265.603 226.431 264.286C226.442 264.274 226.456 264.26 226.468 264.248L230.848 259.762ZM217.267 276.182H214.496L220.297 270.24C222.385 268.101 225.766 268.101 227.854 270.24L233.653 276.182H230.882L226.468 271.66C225.167 270.322 223.04 270.305 221.719 271.623C221.707 271.635 221.693 271.649 221.681 271.66L217.267 276.182Z" fill="white"/>
</g>
<g filter="url(#filter5_d)">
<path fill-rule="evenodd" clip-rule="evenodd" d="M308.474 82.7886C315.668 82.7886 321.5 76.9571 321.5 69.7634C321.5 62.5698 315.668 56.7383 308.474 56.7383C301.281 56.7383 295.449 62.5698 295.449 69.7634C295.449 76.9571 301.281 82.7886 308.474 82.7886Z" fill="black"/>
<path d="M314.875 64.1581L312.754 65.2465L302.624 70.568C302.565 70.3261 302.565 70.0237 302.565 69.7818C302.565 66.335 305.274 63.6138 308.631 63.6138C309.633 63.6138 310.634 63.9162 311.576 64.3999L312.754 63.7952L312.931 63.6743C309.633 61.2555 305.038 61.9811 302.624 65.3675C301.74 66.6374 301.269 68.1491 301.21 69.7214C301.21 69.9028 301.21 70.0842 301.21 70.2656C301.269 70.8098 300.974 71.3541 300.503 71.596L299.914 71.9588V73.4706L301.799 72.503L302.388 72.2007L302.977 71.8983L313.638 66.335L314.816 65.7303L317.29 64.3999V62.8882L314.875 64.1581Z" fill="white"/>
<path d="M317.29 65.9707L303.566 73.1667L302.388 73.7714L299.914 75.0413V76.5531L302.388 75.2832L304.508 74.1947L314.639 68.8733C314.639 69.1757 314.639 69.478 314.639 69.7199C314.639 73.1062 311.93 75.8879 308.631 75.8879C307.571 75.8879 306.57 75.5855 305.686 75.1018L305.627 75.1623L304.332 75.8274C307.63 78.3067 312.224 77.5206 314.639 74.1342C315.523 72.8644 316.053 71.2921 316.053 69.7199C316.053 69.5385 316.053 69.2966 316.053 69.1152C315.994 68.5709 316.289 68.0267 316.76 67.7848L317.408 67.422L317.29 65.9707Z" fill="white"/>
</g>
<defs>
<filter id="filter0_d" x="51.0352" y="49.9668" width="250.771" height="215.643" filterUnits="userSpaceOnUse" color-interpolation-filters="sRGB">
<feFlood flood-opacity="0" result="BackgroundImageFix"/>
<feColorMatrix in="SourceAlpha" type="matrix" values="0 0 0 0 0 0 0 0 0 0 0 0 0 0 0 0 0 0 127 0"/>
<feOffset dx="10" dy="20"/>
<feGaussianBlur stdDeviation="10"/>
<feColorMatrix type="matrix" values="0 0 0 0 0.900469 0 0 0 0 0.9125 0 0 0 0 0.924531 0 0 0 0.5 0"/>
<feBlend mode="normal" in2="BackgroundImageFix" result="effect1_dropShadow"/>
<feBlend mode="normal" in="SourceGraphic" in2="effect1_dropShadow" result="shape"/>
</filter>
<filter id="filter1_d" x="79.6112" y="0.246449" width="168.974" height="105.197" filterUnits="userSpaceOnUse" color-interpolation-filters="sRGB">
<feFlood flood-opacity="0" result="BackgroundImageFix"/>
<feColorMatrix in="SourceAlpha" type="matrix" values="0 0 0 0 0 0 0 0 0 0 0 0 0 0 0 0 0 0 127 0"/>
<feOffset dy="18.0551"/>
<feGaussianBlur stdDeviation="15.0459"/>
<feColorMatrix type="matrix" values="0 0 0 0 0.867222 0 0 0 0 0.882364 0 0 0 0 0.929167 0 0 0 1 0"/>
<feBlend mode="normal" in2="BackgroundImageFix" result="effect1_dropShadow"/>
<feBlend mode="normal" in="SourceGraphic" in2="effect1_dropShadow" result="shape"/>
</filter>
<filter id="filter2_d" x="227.7" y="106.367" width="88.2146" height="88.2146" filterUnits="userSpaceOnUse" color-interpolation-filters="sRGB">
<feFlood flood-opacity="0" result="BackgroundImageFix"/>
<feColorMatrix in="SourceAlpha" type="matrix" values="0 0 0 0 0 0 0 0 0 0 0 0 0 0 0 0 0 0 127 0"/>
<feOffset dy="19.3683"/>
<feGaussianBlur stdDeviation="16.1403"/>
<feColorMatrix type="matrix" values="0 0 0 0 0.34902 0 0 0 0 0.458824 0 0 0 0 0.745098 0 0 0 0.5 0"/>
<feBlend mode="normal" in2="BackgroundImageFix" result="effect1_dropShadow"/>
<feBlend mode="normal" in="SourceGraphic" in2="effect1_dropShadow" result="shape"/>
</filter>
<filter id="filter3_d" x="0.844418" y="110.221" width="103.097" height="103.097" filterUnits="userSpaceOnUse" color-interpolation-filters="sRGB">
<feFlood flood-opacity="0" result="BackgroundImageFix"/>
<feColorMatrix in="SourceAlpha" type="matrix" values="0 0 0 0 0 0 0 0 0 0 0 0 0 0 0 0 0 0 127 0"/>
<feOffset dy="19.3684"/>
<feGaussianBlur stdDeviation="16.1403"/>
<feColorMatrix type="matrix" values="0 0 0 0 0.156863 0 0 0 0 0.32549 0 0 0 0 0.764706 0 0 0 0.4 0"/>
<feBlend mode="normal" in2="BackgroundImageFix" result="effect1_dropShadow"/>
<feBlend mode="normal" in="SourceGraphic" in2="effect1_dropShadow" result="shape"/>
</filter>
<filter id="filter4_d" x="178.155" y="240.604" width="91.4035" height="91.4035" filterUnits="userSpaceOnUse" color-interpolation-filters="sRGB">
<feFlood flood-opacity="0" result="BackgroundImageFix"/>
<feColorMatrix in="SourceAlpha" type="matrix" values="0 0 0 0 0 0 0 0 0 0 0 0 0 0 0 0 0 0 127 0"/>
<feOffset dy="18.3338"/>
<feGaussianBlur stdDeviation="15.2782"/>
<feColorMatrix type="matrix" values="0 0 0 0 0.137255 0 0 0 0 0.160784 0 0 0 0 0.184314 0 0 0 0.4 0"/>
<feBlend mode="normal" in2="BackgroundImageFix" result="effect1_dropShadow"/>
<feBlend mode="normal" in="SourceGraphic" in2="effect1_dropShadow" result="shape"/>
</filter>
<filter id="filter5_d" x="269.241" y="46.2551" width="78.4665" height="78.4665" filterUnits="userSpaceOnUse" color-interpolation-filters="sRGB">
<feFlood flood-opacity="0" result="BackgroundImageFix"/>
<feColorMatrix in="SourceAlpha" type="matrix" values="0 0 0 0 0 0 0 0 0 0 0 0 0 0 0 0 0 0 127 0"/>
<feOffset dy="15.7248"/>
<feGaussianBlur stdDeviation="13.104"/>
<feColorMatrix type="matrix" values="0 0 0 0 0.520833 0 0 0 0 0.520833 0 0 0 0 0.520833 0 0 0 0.4 0"/>
<feBlend mode="normal" in2="BackgroundImageFix" result="effect1_dropShadow"/>
<feBlend mode="normal" in="SourceGraphic" in2="effect1_dropShadow" result="shape"/>
</filter>
</defs>
</svg>
