<svg width="502" height="432" viewBox="0 0 502 432" fill="none" xmlns="http://www.w3.org/2000/svg">
<g opacity="0.8">
<path d="M0.518799 118.631L161.003 26.2184C165.026 23.8948 169.895 23.8948 173.918 26.2184L501.238 214.74V407.275L0.518799 118.631Z" fill="url(#paint0_linear)"/>
<path d="M501.234 22.2763L334.475 118.689L501.234 214.996V22.2763Z" fill="url(#paint1_linear)"/>
</g>
<g filter="url(#filter0_d)">
<rect x="142.352" y="85.9082" width="216.246" height="258.335" rx="9.97356" fill="white"/>
</g>
<rect x="174.359" y="212.922" width="158.233" height="4.747" rx="2.3735" fill="#E6EAF8"/>
<rect x="174.359" y="176.922" width="59.3002" height="4.747" rx="2.3735" fill="#E6EAF8"/>
<rect x="174.359" y="140.922" width="59.3002" height="4.747" rx="2.3735" fill="#E6EAF8"/>
<rect x="174.359" y="248.701" width="158.233" height="4.747" rx="2.3735" fill="#E6EAF8"/>
<rect x="174.359" y="284.48" width="102.09" height="4.747" rx="2.3735" fill="#E6EAF8"/>
<path d="M378.668 188.413H358.608V203.133L378.668 188.413Z" fill="#9EB3EE"/>
<g filter="url(#filter1_d)">
<rect x="255.457" y="129.799" width="124.329" height="59.8153" rx="4" fill="#1E4DD8"/>
</g>
<path d="M281.73 176.209H288.562V143.183H281.73V176.209Z" fill="white"/>
<path d="M310.015 166.536C310.015 167.78 309.549 168.793 308.618 169.576C307.686 170.382 306.422 170.774 304.781 170.774C303.362 170.774 301.986 170.451 300.7 169.783C299.392 169.139 298.549 168.609 298.172 168.217C297.795 167.826 297.506 167.503 297.307 167.25L293.204 171.488L293.714 172.063C294.002 172.432 294.49 172.893 295.178 173.422C295.843 173.975 296.641 174.505 297.529 175.011C298.416 175.541 299.569 176.002 300.944 176.37C302.319 176.739 303.761 176.923 305.225 176.923C308.995 176.923 311.945 175.956 314.074 174.021C316.203 172.086 317.268 169.599 317.268 166.536C317.268 164.371 316.735 162.598 315.649 161.17C314.584 159.765 313.275 158.752 311.723 158.13C310.17 157.531 308.64 156.978 307.11 156.518C305.579 156.057 304.271 155.504 303.206 154.837C302.142 154.169 301.587 153.27 301.587 152.165C301.587 151.198 301.986 150.346 302.785 149.655C303.583 148.964 304.626 148.618 305.912 148.618C306.999 148.618 308.041 148.895 309.061 149.401C310.082 149.931 310.769 150.346 311.08 150.668C311.39 150.99 311.634 151.244 311.812 151.474L315.893 146.983L315.493 146.523C315.249 146.2 314.828 145.809 314.251 145.371C313.675 144.933 312.987 144.496 312.211 144.081C311.435 143.667 310.437 143.298 309.217 142.976C308.019 142.653 306.755 142.515 305.446 142.515C302.164 142.515 299.48 143.459 297.418 145.348C295.355 147.236 294.313 149.517 294.313 152.188C294.313 154.353 294.867 156.126 295.932 157.554C297.018 158.959 298.327 159.972 299.857 160.594C301.388 161.193 302.918 161.723 304.47 162.183C306.023 162.644 307.332 163.197 308.396 163.888C309.461 164.555 310.015 165.431 310.015 166.536Z" fill="white"/>
<path d="M328.053 159.719C328.053 156.679 329.029 154.1 331.025 152.004C332.999 149.908 335.417 148.849 338.255 148.849C341.094 148.849 343.512 149.908 345.486 152.004C347.482 154.1 348.458 156.679 348.458 159.719C348.458 162.759 347.482 165.338 345.486 167.411C343.512 169.507 341.094 170.543 338.255 170.543C335.417 170.543 332.999 169.507 331.025 167.411C329.029 165.338 328.053 162.759 328.053 159.719ZM321 159.696C321 164.44 322.664 168.517 325.991 171.879C329.317 175.242 333.421 176.923 338.255 176.923C343.09 176.923 347.193 175.242 350.52 171.879C353.847 168.517 355.51 164.44 355.51 159.696C355.51 154.952 353.847 150.898 350.52 147.536C347.193 144.173 343.09 142.492 338.255 142.492C333.421 142.492 329.317 144.173 325.991 147.536C322.664 150.898 321 154.952 321 159.696Z" fill="white"/>
<path d="M430.208 265.328L441.867 259.105C442.159 258.949 442.513 258.949 442.805 259.105L466.586 271.799V284.764L430.208 265.328Z" stroke="#3A8EF6" stroke-width="2"/>
<path d="M466.586 258.764L454.54 265.267L466.586 271.764V258.764Z" stroke="#3A8EF6" stroke-width="2"/>
<path d="M33.727 170.696L45.3866 176.918C45.6789 177.075 46.0326 177.075 46.3249 176.918L70.1055 164.224V151.26L33.727 170.696Z" stroke="#1E4DD8" stroke-width="2"/>
<path d="M244.566 410.568L232.906 404.345C232.614 404.189 232.26 404.189 231.968 404.345L208.188 417.04V430.004L244.566 410.568Z" stroke="#3A8EF6" stroke-width="2"/>
<defs>
<filter id="filter0_d" x="132.352" y="85.9082" width="256.246" height="298.335" filterUnits="userSpaceOnUse" color-interpolation-filters="sRGB">
<feFlood flood-opacity="0" result="BackgroundImageFix"/>
<feColorMatrix in="SourceAlpha" type="matrix" values="0 0 0 0 0 0 0 0 0 0 0 0 0 0 0 0 0 0 127 0"/>
<feOffset dx="10" dy="20"/>
<feGaussianBlur stdDeviation="10"/>
<feColorMatrix type="matrix" values="0 0 0 0 0.900469 0 0 0 0 0.9125 0 0 0 0 0.924531 0 0 0 0.5 0"/>
<feBlend mode="normal" in2="BackgroundImageFix" result="effect1_dropShadow"/>
<feBlend mode="normal" in="SourceGraphic" in2="effect1_dropShadow" result="shape"/>
</filter>
<filter id="filter1_d" x="227.774" y="118.726" width="179.695" height="115.181" filterUnits="userSpaceOnUse" color-interpolation-filters="sRGB">
<feFlood flood-opacity="0" result="BackgroundImageFix"/>
<feColorMatrix in="SourceAlpha" type="matrix" values="0 0 0 0 0 0 0 0 0 0 0 0 0 0 0 0 0 0 127 0"/>
<feOffset dy="16.6097"/>
<feGaussianBlur stdDeviation="13.8414"/>
<feColorMatrix type="matrix" values="0 0 0 0 0.517361 0 0 0 0 0.600304 0 0 0 0 0.833333 0 0 0 0.75 0"/>
<feBlend mode="normal" in2="BackgroundImageFix" result="effect1_dropShadow"/>
<feBlend mode="normal" in="SourceGraphic" in2="effect1_dropShadow" result="shape"/>
</filter>
<linearGradient id="paint0_linear" x1="-77.1774" y1="95.111" x2="766.793" y2="596.596" gradientUnits="userSpaceOnUse">
<stop stop-color="#E6E9EC"/>
<stop offset="1" stop-color="#F6F8FB" stop-opacity="0"/>
</linearGradient>
<linearGradient id="paint1_linear" x1="407.153" y1="197.866" x2="636.136" y2="-30.5948" gradientUnits="userSpaceOnUse">
<stop offset="0.0212266" stop-color="#E6E9EC"/>
<stop offset="1" stop-color="#F6F8FB" stop-opacity="0"/>
</linearGradient>
</defs>
</svg>
