<svg width="102" height="33" viewBox="0 0 102 33" fill="none" xmlns="http://www.w3.org/2000/svg">
<path fill-rule="evenodd" clip-rule="evenodd" d="M33.9207 17.8757V6.87598H34.9514C35.7912 6.87598 36.4719 7.57094 36.4719 8.42821V13.319C38.1238 11.8145 39.5285 11.2122 41.4007 11.1736C44.9916 11.0986 48.1083 13.8213 48.4043 17.4757C48.7583 21.8415 45.6483 25.1278 41.5966 25.1278C37.1487 25.1278 33.9207 22.312 33.9207 17.8757ZM36.4296 18.7393C36.6812 21.012 38.8072 22.8893 41.049 22.9256C43.9698 22.9711 45.96 21.0279 45.96 18.153C45.96 15.2781 44.0143 13.3804 41.1759 13.3804C38.1416 13.3736 36.0846 15.6235 36.4296 18.7393Z" fill="white"/>
<path fill-rule="evenodd" clip-rule="evenodd" d="M52.6608 11.4488V13.4078C54.2659 11.5897 55.2165 11.1011 57.0954 11.1011C57.6419 11.1017 58.1876 11.1465 58.7272 11.2352V13.8374C58.1514 13.6758 57.5568 13.5947 56.9596 13.5965C55.5994 13.5965 54.4573 14.051 53.6203 14.9101C52.8857 15.6623 52.6675 16.251 52.6675 17.4328V24.678H50.0228V11.4488H52.6608Z" fill="white"/>
<path fill-rule="evenodd" clip-rule="evenodd" d="M59.355 15.8237C59.4908 14.5351 59.7357 13.8374 60.2789 13.1669C61.3675 11.8033 63.3265 11.1011 66.1004 11.1011C68.3043 11.1011 69.9094 11.4511 71.0247 12.201C71.9508 12.8169 72.3315 13.7306 72.3315 15.3396V21.2145C72.3315 22.5031 72.6587 22.9576 73.5559 22.9326C73.7563 22.9254 73.9562 22.9072 74.1547 22.8781V24.6485C73.7087 24.8041 73.2389 24.8765 72.7678 24.8621C71.1093 24.8621 70.348 24.3531 69.8315 22.8758C68.1997 24.4053 66.5122 25.0485 64.0923 25.0485C60.8555 25.0485 58.8697 23.5462 58.8697 21.1031C58.8555 19.7099 59.6583 18.443 60.9089 17.885C61.8884 17.4555 62.4873 17.3214 65.2878 17.0259C67.681 16.785 68.0906 16.7305 68.7696 16.5146C69.5042 16.2737 69.8315 15.8714 69.8315 15.201C69.8315 13.7783 68.6627 13.1351 66.2139 13.1351C63.8987 13.1351 62.7054 13.6033 62.2268 14.7987C61.9897 15.41 61.4126 15.813 60.7686 15.8169L59.355 15.8237ZM69.8181 18.0782C68.1402 18.5764 66.4173 18.9 64.6756 19.0441C62.3092 19.285 61.5745 19.7418 61.5745 20.9486C61.5745 22.2895 62.6631 22.994 64.8114 22.994C66.579 22.994 67.9125 22.5395 68.8653 21.6531C69.6267 20.9281 69.8181 20.419 69.8181 19.1532V18.0782Z" fill="white"/>
<path fill-rule="evenodd" clip-rule="evenodd" d="M80.5395 24.6757H79.8582C79.2581 24.6795 78.7092 24.3313 78.4468 23.7802L72.7411 11.4487H74.3261C75.2498 11.4412 76.0906 11.9912 76.47 12.8509L80.2768 21.7144L84.2104 12.8168C84.5954 11.9706 85.4292 11.4321 86.3431 11.4395H87.7835L81.9442 23.7939C81.6791 24.3374 81.1342 24.6795 80.5395 24.6757Z" fill="white"/>
<path fill-rule="evenodd" clip-rule="evenodd" d="M89.5711 18.8283C89.8427 21.3783 91.7973 22.9601 94.7114 22.9601C96.3655 22.9601 97.6055 22.4578 98.3735 21.4556C98.8215 20.8808 99.5018 20.5461 100.221 20.5465H101.755C100.419 23.551 98.0285 25.0282 94.4643 25.0282C90.0119 25.0282 87.011 22.2646 87.011 18.1329C87.011 14.0012 90.0854 11.1035 94.52 11.1035C97.7279 11.1035 100.308 12.5785 101.348 15.0489C101.811 16.1852 102 17.1943 102 18.8306L89.5711 18.8283ZM99.3085 16.7829C98.7097 14.4489 96.9421 13.133 94.4933 13.133C92.0444 13.133 90.2768 14.4489 89.6513 16.7829H99.3085Z" fill="white"/>
<path fill-rule="evenodd" clip-rule="evenodd" d="M25.7385 8.1935L26.4719 6.3514C26.4719 6.3514 25.5384 5.32802 24.4049 4.16818C23.2713 3.00835 20.8708 3.6906 20.8708 3.6906L18.137 0.51709H13.336H8.53504L5.80116 3.6906C5.80116 3.6906 3.40068 3.00835 2.26712 4.16818C1.13356 5.32802 0.20004 6.3514 0.20004 6.3514L0.933519 8.1935L0 10.9225C0 10.9225 2.74555 21.5626 3.06728 22.862C3.70074 25.4205 4.13416 26.4097 5.93452 27.706C7.73488 29.0023 11.0022 31.2538 11.5356 31.5949C12.0691 31.936 12.7359 32.5171 13.336 32.5171C13.9361 32.5171 14.6029 31.936 15.1364 31.5949C15.6698 31.2538 18.9371 29.0023 20.7375 27.706C22.5378 26.4097 22.9713 25.4205 23.6047 22.862C23.9264 21.5626 26.672 10.9225 26.672 10.9225L25.7385 8.1935Z" fill="url(#paint0_linear)"/>
<path fill-rule="evenodd" clip-rule="evenodd" d="M13.336 20.4312C13.5188 20.4312 14.6898 20.8542 15.6295 21.3517C16.5692 21.8493 17.2502 22.2011 17.4679 22.3405C17.6855 22.4799 17.5528 22.7428 17.3545 22.8862C17.1562 23.0296 14.4916 25.1408 14.233 25.3741C13.9744 25.6075 13.5944 25.9929 13.336 25.9929C13.0776 25.9929 12.6975 25.6075 12.4389 25.3741C12.1803 25.1408 9.51575 23.0296 9.31745 22.8862C9.11914 22.7428 8.98645 22.4799 9.20409 22.3405C9.4218 22.2011 10.1028 21.8493 11.0425 21.3517C11.9821 20.8542 13.1532 20.4312 13.336 20.4312ZM13.3503 5.39453C13.44 5.39708 13.9456 5.42221 14.6696 5.66913C15.4698 5.94203 16.3366 6.28316 16.7367 6.28316C17.1368 6.28316 20.104 5.70324 20.104 5.70324C20.104 5.70324 23.6204 10.0526 23.6204 10.9822C23.6204 11.9118 23.1781 12.1571 22.7333 12.6404C22.2886 13.1236 20.3461 15.2341 20.0967 15.5051C19.8472 15.7761 19.3279 16.1871 19.6334 16.9267C19.9388 17.6663 20.3895 18.6075 19.8884 19.5621C19.3872 20.5167 18.5287 21.1539 17.9786 21.0485C17.4285 20.9431 16.1366 20.2524 15.6615 19.9368C15.1864 19.6213 13.6806 18.3506 13.6806 17.8645C13.6806 17.3783 15.2371 16.5055 15.5246 16.3071C15.8123 16.1089 17.1239 15.3413 17.1508 15.04C17.1776 14.7386 17.1674 14.6503 16.7803 13.9058C16.3932 13.1613 15.6961 12.1678 15.8122 11.5067C15.9282 10.8457 17.0524 10.502 17.8547 10.192C18.6569 9.88206 20.2015 9.29661 20.3944 9.2056C20.5874 9.11452 20.5376 9.02781 19.953 8.97111C19.3685 8.91441 17.7098 8.68913 16.962 8.90241C16.2142 9.11568 14.9366 9.44016 14.8331 9.61223C14.7296 9.78429 14.6383 9.79009 14.7446 10.3837C14.8508 10.9772 15.398 13.8254 15.4511 14.3313C15.5042 14.8371 15.6081 15.1716 15.075 15.2963C14.5418 15.421 13.6444 15.6376 13.336 15.6376C13.0276 15.6376 12.1301 15.421 11.597 15.2963C11.0638 15.1716 11.1677 14.8371 11.2208 14.3313C11.274 13.8254 11.8211 10.9772 11.9274 10.3837C12.0336 9.79009 11.9423 9.78429 11.8389 9.61223C11.7354 9.44016 10.4578 9.11568 9.70994 8.90241C8.96212 8.68913 7.30346 8.91441 6.71894 8.97111C6.13443 9.02781 6.08455 9.11452 6.27752 9.2056C6.47049 9.29661 8.01513 9.88206 8.81729 10.192C9.61952 10.502 10.7438 10.8457 10.8598 11.5067C10.9759 12.1678 10.2787 13.1613 9.89171 13.9058C9.50463 14.6503 9.49436 14.7386 9.52123 15.04C9.54804 15.3413 10.8597 16.1089 11.1473 16.3071C11.4349 16.5055 12.9913 17.3783 12.9913 17.8645C12.9913 18.3506 11.4856 19.6213 11.0105 19.9368C10.5354 20.2524 9.24351 20.9431 8.6934 21.0485C8.14329 21.1539 7.28479 20.5167 6.78362 19.5621C6.28252 18.6075 6.73315 17.6663 7.03854 16.9267C7.344 16.1871 6.82476 15.7761 6.57525 15.5051C6.32586 15.2341 4.38334 13.1236 3.93859 12.6404C3.49383 12.1571 3.05154 11.9118 3.05154 10.9822C3.05154 10.0526 6.56798 5.70324 6.56798 5.70324C6.56798 5.70324 9.53524 6.28316 9.93532 6.28316C10.3354 6.28316 11.2022 5.94203 12.0024 5.66913C12.7263 5.42221 13.232 5.39708 13.3217 5.39453H13.3503Z" fill="white"/>
<mask id="mask0" style="mask-type:alpha" maskUnits="userSpaceOnUse" x="2" y="0" width="23" height="7">
<path d="M20.8708 3.6906L18.137 0.51709H13.336H8.53504L5.80116 3.6906C5.80116 3.6906 3.40068 3.00835 2.26712 4.16818C2.26712 4.16818 5.46776 3.87256 6.56798 5.70326C6.56798 5.70326 9.53524 6.28318 9.93532 6.28318C10.3354 6.28318 11.2022 5.94205 12.0024 5.66915C12.8026 5.39625 13.336 5.39427 13.336 5.39427C13.336 5.39427 13.8694 5.39625 14.6696 5.66915C15.4698 5.94205 16.3366 6.28318 16.7367 6.28318C17.1368 6.28318 20.104 5.70326 20.104 5.70326C21.2042 3.87256 24.4049 4.16818 24.4049 4.16818C23.2713 3.00835 20.8708 3.6906 20.8708 3.6906Z" fill="white"/>
</mask>
<g mask="url(#mask0)">
<path d="M20.8708 3.6906L18.137 0.51709H13.336H8.53504L5.80116 3.6906C5.80116 3.6906 3.40068 3.00835 2.26712 4.16818C2.26712 4.16818 5.46776 3.87256 6.56798 5.70326C6.56798 5.70326 9.53524 6.28318 9.93532 6.28318C10.3354 6.28318 11.2022 5.94205 12.0024 5.66915C12.8026 5.39625 13.336 5.39427 13.336 5.39427C13.336 5.39427 13.8694 5.39625 14.6696 5.66915C15.4698 5.94205 16.3366 6.28318 16.7367 6.28318C17.1368 6.28318 20.104 5.70326 20.104 5.70326C21.2042 3.87256 24.4049 4.16818 24.4049 4.16818C23.2713 3.00835 20.8708 3.6906 20.8708 3.6906Z" fill="url(#paint1_linear)"/>
</g>
<defs>
<linearGradient id="paint0_linear" x1="0" y1="16.7429" x2="26.672" y2="16.7429" gradientUnits="userSpaceOnUse">
<stop stop-color="#FF5500"/>
<stop offset="0.409877" stop-color="#FF5500"/>
<stop offset="0.581981" stop-color="#FF2000"/>
<stop offset="1" stop-color="#FF2000"/>
</linearGradient>
<linearGradient id="paint1_linear" x1="2.74274" y1="3.44081" x2="24.4049" y2="3.44081" gradientUnits="userSpaceOnUse">
<stop stop-color="#FF452A"/>
<stop offset="1" stop-color="#FF2000"/>
</linearGradient>
</defs>
</svg>
