<svg width="123" height="33" viewBox="0 0 123 33" fill="none" xmlns="http://www.w3.org/2000/svg">
<path d="M13.606 32.5166C13.606 32.5166 27.2121 27.8656 27.2121 10.7617V4.61037C27.2121 3.94594 26.7011 3.38867 26.041 3.34581C23.571 3.23864 17.7155 2.72424 13.606 0.516602C9.49655 2.72424 3.64105 3.23864 1.1711 3.34581C0.511025 3.38867 0 3.94594 0 4.61037V10.7617C0 27.8656 13.606 32.5166 13.606 32.5166Z" fill="#00ADEE"/>
<path d="M54.0615 21.7357C54.0615 23.1075 53.7847 24.2434 53.2524 25.1651C52.7201 26.0867 51.9961 26.8369 51.1231 27.3941C50.2288 27.9514 49.2281 28.3586 48.0996 28.6158C46.971 28.8516 45.7999 28.9802 44.6288 28.9802H34.7703V4.05322H44.6288C45.587 4.05322 46.5665 4.16039 47.5672 4.35329C48.568 4.54619 49.4836 4.88913 50.2927 5.38209C51.1018 5.87506 51.7619 6.51806 52.2942 7.33253C52.8052 8.147 53.0608 9.19723 53.0608 10.4618C53.0608 11.855 52.6988 12.9909 51.9322 13.8911C51.187 14.7913 50.2075 15.4558 48.9939 15.8416V15.9059C49.6965 16.0345 50.3566 16.2488 50.9741 16.5703C51.5916 16.8918 52.1239 17.299 52.571 17.792C53.0182 18.285 53.3801 18.8637 53.657 19.5281C53.9125 20.1711 54.0615 20.8998 54.0615 21.7357ZM47.2691 11.2763C47.2691 10.4404 46.9498 9.8188 46.311 9.433C45.6722 9.04719 44.714 8.85429 43.4577 8.85429H40.5194V13.9983H43.7346C44.8631 13.9983 45.7148 13.7625 46.3323 13.3124C46.971 12.8409 47.2691 12.155 47.2691 11.2763ZM48.0783 21.157C48.0783 20.1282 47.695 19.3995 46.9285 19.0137C46.1619 18.6065 45.1399 18.4136 43.841 18.4136H40.5194V24.1148H43.8836C44.352 24.1148 44.8418 24.072 45.3315 23.9862C45.8212 23.9005 46.2897 23.7505 46.6942 23.5576C47.0988 23.3432 47.4395 23.0432 47.695 22.6574C47.9505 22.2716 48.0783 21.7786 48.0783 21.157Z" fill="white"/>
<path d="M62.0037 5.85372C62.0037 6.30382 61.9185 6.71106 61.7482 7.09686C61.5778 7.48266 61.3436 7.82559 61.0455 8.10423C60.7474 8.38286 60.4067 8.59719 60.0022 8.76866C59.5976 8.94013 59.1717 9.00443 58.7246 9.00443C57.7877 9.00443 57.0212 8.70436 56.3824 8.06136C55.7436 7.4398 55.4455 6.68963 55.4455 5.8323C55.4455 5.40363 55.5307 4.99639 55.701 4.61059C55.8714 4.22479 56.1056 3.88186 56.4037 3.60322C56.7018 3.32459 57.0638 3.08883 57.447 2.91736C57.8516 2.74589 58.2775 2.66016 58.7459 2.66016C59.193 2.66016 59.6189 2.74589 60.0235 2.89592C60.428 3.06739 60.79 3.28173 61.0668 3.56036C61.3649 3.83899 61.5991 4.18192 61.7695 4.56772C61.9185 4.97496 62.0037 5.40362 62.0037 5.85372ZM55.8501 11.4478H61.5991V28.9803H55.8501V11.4478Z" fill="white"/>
<path d="M71.99 15.7347V22.4433C71.99 23.2792 72.139 23.8794 72.4584 24.308C72.7778 24.7153 73.3314 24.9296 74.1618 24.9296C74.4386 24.9296 74.7367 24.9082 75.0561 24.8653C75.3755 24.8224 75.631 24.7581 75.844 24.651L75.9078 28.8733C75.5033 29.0234 75.0135 29.1305 74.3961 29.2377C73.7786 29.3449 73.1824 29.3877 72.5649 29.3877C71.3938 29.3877 70.4143 29.2377 69.6265 28.9376C68.8387 28.6376 68.1999 28.2303 67.7101 27.6731C67.2417 27.1158 66.8797 26.4728 66.6668 25.7012C66.4539 24.9296 66.3474 24.0937 66.3474 23.1506V15.7347H63.6006V11.448H66.3687V6.83984H72.0113V11.448H76.0995V15.7347H71.99V15.7347Z" fill="white"/>
<path d="M96.8599 29.023C95.2416 29.4302 93.4743 29.6231 91.558 29.6231C89.5778 29.6231 87.7466 29.3016 86.0858 28.68C84.425 28.037 82.977 27.1583 81.7847 26.0009C80.5923 24.8435 79.6341 23.4717 78.974 21.8642C78.2927 20.2567 77.952 18.4563 77.952 16.4845C77.952 14.4911 78.2926 12.6907 78.9953 11.0618C79.6767 9.43288 80.6349 8.06114 81.8485 6.92517C83.0622 5.78921 84.4888 4.91044 86.1071 4.31031C87.7466 3.71018 89.4926 3.38867 91.3877 3.38867C93.3466 3.38867 95.1565 3.68874 96.8386 4.28888C98.5207 4.88901 99.8835 5.68204 100.927 6.71084L97.158 11.0404C96.5831 10.3545 95.7953 9.79725 94.8584 9.36858C93.9002 8.93991 92.8143 8.72558 91.6006 8.72558C90.5572 8.72558 89.5778 8.91848 88.7048 9.30428C87.8105 9.69008 87.044 10.2259 86.4052 10.9332C85.7451 11.6191 85.2341 12.455 84.8934 13.398C84.5314 14.3411 84.3398 15.3914 84.3398 16.5059C84.3398 17.6633 84.5101 18.7135 84.8295 19.678C85.1489 20.6425 85.6386 21.4784 86.2774 22.1643C86.9162 22.8502 87.704 23.4074 88.6622 23.7932C89.5991 24.179 90.685 24.3719 91.8987 24.3719C92.6013 24.3719 93.2614 24.3291 93.9002 24.2219C94.5177 24.1147 95.1139 23.9433 95.6462 23.7075V19.1636H90.9192V14.2554H101.14V27.4583C99.8835 28.1013 98.4781 28.6157 96.8599 29.023Z" fill="white"/>
<path d="M122.667 20.1498C122.667 21.5859 122.411 22.8719 121.9 24.0507C121.389 25.2081 120.686 26.194 119.792 27.0085C118.898 27.823 117.876 28.4445 116.705 28.8946C115.534 29.3447 114.299 29.5591 112.957 29.5591C111.658 29.5591 110.402 29.3447 109.231 28.8946C108.06 28.4445 107.016 27.823 106.143 27.0085C105.27 26.194 104.568 25.2081 104.057 24.0507C103.546 22.8933 103.29 21.5859 103.29 20.1498C103.29 18.7138 103.546 17.4278 104.057 16.2704C104.568 15.113 105.27 14.1485 106.143 13.3555C107.016 12.5624 108.039 11.9409 109.231 11.5336C110.402 11.105 111.658 10.8906 112.957 10.8906C114.277 10.8906 115.534 11.105 116.705 11.5336C117.876 11.9623 118.898 12.5624 119.792 13.3555C120.686 14.1485 121.368 15.1344 121.9 16.2704C122.411 17.4278 122.667 18.7138 122.667 20.1498ZM117.152 20.1498C117.152 19.5926 117.067 19.0353 116.875 18.4995C116.683 17.9636 116.428 17.4921 116.066 17.0634C115.725 16.6562 115.278 16.3133 114.767 16.0561C114.256 15.7989 113.66 15.6703 112.978 15.6703C112.297 15.6703 111.701 15.7989 111.19 16.0561C110.679 16.3133 110.253 16.6562 109.912 17.0634C109.572 17.4707 109.316 17.9422 109.146 18.4995C108.975 19.0353 108.89 19.5926 108.89 20.1498C108.89 20.7071 108.975 21.2644 109.146 21.8002C109.316 22.336 109.572 22.829 109.934 23.2577C110.274 23.6863 110.721 24.0507 111.232 24.3079C111.743 24.5651 112.34 24.6937 113.021 24.6937C113.702 24.6937 114.299 24.5651 114.81 24.3079C115.321 24.0507 115.746 23.7078 116.108 23.2577C116.449 22.829 116.726 22.336 116.896 21.8002C117.067 21.2644 117.152 20.7071 117.152 20.1498Z" fill="white"/>
<path d="M19.0995 13.0122C18.9292 11.1475 17.3535 10.5045 15.3307 10.3116V7.69673H13.755V10.2259C13.3505 10.2259 12.9033 10.2259 12.4775 10.2259V7.67529H10.9018L10.9231 10.2687C10.5824 10.2687 7.77179 10.2902 7.77179 10.2902V11.9405H9.7733V20.2781H8.00601L7.98472 22.1857C7.98472 22.1857 10.476 22.1642 10.8379 22.1857V24.8005H12.3923V22.2071C12.8182 22.2285 13.244 22.2285 13.6486 22.2285V24.8005H15.2242V22.1857C17.8645 22.0571 19.6957 21.3926 19.9512 18.9064C20.1429 16.9131 19.2273 15.9914 17.7368 15.6271C18.6524 15.1984 19.2273 14.3839 19.0995 13.0122ZM16.8638 18.5849C16.8425 20.5353 13.5421 20.2995 12.4988 20.2995V16.8273C13.5421 16.8273 16.8851 16.5487 16.8638 18.5849ZM16.1611 13.6981C16.1398 15.477 13.3931 15.2627 12.5201 15.2413V12.0906C13.3931 12.0906 16.1824 11.8334 16.1611 13.6981Z" fill="white"/>
</svg>
