<svg width="187" height="29" viewBox="0 0 187 29" fill="none" xmlns="http://www.w3.org/2000/svg">
<g clip-path="url(#clip0)">
<path d="M101.081 5.69926V11.9641H101.137C102.169 10.6036 103.641 9.9231 105.554 9.9231C106.408 9.9231 107.216 10.0631 107.976 10.3425C108.737 10.6219 109.414 11.0432 110.004 11.6071C110.594 12.1703 111.056 12.8742 111.389 13.7193C111.723 14.5638 111.889 15.5396 111.889 16.6458C111.889 17.8927 111.662 19.0513 111.204 20.1217C110.746 21.1926 110.034 22.0497 109.069 22.6949C108.102 23.3395 106.903 23.6631 105.471 23.6631C103.403 23.6631 101.931 23.0015 101.053 21.6794H100.998V23.3206H97.07V5.69926H101.081ZM86.0121 9.55521C93.6439 9.55521 92.9911 17.7859 92.9911 17.7859H82.5436C82.9663 19.4239 84.3707 20.5005 86.3057 20.5005C88.6369 20.5005 89.8931 19.0865 89.8931 19.0865L92.1112 21.362C90.9694 22.5005 89.4361 23.5406 86.2721 23.5406C81.3796 23.5406 78.7706 20.2892 78.7706 16.843C78.7706 13.3969 80.728 9.55521 86.0121 9.55521ZM181.042 9.54923C184.326 9.54923 186.414 10.8062 186.414 10.8062L185.065 13.7106C180.695 11.435 178.715 13.0389 178.715 13.8406C178.715 14.6429 179.498 14.7077 182.542 15.2717C185.586 15.8355 187 17.1132 187 19.1726C187 21.2319 185.238 23.5081 180.933 23.5081C176.627 23.5081 174.671 22.1205 174.671 22.1205L175.976 19.2375C179.347 21.3838 183.173 20.6893 183.173 19.4116C183.173 18.4523 181.901 18.2491 180.531 18.0884L179.942 18.02C179.68 17.9891 179.421 17.9559 179.173 17.9156C177.433 17.6336 174.845 16.7021 174.845 14.014C174.845 11.3266 177.759 9.54923 181.042 9.54923ZM161.818 4.7812V15.4238L167.527 9.91768H172.191L166.534 15.3746L172.745 23.5082H168.114L163.867 17.9478L161.818 19.9226V23.5082H158.002V4.7812H161.818ZM148.141 9.46307C150.848 9.46307 153.218 10.8159 154.528 12.8437L151.303 14.7485C150.698 13.5955 149.508 12.8115 148.141 12.8115C146.159 12.8115 144.553 14.4564 144.553 16.4854C144.553 18.5137 146.159 20.1592 148.141 20.1592C149.446 20.1592 150.583 19.4447 151.212 18.3788L154.453 20.2393C153.128 22.2034 150.798 23.5082 148.141 23.5082C144.016 23.5082 140.672 20.3635 140.672 16.4854C140.672 12.6065 144.016 9.46307 148.141 9.46307ZM130.407 9.46244C134.531 9.46244 137.876 12.6071 137.876 16.4847C137.876 20.3635 134.531 23.5077 130.407 23.5077C126.28 23.5077 122.937 20.3635 122.937 16.4847C122.937 12.6071 126.28 9.46244 130.407 9.46244ZM62.59 9.85284V23.3784H58.4476V9.85284H62.59ZM54.728 5.75615V9.13738H45.4648V13.6242H53.6511V16.9733H45.4648V23.3781H41.3219V5.75615H54.728ZM71.4305 11.543C71.4305 11.543 72.8984 9.23463 75.9315 9.59286V13.3639C75.9315 13.3639 72.6371 12.5187 71.4305 15.9327V23.3777H67.484V9.85271H71.257L71.4305 11.4459V11.543ZM118.989 4.71573V23.28H114.814V4.71573H118.989ZM104.348 12.895C102.058 12.895 100.914 14.2939 100.914 17.0929C100.914 18.1539 101.209 19.0438 101.798 19.7628C102.388 20.4812 103.277 20.8406 104.466 20.8406C105.259 20.8406 105.902 20.6331 106.397 20.2182C106.891 19.8026 107.241 19.2948 107.448 18.6937C107.656 18.0933 107.76 17.4935 107.76 16.895C107.76 15.7445 107.488 14.7916 106.945 14.0328C106.402 13.2741 105.536 12.895 104.348 12.895ZM130.407 12.8115C128.424 12.8115 126.818 14.4557 126.818 16.4847C126.818 18.5143 128.424 20.1592 130.407 20.1592C132.387 20.1592 133.993 18.5143 133.993 16.4847C133.993 14.4557 132.387 12.8115 130.407 12.8115ZM86.0769 12.5025C84.0585 12.5025 82.9364 13.7519 82.5575 15.3798H89.3223C89.2892 14.9566 88.621 12.5025 86.0769 12.5025ZM60.5189 3.47998C61.8628 3.47998 62.9538 4.4847 62.9538 5.72341C62.9538 6.96212 61.8628 7.96684 60.5189 7.96684C59.1744 7.96684 58.0835 6.96212 58.0835 5.72341C58.0835 4.4847 59.1744 3.47998 60.5189 3.47998Z" fill="white"/>
<path d="M27.4778 0.326172C28.1017 0.326172 28.6075 0.834451 28.6075 1.46145V27.5727C28.6075 28.1997 28.1017 28.708 27.4778 28.708H1.12975C0.505805 28.708 0 28.1997 0 27.5727V1.46145C0 0.834451 0.505805 0.326172 1.12975 0.326172H27.4778ZM14.3038 8.21002L6.35716 20.8242H22.2502L14.3038 8.21002Z" fill="white"/>
</g>
<defs>
<clipPath id="clip0">
<rect width="187" height="28.3818" fill="white" transform="translate(0 0.326172)"/>
</clipPath>
</defs>
</svg>
