<svg width="113" height="33" viewBox="0 0 113 33" fill="none" xmlns="http://www.w3.org/2000/svg">
<path d="M83.0293 11.1896C82.9103 11.1896 82.6723 11.1597 82.1963 11.1597C81.75 11.1597 81.3632 11.1896 80.9765 11.2796C79.4296 11.5794 78.4179 12.4489 77.5552 13.3483V11.5494H72.6761V27.4994H77.5552V20.8436C77.5552 20.0641 77.585 19.3445 77.6742 18.6849C77.7635 18.0254 77.942 17.4557 78.2395 17.006C78.5371 16.5263 78.9535 16.1665 79.489 15.8967C80.0245 15.6268 80.7683 15.507 81.6905 15.507C82.0476 15.507 82.4045 15.5369 82.7615 15.5969C83.0888 15.6568 83.4458 15.7467 83.7731 15.8367V11.3396C83.5648 11.2796 83.2971 11.2196 83.0293 11.1896Z" fill="white"/>
<path d="M96.06 11.1896C95.9409 11.1896 95.7029 11.1597 95.227 11.1597C94.7807 11.1597 94.394 11.1896 94.0072 11.2796C92.4602 11.5794 91.4487 12.4489 90.5859 13.3483V11.5494H85.7069V27.4994H90.5859V20.8436C90.5859 20.0641 90.6157 19.3445 90.7048 18.6849C90.7941 18.0254 90.9726 17.4557 91.2702 17.006C91.5677 16.5263 91.9841 16.1665 92.5197 15.8967C93.0552 15.6268 93.7989 15.507 94.7212 15.507C95.0782 15.507 95.4352 15.5369 95.7922 15.5969C96.1195 15.6568 96.4765 15.7467 96.8037 15.8367V11.3396C96.6252 11.2796 96.3575 11.2196 96.06 11.1896Z" fill="white"/>
<path d="M44.6217 10.9197H38.0469V6.39258H56.254V10.9197H49.6792V27.4993H44.5919V10.9197H44.6217Z" fill="white"/>
<path d="M69.9986 24.7411C69.2252 25.7605 68.2434 26.5099 67.0237 27.0796C65.8337 27.6193 64.5841 27.8891 63.3048 27.8891C62.0852 27.8891 60.9546 27.6792 59.8836 27.2895C58.8126 26.8998 57.8903 26.3301 57.0871 25.6106C56.2838 24.891 55.659 23.9916 55.2128 22.9722C54.7665 21.9529 54.5286 20.7836 54.5286 19.5244C54.5286 18.2652 54.7665 17.0959 55.2128 16.0765C55.659 15.0572 56.2838 14.1578 57.0871 13.4382C57.8903 12.7187 58.8126 12.1491 59.8836 11.7593C60.9546 11.3695 62.1149 11.1597 63.3048 11.1597C64.4354 11.1597 65.4469 11.3695 66.3691 11.7593C67.2914 12.1491 68.0649 12.7187 68.7195 13.4382C69.3442 14.1578 69.85 15.0572 70.2069 16.0765C70.564 17.0959 70.7127 18.2652 70.7127 19.5244V21.0535H59.3779C59.5861 21.9829 60.0026 22.7324 60.6571 23.302C61.3117 23.8717 62.1149 24.1415 63.0669 24.1415C63.8702 24.1415 64.5544 23.9616 65.0898 23.6018C65.6552 23.2421 66.1311 22.7623 66.5477 22.2227L69.9986 24.7411ZM65.8634 17.7255C65.8932 16.886 65.6254 16.1965 65.0602 15.5969C64.4949 14.9973 63.7809 14.6974 62.8884 14.6974C62.3528 14.6974 61.8769 14.7874 61.4603 14.9673C61.0439 15.1471 60.6868 15.357 60.3893 15.6269C60.0919 15.8967 59.8539 16.2265 59.7051 16.5862C59.5563 16.946 59.4373 17.3358 59.4373 17.7255H65.8634Z" fill="white"/>
<path d="M97.369 22.9123V22.8523C97.369 19.3145 100.106 17.6656 104.003 17.6656C105.669 17.6656 106.859 17.9354 108.049 18.3252V18.0553C108.049 16.1366 106.859 15.0872 104.509 15.0872C102.724 15.0872 101.474 15.417 99.9572 15.9566L98.797 12.4489C100.612 11.6694 102.397 11.1597 105.193 11.1597C107.752 11.1597 109.596 11.8193 110.757 12.9885C111.976 14.1877 112.542 15.9866 112.542 18.1752V27.5893H108.02V25.8204C106.889 27.0496 105.312 27.8891 103.022 27.8891C99.9275 27.8891 97.369 26.1202 97.369 22.9123ZM108.109 21.8629V21.593C108.109 21.2333 107.871 20.9335 107.544 20.8136C106.83 20.5737 105.997 20.4239 105.104 20.4239C103.111 20.4239 101.861 21.2033 101.861 22.6724V22.7324C101.861 23.9616 102.903 24.7112 104.42 24.7112C106.621 24.7112 108.109 23.5419 108.109 21.8629Z" fill="white"/>
<path fill-rule="evenodd" clip-rule="evenodd" d="M18.134 0.575684C22.0554 0.575684 25.689 1.98964 28.4592 4.41874C32.1647 7.28292 31.0855 17.7244 27.344 14.9691C19.1054 14.9327 3.77955 10.5096 8.34852 4.41874C8.81622 3.8024 9.39183 3.29483 10.0394 2.82352H10.0034C10.1114 2.76913 10.2193 2.70568 10.3272 2.64224C10.4351 2.57879 10.5431 2.51535 10.651 2.46096H10.651C10.9748 2.27968 11.2986 2.0984 11.6583 1.95339C13.637 1.08326 15.8316 0.575684 18.134 0.575684ZM20.9043 32.4078C19.2495 32.5166 15.9396 29.9062 15.0043 26.462C13.2414 19.9359 27.488 16.6005 28.819 16.4917C32.4526 16.6005 33.3521 20.9512 30.6899 25.4468C27.2361 31.2114 20.9763 32.4078 20.9043 32.4078Z" fill="#2849A9"/>
<path fill-rule="evenodd" clip-rule="evenodd" d="M2.26842 9.63924C3.41965 9.96555 10.471 7.71771 12.5576 4.52726C12.5936 4.49099 14.2125 1.98938 11.0826 1.95312C10.7228 1.95312 9.71548 1.98938 8.74412 2.56946C8.27644 2.85951 7.84472 3.14955 7.41301 3.47585C6.73951 3.97596 6.10094 4.58167 5.49729 5.15425H5.49728L5.4703 5.17985C4.8587 5.75993 4.28308 6.44879 3.77942 7.13763C3.27575 7.82648 2.80805 8.58785 2.41232 9.3492C2.39433 9.40359 2.36735 9.4489 2.34037 9.49423C2.31338 9.53954 2.2864 9.58487 2.26842 9.63924ZM10.615 32.4076C10.8308 32.0813 10.9747 28.1295 10.8308 27.1144C10.6869 26.0992 10.3631 24.0326 8.42041 20.6246C8.09663 20.0808 6.54965 17.5429 5.39841 15.984C4.75083 15.0743 4.03904 14.2294 3.32726 13.3844H3.32725C2.73409 12.6802 2.14093 11.9761 1.58493 11.2345C1.54896 11.3252 1.52198 11.4067 1.49499 11.4883C1.46801 11.5699 1.44103 11.6514 1.40506 11.7421C1.11725 12.576 0.901388 13.4461 0.757483 14.3525C0.613578 15.2589 0.541626 16.1653 0.541626 17.1079C0.541626 18.0506 0.613578 18.9569 0.757483 19.8632C0.901388 20.7696 1.15322 21.6398 1.40506 22.4737C1.65689 23.3076 2.01665 24.1414 2.41239 24.9028C2.80812 25.6641 3.27581 26.4255 3.77948 27.1144C4.28315 27.8032 4.85877 28.4558 5.47036 29.0721C6.04598 29.6884 6.72953 30.2685 7.41308 30.7762H7.41314H7.41321C7.95281 31.1387 8.4924 31.5013 9.032 31.8275C10.0234 32.4132 10.3976 32.4096 10.5867 32.4078C10.5966 32.4077 10.606 32.4076 10.615 32.4076ZM34.1793 17.1079C34.1793 19.3194 33.7475 21.4223 32.9921 23.3438C31.1594 25.325 19.5738 20.9301 17.7599 20.2421C17.6155 20.1872 17.5329 20.1559 17.5223 20.1532C15.6876 19.3557 10.1472 16.8903 9.64355 13.0472C8.92402 7.50017 20.0767 3.62085 25.0054 3.47583C25.581 3.47583 27.3798 3.51209 28.4231 4.34595C31.9488 7.46392 34.1793 12.0321 34.1793 17.1079ZM22.5232 30.9212C22.0915 32.3352 23.7104 32.8427 25.1495 32.1538C28.0275 30.6311 30.402 28.2746 32.0208 25.4829C32.1288 25.3378 32.0208 25.1929 31.841 25.2291C30.294 25.3741 23.3146 28.1657 22.5232 30.9212Z" fill="#5795ED"/>
</svg>
