<svg width="108" height="33" viewBox="0 0 108 33" fill="none" xmlns="http://www.w3.org/2000/svg">
<path fill-rule="evenodd" clip-rule="evenodd" d="M9.41119 4.68363C10.0534 3.94995 10.6386 3.32378 11.1975 2.79945C1.74854 2.49203 4.49907 9.39314 1.42001 16.4064C-2.12572 24.4836 1.83721 27.5616 7.74239 28.5207C6.92386 27.5446 6.2556 26.428 5.74693 25.2229C1.91841 20.353 3.45933 11.481 9.41119 4.68363Z" fill="#B3D234"/>
<path fill-rule="evenodd" clip-rule="evenodd" d="M32.1478 13.2876C31.2686 15.7895 29.6549 18.5969 27.3738 21.3599C25.5958 23.5129 23.619 25.2085 21.5788 26.4363C19.2202 27.98 16.2942 28.891 13.0229 28.891C11.1917 28.891 9.3913 28.7882 7.7421 28.5204C8.7165 29.6813 9.9009 30.645 11.2784 31.3174C19.8213 35.4913 20.3608 27.7377 29.3992 23.8034C34.4746 21.5939 34.4932 17.2748 32.1478 13.2876Z" fill="#0095D9"/>
<path fill-rule="evenodd" clip-rule="evenodd" d="M21.576 5.21882C22.8359 5.45081 24.0316 5.86951 25.1021 6.4806C27.9711 8.12053 30.5845 10.6299 32.1478 13.2874C33.6869 8.90796 32.9701 5.46495 29.6026 4.84161C25.9019 4.15791 23.0087 3.93819 20.2282 1.97668C16.8039 -0.439365 13.8022 0.357496 11.1973 2.79994C11.3811 2.80561 11.5687 2.81409 11.762 2.82541C15.3759 3.04042 18.8244 3.75147 21.576 5.21882Z" fill="#EEE809"/>
<path fill-rule="evenodd" clip-rule="evenodd" d="M9.41125 4.6835C3.4594 11.4809 1.91846 20.3529 5.74699 25.2227C4.02779 21.146 4.14726 16.0611 6.57019 12.0014C9.79578 6.59597 16.2656 4.23933 21.5762 5.21914C18.8248 3.75084 15.3762 3.04074 11.7633 2.82478C11.5691 2.81347 11.3815 2.80592 11.1976 2.79932C10.6386 3.32364 10.0533 3.94982 9.41125 4.6835Z" fill="#51B849"/>
<path fill-rule="evenodd" clip-rule="evenodd" d="M25.1021 6.48053C24.0315 5.8685 22.8359 5.45074 21.5759 5.21875C25.1991 7.15102 27.6099 10.3979 27.5828 15.5694C27.5586 20.0564 25.2644 24.0219 21.5787 26.436C23.6189 25.2082 25.5967 23.5126 27.3738 21.3597C29.6558 18.5966 31.2686 15.7892 32.1478 13.2873C30.5845 10.6299 27.9711 8.11952 25.1021 6.48053Z" fill="#00845D"/>
<path fill-rule="evenodd" clip-rule="evenodd" d="M20.9799 23.9776C16.8892 26.6332 11.4347 25.4488 8.79624 21.3315C6.15771 17.2142 7.46251 11.9125 11.4245 9.06644C15.8551 5.88465 21.5371 7.13982 23.6082 11.7125C25.628 16.1712 25.0698 21.3221 20.9799 23.9776ZM21.5764 5.21886C16.2657 4.24 9.79584 6.59569 6.57024 12.0011C4.14732 16.0609 4.02691 21.1467 5.74705 25.2225C6.25571 26.4277 6.92304 27.5451 7.74251 28.5212C9.3917 28.789 11.1921 28.8909 13.0223 28.8909C16.2946 28.8909 19.2207 27.9799 21.5783 26.4361C25.2648 24.0229 27.559 20.0565 27.5823 15.5696C27.6103 10.398 25.1986 7.15114 21.5764 5.21886Z" fill="#005121"/>
<path fill-rule="evenodd" clip-rule="evenodd" d="M89.2175 12.178C88.2944 12.178 87.4058 12.4251 86.5771 12.9126C85.7473 13.4002 85.0912 14.065 84.6264 14.8892C84.1607 15.7143 83.9246 16.6489 83.9246 17.6674C83.9246 19.1913 84.4322 20.4409 85.4757 21.4895C86.5201 22.5372 87.7446 23.0474 89.2175 23.0474C90.19 23.0474 91.1019 22.806 91.9288 22.3297C92.7538 21.8554 93.4053 21.1971 93.8673 20.3739C94.3302 19.5478 94.5645 18.6161 94.5645 17.6033C94.5645 16.598 94.3302 15.6776 93.8682 14.8675C93.4063 14.0584 92.7464 13.4011 91.9054 12.9136C91.0645 12.4251 90.1601 12.178 89.2175 12.178ZM89.2669 24.9976C87.2154 24.9976 85.458 24.2771 84.044 22.8559C82.6299 21.4348 81.9132 19.6902 81.9132 17.6721C81.9132 16.3293 82.2389 15.0675 82.8829 13.9198C83.5269 12.7712 84.4173 11.8593 85.5308 11.2077C86.6433 10.5569 87.8641 10.2278 89.1586 10.2278C91.2521 10.2278 93.031 10.9445 94.4451 12.36C95.859 13.7756 96.5767 15.5408 96.5767 17.6079C96.5767 19.6562 95.8609 21.4188 94.4506 22.8465C93.0395 24.2743 91.2959 24.9976 89.2669 24.9976ZM103.465 24.9977C102.598 24.9977 101.799 24.7601 101.092 24.2914C100.393 23.8284 99.7461 23.0533 99.1682 21.9867C99.0861 21.8358 99.1366 21.6463 99.283 21.5566L100.416 20.8711C100.57 20.7767 100.771 20.8324 100.858 20.9936C101.591 22.3563 102.426 23.0476 103.339 23.0476C103.73 23.0476 104.104 22.9532 104.447 22.7694C104.79 22.5855 105.042 22.3488 105.218 22.0451C105.396 21.7387 105.483 21.4237 105.483 21.0823C105.483 20.6966 105.353 20.3231 105.087 19.9422C104.691 19.3745 103.948 18.6728 102.875 17.8552C101.73 16.981 101.029 16.3577 100.737 15.9494C100.229 15.2657 99.9703 14.5085 99.9703 13.7031C99.9703 13.0637 100.125 12.4706 100.431 11.9415C100.735 11.4106 101.171 10.9872 101.725 10.6826C102.274 10.3808 102.877 10.2271 103.52 10.2271C104.2 10.2271 104.845 10.3997 105.437 10.7401C106.028 11.0805 106.627 11.6765 107.27 12.563C107.372 12.7044 107.343 12.9024 107.205 13.008L106.12 13.8408C105.979 13.9483 105.779 13.9199 105.673 13.7785C105.2 13.1439 104.799 12.7261 104.482 12.5347C104.177 12.3498 103.854 12.2603 103.492 12.2603C103.036 12.2603 102.677 12.3923 102.396 12.6648C102.117 12.9335 101.983 13.2551 101.983 13.6484C101.983 13.8945 102.035 14.1369 102.136 14.368C102.24 14.6056 102.441 14.8743 102.731 15.1676C102.84 15.2742 103.224 15.592 104.415 16.4813C105.609 17.3715 106.41 18.1495 106.863 18.8596C107.324 19.581 107.557 20.3194 107.557 21.0549C107.557 22.1168 107.155 23.0495 106.361 23.8275C105.57 24.6045 104.597 24.9977 103.465 24.9977ZM78.7745 24.6593H77.143C77.0544 24.6593 76.975 24.6046 76.9414 24.5217L74.8731 19.5048C74.8218 19.3755 74.6417 19.3755 74.5904 19.5048L72.5155 24.5217C72.4819 24.6046 72.4016 24.6593 72.313 24.6593H70.6806C70.5219 24.6593 70.4165 24.4934 70.4837 24.3472L73.4592 17.6715C73.5403 17.4961 73.5403 17.2923 73.46 17.1169L70.7787 11.0466C70.676 10.8223 70.8392 10.5657 71.0847 10.5657H72.4577C72.5902 10.5657 72.7097 10.6469 72.7582 10.7713L74.5904 15.2517C74.6436 15.3894 74.8368 15.3894 74.8908 15.2517L76.7352 10.7685C76.7837 10.6459 76.9004 10.5657 77.031 10.5657H78.4188C78.6523 10.5657 78.8062 10.81 78.7082 11.0231L76.0109 17.1075C75.9296 17.2848 75.9296 17.4885 76.0109 17.6658L78.9723 24.3481C79.0386 24.4934 78.9331 24.6593 78.7745 24.6593ZM43.679 10.9477C43.679 10.7374 43.848 10.5658 44.057 10.5658H48.86C51.2232 10.5658 53.1383 12.5019 53.1383 14.8896V15.0066C53.1383 17.4226 51.1999 19.3813 48.8087 19.3813H45.8854C45.7463 19.3813 45.6335 19.4954 45.6335 19.6359V24.2775C45.6335 24.4888 45.4645 24.6594 45.2555 24.6594H44.057C43.848 24.6594 43.679 24.4888 43.679 24.2775V10.9477ZM45.6335 17.1519C45.6335 17.2924 45.7463 17.4065 45.8854 17.4065H49.0672C50.2367 17.4065 51.1849 16.4484 51.1849 15.2678V14.7189C51.1849 13.5156 50.219 12.5405 49.0279 12.5405H45.8854C45.7463 12.5405 45.6335 12.6546 45.6335 12.7951V17.1519ZM65.9164 24.659C65.782 24.659 65.6588 24.5808 65.6019 24.4573L64.5491 22.1996C64.4912 22.077 64.3681 21.9978 64.2327 21.9978H57.663C57.5286 21.9978 57.4053 22.076 57.3476 22.1996L56.2891 24.4582C56.2313 24.5808 56.1089 24.659 55.9736 24.659H54.5578C54.302 24.659 54.1331 24.3903 54.2423 24.1564L60.5031 10.7672C60.5609 10.6447 60.6833 10.5654 60.8186 10.5654H61.1051C61.2414 10.5654 61.3646 10.6447 61.4215 10.7691L67.6011 24.1583C67.7094 24.3912 67.5404 24.659 67.2847 24.659H65.9164ZM58.4722 19.7996C58.4096 19.9316 58.5058 20.0844 58.6504 20.0844H63.2285C63.3834 20.0844 63.486 19.9213 63.4197 19.7798L61.1574 14.9298C61.0771 14.7572 60.8344 14.7572 60.7542 14.9289L58.4722 19.7996Z" fill="white"/>
</svg>
