<svg width="171" height="33" viewBox="0 0 171 33" fill="none" xmlns="http://www.w3.org/2000/svg">
<path d="M56.0509 10.0021C56.9854 10.6728 57.4406 11.6069 57.4406 12.7566C57.4406 13.5949 57.201 14.3135 56.7458 14.9123C56.2665 15.5111 55.6436 15.9183 54.805 16.1099C55.8113 16.3015 56.602 16.7326 57.177 17.4033C57.7521 18.074 58.0396 18.9123 58.0396 19.9183C58.0396 21.2117 57.5365 22.2177 56.5301 22.9602C55.5238 23.7027 54.158 24.062 52.4329 24.062H45.5322V8.97217H52.2412C53.8465 8.99612 55.1164 9.33145 56.0509 10.0021ZM53.8465 14.6488C54.2778 14.3135 54.4935 13.8584 54.4935 13.2596C54.4935 12.6847 54.2778 12.2297 53.8465 11.9183C53.4152 11.6069 52.8402 11.4632 52.0974 11.4632H48.4315V15.1279H52.0974C52.8402 15.1518 53.4152 14.9841 53.8465 14.6488ZM54.2539 21.068C54.781 20.7087 55.0206 20.2057 55.0206 19.559C55.0206 18.9362 54.757 18.4572 54.2539 18.0979C53.7267 17.7386 53.0079 17.571 52.0974 17.5949H48.4315V21.571H52.0974C53.0079 21.5949 53.7267 21.4273 54.2539 21.068Z" fill="white"/>
<path d="M69.349 11.8945C68.6302 11.5592 67.8874 11.3676 67.1446 11.3676C66.2102 11.3676 65.3476 11.5831 64.5808 12.0382C63.8141 12.4933 63.1911 13.0921 62.7598 13.8825C62.3046 14.673 62.0889 15.5352 62.0889 16.4694C62.0889 17.4035 62.3046 18.2658 62.7598 19.0562C63.2151 19.8466 63.8141 20.4694 64.5808 20.9005C65.3476 21.3556 66.2102 21.5712 67.1446 21.5712C67.8634 21.5712 68.5823 21.4035 69.3011 21.0921C70.0199 20.7807 70.6668 20.3496 71.2419 19.7747L72.9431 21.667C72.1524 22.4813 71.2419 23.1041 70.1876 23.5831C69.1333 24.0622 68.0791 24.2777 67.0009 24.2777C65.5393 24.2777 64.2214 23.9424 63.0234 23.2478C61.8254 22.5532 60.867 21.6191 60.1721 20.4454C59.4773 19.2478 59.1418 17.9544 59.1418 16.5173C59.1418 15.0801 59.5012 13.7628 60.1961 12.5891C60.8909 11.4155 61.8493 10.4813 63.0713 9.81068C64.2933 9.14002 65.6351 8.80469 67.1207 8.80469C68.1989 8.80469 69.2531 9.02026 70.2834 9.4514C71.3138 9.88253 72.2003 10.4813 72.9431 11.2478L71.2658 13.3556C70.7147 12.7328 70.0678 12.2298 69.349 11.8945Z" fill="white"/>
<path d="M85.1629 10.0021C86.0974 10.6728 86.5527 11.6069 86.5527 12.7566C86.5527 13.5949 86.313 14.3135 85.8578 14.9123C85.3786 15.5111 84.7556 15.9183 83.917 16.1099C84.9233 16.3015 85.714 16.7326 86.2891 17.4033C86.8641 18.074 87.1517 18.9123 87.1517 19.9183C87.1517 21.2117 86.6485 22.2177 85.6422 22.9602C84.6358 23.7027 83.2701 24.062 81.5449 24.062H74.6443V8.97217H81.3532C82.9825 8.99612 84.2524 9.33145 85.1629 10.0021ZM82.9825 14.6488C83.4138 14.3135 83.6295 13.8584 83.6295 13.2596C83.6295 12.6847 83.4138 12.2297 82.9825 11.9183C82.5512 11.6069 81.9762 11.4632 81.2334 11.4632H77.5675V15.1279H81.2334C81.9522 15.1518 82.5512 14.9841 82.9825 14.6488ZM83.3659 21.068C83.893 20.7087 84.1326 20.2057 84.1326 19.559C84.1326 18.9362 83.8691 18.4572 83.3659 18.0979C82.8388 17.7386 82.12 17.571 81.2095 17.5949H77.5435V21.571H81.2095C82.1439 21.5949 82.8627 21.4273 83.3659 21.068Z" fill="white"/>
<path d="M106.416 16.7088H107.734V22.2178C106.991 22.8405 106.152 23.3196 105.17 23.6789C104.212 24.0381 103.205 24.2058 102.199 24.2058C100.785 24.2058 99.4674 23.8705 98.2693 23.1759C97.0713 22.4813 96.1129 21.5471 95.418 20.3735C94.7232 19.1998 94.3638 17.9064 94.3638 16.5172C94.3638 15.128 94.7232 13.8345 95.418 12.6848C96.1129 11.5112 97.0713 10.601 98.2933 9.9064C99.5153 9.23575 100.833 8.87646 102.271 8.87646C103.301 8.87646 104.283 9.06808 105.242 9.40341C106.2 9.76269 107.039 10.2657 107.782 10.9124L106.919 11.9663C106.296 11.3914 105.577 10.9603 104.787 10.6489C103.972 10.3375 103.157 10.1938 102.295 10.1938C101.121 10.1938 100.066 10.4813 99.084 11.0561C98.1016 11.631 97.3349 12.3974 96.7598 13.3555C96.1848 14.3136 95.8972 15.3675 95.8972 16.5172C95.8972 17.6908 96.1848 18.7447 96.7598 19.7268C97.3349 20.7088 98.1256 21.4753 99.108 22.0262C100.09 22.601 101.169 22.8884 102.343 22.8884C103.061 22.8884 103.78 22.7687 104.499 22.5292C105.218 22.2896 105.865 21.9543 106.464 21.5232V16.7088H106.416Z" fill="white"/>
<path d="M121.152 24.0859L117.893 19.1757C117.438 19.1997 117.078 19.2236 116.839 19.2236H112.694V24.0859H111.208V8.99609H116.839C118.732 8.99609 120.169 9.42723 121.2 10.2895C122.23 11.1518 122.733 12.3973 122.733 13.9781C122.733 15.2236 122.422 16.2775 121.823 17.0919C121.224 17.9302 120.361 18.5051 119.235 18.8404L122.853 24.038H121.152V24.0859ZM116.839 17.8584C118.276 17.8584 119.379 17.523 120.169 16.8763C120.936 16.2296 121.343 15.2715 121.343 14.05C121.343 12.8524 120.96 11.9182 120.169 11.2955C119.403 10.6727 118.276 10.3374 116.839 10.3374H112.694V17.8584H116.839Z" fill="white"/>
<path d="M136.391 9.9064C137.589 10.601 138.547 11.5112 139.242 12.6848C139.937 13.8585 140.296 15.128 140.296 16.5172C140.296 17.9064 139.937 19.1998 139.242 20.3735C138.547 21.5471 137.589 22.4813 136.391 23.1759C135.193 23.8705 133.875 24.2058 132.437 24.2058C130.999 24.2058 129.682 23.8705 128.484 23.1759C127.286 22.4813 126.327 21.5471 125.632 20.3735C124.937 19.1998 124.578 17.9064 124.578 16.5172C124.578 15.128 124.937 13.8345 125.632 12.6848C126.327 11.5112 127.286 10.601 128.484 9.9064C129.682 9.23575 130.999 8.87646 132.437 8.87646C133.875 8.87646 135.193 9.21179 136.391 9.9064ZM129.274 11.0561C128.292 11.607 127.525 12.3735 126.95 13.3316C126.375 14.2896 126.088 15.3435 126.088 16.4932C126.088 17.6429 126.375 18.6968 126.95 19.6789C127.525 20.6609 128.292 21.4274 129.274 22.0022C130.257 22.5771 131.311 22.8645 132.461 22.8645C133.587 22.8645 134.641 22.5771 135.624 22.0022C136.582 21.4274 137.373 20.6609 137.948 19.6789C138.523 18.6968 138.811 17.6429 138.811 16.4932C138.811 15.3435 138.523 14.2896 137.948 13.3316C137.373 12.3735 136.606 11.607 135.624 11.0561C134.665 10.5052 133.611 10.2178 132.461 10.2178C131.311 10.2178 130.233 10.5052 129.274 11.0561Z" fill="white"/>
<path d="M145.448 21.5709C146.286 22.4332 147.46 22.8644 148.946 22.8644C150.431 22.8644 151.606 22.4332 152.444 21.5709C153.283 20.7087 153.69 19.5111 153.69 17.9542V8.99609H155.176V17.9542C155.176 19.9182 154.625 21.4512 153.522 22.553C152.42 23.6548 150.887 24.2057 148.946 24.2057C146.981 24.2057 145.472 23.6548 144.345 22.553C143.243 21.4512 142.692 19.9182 142.692 17.9542V8.99609H144.178V17.9542C144.202 19.5111 144.609 20.7087 145.448 21.5709Z" fill="white"/>
<path d="M168.737 10.3135C169.768 11.1757 170.271 12.4212 170.271 14.0021C170.271 15.6548 169.768 16.9242 168.737 17.8344C167.707 18.7446 166.269 19.1997 164.4 19.1997H160.327V24.062H158.842V8.99609H164.4C166.269 8.99609 167.707 9.45118 168.737 10.3135ZM167.659 16.8763C168.45 16.2296 168.833 15.2715 168.833 14.05C168.833 12.8524 168.45 11.9182 167.659 11.2955C166.892 10.6727 165.766 10.3374 164.305 10.3374H160.303V17.8584H164.305C165.766 17.8584 166.892 17.547 167.659 16.8763Z" fill="white"/>
<path d="M13.4011 27.1516L11.1728 31.0079L10.2862 32.5168H28.017L36.8824 17.1875H30.6767L24.9261 27.1516H13.4011Z" fill="white"/>
<path d="M12.2271 26.5049L6.47653 16.5168L12.2271 6.55277L9.13615 1.1875L0.270752 16.5168L9.13615 31.8701L10.0227 30.3372L12.2271 26.5049Z" fill="white"/>
<path d="M30.6767 15.8464H36.8824L28.017 0.51709H10.2862L13.4011 5.88236H24.9261L30.6767 15.8464Z" fill="white"/>
<path d="M8.39336 17.1875L13.4011 25.8342H23.3687L18.3849 17.1875H8.39336Z" fill="white"/>
<path d="M24.5188 25.1635L29.5266 16.5168L24.5188 7.87012L19.535 16.5168L24.5188 25.1635Z" fill="white"/>
<path d="M23.3687 7.19971H13.4011L8.39336 15.8464H18.3849L23.3687 7.19971Z" fill="white"/>
</svg>
