<svg width="147" height="33" viewBox="0 0 147 33" fill="none" xmlns="http://www.w3.org/2000/svg">
<g clip-path="url(#clip0)">
<path d="M7.22797 0.592887C3.26957 0.648903 0.0884212 3.88014 0.0830084 7.85037V25.1842C0.0818165 28.1247 1.8476 30.7762 4.55646 31.9016C7.26533 33.0268 10.3834 32.4043 12.4559 30.3241L17.3755 25.3893C17.4926 29.3578 20.7634 32.4978 24.7218 32.4417C28.6802 32.3857 31.8613 29.1545 31.8668 25.1842V7.85037C31.8679 4.90984 30.1021 2.25835 27.3933 1.13304C24.6844 0.00772607 21.5663 0.630366 19.4938 2.71045L14.5743 7.64529C14.4572 3.67681 11.1864 0.536872 7.22797 0.592887Z" fill="#24DF91"/>
<path d="M15.9748 23.7882C19.9788 23.7882 23.2247 20.5329 23.2247 16.5174C23.2247 12.5018 19.9788 9.24658 15.9748 9.24658C11.9708 9.24658 8.72491 12.5018 8.72491 16.5174C8.72491 20.5329 11.9708 23.7882 15.9748 23.7882Z" fill="white"/>
<path d="M51.3421 24.5532H47.7585V8.41119H51.3421V10.7773C52.6373 9.02831 54.5944 8.07275 56.8541 8.07275C60.4646 8.07275 62.5904 10.5513 62.5904 14.3827V24.5532H59.0038V15.0909C59.0038 12.6397 57.7354 11.3417 55.7833 11.3417C53.1096 11.3417 51.3461 13.7929 51.3461 17.4833L51.3421 24.5532ZM64.9276 16.4954C64.9276 11.4552 68.1034 8.07275 72.8115 8.07275C77.5196 8.07275 80.6933 11.4531 80.6933 16.4954C80.6933 21.5092 77.5235 24.8906 72.8115 24.8906C68.0994 24.8906 64.9276 21.5112 64.9276 16.4954ZM77.0273 16.4954C77.0273 13.3967 75.2915 11.3113 72.8105 11.3113C70.3293 11.3113 68.5995 13.3967 68.5995 16.4954C68.5995 19.5657 70.3353 21.6501 72.8164 21.6501C75.2974 21.6501 77.0352 19.5647 77.0352 16.4954H77.0273ZM86.7611 24.5532H83.1704V8.41119H86.7541V10.7773C87.8834 9.00297 89.5398 8.07275 91.4394 8.07275C93.5344 8.07275 95.3813 9.20462 96.2357 11.2566C97.5299 9.17118 99.5981 8.07275 101.747 8.07275C104.779 8.07275 106.901 10.2706 106.901 14.0169V24.5552H103.321V14.8903C103.321 12.5526 102.328 11.3123 100.509 11.3123C98.1115 11.3123 96.7608 13.5416 96.7608 17.4833V24.5532H93.178V14.8903C93.178 12.4675 92.13 11.3123 90.4488 11.3123C88.1356 11.3153 86.7611 13.5943 86.7611 17.4833V24.5532ZM110.21 8.41119H113.794V24.5532H110.21V8.41119ZM116.277 16.468C116.277 11.4531 119.53 8.07275 124.132 8.07275C127.66 8.07275 130.224 9.98791 131.298 13.1717L127.963 14.5813C127.524 12.4675 126.199 11.3153 124.215 11.3153C121.624 11.3153 119.948 13.342 119.948 16.47C119.943 19.6245 121.625 21.6511 124.242 21.6511C126.199 21.6511 127.524 20.4959 127.966 18.3832L131.272 19.7927C130.115 23.1163 127.633 24.8936 124.188 24.8936C119.527 24.8936 116.277 21.5112 116.277 16.468ZM133.224 20.2993L136.475 18.7794C136.696 20.5547 138.488 21.8193 140.556 21.8193C142.153 21.8193 143.395 21.0594 143.395 20.0449C143.395 17.309 133.885 18.4672 133.885 12.9518C133.885 9.91191 136.501 8.16294 140.087 8.16294C143.616 8.16294 146.234 9.88556 146.867 12.1625L143.445 13.6824C143.335 12.359 141.957 11.2312 140 11.2312C138.567 11.2312 137.465 11.8483 137.465 12.7249C137.465 15.3443 147 14.1334 147 19.9082C147 22.8387 144.465 24.8948 140.468 24.8948C136.531 24.8936 133.83 23.0879 133.224 20.2993Z" fill="white"/>
</g>
<defs>
<clipPath id="clip0">
<rect width="146.917" height="31.8754" fill="white" transform="translate(0.0830078 0.57959)"/>
</clipPath>
</defs>
</svg>
