<svg width="125" height="33" viewBox="0 0 125 33" fill="none" xmlns="http://www.w3.org/2000/svg">
<path d="M30.0138 8.61226L29.3245 7.40476C29.2705 7.31012 29.1952 7.22923 29.1046 7.1684C29.0141 7.10755 28.9106 7.06842 28.8024 7.05404C28.6942 7.03966 28.5841 7.05042 28.4808 7.0855C28.3774 7.12057 28.2836 7.179 28.2066 7.25623L26.6213 8.83643C26.5054 8.95263 26.4333 9.10524 26.4172 9.26839C26.4012 9.43155 26.4421 9.59523 26.5331 9.73174C27.1111 10.613 27.5743 11.5641 27.9116 12.5621C28.5415 14.4276 28.7176 16.4161 28.4249 18.3629C28.1322 20.3099 27.3793 22.1593 26.2283 23.7584C25.0774 25.3574 23.5616 26.6603 21.806 27.5592C20.0506 28.4581 18.1058 28.9272 16.1326 28.9279C14.1013 28.9335 12.1001 28.4379 10.3072 27.4853L12.9883 24.8089C14.6498 25.4359 16.4613 25.5512 18.1891 25.1401C19.9169 24.729 21.4814 23.8102 22.6803 22.5027C23.8793 21.1952 24.6575 19.559 24.9146 17.8054C25.1716 16.052 24.8956 14.2619 24.1222 12.6666C24.073 12.5645 24.0001 12.4755 23.9095 12.4074C23.8187 12.3391 23.7131 12.2936 23.6011 12.2746C23.4891 12.2556 23.3743 12.2637 23.2661 12.2982C23.158 12.3326 23.0596 12.3925 22.9794 12.4726L21.3749 14.0625C21.2893 14.1477 21.2271 14.2534 21.1941 14.3694C21.161 14.4854 21.1582 14.608 21.1861 14.7253L21.324 15.3002C21.5611 16.3072 21.4985 17.3615 21.1437 18.3335C20.789 19.3054 20.1575 20.153 19.3268 20.7721C18.4962 21.391 17.5024 21.7547 16.4675 21.8183C15.4326 21.8819 14.4017 21.6427 13.5012 21.1301L12.794 20.7257C12.6589 20.6481 12.5017 20.6172 12.3472 20.6378C12.1926 20.6584 12.0492 20.7294 11.9393 20.8399L5.39027 27.3724C5.31878 27.4438 5.26339 27.5295 5.22779 27.6239C5.19219 27.7184 5.17723 27.8192 5.18388 27.9199C5.19054 28.0206 5.21866 28.1186 5.26638 28.2075C5.3141 28.2965 5.38031 28.3742 5.46057 28.4356L6.42549 29.1741C9.20819 31.3135 12.625 32.4688 16.1382 32.4582C18.9351 32.4546 21.6821 31.7192 24.1051 30.3253C26.528 28.9315 28.5421 26.9279 29.9464 24.5146C31.3506 22.1014 32.0958 19.3628 32.1076 16.5724C32.1194 13.782 31.3974 11.0373 30.0138 8.61226Z" fill="url(#paint0_linear)"/>
<path d="M25.8478 3.86081C23.0655 1.72058 19.6485 0.564698 16.1352 0.575267C13.3369 0.577437 10.5882 1.3122 8.16374 2.70614C5.73925 4.1001 3.72385 6.1044 2.31892 8.51883C0.913997 10.9333 0.168733 13.6732 0.157597 16.465C0.146462 19.2568 0.869843 22.0027 2.25546 24.4281L2.9447 25.6343C2.99898 25.7288 3.07435 25.8096 3.16497 25.8704C3.25559 25.9312 3.35903 25.9703 3.46727 25.9849C3.5755 25.9993 3.68562 25.9888 3.78911 25.9539C3.89259 25.9191 3.98665 25.861 4.064 25.7841L5.64648 24.2053C5.76159 24.0889 5.83315 23.9366 5.84921 23.774C5.86527 23.6112 5.82485 23.448 5.7347 23.3114C5.15615 22.4304 4.69289 21.4792 4.35624 20.4811C3.72622 18.6154 3.55028 16.627 3.84297 14.6802C4.13567 12.7333 4.88859 10.8839 6.0395 9.28478C7.19042 7.68568 8.70627 6.38284 10.4618 5.48393C12.2173 4.58502 14.1619 4.11586 16.1352 4.11524C18.1664 4.11065 20.1673 4.60769 21.9592 5.56203L19.2767 8.23694C17.933 7.72884 16.4857 7.55383 15.0592 7.72699C13.6325 7.90014 12.2696 8.41627 11.0871 9.23102C9.90463 10.0458 8.93815 11.1348 8.27067 12.4045C7.60321 13.6741 7.25471 15.0865 7.25515 16.5203C7.25515 16.6674 7.29513 17.3385 7.30753 17.454C7.41624 18.4698 7.69927 19.4593 8.14426 20.3793C8.19353 20.4815 8.26662 20.5704 8.35741 20.6386C8.44821 20.7067 8.55405 20.7522 8.66609 20.7713C8.77812 20.7902 8.89309 20.7822 9.00137 20.7477C9.10963 20.7133 9.20805 20.6535 9.28838 20.5732L10.8929 18.971C10.9784 18.886 11.0407 18.7806 11.074 18.6648C11.1072 18.5491 11.1104 18.4267 11.0831 18.3095L10.9453 17.7333C10.7078 16.7262 10.7702 15.6719 11.1249 14.6997C11.4796 13.7277 12.1111 12.88 12.942 12.261C13.7728 11.642 14.7668 11.2786 15.8017 11.2153C16.8367 11.152 17.8677 11.3917 18.7681 11.9048L19.4752 12.3092C19.6105 12.3861 19.7675 12.4166 19.9219 12.396C20.0763 12.3754 20.2196 12.3048 20.3299 12.195L26.8776 5.66242C26.9492 5.59106 27.0046 5.5053 27.0404 5.41082C27.0761 5.31636 27.0912 5.21538 27.0846 5.11462C27.0781 5.01386 27.0501 4.91567 27.0026 4.82656C26.955 4.73747 26.8888 4.65953 26.8086 4.59796L25.8478 3.86081Z" fill="url(#paint1_linear)"/>
<path d="M52.7653 20.9166C52.6458 20.8199 52.4957 20.7688 52.3419 20.7722C52.1881 20.7758 52.0406 20.8338 51.9258 20.9359C50.8988 21.7308 49.7077 22.4666 47.9668 22.4666C44.7798 22.4666 42.1869 19.7889 42.1869 16.4952C42.1869 13.2014 44.7701 10.5003 47.9434 10.5003C49.3219 10.5003 50.8105 11.0793 51.9051 12.0379C51.9668 12.1092 52.0434 12.1662 52.1297 12.2048C52.216 12.2433 52.3096 12.2623 52.404 12.2607C52.4859 12.2542 52.5654 12.2299 52.6368 12.1895C52.7082 12.1491 52.77 12.0937 52.8176 12.0269L53.8542 10.9624C53.9201 10.8987 53.9722 10.8221 54.0072 10.7374C54.042 10.6526 54.0589 10.5616 54.0568 10.47C54.053 10.377 54.0298 10.2858 53.9891 10.202C53.9484 10.1182 53.8906 10.0438 53.8198 9.9832C52.0098 8.40989 50.1917 7.7085 47.9185 7.7085C43.0664 7.7085 39.1185 11.672 39.1185 16.5433C39.1202 18.8719 40.0478 21.1047 41.6976 22.752C43.3473 24.3992 45.5846 25.3263 47.9185 25.33C49.015 25.3429 50.1031 25.1394 51.1205 24.731C52.1377 24.3227 53.064 23.7176 53.8459 22.9507C53.9146 22.8809 53.9684 22.7981 54.0044 22.7071C54.0404 22.6162 54.0577 22.5189 54.0554 22.4212C54.0536 22.3435 54.0361 22.2668 54.0038 22.1959C53.9716 22.125 53.9255 22.0614 53.868 22.0087L52.7653 20.9166Z" fill="white"/>
<path d="M60.3096 7.94775H58.7395C58.5644 7.95362 58.3979 8.02586 58.2743 8.14977C58.1506 8.27368 58.0788 8.43995 58.0737 8.61476V24.4305C58.0785 24.6055 58.1501 24.7721 58.2738 24.8963C58.3976 25.0206 58.5641 25.093 58.7395 25.0989H60.3096C60.485 25.093 60.6515 25.0206 60.7752 24.8963C60.899 24.7721 60.9705 24.6055 60.9754 24.4305V8.61476C60.9701 8.43995 60.8985 8.27368 60.7748 8.14977C60.6512 8.02586 60.4847 7.95362 60.3096 7.94775Z" fill="white"/>
<path d="M78.8898 13.2715C78.8898 10.3366 76.4678 7.94775 73.4904 7.94775H67.0157C66.8388 7.94848 66.6695 8.01907 66.5447 8.14409C66.42 8.26909 66.3499 8.43834 66.3499 8.61476V24.4305C66.3496 24.6071 66.4195 24.7767 66.5443 24.9021C66.669 25.0274 66.8386 25.0981 67.0157 25.0989H68.5623C68.7378 25.093 68.9044 25.0206 69.0281 24.8963C69.1518 24.7721 69.2233 24.6055 69.2282 24.4305V18.5484H72.4731L75.5814 24.7578C75.638 24.8595 75.721 24.9442 75.8216 25.003C75.9223 25.0618 76.0369 25.0926 76.1535 25.092H78.009C78.1261 25.0959 78.2423 25.0688 78.3457 25.0134C78.449 24.9582 78.536 24.8766 78.5975 24.7771C78.6562 24.6719 78.687 24.5535 78.687 24.4333C78.687 24.3129 78.6562 24.1946 78.5975 24.0893L75.4436 18.2253C77.5747 17.2804 78.8898 15.4018 78.8898 13.2715ZM75.9882 13.3196C75.9882 14.809 74.7571 16.0702 73.3002 16.0702H69.2765V10.6914H73.2946C74.7544 10.6914 75.9826 11.8948 75.9826 13.3196H75.9882Z" fill="white"/>
<path d="M95.7884 20.9166C95.669 20.8199 95.519 20.7688 95.3651 20.7722C95.2113 20.7758 95.0638 20.8338 94.9489 20.9359C93.922 21.7308 92.731 22.4666 90.99 22.4666C87.803 22.4666 85.2101 19.7889 85.2101 16.4951C85.2101 13.2014 87.7919 10.5003 90.9651 10.5003C92.3436 10.5003 93.8324 11.0793 94.9282 12.0379C94.9903 12.1099 95.0676 12.1674 95.1546 12.2059C95.2416 12.2444 95.3362 12.2631 95.4313 12.2607C95.5132 12.2542 95.5927 12.2299 95.6641 12.1895C95.7355 12.1491 95.7973 12.0937 95.8449 12.0269L96.8815 10.9624C96.9473 10.8986 96.9992 10.822 97.0338 10.7372C97.0684 10.6525 97.085 10.5615 97.0827 10.47C97.0795 10.377 97.0568 10.2857 97.0162 10.2019C96.9757 10.1181 96.918 10.0436 96.8471 9.9832C95.0413 8.40989 93.2231 7.7085 90.95 7.7085C86.0978 7.7085 82.1499 11.672 82.1499 16.5433C82.1517 18.8719 83.0793 21.1047 84.729 22.752C86.3787 24.3992 88.616 25.3263 90.95 25.33C92.0464 25.3427 93.1346 25.1391 94.1518 24.7308C95.1691 24.3225 96.0954 23.7175 96.8774 22.9507C96.946 22.8807 97.0001 22.7976 97.036 22.7064C97.072 22.6153 97.0893 22.5178 97.0869 22.4198C97.0852 22.3421 97.0676 22.2654 97.0354 22.1944C97.0032 22.1235 96.9569 22.0599 96.8994 22.0073L95.7884 20.9166Z" fill="white"/>
<path d="M110.229 22.4431H103.999V8.61476C103.993 8.43995 103.922 8.27368 103.798 8.14977C103.674 8.02586 103.508 7.95362 103.333 7.94775H101.763C101.586 7.94848 101.416 8.01907 101.292 8.14409C101.167 8.26909 101.097 8.43834 101.097 8.61476V24.4305C101.097 24.6071 101.166 24.7767 101.291 24.9021C101.416 25.0274 101.586 25.0981 101.763 25.0989H110.229C110.317 25.0987 110.404 25.0812 110.485 25.0476C110.566 25.0139 110.64 24.9646 110.702 24.9025C110.763 24.8405 110.813 24.7668 110.846 24.6858C110.879 24.6048 110.897 24.5181 110.896 24.4305V23.1171C110.897 23.0291 110.881 22.9416 110.848 22.8601C110.815 22.7784 110.766 22.7041 110.704 22.6415C110.641 22.5788 110.568 22.5291 110.486 22.495C110.405 22.4609 110.317 22.4434 110.229 22.4431Z" fill="white"/>
<path d="M124.333 10.6243C124.51 10.6236 124.679 10.553 124.804 10.428C124.929 10.303 125 10.1337 125 9.95731V8.61916C125 8.44273 124.929 8.27349 124.804 8.14848C124.679 8.02347 124.51 7.95288 124.333 7.95215H114.822C114.645 7.95288 114.476 8.02347 114.351 8.14848C114.226 8.27349 114.156 8.44273 114.156 8.61916V24.4348C114.156 24.6116 114.226 24.7812 114.351 24.9064C114.476 25.0317 114.645 25.1025 114.822 25.1032H124.333C124.51 25.1025 124.681 25.0317 124.806 24.9064C124.929 24.7812 125 24.6116 125 24.4348V23.1214C125 22.945 124.929 22.7758 124.804 22.6508C124.679 22.5258 124.51 22.4552 124.333 22.4545H117.028V17.7358H123.163C123.34 17.7355 123.51 17.6651 123.635 17.54C123.76 17.415 123.831 17.2456 123.831 17.0689V15.7321C123.825 15.5568 123.753 15.39 123.63 15.2658C123.506 15.1415 123.339 15.0692 123.163 15.0637H117.032V10.6243H124.333Z" fill="white"/>
<defs>
<linearGradient id="paint0_linear" x1="32.1077" y1="10.3487" x2="8.5883" y2="30.4935" gradientUnits="userSpaceOnUse">
<stop stop-color="#67BEFD"/>
<stop offset="1" stop-color="#AA96F3"/>
</linearGradient>
<linearGradient id="paint1_linear" x1="23.8286" y1="2.26224" x2="1.41576" y2="24.0227" gradientUnits="userSpaceOnUse">
<stop stop-color="#57E29F"/>
<stop offset="1" stop-color="#6CD8F4"/>
</linearGradient>
</defs>
</svg>
