<svg width="129" height="33" viewBox="0 0 129 33" fill="none" xmlns="http://www.w3.org/2000/svg">
<path d="M23.3446 0.516623H11.0856V17.0548H27.6372V4.79584C27.6372 4.23275 27.5261 3.67519 27.3102 3.15514C27.0943 2.63508 26.7779 2.16275 26.3791 1.76521C25.9804 1.36767 25.507 1.05275 24.9863 0.838488C24.4656 0.62423 23.9077 0.514852 23.3446 0.516623V0.516623Z" fill="white"/>
<path d="M7.26376 0.516602H5.15107C4.01615 0.516602 2.92772 0.967446 2.12521 1.76995C1.3227 2.57246 0.871857 3.6609 0.871857 4.79582L0.871857 6.90851H7.26376V0.516602Z" fill="white"/>
<path d="M0.871857 10.73H7.26376V17.1219H0.871857V10.73Z" fill="white"/>
<path d="M21.2993 27.2819H23.412C23.9751 27.2819 24.5327 27.1708 25.0527 26.9549C25.5728 26.739 26.0451 26.4226 26.4427 26.0238C26.8402 25.625 27.1551 25.1517 27.3694 24.631C27.5836 24.1102 27.693 23.5523 27.6913 22.9893V20.9438H21.2993V27.2819Z" fill="white"/>
<path d="M11.0856 20.9438H17.4775V27.3358H11.0856V20.9438Z" fill="white"/>
<path d="M0.871857 20.9438V23.0565C0.871857 24.1915 1.3227 25.2799 2.12521 26.0824C2.92772 26.8849 4.01615 27.3358 5.15107 27.3358H7.26376V20.9438H0.871857Z" fill="white"/>
<path d="M41.8646 2.2251H39.3616V25.6262H52.6164V23.3924H41.8646V2.2251Z" fill="white"/>
<path d="M60.6635 8.4292C55.7922 8.4292 52.3607 12.049 52.3607 17.2568V17.8489C52.4406 20.0518 53.3686 22.1386 54.951 23.6733C56.5333 25.208 58.6476 26.0719 60.8519 26.0843H61.1749C63.4548 26.0803 65.6587 25.2646 67.3918 23.7832V23.716L66.2615 21.8724L66.1404 21.9397C64.7949 23.1948 63.0282 23.9005 61.1883 23.9178C60.3469 23.9366 59.5105 23.7835 58.7302 23.4681C57.95 23.1526 57.2422 22.6813 56.6503 22.0831C56.0583 21.4848 55.5946 20.7721 55.2874 19.9886C54.9802 19.205 54.836 18.3671 54.8637 17.5259H67.5129V17.3913C67.5129 17.3913 67.5129 16.5974 67.5129 16.2071C67.634 11.4569 64.8754 8.4292 60.6635 8.4292ZM54.9983 15.4132C55.1601 14.0622 55.8131 12.8178 56.8329 11.9171C57.8528 11.0163 59.1683 10.5221 60.5289 10.5284C62.6416 10.5284 64.9562 11.7934 65.1446 15.4132H54.9983Z" fill="white"/>
<path d="M82.1942 10.4067V11.2814C81.6678 10.4045 80.9247 9.67772 80.0362 9.17103C79.1477 8.66434 78.1438 8.39477 77.121 8.38824H76.8115C72.3305 8.38824 69.2354 11.9408 69.2354 17.1485C69.2354 22.3562 72.1959 25.9895 76.6097 25.9895C77.7335 26.0431 78.8506 25.788 79.8397 25.2519C80.8289 24.7158 81.6525 23.9192 82.2211 22.9483V25.5186H84.5895V2.2251H82.1942V10.4067ZM77.0538 23.7826C73.9587 23.7826 71.9133 21.0913 71.9133 17.1889C71.9133 13.2865 74.0798 10.6624 77.121 10.6624C79.6374 10.6624 82.1942 12.7078 82.1942 17.1889C82.1942 22.0467 79.5029 23.7826 76.9999 23.7826H77.0538Z" fill="white"/>
<path d="M99.081 10.7302V10.8648C98.61 10.0708 97.1701 8.36182 93.6983 8.36182C89.2845 8.36182 86.3779 11.726 86.3779 16.8664C86.3779 22.0069 89.4191 25.4921 93.9002 25.4921C94.9321 25.5687 95.9652 25.3577 96.8845 24.8826C97.8038 24.4075 98.5734 23.6869 99.1079 22.8008V25.1153C99.1079 28.3449 97.0625 30.1885 93.4292 30.1885C91.8633 30.1985 90.3177 29.834 88.9212 29.1254L88.8001 29.0581L87.8716 31.1035L88.0062 31.1708C89.7009 32.0301 91.5696 32.4903 93.4695 32.5165C97.3585 32.5165 101.544 30.5384 101.544 25.0615V8.91354H99.081V10.7302ZM94.1962 23.3929C90.9666 23.3929 88.8135 20.89 88.8135 17.001C88.8135 13.112 90.6571 10.7975 93.8194 10.7975C97.3047 10.7975 98.9599 12.8429 98.9599 17.001C98.9599 21.1591 97.3585 23.3929 94.1962 23.3929Z" fill="white"/>
<path d="M111.475 8.4292C106.59 8.4292 103.226 12.049 103.226 17.1895V17.7816C103.296 20.008 104.23 22.1198 105.83 23.6696C107.43 25.2193 109.571 26.0854 111.798 26.0843H112.135C114.407 26.0713 116.601 25.251 118.325 23.7698V23.7698L117.181 21.8051H117.046C115.706 23.0594 113.943 23.7652 112.108 23.7832C111.266 23.8019 110.429 23.6489 109.648 23.3336C108.867 23.0183 108.158 22.5473 107.565 21.9492C106.972 21.3512 106.507 20.6386 106.198 19.855C105.89 19.0714 105.744 18.2331 105.77 17.3913H118.526V17.2568C118.526 17.2568 118.526 16.4628 118.526 16.0726C118.526 11.4569 115.754 8.4292 111.475 8.4292ZM105.864 15.4132C106.029 14.061 106.684 12.8165 107.706 11.916C108.729 11.0155 110.046 10.5217 111.408 10.5284C113.507 10.5284 115.822 11.7934 116.01 15.4132H105.864Z" fill="white"/>
<path d="M128.807 8.75224C128.47 8.75224 128.215 8.75224 127.878 8.61768C126.716 8.6512 125.591 9.04267 124.659 9.73867C123.727 10.4347 123.033 11.4013 122.671 12.5066V8.75224H120.235V25.425V25.5596H122.738V18.5083C122.746 17.4245 122.923 16.3485 123.263 15.3191C124.057 12.7489 125.833 11.1072 127.946 11.1072C128.21 11.0804 128.476 11.0804 128.739 11.1072H128.874V8.75224H128.807Z" fill="white"/>
</svg>
