<svg width="265" height="29" viewBox="0 0 265 29" fill="none" xmlns="http://www.w3.org/2000/svg">
<path d="M3.26052 10.6729L1.92816 12.0077C1.55939 12.3626 1.26599 12.7885 1.06557 13.2598C0.865149 13.7312 0.761841 14.2382 0.761841 14.7505C0.761841 15.2628 0.865149 15.7699 1.06557 16.2412C1.26599 16.7125 1.55939 17.1384 1.92816 17.4933L12.6619 28.353C12.9163 28.6138 13.2124 28.8301 13.538 28.993V15.8294L3.26052 10.6729Z" fill="#3D89F5"/>
<path d="M27.4657 10.6729L28.7981 12.0077C29.1669 12.3626 29.4603 12.7885 29.6607 13.2598C29.8612 13.7312 29.9645 14.2382 29.9645 14.7505C29.9645 15.2628 29.8612 15.7699 29.6607 16.2412C29.4603 16.7125 29.1669 17.1384 28.7981 17.4933L18.0644 28.353C17.81 28.6138 17.5138 28.8301 17.1883 28.993V15.8294L27.4657 10.6729Z" fill="#1656B9"/>
<path d="M24.8886 7.94826L18.1721 1.20097C17.8164 0.83382 17.3909 0.541903 16.9207 0.342568C16.4503 0.143234 15.9449 0.0405273 15.4343 0.0405273C14.9237 0.0405273 14.4182 0.143234 13.9479 0.342568C13.4777 0.541903 13.0521 0.83382 12.6965 1.20097L5.96168 7.94826L15.3978 12.6659L24.8886 7.94826Z" fill="#85B5F8"/>
<path d="M41.6214 25.4879H51.0734C56.0424 25.4879 58.689 22.8906 58.689 19.3625C58.689 16.0833 56.345 14.1028 53.828 13.9839V13.7674C56.1289 13.2479 57.8248 11.6138 57.8248 9.00559C57.8248 5.68313 55.3619 3.32385 50.4793 3.32385H41.6214V25.4879ZM46.2988 21.6568V15.7695H50.2201C52.4669 15.7695 53.8604 17.0682 53.8604 18.8972C53.8604 20.5638 52.7262 21.6568 50.112 21.6568H46.2988ZM46.2988 12.5986V7.11168H49.8527C51.9268 7.11168 53.1043 8.18308 53.1043 9.78475C53.1043 11.538 51.6784 12.5986 49.7664 12.5986H46.2988ZM65.4875 3.32385H60.8857V25.4879H65.4875V3.32385ZM75.9107 25.8126C80.9444 25.8126 84.077 22.3603 84.077 17.2414C84.077 12.09 80.9444 8.64845 75.9107 8.64845C70.876 8.64845 67.7434 12.09 67.7434 17.2414C67.7434 22.3603 70.876 25.8126 75.9107 25.8126ZM75.9316 22.2413C73.6095 22.2413 72.4213 20.1093 72.4213 17.2089C72.4213 14.3086 73.6095 12.1657 75.9316 12.1657C78.2112 12.1657 79.3996 14.3086 79.3996 17.2089C79.3996 20.1093 78.2112 22.2413 75.9316 22.2413ZM93.8052 25.8126C98.2234 25.8126 101 23.2153 101.216 19.3951H96.873C96.6031 21.1698 95.4363 22.1655 93.8592 22.1655C91.7098 22.1655 90.3163 20.3582 90.3163 17.1764C90.3163 14.0379 91.7206 12.2414 93.8592 12.2414C95.5443 12.2414 96.6247 13.3562 96.873 15.0119H101.216C101.021 11.17 98.1154 8.64845 93.7836 8.64845C88.75 8.64845 85.6382 12.144 85.6382 17.2414C85.6382 22.2954 88.696 25.8126 93.8052 25.8126ZM103.402 25.4879H108.003V20.2067L109.246 18.7889L113.771 25.4879H119.162L112.692 16.0617L118.849 8.86491H113.567L108.252 15.1742H108.003V3.32385H103.402V25.4879ZM127.16 25.8126C131.578 25.8126 134.354 23.2153 134.57 19.3951H130.227C129.958 21.1698 128.791 22.1655 127.214 22.1655C125.064 22.1655 123.671 20.3582 123.671 17.1764C123.671 14.0379 125.074 12.2414 127.214 12.2414C128.899 12.2414 129.979 13.3562 130.227 15.0119H134.57C134.376 11.17 131.469 8.64845 127.138 8.64845C122.104 8.64845 118.994 12.144 118.994 17.2414C118.994 22.2954 122.05 25.8126 127.16 25.8126ZM141.358 15.8778C141.369 13.7349 142.675 12.4795 144.555 12.4795C146.424 12.4795 147.526 13.6809 147.515 15.7263V25.4879H152.117V14.9037C152.127 11.0077 149.837 8.64845 146.381 8.64845C143.864 8.64845 142.179 9.8389 141.423 11.7978H141.228V3.32385H136.756V25.4879H141.358V15.8778ZM159.709 25.8018C162.161 25.8018 163.749 24.7304 164.56 23.1828H164.689V25.4879H169.053V14.276C169.053 10.3151 165.705 8.64845 162.01 8.64845C158.035 8.64845 155.42 10.5532 154.784 13.5835L159.039 13.9297C159.353 12.8259 160.336 12.0142 161.988 12.0142C163.555 12.0142 164.452 12.8042 164.452 14.1679V14.2328C164.452 15.3042 163.317 15.4449 160.433 15.7263C157.149 16.0293 154.2 17.1331 154.2 20.8452C154.2 24.1352 156.545 25.8018 159.709 25.8018ZM161.027 22.62C159.612 22.62 158.596 21.9598 158.596 20.6937C158.596 19.3951 159.666 18.7565 161.287 18.5292C162.291 18.3885 163.933 18.1504 164.483 17.7825V19.5465C164.483 21.2889 163.047 22.62 161.027 22.62ZM171.863 25.4879H176.465V8.86491H171.863V25.4879ZM174.175 6.72202C175.547 6.72202 176.67 5.67224 176.67 4.38445C176.67 3.10739 175.547 2.05762 174.175 2.05762C172.814 2.05762 171.69 3.10739 171.69 4.38445C171.69 5.67224 172.814 6.72202 174.175 6.72202ZM183.992 15.8778C184.003 13.7349 185.278 12.4795 187.136 12.4795C188.983 12.4795 190.096 13.6916 190.085 15.7263V25.4879H194.687V14.9037C194.687 11.0294 192.418 8.64845 188.961 8.64845C186.499 8.64845 184.716 9.86054 183.971 11.7978H183.776V8.86491H179.391V25.4879H183.992V15.8778Z" fill="white"/>
<path d="M200.243 25.7693C201.626 25.7693 202.825 24.6113 202.836 23.172C202.825 21.7542 201.626 20.5962 200.243 20.5962C198.817 20.5962 197.64 21.7542 197.651 23.172C197.64 24.6113 198.817 25.7693 200.243 25.7693ZM213.35 25.8126C217.768 25.8126 220.544 23.2152 220.76 19.395H216.418C216.148 21.1698 214.981 22.1655 213.404 22.1655C211.254 22.1655 209.861 20.3582 209.861 17.1764C209.861 14.0379 211.265 12.2414 213.404 12.2414C215.089 12.2414 216.169 13.3562 216.418 15.0119H220.76C220.566 11.17 217.66 8.64844 213.328 8.64844C208.295 8.64844 205.184 12.144 205.184 17.2413C205.184 22.2954 208.24 25.8126 213.35 25.8126ZM230.443 25.8126C235.477 25.8126 238.609 22.3603 238.609 17.2413C238.609 12.0899 235.477 8.64844 230.443 8.64844C225.409 8.64844 222.276 12.0899 222.276 17.2413C222.276 22.3603 225.409 25.8126 230.443 25.8126ZM230.465 22.2412C228.143 22.2412 226.954 20.1092 226.954 17.2089C226.954 14.3085 228.143 12.1657 230.465 12.1657C232.744 12.1657 233.932 14.3085 233.932 17.2089C233.932 20.1092 232.744 22.2412 230.465 22.2412ZM240.842 25.4879H245.443V15.5098C245.443 13.67 246.61 12.4471 248.144 12.4471C249.656 12.4471 250.671 13.486 250.671 15.1202V25.4879H255.133V15.3366C255.133 13.6158 256.116 12.4471 257.79 12.4471C259.259 12.4471 260.361 13.3669 260.361 15.2176V25.4879H264.952V14.3085C264.952 10.7047 262.813 8.64844 259.724 8.64844C257.294 8.64844 255.403 9.89304 254.722 11.7978H254.55C254.02 9.87141 252.324 8.64844 250.045 8.64844C247.809 8.64844 246.113 9.83889 245.422 11.7978H245.227V8.8649H240.842V25.4879Z" fill="#E6E9EC"/>
</svg>
