<svg width="161" height="25" viewBox="0 0 161 25" fill="none" xmlns="http://www.w3.org/2000/svg">
<path d="M1.45246 12.5212C1.45246 6.82643 6.06456 2.2083 11.7524 2.2083C12.9975 2.20618 14.2321 2.43295 15.3968 2.87379C15.5873 2.40752 15.8753 1.98788 16.2417 1.64455C14.8187 1.05536 13.2919 0.752286 11.7524 0.754406C5.26199 0.754406 -0.000208386 6.02319 -0.000208386 12.5212C-0.00444356 14.7826 0.647773 16.9973 1.87386 18.8963C2.13855 18.4639 2.49219 18.0952 2.91359 17.8154C1.95432 16.2153 1.45034 14.3863 1.45246 12.5212Z" fill="#E89A31"/>
<path d="M21.5402 6.01074C21.2734 6.43674 20.9177 6.80127 20.4984 7.07679C21.5148 8.70871 22.0527 10.5928 22.0506 12.5172C22.0506 18.2099 17.4342 22.8238 11.7379 22.8238C10.4483 22.8259 9.16929 22.5843 7.96862 22.1138C7.7611 22.5758 7.45617 22.987 7.07288 23.3176C8.54672 23.9534 10.1349 24.2819 11.7379 24.2798C18.2368 24.2798 23.5053 19.0131 23.5053 12.5172C23.5096 10.2008 22.8256 7.93726 21.5402 6.01074Z" fill="#E89A31"/>
<path d="M18.6667 6.18016C19.8069 6.18016 20.7313 5.255 20.7313 4.11376C20.7313 2.97252 19.8069 2.04736 18.6667 2.04736C17.5264 2.04736 16.602 2.97252 16.602 4.11376C16.602 5.255 17.5264 6.18016 18.6667 6.18016Z" fill="#E89A31"/>
<path d="M4.77528 22.8808C5.91555 22.8808 6.83993 21.9557 6.83993 20.8144C6.83993 19.6732 5.91555 18.748 4.77528 18.748C3.63501 18.748 2.71063 19.6732 2.71063 20.8144C2.71063 21.9557 3.63501 22.8808 4.77528 22.8808Z" fill="#E89A31"/>
<path d="M13.4955 15.8379C13.0021 16.2321 12.316 16.4292 11.4393 16.4292C10.6304 16.4292 9.91467 16.2767 9.2921 15.9715V14.4773C9.80456 14.7062 10.2365 14.8673 10.5923 14.9605C10.9459 15.0538 11.272 15.1004 11.5643 15.1004C11.9179 15.1004 12.1868 15.0326 12.3753 14.8969C12.5638 14.7613 12.6569 14.5621 12.6569 14.295C12.6591 14.153 12.6146 14.0132 12.532 13.8987C12.4494 13.7821 12.3266 13.6719 12.1657 13.5638C12.0047 13.4558 11.6765 13.2841 11.1831 13.0488C10.7194 12.8305 10.3721 12.6207 10.1413 12.4215C9.91255 12.2265 9.72409 11.987 9.58645 11.72C9.4488 11.4529 9.37892 11.1414 9.37892 10.7853C9.37892 10.1135 9.6055 9.58577 10.0608 9.20216C10.5161 8.81855 11.145 8.62569 11.9454 8.62569C12.3266 8.62357 12.7035 8.6702 13.072 8.76557C13.4553 8.8673 13.8301 9.00082 14.1943 9.15977L13.6755 10.4102C13.271 10.2449 12.9365 10.1283 12.6718 10.0626C12.4155 9.99693 12.1551 9.96514 11.8904 9.96302C11.5854 9.96302 11.3525 10.033 11.1895 10.175C11.0264 10.317 10.9459 10.5013 10.9459 10.7302C10.9438 10.8616 10.9777 10.9888 11.0455 11.1011C11.1111 11.2071 11.2149 11.3088 11.3589 11.4084C11.5029 11.508 11.8417 11.6861 12.3795 11.9446C13.0889 12.2837 13.5739 12.6228 13.8364 12.9641C14.099 13.3053 14.2303 13.7228 14.2303 14.2187C14.2345 14.9033 13.9889 15.4416 13.4955 15.8379ZM11.7633 4.95068C7.58321 4.95068 4.19296 8.34381 4.19296 12.5275C4.19296 16.7111 7.58321 20.1043 11.7633 20.1043C15.9434 20.1043 19.3337 16.7111 19.3337 12.5275C19.3337 8.34381 15.9434 4.95068 11.7633 4.95068Z" fill="white"/>
<path d="M93.7457 21.1856C93.7457 20.2849 93.0151 19.5537 92.1151 19.5537C91.2152 19.5537 90.4846 20.2849 90.4846 21.1856C90.4846 22.0864 91.2152 22.8176 92.1151 22.8176C93.0151 22.8176 93.7457 22.0864 93.7457 21.1856Z" fill="#E89A31"/>
<path d="M25.9406 18.4662V17.5252C25.9406 17.2518 26.0782 17.1141 26.3514 17.1141H27.6727C27.9459 17.1141 28.0836 17.2518 28.0836 17.5252V18.2903C28.0836 20.0536 28.9539 20.9374 30.6967 20.9374H33.2801C35.0229 20.9374 35.8932 20.0367 35.8932 18.2331V17.2327C35.8932 15.8212 34.7285 14.8993 32.3992 14.4691C31.4209 14.2932 30.4404 14.0876 29.4621 13.8523C28.4838 13.6171 27.6516 13.1614 26.9655 12.4853C26.2815 11.8092 25.9384 10.8831 25.9384 9.70682V8.26564C25.9384 6.91347 26.326 5.84955 27.0989 5.07597C27.8718 4.3024 28.9348 3.91455 30.2858 3.91455H33.5448C34.8768 3.91455 35.9334 4.3024 36.717 5.07597C37.5005 5.84955 37.8922 6.91347 37.8922 8.26564V8.99895C37.8922 9.29354 37.7652 9.43978 37.511 9.43978H36.16C35.9059 9.43978 35.7789 9.29354 35.7789 8.99895V8.4691C35.7789 6.6867 34.9085 5.79444 33.1658 5.79444H30.6691C28.9264 5.79444 28.0539 6.72485 28.056 8.58779V9.76192C28.056 10.7623 28.7125 11.4468 30.0233 11.8198C30.6098 11.9767 31.2578 12.1187 31.9609 12.2458C32.6787 12.3772 33.3881 12.5425 34.089 12.746C34.8027 12.9516 35.4549 13.2059 36.0414 13.5111C36.628 13.8142 37.1045 14.2762 37.4666 14.8929C37.8287 15.5097 38.0108 16.2599 38.0108 17.1416V18.4641C38.0108 19.8163 37.619 20.8802 36.8355 21.6538C36.052 22.4273 34.9954 22.8152 33.6634 22.8152H30.2858C28.9539 22.8152 27.8972 22.4273 27.1137 21.6538C26.3302 20.8802 25.9406 19.8184 25.9406 18.4662Z" fill="white"/>
<path d="M52.6772 22.8175H43.4424C43.1671 22.8175 43.0295 22.6797 43.0295 22.4063V4.32376C43.0295 4.05036 43.1671 3.9126 43.4424 3.9126H52.6772C52.9525 3.9126 53.088 4.05036 53.088 4.32376V5.38133C53.088 5.65685 52.9504 5.79249 52.6772 5.79249H45.471C45.2741 5.79249 45.1767 5.8815 45.1767 6.05741V11.9959C45.1767 12.1718 45.2741 12.2608 45.471 12.2608H51.7645C52.0398 12.2608 52.1753 12.3986 52.1753 12.672V13.7296C52.1753 14.0051 52.0377 14.1407 51.7645 14.1407H45.471C45.2741 14.1407 45.1767 14.2297 45.1767 14.4056V20.6684C45.1767 20.8443 45.2741 20.9333 45.471 20.9333H52.6772C52.9525 20.9333 53.088 21.0711 53.088 21.3445V22.4021C53.088 22.6797 52.9504 22.8175 52.6772 22.8175Z" fill="white"/>
<path d="M65.3001 22.8175H61.7764C60.4254 22.8175 59.3624 22.436 58.5895 21.6709C57.8165 20.9058 57.429 19.8376 57.429 18.4664V8.26369C57.429 6.89245 57.8165 5.82428 58.5895 5.05918C59.3624 4.29409 60.4254 3.9126 61.7764 3.9126H65.3001C66.6511 3.9126 67.7141 4.29409 68.4871 5.05918C69.26 5.82428 69.6475 6.89245 69.6475 8.26369V9.70486C69.6475 9.98038 69.5099 10.116 69.2367 10.116H67.9153C67.64 10.116 67.5045 9.97826 67.5045 9.70486V8.3527C67.5045 6.6466 66.6829 5.79461 65.0375 5.79461H62.0115C60.3852 5.79461 59.5741 6.6466 59.5741 8.3527V18.3774C59.5741 20.0835 60.3873 20.9355 62.0115 20.9355H65.0375C66.6829 20.9355 67.5045 20.0835 67.5045 18.3774V17.0252C67.5045 16.7518 67.6421 16.614 67.9153 16.614H69.2367C69.5099 16.614 69.6475 16.7518 69.6475 17.0252V18.4664C69.6475 19.8376 69.26 20.9058 68.4871 21.6709C67.7141 22.436 66.6511 22.8175 65.3001 22.8175Z" fill="white"/>
<path d="M84.2419 3.9126H85.5633C85.8365 3.9126 85.9741 4.03976 85.9741 4.29409V18.4664C85.9741 19.8376 85.593 20.9058 84.8285 21.6709C84.0641 22.436 83.0074 22.8175 81.6564 22.8175H78.3974C77.0464 22.8175 75.9855 22.436 75.2126 21.6709C74.4396 20.9058 74.0521 19.8376 74.0521 18.4664V4.32376C74.0521 4.05036 74.1898 3.9126 74.4629 3.9126H75.7843C76.0575 3.9126 76.1951 4.05036 76.1951 4.32376V18.3774C76.1951 20.0835 77.0083 20.9355 78.6325 20.9355H81.3938C83.037 20.9355 83.8608 20.0835 83.8608 18.3774V4.32376C83.8608 4.05036 83.9878 3.9126 84.2419 3.9126Z" fill="white"/>
<path d="M92.7907 17.7204H91.4672C91.1919 17.7204 91.0564 17.5826 91.0564 17.3071V4.32376C91.0564 4.05036 91.194 3.9126 91.4672 3.9126H98.2286C99.5818 3.9126 100.649 4.30044 101.433 5.07402C102.216 5.84759 102.608 6.91152 102.608 8.26369V10.9383C102.608 12.0362 102.343 12.9433 101.814 13.6575C101.284 14.3717 100.55 14.8486 99.6093 15.0839V15.2004L103.019 22.3449C103.194 22.6585 103.097 22.8154 102.724 22.8154H101.401C101.068 22.8154 100.823 22.6776 100.666 22.4042L97.3731 15.2894H93.4937C93.2968 15.2894 93.1994 15.3784 93.1994 15.5544V17.3071C93.2015 17.5826 93.066 17.7204 92.7907 17.7204ZM93.4958 13.4986H97.9343C99.6199 13.4986 100.463 12.655 100.463 10.9701V8.3527C100.463 6.6466 99.6199 5.79461 97.9343 5.79461H93.4958C93.2989 5.79461 93.2015 5.88362 93.2015 6.05953V13.2336C93.2015 13.4095 93.301 13.4964 93.4958 13.4986Z" fill="white"/>
<path d="M109.691 4.32376V22.4063C109.691 22.6818 109.553 22.8175 109.28 22.8175H107.961C107.688 22.8175 107.55 22.6797 107.55 22.4063V4.32376C107.55 4.05036 107.688 3.9126 107.961 3.9126H109.28C109.553 3.9126 109.691 4.05036 109.691 4.32376Z" fill="white"/>
<path d="M119.712 22.8173H118.39C118.115 22.8173 117.977 22.6795 117.977 22.4061V6.05936C117.977 5.88346 117.88 5.79444 117.683 5.79444H113.687C113.393 5.79444 113.247 5.65668 113.247 5.38328V4.32571C113.247 4.05231 113.393 3.91455 113.687 3.91455H124.41C124.703 3.91455 124.851 4.05231 124.851 4.32571V5.38328C124.851 5.6588 124.705 5.79444 124.41 5.79444H120.415C120.218 5.79444 120.12 5.88346 120.12 6.05936V22.4061C120.124 22.6817 119.987 22.8173 119.712 22.8173Z" fill="white"/>
<path d="M130.507 4.32376V22.4063C130.507 22.6818 130.369 22.8175 130.096 22.8175H128.779C128.506 22.8175 128.368 22.6797 128.368 22.4063V4.32376C128.368 4.05036 128.506 3.9126 128.779 3.9126H130.096C130.369 3.9126 130.507 4.05036 130.507 4.32376Z" fill="white"/>
<path d="M134.848 22.4061V21.3486C134.848 20.9946 134.907 20.7403 135.024 20.5835L144.134 6.02969V5.91313H135.642C135.367 5.91313 135.231 5.77537 135.231 5.50197V4.32571C135.231 4.05231 135.369 3.91455 135.642 3.91455H146.044C146.319 3.91455 146.457 4.05231 146.457 4.32571V5.7351C146.457 6.04877 146.378 6.32217 146.222 6.55742L137.347 20.7V20.8166H146.338C146.613 20.8166 146.749 20.9438 146.749 21.1981V22.3744C146.749 22.6689 146.611 22.8152 146.338 22.8152H135.259C134.986 22.8173 134.848 22.6795 134.848 22.4061Z" fill="white"/>
<path d="M160.589 22.8175H151.355C151.079 22.8175 150.942 22.6797 150.942 22.4063V4.32376C150.942 4.05036 151.079 3.9126 151.355 3.9126H160.589C160.863 3.9126 161 4.05036 161 4.32376V5.38133C161 5.65685 160.863 5.79249 160.589 5.79249H153.383C153.186 5.79249 153.089 5.8815 153.089 6.05741V11.9959C153.089 12.1718 153.186 12.2608 153.383 12.2608H159.677C159.95 12.2608 160.088 12.3986 160.088 12.672V13.7296C160.088 14.0051 159.95 14.1407 159.677 14.1407H153.383C153.186 14.1407 153.089 14.2297 153.089 14.4056V20.6684C153.089 20.8443 153.186 20.9333 153.383 20.9333H160.589C160.863 20.9333 161 21.0711 161 21.3445V22.4021C161 22.6818 160.863 22.8175 160.589 22.8175Z" fill="white"/>
</svg>
