<svg width="79" height="31" viewBox="0 0 79 31" fill="none" xmlns="http://www.w3.org/2000/svg">
<path d="M0.199148 30.1892C0.0663827 30.057 0 29.8587 0 29.5944V27.7438C0 27.5455 0.0663827 27.3472 0.199148 27.149C0.331913 27.0168 0.531062 26.8846 0.73021 26.8846H1.5268C2.38978 26.8846 2.98722 26.6202 3.25275 26.1576C3.51828 25.695 3.71743 24.968 3.71743 24.0427V7.65199C3.71743 7.38762 3.78381 7.18934 3.91658 7.05716C4.04934 6.92498 4.24849 6.85889 4.44764 6.85889H7.16933C7.36848 6.85889 7.56763 6.92498 7.70039 7.05716C7.83316 7.18934 7.89954 7.38762 7.89954 7.65199V24.1088C7.89954 26.0915 7.36848 27.6116 6.37274 28.7352C5.377 29.8587 3.91658 30.3875 1.9251 30.3875H0.73021C0.531062 30.3875 0.331913 30.3214 0.199148 30.1892Z" fill="white"/>
<path d="M12.0816 21.4656C11.0195 20.2098 10.4885 18.5575 10.4885 16.3765V7.78462C10.4885 7.58635 10.5548 7.38807 10.6876 7.25589C10.8204 7.12371 11.0195 7.05762 11.2187 7.05762H13.9404C14.1395 7.05762 14.2723 7.12371 14.405 7.25589C14.6042 7.38807 14.6706 7.58635 14.6706 7.85072V16.3104C14.6706 18.8219 15.7327 20.0776 17.8569 20.0776C18.9191 20.0776 19.7157 19.7472 20.3131 19.0863C20.9105 18.4254 21.2425 17.5001 21.2425 16.3104V7.78462C21.2425 7.58635 21.3088 7.38807 21.4416 7.25589C21.5744 7.12371 21.7735 7.05762 21.9727 7.05762H24.6944C24.8935 7.05762 25.0927 7.12371 25.2254 7.25589C25.3582 7.38807 25.4246 7.58635 25.4246 7.78462V22.3248C25.4246 22.523 25.3582 22.7213 25.2254 22.8535C25.0927 22.9857 24.8935 23.0518 24.6944 23.0518H22.3046C22.1054 23.0518 21.9063 22.9857 21.7735 22.8535C21.6408 22.7213 21.5744 22.523 21.5744 22.3248V21.069C20.4459 22.5891 18.7863 23.3822 16.5293 23.3822C14.6706 23.3161 13.1438 22.7213 12.0816 21.4656Z" fill="white"/>
<path d="M28.4118 22.7873C28.279 22.6551 28.2126 22.4568 28.2126 22.2586V7.71842C28.2126 7.52015 28.279 7.32187 28.4118 7.18969C28.5446 7.05751 28.7437 6.99142 28.9429 6.99142H31.3326C31.5318 6.99142 31.7309 7.05751 31.8637 7.18969C31.9965 7.32187 32.0628 7.52015 32.0628 7.71842V8.77589C33.125 7.38797 34.5854 6.72705 36.4441 6.72705C38.7011 6.72705 40.2279 7.65233 41.1573 9.4368C41.622 8.6437 42.3522 7.98279 43.2151 7.45406C44.0781 6.92533 45.0739 6.72705 46.0696 6.72705C47.7292 6.72705 49.0568 7.32187 50.1189 8.44543C51.1811 9.56899 51.7121 11.2213 51.7121 13.4023V22.1264C51.7121 22.3246 51.6457 22.5229 51.513 22.6551C51.3802 22.7873 51.1811 22.8534 50.9819 22.8534H48.5257C48.5257 22.8534 48.1275 22.8534 47.9947 22.7212C47.8619 22.589 47.7955 22.3907 47.7955 22.1925V13.6006C47.7292 12.2787 47.4636 11.3535 46.9326 10.8247C46.4015 10.2299 45.6713 9.96553 44.8083 9.96553C44.0117 9.96553 43.3479 10.2299 42.8168 10.8247C42.2858 11.4195 41.9539 12.3448 41.9539 13.6006V22.1925C41.9539 22.3907 41.8875 22.589 41.7547 22.7212C41.622 22.8534 41.2237 22.9856 41.2237 22.9856H38.6347C38.4356 22.9856 38.2364 22.9195 38.1037 22.7873C37.9709 22.6551 37.9045 22.4568 37.9045 22.2586V13.6667C37.9045 12.4109 37.639 11.4856 37.1079 10.8908C36.5769 10.296 35.8467 10.0316 34.9837 10.0316C34.1871 10.0316 33.5233 10.296 32.9258 10.8908C32.3284 11.4856 32.0628 12.4109 32.0628 13.6667V22.2586C32.0628 22.4568 31.9965 22.6551 31.8637 22.7873C31.7309 22.9195 31.5318 22.9856 31.3326 22.9856H28.7437C28.7437 23.0516 28.5446 22.9856 28.4118 22.7873Z" fill="white"/>
<path d="M54.633 22.7871C54.5002 22.6549 54.4338 22.4566 54.4338 22.2583V7.71822C54.4338 7.51994 54.5002 7.32167 54.633 7.18948C54.7657 7.0573 54.9649 6.99121 55.164 6.99121H57.6866C57.8857 6.99121 58.0185 7.0573 58.1512 7.18948C58.3504 7.32167 58.4168 7.51994 58.4168 7.78431V22.3244C58.4168 22.5227 58.3504 22.721 58.1512 22.9193C58.0185 23.0514 57.8193 23.1175 57.6866 23.1175H55.164C54.9649 23.0514 54.8321 22.9854 54.633 22.7871Z" fill="#92C039"/>
<path d="M62.7317 21.4653C61.4704 20.2095 60.7402 18.5573 60.6074 16.3762V15.0544V13.7326C60.7402 11.5516 61.404 9.89927 62.7317 8.64353C64.0593 7.38779 65.8516 6.79297 68.2414 6.79297C70.5648 6.79297 72.3571 7.38779 73.6848 8.64353C75.0125 9.89927 75.6763 11.5516 75.809 13.7326C75.809 13.9969 75.809 14.4596 75.809 15.0544C75.809 15.7153 75.809 16.178 75.809 16.3762C75.6763 18.5573 75.0125 20.2756 73.6848 21.4653C72.4235 22.721 70.5648 23.3158 68.175 23.3158C65.8516 23.2498 63.9929 22.6549 62.7317 21.4653ZM70.6976 19.1521C71.295 18.4912 71.5606 17.4998 71.6269 16.178C71.6269 15.9797 71.6269 15.5831 71.6269 14.9883C71.6269 14.3935 71.6269 13.9969 71.6269 13.7987C71.5606 12.4768 71.295 11.4855 70.6976 10.8245C70.1001 10.1636 69.3035 9.76709 68.2414 9.76709C67.1793 9.76709 66.3163 10.0975 65.7853 10.8245C65.1878 11.4855 64.8559 12.5429 64.8559 13.7987V14.9883V16.178C64.9223 17.4998 65.1878 18.4912 65.7853 19.1521C66.3827 19.813 67.1793 20.1435 68.2414 20.1435C69.3035 20.1435 70.1665 19.813 70.6976 19.1521Z" fill="white"/>
<path d="M54.5002 4.21543C54.3674 4.08324 54.301 3.88497 54.301 3.68669V1.43958C54.301 1.24131 54.3674 1.04303 54.5002 0.91085C54.633 0.778667 54.8321 0.646484 55.0312 0.646484H57.8857C58.0849 0.646484 58.284 0.712576 58.4168 0.844759C58.5495 0.976942 58.6159 1.17522 58.6159 1.37349V3.6206C58.6159 3.81888 58.5495 4.01715 58.4168 4.14933C58.284 4.28152 58.0849 4.34761 57.8857 4.34761H55.0312C54.8321 4.4137 54.633 4.34761 54.5002 4.21543Z" fill="#92C039"/>
<path d="M4.31487 4.4137C4.11572 4.4137 3.98296 4.34761 3.85019 4.21543C3.65105 4.08324 3.51828 3.88497 3.51828 3.68669V1.43958C3.51828 1.24131 3.58466 1.04303 3.71743 0.91085C3.85019 0.778667 4.04934 0.646484 4.31487 0.646484H7.16933C7.36848 0.646484 7.56762 0.712576 7.70039 0.844759C7.83316 0.976942 7.89954 1.17522 7.89954 1.37349V3.6206C7.89954 3.81888 7.83316 4.01715 7.70039 4.14933C7.56762 4.28152 7.30209 4.4137 7.10295 4.4137H4.31487Z" fill="white"/>
<path d="M77.6014 20.0771C78.398 20.0771 79.0618 20.7381 78.9954 21.5973C78.9954 22.3904 78.2652 23.0513 77.4686 22.9852C76.7384 22.9191 76.141 22.3243 76.141 21.5312C76.141 20.7381 76.7384 20.0771 77.6014 20.0771ZM77.535 20.4076C77.0039 20.4076 76.6056 20.7381 76.4729 21.2668C76.2737 22.126 76.8048 22.7869 77.6014 22.7869C78.1988 22.7869 78.7299 22.2582 78.7299 21.5973C78.7299 20.9363 78.1988 20.4076 77.535 20.4076ZM77.3359 22.3904H77.0039V20.8702C77.2031 20.8702 77.3359 20.8042 77.535 20.8042C77.8005 20.8042 77.9333 20.8702 77.9997 20.9363C78.0661 21.0024 78.1324 21.1346 78.1324 21.2668C78.1324 21.4651 77.9333 21.5973 77.9333 21.5973C77.9333 21.5973 78.0661 21.7955 78.0661 21.9938C78.1324 22.1921 78.1324 22.3243 78.1988 22.3904H77.9333C77.8669 22.3243 77.8669 22.1921 77.8005 21.9938C77.7341 21.7955 77.6678 21.7294 77.4686 21.7294H77.3359V22.3904ZM77.3359 21.5312H77.535C77.7341 21.5312 77.9333 21.4651 77.9333 21.2668C77.9333 21.1346 77.8669 21.0024 77.6014 21.0024C77.4686 21.0024 77.4022 21.0024 77.4022 21.0024L77.3359 21.5312Z" fill="white"/>
</svg>
