<svg width="121" height="24" viewBox="0 0 121 24" fill="none" xmlns="http://www.w3.org/2000/svg">
<path d="M0.0591431 23.7501H3.59553V23.4989H2.01092C2.01092 23.4989 2.64863 17.2764 2.76458 15.5758H5.7792L6.66813 23.4989H5.48933V23.7501H9.76005V23.4989H8.23342L5.41204 0.251465H4.52311L2.39741 17.0251C2.03024 20.1364 1.54713 23.4989 1.54713 23.4989H0.0591431V23.7501ZM4.29121 2.97622H4.36851L5.7019 15.2666H2.80323L4.29121 2.97622Z" fill="#030405"/>
<path fill-rule="evenodd" clip-rule="evenodd" d="M4.47078 0.195312H5.46123L8.28261 23.4427H9.8158V23.8088H5.43019V23.4427H6.60218L5.72614 15.6345H2.81648C2.75446 16.5132 2.57008 18.4502 2.39974 20.182C2.31277 21.0661 2.22943 21.8971 2.16783 22.5071C2.13703 22.8121 2.11167 23.0618 2.094 23.2353C2.08517 23.322 2.07826 23.3897 2.07356 23.4357L2.07284 23.4427H3.65128V23.8088H0V23.4427H1.49562C1.49917 23.4179 1.504 23.384 1.51003 23.3415C1.52396 23.2435 1.54426 23.1001 1.56977 22.9182C1.62079 22.5544 1.69264 22.037 1.77596 21.4223C1.94261 20.1929 2.15513 18.5749 2.33866 17.0197L2.33872 17.0192L4.47078 0.195312ZM1.54543 23.5002L1.6023 23.5083L1.59522 23.5576H0.114893V23.6939H3.53639V23.5576H1.94559L1.95208 23.4943L2.00922 23.5002C1.95208 23.4943 1.95208 23.4943 1.95208 23.4942L1.95926 23.424C1.96396 23.378 1.97087 23.3104 1.9797 23.2236C1.99736 23.0502 2.02272 22.8005 2.05352 22.4955C2.11511 21.8856 2.19845 21.0547 2.2854 20.1707C2.45935 18.4022 2.64766 16.4224 2.70557 15.5732L2.70922 15.5197H5.82887L6.73068 23.5576H5.54508V23.6939H9.70091V23.5576H8.18082L5.35944 0.310206H4.57204L4.24129 2.92007H4.41836L5.76422 15.3254H2.73671L4.18109 3.39512L2.45276 17.0332C2.45275 17.0333 2.45274 17.0333 2.45273 17.0334C2.2691 18.5894 2.0565 20.2081 1.88981 21.4377C1.80646 22.0526 1.73459 22.5702 1.68355 22.9341C1.65803 23.1161 1.63772 23.2596 1.62379 23.3577C1.61682 23.4067 1.61145 23.4444 1.60782 23.4698L1.6023 23.5083C1.60229 23.5083 1.6023 23.5083 1.54543 23.5002ZM4.32716 3.14458L2.86635 15.2105H5.63619L4.32716 3.14458Z" fill="#030405"/>
<path d="M8.65562 23.4974H10.2596C10.2596 23.4974 10.4528 19.7098 10.4528 17.8353V0.46257H8.96481V0.25H12.0181L14.9941 19.0914H15.0327L17.9314 0.25H20.7334V0.46257H19.4194V23.4781H20.7528V23.7293H16.5593V23.4781H17.9121V1.31285H17.8734L14.453 23.7873H14.2211L10.8006 2.453H10.7233V17.816C10.7233 20.2895 10.8779 23.4781 10.8779 23.4781H12.308V23.7293H8.63629V23.4974H8.65562Z" fill="#030405"/>
<path fill-rule="evenodd" clip-rule="evenodd" d="M8.90664 0.194336H12.0664L15.0122 18.8442L17.8814 0.194336H20.7902V0.521799H19.4761V23.4224H20.8095V23.7885H16.5012V23.4224H17.8539V1.81995L14.5016 23.8465H14.1714L10.7801 2.69384V17.8178C10.7801 19.0535 10.8187 20.4683 10.8573 21.5744C10.8766 22.1274 10.896 22.6031 10.9105 22.9405C10.9177 23.1093 10.9237 23.2434 10.928 23.3354C10.9296 23.3708 10.9309 23.3999 10.932 23.4224H12.3647V23.7885H8.57812V23.4417H10.2042C10.2056 23.4142 10.2075 23.3766 10.2098 23.3299C10.215 23.2228 10.2226 23.0675 10.2316 22.8754C10.2498 22.4911 10.2739 21.9592 10.2981 21.3687C10.3464 20.1875 10.3946 18.773 10.3946 17.8371V0.521799H8.90664V0.194336ZM10.2588 23.4992L10.3162 23.5021L10.3134 23.5566H8.69302V23.6736H12.2498V23.5373H10.8225L10.8198 23.4826L10.8772 23.4799C10.8198 23.4826 10.8198 23.4827 10.8198 23.4826L10.8198 23.4825L10.8181 23.4462C10.817 23.4222 10.8153 23.3867 10.8132 23.3407C10.809 23.2486 10.8029 23.1143 10.7957 22.9455C10.7812 22.6078 10.7618 22.1317 10.7425 21.5784C10.7038 20.4718 10.6652 19.0555 10.6652 17.8178V2.39733H10.8489L14.2693 23.7316H14.4029L16.8308 7.7785L15.0813 19.1506H14.9443L11.9683 0.309229H9.02154V0.406906H10.5095V17.8371C10.5095 18.7757 10.4612 20.1922 10.4129 21.3734C10.3887 21.9642 10.3645 22.4963 10.3464 22.8808C10.3373 23.073 10.3298 23.2283 10.3245 23.3356C10.3219 23.3892 10.3198 23.4309 10.3184 23.4591L10.3162 23.5021C10.3162 23.5021 10.3162 23.5021 10.2588 23.4992ZM17.8341 1.25718H17.9688V23.5373H16.6161V23.6736H20.6946V23.5373H19.3612V0.406906H20.6753V0.309229H17.98L17.8341 1.25718Z" fill="#030405"/>
<path d="M21.3132 23.4781H22.6466V0.46257H21.3132V0.25H28.2507V8.03778H28.0188C28.0188 3.26463 26.7821 0.46257 25.3714 0.46257H24.1346V10.8012C24.5791 10.8012 24.9462 10.6273 25.1008 10.4147C26.0671 9.27455 26.1057 5.64154 26.1057 5.56424H26.3376V16.2893H26.125C26.125 16.2121 26.0864 12.579 25.1202 11.4775C24.9656 11.265 24.5984 11.0524 24.1539 11.0524V23.4587H25.3907C26.8014 23.4587 28.0382 20.7147 28.0382 15.9415H28.2701V23.7293H21.3326V23.4781H21.3132Z" fill="#030405"/>
<path fill-rule="evenodd" clip-rule="evenodd" d="M21.2587 0.194336H28.3111V8.09701H27.9643V8.03956C27.9643 5.65712 27.6555 3.77073 27.1732 2.48216C26.932 1.83774 26.6485 1.3458 26.341 1.01592C26.0339 0.68635 25.7063 0.521799 25.3743 0.521799H24.1949V10.7445C24.6008 10.7303 24.9232 10.5671 25.0573 10.3827L25.0585 10.381L25.0599 10.3793C25.2933 10.104 25.4742 9.67291 25.613 9.17309C25.7515 8.67473 25.8464 8.11437 25.9115 7.58567C26.0415 6.5283 26.0511 5.60321 26.0511 5.56603V5.50858H26.3979V16.3486H26.0705V16.2911C26.0705 16.2539 26.0609 15.3289 25.9308 14.2764C25.8658 13.7501 25.7708 13.1934 25.6324 12.7005C25.4935 12.2061 25.3127 11.7827 25.0799 11.5172L25.0781 11.5152L25.0766 11.5131C24.9405 11.3259 24.6161 11.1301 24.2143 11.1129V23.4031H25.3936C25.726 23.4031 26.0537 23.2418 26.3607 22.9177C26.668 22.5932 26.9514 22.1086 27.1926 21.4715C27.6748 20.1976 27.9836 18.3258 27.9836 15.9433V15.8858H28.3304V23.7885H21.278V23.4799H21.3161V23.4224H22.5921V0.521799H21.2587V0.194336ZM21.3929 23.5373H22.707V0.406906H21.3736V0.309229H28.1962V7.98212H28.0791C28.0742 5.61839 27.7656 3.73716 27.2808 2.44189C27.0365 1.78915 26.7463 1.28225 26.4251 0.937588C26.1036 0.592611 25.7476 0.406906 25.3743 0.406906H24.08V10.8604H24.1375C24.5925 10.8604 24.9794 10.6833 25.1489 10.452C25.398 10.1573 25.5838 9.70738 25.7237 9.20384C25.8643 8.69794 25.9601 8.13144 26.0255 7.5997C26.1396 6.67217 26.1616 5.84614 26.1653 5.62347H26.283V16.2337H26.1847C26.1809 16.0111 26.1589 15.1856 26.0448 14.2623C25.9794 13.7329 25.8836 13.17 25.743 12.6695C25.6032 12.1716 25.4173 11.7287 25.1679 11.4434C25.0005 11.2151 24.616 10.9967 24.1568 10.9967H24.0994V23.518H25.3936C25.7665 23.518 26.1224 23.3363 26.4441 22.9967C26.7654 22.6575 27.0557 22.1578 27.3001 21.5122C27.785 20.2312 28.0935 18.3642 28.0984 16.0007H28.2155V23.6736H21.3929V23.5373Z" fill="#030405"/>
<path d="M28.9445 23.7488H32.9446V23.4976H31.5726V12.0382C32.3649 12.0382 33.2731 12.1155 33.9109 13.0237C34.6645 14.0866 34.6645 15.7871 34.6645 17.0625V20.3477C34.6645 21.8743 35.1476 23.8841 36.3844 23.8841C37.0221 23.8841 37.3893 23.5363 37.7371 22.9565C38.2202 22.1062 38.3941 20.5216 38.3941 19.1689C38.3941 18.879 38.3168 18.6665 38.1816 18.6665C38.1043 18.6665 38.0077 18.7438 38.0077 19.1689V20.0578C38.0077 22.5314 37.4472 23.5942 36.8095 23.5942C36.1718 23.5942 36.0559 22.1062 36.0559 20.2318V16.8886C36.0559 15.362 35.824 14.5504 35.0897 13.4489C34.22 12.2507 33.4664 12.1348 32.79 11.9222V11.8256C35.3795 10.7241 36.1718 8.38583 36.1718 6.08621C36.1718 4.38565 35.5728 2.6851 35.167 2.04739C34.2394 0.482101 32.8673 0.269531 31.5919 0.269531H28.9638V0.482101H30.1426V23.4976H28.9638V23.7488H28.9445ZM31.5726 0.462776C32.2103 0.462776 33.2732 0.462776 33.8722 1.6609C34.4713 2.72375 34.5872 5.4485 34.5872 6.08621C34.5872 7.53555 34.394 9.31341 33.9109 10.3763C33.2731 11.729 32.6354 11.729 31.5726 11.729V0.462776Z" fill="#030405"/>
<path fill-rule="evenodd" clip-rule="evenodd" d="M28.9103 0.211426H31.5959C32.2361 0.211426 32.9067 0.264615 33.5353 0.517523C34.1653 0.770994 34.7498 1.22373 35.2199 2.01666C35.4269 2.3422 35.6797 2.93228 35.8809 3.65211C36.0825 4.37334 36.2333 5.22891 36.2333 6.08555C36.2333 8.38725 35.4426 10.7426 32.8515 11.8628V11.8793C32.9062 11.8961 32.9618 11.9126 33.0182 11.9292C33.2941 12.0109 33.5894 12.0983 33.8986 12.2647C34.2888 12.4746 34.7009 12.8093 35.1402 13.4145L35.1408 13.4154L35.1415 13.4163C35.5108 13.9704 35.7556 14.4542 35.9074 14.9931C36.0592 15.5315 36.1173 16.1219 36.1173 16.888V20.2311C36.1173 21.1684 36.1464 22.0044 36.2541 22.6051C36.3081 22.906 36.3809 23.1425 36.4761 23.3024C36.5705 23.4609 36.6815 23.5361 36.8135 23.5361C37.0949 23.5361 37.3805 23.3015 37.5981 22.7324C37.8143 22.1669 37.9542 21.2908 37.9542 20.0572V19.1683C37.9542 18.9533 37.9783 18.8174 38.0176 18.7333C38.0376 18.6904 38.0627 18.6585 38.093 18.6374C38.1237 18.616 38.1561 18.6084 38.1856 18.6084C38.2894 18.6084 38.3569 18.6906 38.3958 18.7868C38.4359 18.8856 38.4556 19.0193 38.4556 19.1683C38.4556 19.8468 38.412 20.5842 38.3076 21.2593C38.2033 21.9331 38.0378 22.55 37.7911 22.9842L37.7907 22.9848L37.7904 22.9854C37.6149 23.2779 37.4315 23.5172 37.2077 23.6832C36.9823 23.8503 36.7189 23.9409 36.3884 23.9409C35.7326 23.9409 35.2887 23.4074 35.0113 22.7089C34.7324 22.0069 34.6111 21.1151 34.6111 20.347V17.0619C34.6111 16.4236 34.611 15.6833 34.5174 14.9702C34.4237 14.2566 34.2369 13.5766 33.868 13.0563L33.8679 13.0561C33.2627 12.1941 32.4089 12.0992 31.634 12.0951V23.4395H33.0061V23.8056H28.9485V23.7482H28.9103V23.4395H30.0891V0.538889H28.9103V0.211426ZM29.0252 23.6907H32.8912V23.5544H31.5192V11.9801H31.5766C32.3714 11.9801 33.3066 12.0568 33.9619 12.99C34.3465 13.5325 34.5366 14.2341 34.6313 14.9553C34.726 15.6764 34.726 16.4235 34.726 17.0603V20.347C34.726 21.1056 34.8462 21.982 35.1181 22.6665C35.3914 23.3546 35.8075 23.826 36.3884 23.826C36.6956 23.826 36.9347 23.7426 37.1392 23.5909C37.3452 23.4381 37.5193 23.2139 37.6915 22.9269C37.9277 22.5108 38.0906 21.9105 38.194 21.2417C38.2974 20.5737 38.3407 19.8424 38.3407 19.1683C38.3407 19.0273 38.3218 18.9099 38.2894 18.8299C38.2559 18.7473 38.2171 18.7233 38.1856 18.7233C38.1764 18.7233 38.1677 18.7253 38.1586 18.7317C38.149 18.7384 38.1355 18.7523 38.1217 18.7819C38.0933 18.8428 38.0691 18.9581 38.0691 19.1683V20.0572C38.0691 21.2971 37.9288 22.1892 37.7054 22.7735C37.4833 23.3542 37.1699 23.651 36.8135 23.651C36.6267 23.651 36.4841 23.5402 36.3774 23.3612C36.2716 23.1835 36.1958 22.9309 36.141 22.6254C36.0313 22.0135 36.0024 21.1683 36.0024 20.2311V16.888C36.0024 16.1273 35.9446 15.5486 35.7969 15.0242C35.6493 14.5006 35.4111 14.0281 35.0465 13.481C34.6164 12.8887 34.2171 12.5665 33.8442 12.3659C33.5464 12.2057 33.2651 12.1223 32.9904 12.0409C32.9188 12.0197 32.8477 11.9986 32.7768 11.9764L32.7366 11.9637V11.7869L32.7716 11.7721C35.3315 10.6831 36.1184 8.37277 36.1184 6.08555C36.1184 5.24164 35.9697 4.39665 35.7703 3.68303C35.5706 2.96859 35.3213 2.38991 35.1225 2.07757L35.122 2.0768L35.1215 2.07601C34.6641 1.30414 34.099 0.868165 33.4924 0.624112C32.8843 0.379414 32.2311 0.326319 31.5959 0.326319H29.0252V0.423995H30.204V23.5544H29.0252V23.6907ZM31.634 0.519598V11.6709C32.1411 11.6706 32.5359 11.664 32.8814 11.5069C33.2359 11.3458 33.5469 11.0213 33.8627 10.3515C34.3404 9.30026 34.5338 7.53299 34.5338 6.08555C34.5338 5.76876 34.5049 4.93036 34.4013 4.03895C34.3495 3.59332 34.2792 3.13538 34.1847 2.72324C34.09 2.31025 33.9719 1.94699 33.8262 1.68844L33.8255 1.6872L33.8248 1.68593C33.5323 1.1008 33.1287 0.811043 32.7216 0.665996C32.336 0.528597 31.9452 0.52012 31.634 0.519598ZM33.927 1.63328C33.6205 1.02113 33.1934 0.712146 32.7602 0.557769C32.3305 0.404668 31.8971 0.40467 31.5793 0.404671H31.5192V11.7858H31.5856C32.1096 11.7858 32.5456 11.7858 32.9289 11.6115C33.3183 11.4345 33.645 11.0827 33.9668 10.4001L33.967 10.3997L33.9672 10.3994C34.4556 9.32482 34.6487 7.53662 34.6487 6.08555C34.6487 5.76464 34.6196 4.9218 34.5154 4.02569C34.4634 3.57757 34.3924 3.11517 34.2967 2.69757C34.2013 2.28145 34.0804 1.90606 33.927 1.63328Z" fill="#030405"/>
<path d="M38.3152 23.4587H39.2814V0.46257H38.1219V0.25H41.9289V0.46257H40.7887V23.4587H41.9289V23.7486H38.3152V23.4587Z" fill="#030405"/>
<path fill-rule="evenodd" clip-rule="evenodd" d="M38.0664 0.194336H41.9882V0.521799H40.8481V23.4031H41.9882V23.8078H38.2597V23.4031H39.2259V0.521799H38.0664V0.194336ZM38.1813 0.309229V0.406906H39.3408V23.518H38.3745V23.6929H41.8733V23.518H40.7332V0.406906H41.8733V0.309229H38.1813Z" fill="#030405"/>
<path d="M48.3521 8.24926C48.3521 5.85302 47.8304 0.403505 46.0525 0.403505C44.5066 0.403505 44.0235 4.88679 44.0235 12.5586C44.0235 13.8727 44.0235 19.3802 44.6225 21.6991C45.1443 23.6702 45.5501 23.6123 46.1491 23.6123C48.2942 23.6123 48.3715 17.7376 48.3715 15.8438C48.3715 15.4573 48.4101 15.2061 48.5454 15.2061C48.758 15.2061 48.758 15.496 48.758 15.8051C48.758 18.8391 48.1782 23.9408 46.1298 23.9408C43.5403 23.9408 42.1876 17.9308 42.1876 12.5586C42.1876 6.93519 43.8302 0.0556641 46.0525 0.0556641C47.0188 0.0556641 47.1347 1.07986 47.7531 1.07986C48.3135 1.07986 48.4101 0.345532 48.4101 0.0556641H48.5261V8.24926H48.3521V8.24926Z" fill="#030405"/>
<path fill-rule="evenodd" clip-rule="evenodd" d="M43.3407 4.21584C42.6539 6.63299 42.2438 9.75339 42.2438 12.5604C42.2438 15.2426 42.5816 18.0822 43.2414 20.2493C43.5713 21.3332 43.9807 22.2451 44.4659 22.8848C44.9511 23.5245 45.5061 23.8851 46.1286 23.8851C46.613 23.8851 47.018 23.5844 47.3552 23.0667C47.6925 22.5489 47.9551 21.8237 48.1549 20.9989C48.5545 19.3503 48.6992 17.3214 48.6992 15.8069C48.6992 15.6498 48.6989 15.5079 48.6742 15.4048C48.6621 15.3538 48.6453 15.3189 48.625 15.2972C48.6067 15.2776 48.5824 15.2653 48.5441 15.2653C48.5314 15.2653 48.5194 15.2699 48.5055 15.2881C48.4899 15.3084 48.4748 15.3429 48.4623 15.3952C48.4374 15.4992 48.4276 15.6528 48.4276 15.8456C48.4276 16.7926 48.4084 18.739 48.1201 20.4495C47.976 21.3043 47.764 22.105 47.4508 22.6935C47.1379 23.2813 46.7156 23.6715 46.1479 23.6715C46.1302 23.6715 46.1125 23.6715 46.0949 23.6716C45.8197 23.6726 45.561 23.6735 45.3158 23.4381C45.0614 23.1939 44.8265 22.7008 44.5657 21.7156L44.5656 21.7153C44.2643 20.549 44.1145 18.5865 44.0397 16.7562C43.9647 14.924 43.9647 13.2177 43.9647 12.5605V12.5604C43.9647 8.72424 44.0855 5.68174 44.4002 3.59734C44.5575 2.55573 44.7638 1.74867 45.0304 1.20055C45.2962 0.65395 45.6311 0.347841 46.0513 0.347841C46.529 0.347841 46.9097 0.713963 47.211 1.26672C47.5139 1.82229 47.7472 2.58471 47.924 3.41765C48.2721 5.05817 48.4041 6.98811 48.4082 8.1936H48.4673V0.114893H48.4652C48.4595 0.268639 48.4301 0.498366 48.3433 0.700876C48.2444 0.93151 48.0644 1.13909 47.7518 1.13909C47.5792 1.13909 47.4433 1.06688 47.3239 0.96538C47.2324 0.887587 47.1469 0.789037 47.0611 0.69011C47.0371 0.662509 47.0131 0.634878 46.989 0.607661C46.7647 0.354749 46.5087 0.114893 46.0513 0.114893C45.527 0.114893 45.0226 0.521746 44.5583 1.25109C44.096 1.97723 43.6842 3.00691 43.3407 4.21584ZM48.3509 8.25104V8.30849H48.5822V0H48.3514V0.0574465C48.3514 0.198156 48.3277 0.445622 48.2377 0.655617C48.1481 0.864617 47.9996 1.0242 47.7518 1.0242C47.6153 1.0242 47.5048 0.968391 47.3983 0.87785C47.3141 0.806266 47.2364 0.716698 47.1516 0.619037C47.1267 0.590446 47.1013 0.561161 47.075 0.531431C46.8451 0.272244 46.56 0 46.0513 0C45.4644 0 44.9301 0.453088 44.4614 1.18939C43.9906 1.92889 43.5751 2.97056 43.2302 4.18444C42.5401 6.61292 42.1289 9.744 42.1289 12.5604C42.1289 15.2504 42.4675 18.1019 43.1314 20.2828C43.4633 21.3729 43.8776 22.2993 44.3744 22.9543C44.8712 23.6093 45.4563 24 46.1286 24C46.6683 24 47.1039 23.663 47.4515 23.1294C47.7991 22.5957 48.0655 21.8559 48.2666 21.026C48.669 19.3653 48.8141 17.3265 48.8141 15.8069V15.8014C48.8141 15.6511 48.8141 15.4958 48.786 15.3781C48.7716 15.318 48.7485 15.2611 48.709 15.2188C48.6675 15.1744 48.6121 15.1504 48.5441 15.1504C48.4892 15.1504 48.4456 15.1773 48.4143 15.2183C48.3845 15.2571 48.3646 15.3096 48.3506 15.3684C48.3223 15.4866 48.3128 15.6518 48.3128 15.8456C48.3128 16.7924 48.2934 18.7302 48.0068 20.4304C47.8634 21.2811 47.6539 22.0674 47.3493 22.6395C47.0444 23.2124 46.6526 23.5566 46.1479 23.5566C46.1323 23.5566 46.117 23.5566 46.1019 23.5567C45.8207 23.5572 45.6063 23.5577 45.3954 23.3552C45.1666 23.1356 44.9378 22.6721 44.6768 21.6864C44.3791 20.5336 44.2294 18.583 44.1545 16.7515C44.0796 14.9217 44.0796 13.2174 44.0796 12.5604C44.0796 8.72475 44.2005 5.68969 44.5138 3.61449C44.6705 2.57629 44.8748 1.78304 45.1337 1.2508C45.3932 0.717037 45.6985 0.462734 46.0513 0.462734C46.4625 0.462734 46.8137 0.777802 47.1102 1.32171C47.4051 1.86281 47.6357 2.61254 47.8116 3.4415C48.1632 5.09848 48.2934 7.05575 48.2934 8.25104H48.3509Z" fill="#030405"/>
<path d="M48.1756 23.7486H51.4994V23.4974H49.9148C49.9148 23.4974 50.5525 17.2749 50.6684 15.5743H53.6831L54.572 23.4974H53.3932V23.7486H57.6639V23.4974H56.1373L53.3159 0.25H52.4076L50.2819 17.0237C49.9148 20.1349 49.4317 23.4974 49.4317 23.4974H48.1562V23.7486H48.1756ZM52.1951 2.97476H52.2724L53.6058 15.2652H50.7071L52.1951 2.97476Z" fill="#030405"/>
<path fill-rule="evenodd" clip-rule="evenodd" d="M52.352 0.194336H53.3617L56.1831 23.4417H57.7163V23.8078H53.3307V23.4417H54.5027L53.6266 15.6336H50.717C50.655 16.5122 50.4706 18.4492 50.3002 20.181C50.2133 21.0651 50.1299 21.8961 50.0683 22.5061C50.0375 22.8111 50.0122 23.0608 49.9945 23.2343C49.9857 23.321 49.9788 23.3887 49.9741 23.4347L49.9734 23.4417H51.5518V23.8078H48.0938V23.4417H49.3768C49.3803 23.4169 49.3852 23.383 49.3912 23.3405C49.4051 23.2425 49.4254 23.0991 49.4509 22.9172C49.502 22.5534 49.5738 22.036 49.6571 21.4213C49.8238 20.192 50.0363 18.5739 50.2198 17.0187L50.2199 17.0182L52.352 0.194336ZM49.4266 23.4992L49.4835 23.5073L49.4764 23.5566H48.2086V23.6929H51.4369V23.5566H49.8461L49.8526 23.4933L49.9097 23.4992C49.8526 23.4933 49.8526 23.4933 49.8526 23.4932L49.8526 23.493L49.8598 23.423C49.8645 23.3771 49.8714 23.3094 49.8802 23.2227C49.8979 23.0492 49.9232 22.7995 49.954 22.4946C50.0156 21.8847 50.099 21.0538 50.1859 20.1697C50.3599 18.4012 50.5482 16.4214 50.6061 15.5722L50.6097 15.5187H53.7294L54.6312 23.5566H53.4456V23.6929H57.6014V23.5566H56.0813L53.2599 0.309229H52.4532L50.3339 17.0322C50.3339 17.0323 50.3339 17.0324 50.3339 17.0325C50.1503 18.5885 49.9377 20.2071 49.771 21.4368C49.6876 22.0516 49.6158 22.5692 49.5647 22.9332C49.5392 23.1151 49.5189 23.2586 49.505 23.3567C49.498 23.4057 49.4926 23.4434 49.489 23.4688L49.4835 23.5072L49.4835 23.5073C49.4835 23.5074 49.4835 23.5073 49.4266 23.4992ZM52.1391 2.91909H52.3189L53.6647 15.3244H50.6372L52.1391 2.91909ZM52.2277 3.14361L50.7669 15.2095H53.5367L52.2277 3.14361Z" fill="#030405"/>
<path d="M56.7543 23.4974H58.049C58.049 23.4974 58.2423 19.3233 58.2423 17.8353V0.46257H56.7543V0.25H59.9235L63.3439 18.6276H63.3826V6.1633C63.3826 3.78639 63.3439 0.46257 63.3439 0.46257H62.1651V0.25H65.4117V0.46257H63.9043C63.9043 0.46257 63.7111 4.21153 63.7111 6.1633V23.7293H62.8608L58.6094 0.713788H58.5708V17.816C58.5708 19.3426 58.7254 23.4781 58.7254 23.4781H59.8655V23.7293H56.7543V23.4974V23.4974Z" fill="#030405"/>
<path fill-rule="evenodd" clip-rule="evenodd" d="M56.6992 0.194336H59.9736L63.3275 18.2144V6.16509C63.3275 4.97688 63.3179 3.55189 63.3082 2.42387C63.3034 1.85987 63.2985 1.37015 63.2949 1.02143C63.2931 0.847075 63.2916 0.707967 63.2905 0.61245C63.2901 0.575576 63.2898 0.545199 63.2895 0.521799H62.1101V0.194336H65.4715V0.521799H63.9613C63.96 0.549036 63.9581 0.586097 63.9558 0.632104C63.9505 0.738388 63.943 0.892412 63.9339 1.08334C63.9158 1.46522 63.8917 1.9947 63.8675 2.58515C63.8192 3.76637 63.7709 5.1905 63.7709 6.16509V23.7885H62.8154L58.6306 1.13358V17.8178C58.6306 18.58 58.6692 19.9946 58.7079 21.2195C58.7272 21.8317 58.7465 22.3963 58.761 22.8078C58.7683 23.0136 58.7743 23.1811 58.7785 23.2971C58.7805 23.35 58.782 23.3921 58.7831 23.4224H59.9254V23.7885H56.6992V23.4992H56.7567V23.4417H57.9965C57.9979 23.4111 57.9999 23.3682 58.0023 23.3143C58.0076 23.1973 58.0152 23.0285 58.0242 22.8212C58.0423 22.4067 58.0665 21.8385 58.0906 21.2239C58.139 19.9941 58.1872 18.5797 58.1872 17.8371V0.521799H56.6992V0.194336ZM56.8141 23.5566V23.6736H59.8105V23.5373H58.6724L58.6704 23.482L58.7278 23.4799C58.6704 23.482 58.6704 23.482 58.6704 23.482L58.6686 23.4352C58.6675 23.4045 58.6658 23.3593 58.6637 23.3013C58.6595 23.1852 58.6534 23.0177 58.6462 22.8119C58.6317 22.4003 58.6124 21.8356 58.5931 21.2231C58.5544 19.9986 58.5157 18.5822 58.5157 17.8178V0.658124H58.6596L62.911 23.6736H63.656V6.16509C63.656 5.1879 63.7044 3.76166 63.7527 2.58046C63.7769 1.98969 63.801 1.45995 63.8192 1.0779C63.8282 0.886873 63.8358 0.732762 63.8411 0.626401C63.8437 0.57322 63.8458 0.531977 63.8472 0.504024L63.8493 0.462085L63.8494 0.461569L63.8494 0.461439C63.8494 0.46141 63.8494 0.461395 63.9067 0.464352L63.8494 0.461439L63.8522 0.406906H65.3566V0.309229H62.225V0.406906H63.4031L63.4038 0.463684L63.3463 0.464352C63.4038 0.463684 63.4038 0.463659 63.4038 0.463684L63.4038 0.463837L63.4042 0.501608C63.4045 0.526538 63.4049 0.56341 63.4054 0.61118C63.4065 0.706719 63.408 0.845854 63.4098 1.02024C63.4134 1.36902 63.4183 1.85881 63.4231 2.42288C63.4328 3.551 63.4424 4.97638 63.4424 6.16509V18.6868H63.2986L59.8781 0.309229H56.8141V0.406906H58.3021V17.8371C58.3021 18.5824 58.2537 19.9991 58.2054 21.2284C58.1813 21.8433 58.1571 22.4116 58.139 22.8262C58.1299 23.0336 58.1224 23.2024 58.1171 23.3195C58.1145 23.378 58.1124 23.4236 58.111 23.4546L58.1088 23.5018C58.1088 23.5018 58.1088 23.5018 58.1013 23.5015L58.1088 23.5018L58.1063 23.5566H56.8141Z" fill="#030405"/>
<path d="M71.9032 11.1104C72.6762 11.1104 73.5071 11.1104 74.2415 12.3471C74.6473 13.1201 75.0531 15.0333 75.0531 17.758C75.0531 19.246 74.9372 20.6953 74.3381 22.1833C73.6231 23.594 72.5216 23.5167 71.8839 23.5167V11.1104H71.9032ZM69.0625 23.7486H71.9032C74.6666 23.7486 76.8889 21.9708 76.8889 17.4102C76.8889 16.0575 76.5991 14.4728 75.8841 13.2361C74.9951 11.6708 74.2801 11.2843 73.024 10.9365V10.8592C74.4347 10.6466 76.4058 8.73346 76.4058 5.66086C76.4058 1.48677 73.9902 0.25 71.9032 0.25H69.0625V0.46257H70.4345V23.4974H69.0625V23.7486ZM71.9032 0.46257C73.024 0.46257 73.5071 0.675139 74.0675 1.3515C74.8405 2.41435 74.8405 4.92653 74.8405 6.02803C74.8405 8.40495 73.9903 10.0282 73.3912 10.4147C72.8694 10.7625 72.2317 10.7625 71.9032 10.7625V0.46257Z" fill="#030405"/>
<path fill-rule="evenodd" clip-rule="evenodd" d="M69.0083 0.194336H71.9064C72.9607 0.194336 74.1021 0.506717 74.9802 1.35051C75.859 2.19498 76.4665 3.56433 76.4665 5.66265C76.4665 7.21157 75.9696 8.47009 75.2931 9.36885C74.6429 10.2326 73.8237 10.7677 73.1172 10.9038C73.7127 11.0724 74.1921 11.2569 74.6295 11.5856C75.085 11.9278 75.4906 12.423 75.9372 13.2093C76.6586 14.4574 76.9496 16.0527 76.9496 17.412C76.9496 19.7009 76.392 21.301 75.4785 22.3295C74.5644 23.3589 73.3008 23.8078 71.9064 23.8078H69.0083V23.4417H70.3803V0.521799H69.0083V0.194336ZM69.1232 0.309229V0.406906H70.4952V23.5566H69.1232V23.6929H71.9064C73.2755 23.6929 74.5048 23.2529 75.3926 22.2532C76.2812 21.2527 76.8347 19.6836 76.8347 17.412C76.8347 16.0658 76.546 14.492 75.8376 13.2666L75.8373 13.2662C75.395 12.4873 74.9987 12.0067 74.5605 11.6774C74.1223 11.3482 73.6378 11.1669 73.0119 10.9936L72.9698 10.9819V10.8115L73.0187 10.8041C73.7051 10.7007 74.5384 10.1804 75.2013 9.29976C75.863 8.42066 76.3516 7.18633 76.3516 5.66265C76.3516 3.58687 75.7513 2.25078 74.9006 1.43335C74.0492 0.615233 72.9393 0.309229 71.9064 0.309229H69.1232ZM71.849 0.406906H71.9064C72.4696 0.406906 72.8796 0.460145 73.2208 0.602143C73.5634 0.744668 73.8314 0.974298 74.115 1.31663L74.1162 1.31802L74.1173 1.31949C74.5136 1.8644 74.7076 2.77211 74.8043 3.67091C74.9012 4.57257 74.9012 5.47847 74.9012 6.02909V6.02981C74.9012 7.22499 74.6875 8.23202 74.3974 8.99008C74.1086 9.7448 73.7409 10.2611 73.426 10.4645C72.8898 10.8218 72.2378 10.8218 71.9097 10.8218H71.849V0.406906ZM71.9639 0.521991V10.7068C72.3048 10.7057 72.8851 10.687 73.3626 10.3687L73.3629 10.3684L73.3633 10.3682C73.6473 10.1849 74.0041 9.6965 74.2901 8.94903C74.5749 8.20461 74.7863 7.21155 74.7863 6.02981C74.7863 5.47887 74.7863 4.57833 74.69 3.6832C74.5935 2.78566 74.4014 1.90666 74.0254 1.38853C73.7491 1.0553 73.4956 0.840884 73.1767 0.708221C72.8673 0.579472 72.4912 0.525576 71.9639 0.521991ZM71.8297 11.0547H71.9107C72.2946 11.0547 72.7047 11.0547 73.111 11.2132C73.5212 11.3733 73.9217 11.6923 74.2941 12.3196L74.2949 12.3209L74.2956 12.3222C74.5027 12.7167 74.7068 13.3953 74.8594 14.313C75.0121 15.232 75.1138 16.3947 75.1138 17.7598C75.1138 19.2506 74.9977 20.7086 74.3946 22.2066L74.3937 22.2089L74.3926 22.2111C74.0287 22.9289 73.5635 23.2728 73.1044 23.435C72.6925 23.5805 72.2886 23.5781 71.9816 23.5763C71.949 23.5761 71.9175 23.5759 71.8871 23.5759H71.8297V11.0547ZM71.9446 11.1696V23.4612C71.9569 23.4613 71.9693 23.4613 71.9819 23.4614C72.29 23.463 72.6742 23.4651 73.0661 23.3266C73.4955 23.175 73.938 22.8527 74.289 22.1613C74.8832 20.6842 74.9989 19.2441 74.9989 17.7598C74.9989 16.4002 74.8976 15.2439 74.746 14.3319C74.5944 13.4196 74.393 12.7557 74.1946 12.377C73.8329 11.7683 73.451 11.4693 73.0692 11.3203C72.6972 11.1751 72.3199 11.1698 71.9446 11.1696Z" fill="#030405"/>
<path d="M76.0005 23.7486H79.5369V23.4974H77.9523C77.9523 23.4974 78.59 17.2749 78.706 15.5743H81.7206L82.6095 23.4974H81.4307V23.7486H85.7015V23.4974H84.1748L81.3534 0.25H80.4645L78.3388 17.0237C77.9717 20.1349 77.4885 23.4974 77.4885 23.4974H76.0199V23.7486H76.0005ZM80.2326 2.97476H80.3099L81.6433 15.2652H78.7446L80.2326 2.97476Z" fill="#030405"/>
<path fill-rule="evenodd" clip-rule="evenodd" d="M80.4156 0.194336H81.4061L84.2275 23.4417H85.7606V23.8078H81.375V23.4417H82.547L81.671 15.6336H78.7613C78.6993 16.5122 78.5149 18.4492 78.3446 20.181C78.2576 21.0651 78.1743 21.8961 78.1127 22.5061C78.0819 22.8111 78.0565 23.0608 78.0389 23.2343C78.03 23.321 78.0231 23.3887 78.0184 23.4347L78.0177 23.4417H79.5961V23.8078H76.0023V23.7504H75.9642V23.4417H77.4405C77.444 23.4169 77.4488 23.383 77.4549 23.3405C77.4688 23.2425 77.4891 23.0991 77.5146 22.9172C77.5656 22.5534 77.6375 22.036 77.7208 21.4213C77.8875 20.192 78.1 18.5739 78.2835 17.0187L78.2836 17.0182L80.4156 0.194336ZM77.4903 23.4992L77.5471 23.5073L77.5401 23.5566H76.0791V23.6929H79.4812V23.5566H77.8904L77.8969 23.4933L77.9541 23.4992C77.8969 23.4933 77.8969 23.4933 77.8969 23.4932L77.9041 23.423C77.9088 23.3771 77.9157 23.3094 77.9245 23.2227C77.9422 23.0492 77.9676 22.7995 77.9984 22.4946C78.06 21.8847 78.1433 21.0538 78.2302 20.1697C78.4042 18.4012 78.5925 16.4214 78.6504 15.5722L78.6541 15.5187H81.7737L82.6755 23.5566H81.4899V23.6929H85.6458V23.5566H84.1257L81.3043 0.309229H80.5169L80.1861 2.91909H80.3632L81.7091 15.3244H78.6816L80.1259 3.39451L78.3976 17.0322C78.3976 17.0323 78.3976 17.0324 78.3976 17.0324C78.214 18.5884 78.0013 20.2071 77.8347 21.4368C77.7513 22.0516 77.6794 22.5692 77.6284 22.9332C77.6029 23.1151 77.5826 23.2586 77.5686 23.3567C77.5617 23.4057 77.5563 23.4434 77.5527 23.4688L77.5471 23.5073C77.5471 23.5074 77.5471 23.5073 77.4903 23.4992ZM80.272 3.14361L78.8112 15.2095H81.581L80.272 3.14361Z" fill="#030405"/>
<path d="M84.7969 23.4974H86.0916C86.0916 23.4974 86.2849 19.3233 86.2849 17.8353V0.46257H84.7969V0.25H87.9661L91.3865 18.6276H91.4252V6.1633C91.4252 3.78639 91.3865 0.46257 91.3865 0.46257H90.2077V0.25H93.0484V0.46257H91.9469C91.9469 0.46257 91.7537 4.21153 91.7537 6.1633V23.7293H90.9034L86.652 0.713788H86.6134V17.816C86.6134 19.3426 86.768 23.4781 86.768 23.4781H87.9081V23.7293H84.7969V23.4974V23.4974Z" fill="#030405"/>
<path fill-rule="evenodd" clip-rule="evenodd" d="M84.7414 0.194336H88.0158L91.3697 18.2144V6.16509C91.3697 4.97688 91.36 3.55189 91.3504 2.42387C91.3456 1.85987 91.3407 1.37015 91.3371 1.02143C91.3353 0.847075 91.3338 0.707967 91.3327 0.61245C91.3323 0.575576 91.332 0.545199 91.3317 0.521799H90.1523V0.194336H93.1079V0.521799H92.0035C92.0021 0.549036 92.0003 0.586097 91.998 0.632104C91.9927 0.738388 91.9852 0.892412 91.9761 1.08334C91.958 1.46522 91.9338 1.9947 91.9097 2.58515C91.8614 3.76637 91.8131 5.1905 91.8131 6.16509V23.7885H90.8576L86.6728 1.13358V17.8178C86.6728 18.58 86.7114 19.9946 86.7501 21.2195C86.7694 21.8317 86.7887 22.3963 86.8032 22.8078C86.8104 23.0136 86.8165 23.1811 86.8207 23.2971C86.8226 23.35 86.8242 23.3921 86.8253 23.4224H87.9675V23.7885H84.7414V23.4992H84.7988V23.4417H86.0387C86.0401 23.4111 86.0421 23.3682 86.0445 23.3143C86.0498 23.1973 86.0573 23.0285 86.0664 22.8212C86.0845 22.4067 86.1086 21.8385 86.1328 21.2239C86.1811 19.9941 86.2294 18.5797 86.2294 17.8371V0.521799H84.7414V0.194336ZM86.0936 23.4992L86.151 23.5018L86.1484 23.5566H84.8563V23.6736H87.8526V23.5373H86.7146L86.7125 23.482L86.7699 23.4799C86.7125 23.482 86.7125 23.482 86.7125 23.482L86.7108 23.4352C86.7097 23.4045 86.708 23.3593 86.7059 23.3013C86.7017 23.1852 86.6956 23.0177 86.6884 22.8119C86.6739 22.4003 86.6546 21.8356 86.6352 21.2231C86.5966 19.9986 86.5579 18.5822 86.5579 17.8178V0.658124H86.7018L90.9532 23.6736H91.6982V6.16509C91.6982 5.1879 91.7466 3.76166 91.7949 2.58046C91.8191 1.98969 91.8432 1.45995 91.8613 1.0779C91.8704 0.886873 91.8779 0.732762 91.8832 0.626401C91.8859 0.57322 91.888 0.531977 91.8894 0.504024L91.8915 0.461569L91.8915 0.461439C91.8915 0.46141 91.8915 0.461395 91.9489 0.464352L91.8915 0.461439L91.8944 0.406906H92.993V0.309229H90.2672V0.406906H91.4453L91.4459 0.463684L91.3885 0.464352C91.4459 0.463684 91.4459 0.463659 91.4459 0.463684L91.4459 0.463837L91.446 0.464293L91.4464 0.501608C91.4467 0.526538 91.4471 0.56341 91.4476 0.61118C91.4487 0.706719 91.4502 0.845854 91.452 1.02024C91.4556 1.36902 91.4604 1.85881 91.4653 2.42288C91.4749 3.551 91.4846 4.97638 91.4846 6.16509V18.6868H91.3408L87.9203 0.309229H84.8563V0.406906H86.3443V17.8371C86.3443 18.5824 86.2959 19.9991 86.2476 21.2284C86.2234 21.8433 86.1993 22.4116 86.1812 22.8262C86.1721 23.0336 86.1646 23.2024 86.1593 23.3195C86.1566 23.378 86.1546 23.4236 86.1531 23.4546L86.151 23.5018C86.151 23.5019 86.151 23.5018 86.0936 23.4992Z" fill="#030405"/>
<path d="M93.5266 23.4974H94.6668V0.46257H93.43V0.25H97.4495V0.46257H96.1548V12.637H96.1934L98.551 5.73816C98.7829 5.0618 100.078 0.46257 100.078 0.46257H98.9375V0.25H101.894V0.46257H100.464C100.464 0.46257 99.1694 4.46274 98.6476 6.086L97.8553 8.42427L100.909 23.4974H102.01V23.7486H98.6283V23.4974H99.4206L96.9277 11.2843L96.1741 13.3327V23.4974H97.121V23.7486H93.5459V23.4974H93.5266Z" fill="#030405"/>
<path fill-rule="evenodd" clip-rule="evenodd" d="M93.375 0.194336H97.5094V0.521799H96.2147V12.4062L98.4991 5.72137L98.4991 5.72131C98.6144 5.38496 98.9955 4.06812 99.3485 2.83273C99.5248 2.21562 99.6939 1.61963 99.8189 1.17791C99.8814 0.957052 99.9329 0.774766 99.9687 0.647697C99.9832 0.596348 99.9951 0.554016 100.004 0.521799H98.8825V0.194336H101.954V0.521799H100.508L100.465 0.657092C100.428 0.769641 100.376 0.932238 100.311 1.13243C100.181 1.5328 100.003 2.08355 99.8086 2.68502C99.4197 3.88798 98.9656 5.29379 98.7048 6.10537L98.7046 6.10579L97.9171 8.42982L100.958 23.4417H102.07V23.8078H98.5733V23.4417H99.3527L96.9143 11.4956L96.234 13.3447V23.4417H97.1809V23.8078H93.4909V23.4992H93.5291V23.4417H94.6118V0.521799H93.375V0.194336ZM93.6058 23.5566H94.7267V0.406906H93.4899V0.309229H97.3945V0.406906H96.0998V12.6962H96.2369L98.6078 5.75858C98.7244 5.41857 99.1066 4.09761 99.459 2.8643C99.6353 2.24706 99.8044 1.65097 99.9294 1.20919C99.9919 0.988303 100.043 0.80599 100.079 0.678896C100.097 0.615349 100.111 0.565607 100.121 0.531751L100.135 0.48013L100.135 0.479972C100.135 0.479937 100.135 0.479919 100.08 0.464352L100.135 0.479919L100.156 0.406906H98.9974V0.309229H101.839V0.406906H100.425L100.412 0.446662L100.467 0.464352C100.412 0.446662 100.412 0.446631 100.412 0.446662L100.412 0.446845L100.412 0.447391L100.355 0.621718C100.319 0.734269 100.266 0.896868 100.201 1.09706C100.072 1.49744 99.8938 2.04819 99.6993 2.64968C99.3105 3.85241 98.8564 5.25805 98.5955 6.06979C98.5955 6.06993 98.5954 6.07007 98.5954 6.07021L97.7984 8.42228L100.864 23.5566H101.955V23.6929H98.6882V23.5566H99.4934L96.9461 11.0766L96.1191 13.3242V23.5566H97.066V23.6929H93.6058V23.5566Z" fill="#030405"/>
<path d="M102.609 23.4974H103.652V0.46257H102.512V0.25H109.237V8.03778H109.005C109.005 3.26463 107.768 0.46257 106.357 0.46257H105.121V10.8012C105.565 10.8012 105.932 10.6273 106.087 10.4147C107.053 9.27455 107.092 5.64154 107.092 5.56424H107.324V16.2893H107.092C107.092 16.2121 107.053 12.579 106.087 11.4775C105.932 11.265 105.565 11.0524 105.121 11.0524V23.4781H106.357C107.768 23.4781 109.005 20.7147 109.005 15.9415H109.237V23.7293H102.609V23.4974Z" fill="#030405"/>
<path fill-rule="evenodd" clip-rule="evenodd" d="M102.457 0.194336H109.297V8.09701H108.95V8.03956C108.95 5.65712 108.642 3.77073 108.159 2.48216C107.918 1.83774 107.635 1.3458 107.327 1.01592C107.02 0.68635 106.692 0.521799 106.36 0.521799H105.181V10.7445C105.587 10.7303 105.909 10.5671 106.043 10.3827L106.045 10.381L106.046 10.3793C106.279 10.104 106.46 9.67291 106.599 9.17309C106.738 8.67473 106.833 8.11437 106.898 7.58567C107.028 6.5283 107.037 5.60321 107.037 5.56603V5.50858H107.384V16.3486H107.037V16.2911C107.037 16.2539 107.028 15.3289 106.898 14.2764C106.833 13.7501 106.738 13.1934 106.599 12.7005C106.46 12.2061 106.28 11.7827 106.047 11.5172L106.045 11.5152L106.043 11.5131C105.907 11.3259 105.583 11.1301 105.181 11.1129V23.4224H106.36C106.693 23.4224 107.02 23.26 107.327 22.9341C107.635 22.6078 107.918 22.1208 108.159 21.4812C108.642 20.2024 108.95 18.3258 108.95 15.9433V15.8858H109.297V23.7885H102.554V23.4417H103.597V0.521799H102.457V0.194336ZM102.572 0.309229V0.406906H103.712V23.5566H102.669V23.6736H109.182V16.0007H109.065C109.06 18.3643 108.752 20.236 108.267 21.5218C108.023 22.1697 107.732 22.6718 107.411 23.0129C107.089 23.3543 106.733 23.5373 106.36 23.5373H105.066V10.9967H105.124C105.583 10.9967 105.967 11.2151 106.135 11.4434C106.384 11.7287 106.57 12.1716 106.71 12.6695C106.85 13.17 106.946 13.7329 107.012 14.2623C107.126 15.1856 107.148 16.0111 107.151 16.2337H107.269V5.62347H107.151C107.148 5.84614 107.126 6.67217 107.012 7.5997C106.946 8.13144 106.85 8.69794 106.71 9.20384C106.57 9.70738 106.384 10.1573 106.135 10.452C105.965 10.6833 105.579 10.8604 105.124 10.8604H105.066V0.406906H106.36C106.734 0.406906 107.09 0.592611 107.411 0.937588C107.732 1.28225 108.023 1.78915 108.267 2.44189C108.752 3.73716 109.06 5.61839 109.065 7.98212H109.182V0.309229H102.572Z" fill="#030405"/>
<path d="M109.938 23.7488H113.939V23.4976H112.567V12.0382C113.359 12.0382 114.267 12.1155 114.905 13.0237C115.659 14.0866 115.659 15.7871 115.659 17.0625V20.3477C115.659 21.8743 116.142 23.8841 117.378 23.8841C118.016 23.8841 118.383 23.5363 118.731 22.9372C119.214 22.0869 119.388 20.5023 119.388 19.1496C119.388 18.8597 119.311 18.6472 119.176 18.6472C119.098 18.6472 119.002 18.7244 119.002 19.1496V20.0385C119.002 22.5121 118.441 23.5363 117.804 23.5363C117.166 23.5363 117.05 22.0676 117.05 20.2124V16.8886C117.05 15.362 116.818 14.5504 116.084 13.4489C115.214 12.2507 114.46 12.1348 113.784 11.9222V11.8256C116.374 10.7241 117.147 8.38583 117.147 6.08621C117.147 4.38565 116.547 2.6851 116.142 2.04739C115.214 0.482101 113.842 0.269531 112.567 0.269531H109.938V0.482101H111.117V23.4976H109.938V23.7488V23.7488ZM112.567 0.462776C113.204 0.462776 114.267 0.462776 114.866 1.6609C115.465 2.72375 115.581 5.4485 115.581 6.08621C115.581 7.53555 115.388 9.31341 114.905 10.3763C114.267 11.729 113.629 11.729 112.567 11.729V0.462776Z" fill="#030405"/>
<path fill-rule="evenodd" clip-rule="evenodd" d="M109.879 0.211914H112.564C113.205 0.211914 113.875 0.265103 114.504 0.518012C115.134 0.771482 115.718 1.22422 116.188 2.01714C116.395 2.34267 116.648 2.93276 116.849 3.6526C117.051 4.37383 117.202 5.2294 117.202 6.08604C117.202 8.38734 116.431 10.743 113.839 11.8633V11.8797C113.894 11.8966 113.95 11.913 114.006 11.9297C114.282 12.0114 114.577 12.0988 114.886 12.2652C115.277 12.4751 115.689 12.8098 116.128 13.4149L116.129 13.4159L116.129 13.4168C116.499 13.9709 116.743 14.4546 116.895 14.9936C117.047 15.532 117.105 16.1224 117.105 16.8884V20.2123C117.105 21.1399 117.134 21.9662 117.242 22.5596C117.296 22.8568 117.369 23.0902 117.464 23.2479C117.558 23.4042 117.669 23.4786 117.801 23.4786C118.084 23.4786 118.369 23.2523 118.586 22.694C118.802 22.1383 118.942 21.272 118.942 20.0383V19.1494C118.942 18.9344 118.966 18.7986 119.005 18.7145C119.025 18.6716 119.051 18.6397 119.081 18.6186C119.112 18.5971 119.144 18.5895 119.173 18.5895C119.277 18.5895 119.345 18.6718 119.384 18.7679C119.424 18.8667 119.443 19.0005 119.443 19.1494C119.443 19.828 119.4 20.5653 119.295 21.2404C119.191 21.9143 119.026 22.5312 118.779 22.9654L118.779 22.9659C118.603 23.2681 118.42 23.5124 118.196 23.681C117.97 23.8508 117.707 23.9414 117.376 23.9414C116.72 23.9414 116.277 23.4079 115.999 22.7094C115.72 22.0074 115.599 21.1156 115.599 20.3475V17.0624C115.599 16.4241 115.599 15.6838 115.505 14.9707C115.412 14.2571 115.225 13.5771 114.856 13.0568L114.856 13.0566C114.251 12.1946 113.397 12.0997 112.622 12.0956V23.44H113.994V23.8061H109.936V23.7487H109.879V23.44H111.058V0.539377H109.879V0.211914ZM109.994 23.6912H113.879V23.5549H112.507V11.9805H112.564C113.359 11.9805 114.294 12.0573 114.95 12.9905C115.334 13.533 115.524 14.2346 115.619 14.9558C115.714 15.6769 115.714 16.424 115.714 17.0607V20.3475C115.714 21.1061 115.834 21.9825 116.106 22.667C116.379 23.3551 116.795 23.8265 117.376 23.8265C117.683 23.8265 117.922 23.7431 118.127 23.5892C118.333 23.4342 118.507 23.2052 118.679 22.9084C118.916 22.4923 119.078 21.8919 119.182 21.2229C119.285 20.5549 119.329 19.8236 119.329 19.1494C119.329 19.0085 119.31 18.891 119.277 18.8111C119.244 18.7285 119.205 18.7044 119.173 18.7044C119.164 18.7044 119.156 18.7065 119.147 18.7128C119.137 18.7195 119.123 18.7335 119.11 18.7631C119.081 18.8239 119.057 18.9393 119.057 19.1494V20.0383C119.057 21.2783 118.917 22.1608 118.693 22.7356C118.471 23.3077 118.157 23.5935 117.801 23.5935C117.615 23.5935 117.472 23.4844 117.365 23.3073C117.26 23.1317 117.184 22.882 117.129 22.5801C117.019 21.9754 116.99 21.1398 116.99 20.2123V16.8884C116.99 16.1278 116.933 15.5491 116.785 15.0247C116.637 14.5011 116.399 14.0286 116.034 13.4815C115.604 12.8892 115.205 12.567 114.832 12.3664C114.534 12.2062 114.253 12.1228 113.978 12.0414C113.907 12.0202 113.836 11.9991 113.765 11.9768L113.724 11.9642V11.7874L113.759 11.7726C116.319 10.6837 117.087 8.37366 117.087 6.08604C117.087 5.24212 116.938 4.39714 116.739 3.68352C116.539 2.96908 116.29 2.3904 116.091 2.07806L116.091 2.07729L116.09 2.0765C115.633 1.30463 115.068 0.868653 114.461 0.624601C113.853 0.379903 113.2 0.326807 112.564 0.326807H109.994V0.424484H111.173V23.5549H109.994V23.6912ZM112.622 0.520086V11.6713C113.129 11.6711 113.524 11.6645 113.869 11.5074C114.224 11.3462 114.535 11.0218 114.851 10.3519C115.328 9.30075 115.522 7.53348 115.522 6.08604C115.522 5.76925 115.493 4.93085 115.389 4.03944C115.337 3.59381 115.267 3.13587 115.173 2.72373C115.078 2.31073 114.96 1.94747 114.814 1.68893L114.813 1.68769L114.813 1.68642C114.52 1.10129 114.117 0.811531 113.71 0.666485C113.324 0.529086 112.933 0.520608 112.622 0.520086ZM114.915 1.63376C114.608 1.02161 114.181 0.712634 113.748 0.558257C113.318 0.405156 112.885 0.405158 112.567 0.405159H112.507V11.7862H112.573C113.097 11.7863 113.533 11.7863 113.917 11.612C114.306 11.435 114.633 11.0832 114.955 10.4006L114.955 10.4002L114.955 10.3999C115.443 9.32531 115.637 7.53711 115.637 6.08604C115.637 5.76513 115.607 4.92229 115.503 4.02618C115.451 3.57805 115.38 3.11566 115.285 2.69806C115.189 2.28194 115.068 1.90655 114.915 1.63376Z" fill="#030405"/>
<path d="M119.929 23.1498C120.006 23.1498 120.084 23.1305 120.084 23.0338C120.084 22.9179 119.968 22.9179 119.89 22.9179H119.697V23.1498H119.929V23.1498ZM120.219 23.6329H120.045L119.871 23.2851H119.716V23.6329H119.562V22.8213H119.929C119.987 22.8213 120.084 22.8213 120.142 22.8599C120.219 22.8986 120.238 22.9952 120.238 23.0725C120.238 23.2271 120.161 23.2851 120.026 23.2851L120.219 23.6329ZM120.431 23.2078C120.431 22.8599 120.18 22.5894 119.852 22.5894C119.523 22.5894 119.272 22.8599 119.272 23.2078C119.272 23.5556 119.523 23.8261 119.852 23.8261C120.18 23.8261 120.431 23.5556 120.431 23.2078ZM119.137 23.2078C119.137 22.7826 119.465 22.4541 119.852 22.4541C120.238 22.4541 120.567 22.8019 120.567 23.2078C120.567 23.6329 120.238 23.9614 119.852 23.9614C119.446 23.9807 119.137 23.6329 119.137 23.2078Z" fill="#030405"/>
</svg>
