<svg width="24" height="24" viewBox="0 0 24 24" fill="none" xmlns="http://www.w3.org/2000/svg">
<path d="M2 14.0938C2 15.5521 2.20833 16.7708 2.625 17.75C3.04167 18.7083 3.625 19.4583 4.375 20L9.90625 17.1562C9.15625 16.3646 8.58333 15.5 8.1875 14.5625C7.8125 13.625 7.625 12.7188 7.625 11.8438C7.625 11.2188 7.67708 10.5833 7.78125 9.9375C7.90625 9.27083 8.09375 8.61458 8.34375 7.96875C8.61458 7.32292 8.94792 6.71875 9.34375 6.15625C9.76042 5.57292 10.2604 5.0625 10.8438 4.625L10.4688 4C9.26042 4.54167 8.13542 5.15625 7.09375 5.84375C6.05208 6.51042 5.15625 7.26042 4.40625 8.09375C3.65625 8.90625 3.0625 9.8125 2.625 10.8125C2.20833 11.8125 2 12.9062 2 14.0938ZM12.3125 14.0938C12.3125 15.5521 12.5208 16.7708 12.9375 17.75C13.3542 18.7083 13.9375 19.4583 14.6875 20L20.2188 17.1562C19.4688 16.3646 18.8958 15.5 18.5 14.5625C18.125 13.625 17.9375 12.7188 17.9375 11.8438C17.9375 11.2188 17.9896 10.5833 18.0938 9.9375C18.2188 9.27083 18.4062 8.61458 18.6562 7.96875C18.9271 7.32292 19.2604 6.71875 19.6562 6.15625C20.0729 5.57292 20.5729 5.0625 21.1562 4.625L20.7812 4C19.5729 4.54167 18.4479 5.15625 17.4062 5.84375C16.3646 6.51042 15.4688 7.26042 14.7188 8.09375C13.9688 8.90625 13.375 9.8125 12.9375 10.8125C12.5208 11.8125 12.3125 12.9062 12.3125 14.0938Z" fill="#E1A163"/>
</svg>
