<svg width="120" height="28" viewBox="0 0 120 28" fill="none" xmlns="http://www.w3.org/2000/svg">
<path d="M89.2341 16.5728C89.2341 18.0419 89.2876 18.0834 90.6201 18.0834H95.0645C95.253 18.0834 95.4103 18.2407 95.4103 18.4322V19.554C95.4103 19.8003 95.3242 19.8894 95.0645 19.922C94.4991 20.0111 93.3565 20.1669 91.2716 20.1669C88.3527 20.1669 86.8109 20.1862 86.8109 16.5713V11.0199C86.8109 7.40357 88.3527 7.42287 91.2716 7.42287C93.3565 7.42287 94.4976 7.58165 95.0645 7.66771C95.3242 7.70333 95.4103 7.79088 95.4103 8.03721V9.15758C95.4103 9.35049 95.2515 9.51076 95.0645 9.51076H90.6201C89.2876 9.51076 89.2341 9.54934 89.2341 11.0184V12.6255H94.8493C95.0452 12.6255 95.1981 12.7858 95.1981 12.9757V14.2415C95.1981 14.433 95.0452 14.5917 94.8493 14.5917H89.2341V16.5728V16.5728ZM115.181 20.1758C113.63 20.1758 112.058 19.9102 111.216 19.7158C111.043 19.6801 110.883 19.5585 110.883 19.3656V18.1027C110.883 17.9098 111.043 17.7688 111.216 17.7688H111.251C111.953 17.8564 113.597 18.0849 115.219 18.0849C116.779 18.0849 117.255 17.527 117.255 16.509C117.255 15.1927 114.115 14.4641 112.581 13.8335C111.057 13.2013 110.514 11.9934 110.514 10.7647C110.514 8.83408 112.069 7.43028 115.329 7.43028C117.001 7.43028 118.534 7.74785 119.129 7.89327C119.306 7.92889 119.443 8.05057 119.443 8.22419V9.52263C119.443 9.69625 119.324 9.83722 119.146 9.83722H119.112C117.954 9.73335 116.752 9.52115 115.228 9.52115C113.927 9.52115 112.953 9.97523 112.953 10.7647C112.953 11.3419 113.614 11.8747 114.393 12.1818C115.172 12.4875 116.194 12.8867 117.362 13.3571C118.837 13.9551 119.797 14.8262 119.797 16.5075C119.796 18.2808 118.692 20.1758 115.181 20.1758ZM105.853 11.3924C105.853 10.0761 104.833 9.51521 103.075 9.51521C102.708 9.51521 101.113 9.55082 100.795 9.58347V13.3883C101.079 13.4061 102.781 13.4417 103.075 13.4417C104.884 13.4417 105.853 13.093 105.853 11.5497V11.3924ZM108.485 20.0289H106.341C106.149 20.0289 106.08 19.8523 105.992 19.6772L103.464 15.4242H103.072C102.618 15.4242 101.201 15.3738 100.792 15.353V19.6772C100.792 19.8701 100.654 20.0289 100.462 20.0289H98.709C98.5146 20.0289 98.3573 19.8701 98.3573 19.6772V8.17967C98.3573 7.82649 98.5651 7.70481 98.9168 7.65139C99.8294 7.5119 101.794 7.42435 103.07 7.42435C105.776 7.42435 108.269 8.39039 108.269 11.3909V11.5497C108.269 13.4076 107.337 14.4255 105.9 14.9835L108.657 19.6787C108.693 19.7321 108.693 19.7811 108.693 19.8211C108.696 19.9398 108.625 20.0289 108.485 20.0289ZM84.6592 9.59979H81.1586V19.6787C81.1586 19.8716 80.9968 20.0304 80.8024 20.0304H79.0677C78.8733 20.0304 78.716 19.8716 78.716 19.6787V9.59979H75.2125C75.0225 9.59979 74.8637 9.48108 74.8637 9.28668V7.90069C74.8637 7.7063 75.0225 7.56681 75.2125 7.56681H84.6592C84.8491 7.56681 85.0079 7.7063 85.0079 7.90069V9.28668C85.0079 9.48108 84.8491 9.59979 84.6592 9.59979ZM67.8625 20.1684C65.0416 20.1684 62.6079 18.9411 62.6079 15.2002V7.90069C62.6079 7.7063 62.7682 7.56681 62.9611 7.56681H64.6943C64.8902 7.56681 65.046 7.7063 65.046 7.90069V15.2002C65.046 17.202 65.9705 18.1502 67.8625 18.1502C69.7605 18.1502 70.682 17.202 70.682 15.2002V7.90069C70.682 7.7063 70.8408 7.56681 71.0322 7.56681H72.7684C72.9643 7.56681 73.1216 7.7063 73.1216 7.90069V15.2002C73.1231 18.9411 70.6894 20.1684 67.8625 20.1684ZM53.8097 16.5728C53.8097 18.0419 53.8661 18.0834 55.1927 18.0834H59.6341C59.8285 18.0834 59.9858 18.2407 59.9858 18.4322V19.554C59.9858 19.8003 59.8968 19.8894 59.6341 19.922C59.0732 20.0111 57.9291 20.1669 55.8427 20.1669C52.9312 20.1669 51.3864 20.1862 51.3864 16.5713V11.0199C51.3864 7.40357 52.9312 7.42287 55.8427 7.42287C57.9291 7.42287 59.0717 7.58165 59.6341 7.66771C59.8983 7.70333 59.9858 7.79088 59.9858 8.03721V9.15758C59.9858 9.35049 59.827 9.51076 59.6341 9.51076H55.1927C53.8661 9.51076 53.8097 9.54934 53.8097 11.0184V12.6255H59.4249C59.6178 12.6255 59.7766 12.7858 59.7766 12.9757V14.2415C59.7766 14.433 59.6178 14.5917 59.4249 14.5917H53.8097V16.5728ZM46.2891 11.3924C46.2891 10.0761 45.2682 9.51521 43.5142 9.51521C43.1432 9.51521 41.5465 9.55082 41.2334 9.58347V13.3883C41.5109 13.4061 43.2115 13.4417 43.5142 13.4417C45.3186 13.4417 46.2891 13.093 46.2891 11.5497V11.3924ZM48.9216 20.0289H46.7788C46.5874 20.0289 46.5162 19.8523 46.4301 19.6772L43.9015 15.4242H43.5157C43.0571 15.4242 41.6385 15.3738 41.2349 15.353V19.6772C41.2349 19.8701 41.0924 20.0289 40.8995 20.0289H39.1455C38.9541 20.0289 38.7968 19.8701 38.7968 19.6772V8.17967C38.7968 7.82649 39.0045 7.70481 39.3577 7.65139C40.2718 7.5119 42.2335 7.42435 43.5157 7.42435C46.2164 7.42435 48.7124 8.39039 48.7124 11.3909V11.5497C48.7124 13.4076 47.782 14.4255 46.344 14.9835L49.0967 19.6787C49.1323 19.7321 49.1323 19.7811 49.1323 19.8211C49.1309 19.9398 49.0611 20.0289 48.9216 20.0289Z" fill="black"/>
<path d="M13.7134 9.16037C13.4655 9.29392 13.378 9.60407 13.5071 9.84892C13.6392 10.0997 13.9523 10.1887 14.2001 10.0581C14.4464 9.92311 14.5369 9.61445 14.4049 9.36515C14.3144 9.19599 14.1392 9.09656 13.9567 9.09656C13.8736 9.09805 13.7905 9.11882 13.7134 9.16037ZM15.083 9.18263C14.8604 9.29986 14.7833 9.57439 14.9005 9.79549C15.0162 10.0151 15.2908 10.0982 15.5104 9.97653C15.7345 9.85634 15.8131 9.58329 15.6959 9.36367C15.6158 9.21231 15.4614 9.12624 15.3012 9.12624C15.227 9.12476 15.1528 9.14405 15.083 9.18263ZM12.4134 9.54768C12.1345 9.69904 12.0276 10.0492 12.1805 10.3282C12.3318 10.6087 12.6805 10.717 12.9655 10.5642C13.2459 10.4128 13.3483 10.0626 13.1984 9.78362C13.0946 9.58774 12.8957 9.47793 12.6894 9.47793C12.596 9.47793 12.501 9.50019 12.4134 9.54768ZM16.3978 9.61C16.2049 9.71685 16.1307 9.96169 16.2346 10.1516C16.3384 10.3445 16.5833 10.4143 16.7703 10.3089C16.9676 10.2051 17.0388 9.96466 16.932 9.77324C16.8608 9.63968 16.7228 9.564 16.5818 9.564C16.518 9.56548 16.4557 9.57884 16.3978 9.61ZM11.3821 10.4187C11.1313 10.5568 11.0378 10.8595 11.1743 11.1132C11.3079 11.3581 11.6136 11.4516 11.8614 11.318C12.1137 11.1845 12.2057 10.8728 12.0721 10.628C11.9801 10.4573 11.8035 10.3579 11.621 10.3579C11.5394 10.3564 11.4578 10.3772 11.3821 10.4187ZM17.5285 10.4247C17.3594 10.5167 17.2985 10.7215 17.3861 10.8862C17.4751 11.0509 17.6799 11.1103 17.8506 11.0272C18.0138 10.9337 18.0791 10.7274 17.9886 10.5612C17.9262 10.4484 17.809 10.3816 17.6888 10.3816C17.6354 10.3831 17.579 10.3965 17.5285 10.4247ZM18.364 11.5391C18.2319 11.6163 18.177 11.7914 18.2542 11.9264C18.3269 12.0644 18.499 12.1134 18.6341 12.0407C18.7721 11.9665 18.824 11.7973 18.7498 11.6593C18.6964 11.5614 18.5985 11.508 18.4976 11.508C18.4516 11.508 18.407 11.5169 18.364 11.5391ZM10.6476 11.5747C10.4264 11.6934 10.3463 11.9695 10.4606 12.1891C10.5823 12.4072 10.8568 12.4918 11.0749 12.3731C11.296 12.2559 11.3806 11.9798 11.2604 11.7573C11.1773 11.6074 11.02 11.5213 10.8598 11.5213C10.7885 11.5213 10.7158 11.5391 10.6476 11.5747ZM18.7884 12.7574C18.6207 12.845 18.5584 13.0542 18.6504 13.2189C18.7365 13.3836 18.9457 13.4445 19.106 13.3599C19.2737 13.2634 19.3375 13.0557 19.2499 12.8939C19.1876 12.7797 19.0703 12.7159 18.9501 12.7159C18.8938 12.7159 18.8403 12.7307 18.7884 12.7574ZM10.287 12.9132C10.097 13.0156 10.0273 13.256 10.1282 13.4475C10.235 13.6433 10.4739 13.7131 10.6668 13.6092C10.8583 13.5038 10.931 13.2605 10.8271 13.072C10.7559 12.9399 10.6194 12.8643 10.4784 12.8643C10.4146 12.8628 10.3478 12.8776 10.287 12.9132ZM18.7914 14.0499C18.597 14.1568 18.5287 14.3942 18.6281 14.5901C18.7305 14.7785 18.9784 14.8498 19.1698 14.7474C19.3612 14.642 19.4309 14.4016 19.3271 14.2102C19.2558 14.0766 19.1208 14.0024 18.9798 14.0024C18.916 14.0024 18.8522 14.0173 18.7914 14.0499ZM10.3448 14.3007C10.1816 14.3912 10.1193 14.599 10.2098 14.7637C10.2988 14.9314 10.5066 14.9893 10.6683 14.8973C10.8345 14.8127 10.9013 14.602 10.8078 14.4387C10.744 14.3259 10.6283 14.2606 10.5066 14.2606C10.4517 14.2606 10.3953 14.274 10.3448 14.3007ZM18.3803 15.2846C18.1592 15.4003 18.0776 15.6823 18.1948 15.9019C18.3165 16.12 18.5896 16.2031 18.8062 16.0844C19.0318 15.9627 19.1104 15.6912 18.9947 15.4686C18.9131 15.3172 18.7572 15.2297 18.5955 15.2297C18.5228 15.2297 18.4486 15.2475 18.3803 15.2846ZM10.8197 15.617C10.6802 15.6897 10.6312 15.8618 10.7054 16.0043C10.7796 16.1393 10.9488 16.1912 11.0898 16.1185C11.2263 16.0414 11.2782 15.8692 11.2025 15.7312C11.1506 15.6377 11.0512 15.5828 10.9503 15.5828C10.9058 15.5843 10.8612 15.5947 10.8197 15.617ZM17.5909 16.3396C17.3416 16.4732 17.251 16.7848 17.3846 17.0297C17.5167 17.2775 17.8253 17.3695 18.0761 17.2344C18.3239 17.1053 18.4145 16.7922 18.2809 16.5459C18.1874 16.3753 18.0123 16.2773 17.8313 16.2773C17.7497 16.2773 17.668 16.2981 17.5909 16.3396ZM11.6062 16.6349C11.4415 16.721 11.3791 16.9302 11.4682 17.0935C11.5557 17.2597 11.762 17.3205 11.9267 17.2285C12.0899 17.1439 12.1523 16.9377 12.0647 16.7715C12.0039 16.6587 11.8866 16.5964 11.7664 16.5964C11.713 16.5949 11.6581 16.6082 11.6062 16.6349ZM16.4883 17.0964C16.2093 17.2463 16.101 17.5965 16.2568 17.8785C16.4082 18.1575 16.7599 18.2613 17.0418 18.1129C17.3208 17.9586 17.4262 17.6069 17.2748 17.3324C17.1694 17.138 16.9706 17.0252 16.7643 17.0252C16.6708 17.0237 16.5759 17.046 16.4883 17.0964ZM12.685 17.3472C12.4876 17.4541 12.4179 17.6915 12.5247 17.8844C12.6241 18.0773 12.8675 18.1515 13.0604 18.0476C13.2533 17.9393 13.326 17.696 13.2207 17.506C13.148 17.3754 13.01 17.2997 12.8705 17.2997C12.8082 17.2983 12.7443 17.3131 12.685 17.3472ZM15.2552 17.601C15.0059 17.733 14.9198 18.0417 15.0548 18.2925C15.1839 18.5388 15.4926 18.6353 15.7419 18.4973C15.9912 18.3667 16.0802 18.0551 15.9482 17.8087C15.8547 17.6381 15.6796 17.5416 15.4985 17.5416C15.4154 17.5401 15.3323 17.5594 15.2552 17.601ZM13.9404 17.6796C13.7208 17.7983 13.6421 18.0758 13.7579 18.294C13.8796 18.5151 14.1526 18.5982 14.3737 18.4795C14.5963 18.3637 14.6779 18.0862 14.5577 17.8636C14.4776 17.7123 14.3203 17.6277 14.157 17.6277C14.0843 17.6277 14.0087 17.644 13.9404 17.6796Z" fill="black"/>
<path d="M13.9504 7.76865C13.8494 8.11144 14.0438 8.46907 14.3881 8.57294C14.7309 8.67385 15.0885 8.475 15.1924 8.13518C15.2948 7.79239 15.0989 7.43031 14.7561 7.32941C14.6938 7.3116 14.6315 7.30269 14.5706 7.30269C14.2902 7.30418 14.0349 7.48819 13.9504 7.76865ZM15.6851 7.97788C15.5693 8.37409 15.7889 8.78366 16.1881 8.90089C16.5814 9.01812 16.9939 8.79405 17.1096 8.40081C17.2284 8.00311 17.0028 7.58761 16.6066 7.47186C16.5369 7.45109 16.4671 7.44218 16.3974 7.44218C16.0753 7.44367 15.78 7.65439 15.6851 7.97788ZM12.2097 8.12925C12.1207 8.43494 12.2973 8.75398 12.6029 8.8445C12.9057 8.93354 13.2277 8.7614 13.3167 8.45423C13.4028 8.1515 13.2277 7.83098 12.9264 7.74046C12.873 7.72413 12.8196 7.7182 12.7662 7.7182C12.5154 7.71671 12.2854 7.87994 12.2097 8.12925ZM17.4406 8.79702C17.3397 9.13832 17.537 9.49892 17.8798 9.59982C18.2226 9.70073 18.5832 9.50188 18.6841 9.1591C18.7865 8.81779 18.5906 8.4572 18.2463 8.3548C18.1855 8.337 18.1232 8.32809 18.0638 8.32809C17.7833 8.32809 17.5252 8.51358 17.4406 8.79702ZM10.7139 9.0478C10.6427 9.28968 10.7792 9.53898 11.0211 9.61169C11.2615 9.68144 11.5137 9.54195 11.5835 9.30304C11.6532 9.06412 11.5152 8.81185 11.2763 8.74063C11.2333 8.72875 11.1902 8.72282 11.1487 8.72282C10.9513 8.72133 10.7718 8.85044 10.7139 9.0478ZM18.8458 10.0776C18.7553 10.3863 18.9319 10.7039 19.2346 10.7929C19.5403 10.8819 19.8579 10.7054 19.9499 10.3997C20.0404 10.0969 19.8668 9.77789 19.5596 9.68886C19.5062 9.67254 19.4513 9.66512 19.3979 9.66512C19.1515 9.6666 18.923 9.82835 18.8458 10.0776ZM9.52972 10.4086C9.47185 10.6015 9.58463 10.8063 9.77902 10.8612C9.97342 10.9176 10.1752 10.8077 10.2346 10.6148C10.2954 10.4219 10.1797 10.2186 9.98677 10.1593C9.95264 10.1504 9.91999 10.1459 9.88735 10.1459C9.7256 10.1444 9.57721 10.2453 9.52972 10.4086ZM19.846 11.7278C19.7733 11.9726 19.9158 12.2234 20.1532 12.2917C20.3951 12.3629 20.6459 12.2249 20.7156 11.9845C20.7868 11.7441 20.6503 11.4918 20.4099 11.4236C20.3669 11.4102 20.3224 11.4043 20.2793 11.4043C20.0835 11.4043 19.9024 11.5334 19.846 11.7278ZM8.83376 12.0973C8.79072 12.2442 8.87085 12.3985 9.01628 12.4416C9.16319 12.4846 9.31455 12.3985 9.35758 12.2531C9.40062 12.1092 9.31751 11.9563 9.1706 11.9133C9.14389 11.9059 9.11867 11.9029 9.09345 11.9029C8.97622 11.9014 8.86789 11.9786 8.83376 12.0973ZM20.2704 13.5634C20.2111 13.7548 20.3224 13.9626 20.5197 14.0175C20.7141 14.0754 20.9159 13.9641 20.9753 13.7682C21.0317 13.5768 20.9233 13.372 20.726 13.3141C20.6919 13.3052 20.6577 13.2993 20.6236 13.2993C20.4633 13.2978 20.3149 13.4031 20.2704 13.5634ZM8.50432 13.8958C8.44645 14.0902 8.56071 14.292 8.75511 14.3499C8.9495 14.4078 9.15132 14.298 9.21067 14.1021C9.26855 13.9092 9.15725 13.7044 8.96286 13.6465C8.92873 13.6376 8.8946 13.6317 8.86047 13.6317C8.70169 13.6317 8.55477 13.737 8.50432 13.8958ZM20.1205 15.4139C20.0805 15.5578 20.1621 15.7121 20.3046 15.7537C20.4529 15.7967 20.6028 15.7151 20.6444 15.5667C20.6889 15.4243 20.6073 15.2699 20.4589 15.2269C20.4337 15.2195 20.4099 15.2165 20.3847 15.2165C20.2675 15.2165 20.1562 15.2952 20.1205 15.4139ZM8.76698 15.6825C8.69872 15.9214 8.8293 16.1751 9.07267 16.2449C9.31158 16.3176 9.56385 16.1766 9.63359 15.9362C9.70482 15.6958 9.56681 15.4436 9.3279 15.3783C9.28338 15.3649 9.23887 15.359 9.19435 15.359C8.99996 15.3575 8.82188 15.4866 8.76698 15.6825ZM19.245 17.0507C19.1901 17.2465 19.2999 17.4513 19.4914 17.5062C19.6887 17.5641 19.8935 17.4528 19.9499 17.2584C20.0048 17.067 19.895 16.8592 19.7006 16.8013C19.6665 16.7924 19.6323 16.7865 19.5982 16.7865C19.4409 16.7865 19.294 16.8904 19.245 17.0507ZM9.52824 17.2629C9.43772 17.5671 9.61134 17.8861 9.91703 17.9781C10.2257 18.0686 10.5418 17.8935 10.6338 17.5893C10.7228 17.2851 10.5447 16.9616 10.2405 16.8711C10.1856 16.8548 10.1322 16.8474 10.0788 16.8474C9.83095 16.8474 9.60392 17.0106 9.52824 17.2629ZM17.8961 18.3624C17.8279 18.6014 17.9674 18.8536 18.2063 18.9249C18.4452 18.9961 18.6975 18.8581 18.7657 18.6207C18.8384 18.3788 18.7019 18.1265 18.4615 18.0568C18.4185 18.0434 18.374 18.0375 18.3309 18.0375C18.135 18.0375 17.9555 18.1681 17.8961 18.3624ZM10.7985 18.5094C10.6991 18.8492 10.8905 19.2083 11.2362 19.3107C11.582 19.4101 11.9396 19.2127 12.042 18.8729C12.1414 18.5331 11.9456 18.1695 11.6013 18.0686C11.539 18.0508 11.4781 18.0419 11.4188 18.0419C11.1368 18.0419 10.8816 18.2259 10.7985 18.5094ZM12.3685 19.2662C12.2542 19.6639 12.4753 20.0749 12.873 20.1921C13.2663 20.3049 13.6832 20.0779 13.7945 19.6876C13.9103 19.2914 13.6877 18.8774 13.29 18.7616C13.2203 18.7423 13.1505 18.7319 13.0808 18.7319C12.7588 18.7319 12.462 18.9427 12.3685 19.2662ZM16.1629 19.2113C16.0739 19.5169 16.2504 19.8375 16.5532 19.9265C16.8603 20.0155 17.1794 19.8434 17.2684 19.5362C17.3575 19.2335 17.1853 18.913 16.8782 18.824C16.8232 18.8061 16.7683 18.7987 16.7149 18.7987C16.4656 18.7987 16.2356 18.962 16.1629 19.2113ZM14.2857 19.5333C14.1863 19.8731 14.3837 20.2307 14.725 20.3331C15.0692 20.437 15.4298 20.2396 15.5278 19.8983C15.6257 19.554 15.4343 19.1934 15.09 19.094C15.0277 19.0762 14.9668 19.0673 14.906 19.0673C14.627 19.0673 14.3688 19.2498 14.2857 19.5333Z" fill="black"/>
<path d="M15.1873 5.54912C14.9083 5.84591 14.9216 6.31335 15.2199 6.59233C15.5167 6.87279 15.9841 6.85944 16.2616 6.56265C16.5421 6.26438 16.5258 5.79991 16.2305 5.51796C16.088 5.38441 15.907 5.31912 15.7259 5.31912C15.53 5.31912 15.3327 5.39628 15.1873 5.54912ZM12.8501 5.73016C12.6304 5.96463 12.6408 6.33116 12.8753 6.55375C13.1083 6.77189 13.4763 6.76001 13.6974 6.52704C13.9155 6.29406 13.9051 5.92456 13.6722 5.70494C13.5594 5.59958 13.4169 5.54764 13.2745 5.54764C13.1187 5.54913 12.9643 5.60997 12.8501 5.73016ZM17.477 6.17238C17.1624 6.50478 17.1757 7.02861 17.5096 7.34468C17.842 7.65928 18.3718 7.64295 18.6834 7.31204C18.9965 6.97815 18.9831 6.45136 18.6493 6.13825C18.4875 5.98688 18.2827 5.9112 18.078 5.9112C17.8598 5.90972 17.6402 5.99876 17.477 6.17238ZM10.6197 6.6324C10.4416 6.82086 10.4505 7.11616 10.639 7.2972C10.8289 7.47379 11.1272 7.46637 11.3053 7.27642C11.4834 7.08796 11.4744 6.78969 11.286 6.61311C11.194 6.52852 11.0782 6.48549 10.9625 6.48549C10.8364 6.48549 10.7132 6.53446 10.6197 6.6324ZM19.415 7.47082C19.0514 7.85367 19.0663 8.45467 19.4521 8.81823C19.8349 9.18328 20.4404 9.1625 20.801 8.78261C21.163 8.39531 21.1452 7.79135 20.7624 7.42927C20.5769 7.25565 20.3424 7.16958 20.1095 7.16958C19.8557 7.16958 19.602 7.27049 19.415 7.47082ZM8.76776 8.21724C8.63421 8.35969 8.64014 8.57931 8.78111 8.71287C8.92505 8.84791 9.14616 8.84049 9.27675 8.69951C9.4103 8.55706 9.40288 8.33595 9.26339 8.2024C9.19364 8.14007 9.1061 8.10891 9.02003 8.10891C8.92803 8.10742 8.83602 8.14452 8.76776 8.21724ZM21.0057 9.49639C20.6912 9.82879 20.7045 10.3556 21.0414 10.6702C21.3767 10.9848 21.902 10.9655 22.2137 10.6346C22.5298 10.2992 22.5149 9.77685 22.1781 9.45929C22.0193 9.30941 21.816 9.23521 21.6127 9.23521C21.3901 9.23521 21.169 9.32277 21.0057 9.49639ZM7.29718 10.1597C7.11762 10.3482 7.12801 10.6449 7.31796 10.8245C7.50642 11.0011 7.80321 10.9937 7.98276 10.8067C8.15787 10.6182 8.15045 10.3215 7.96199 10.1434C7.87147 10.0573 7.75571 10.0143 7.63997 10.0143C7.51532 10.0128 7.39067 10.0632 7.29718 10.1597ZM21.8976 11.8692C21.6171 12.166 21.632 12.6334 21.9302 12.9124C22.227 13.1943 22.696 13.178 22.9734 12.8812C23.2539 12.5859 23.2391 12.1185 22.9423 11.8395C22.7998 11.7045 22.6173 11.6377 22.4348 11.6377C22.2389 11.6362 22.043 11.7149 21.8976 11.8692ZM6.52999 12.442C6.31333 12.6765 6.31927 13.0415 6.55521 13.2611C6.78819 13.4822 7.15621 13.4689 7.37732 13.2374C7.59694 13.0044 7.58358 12.6334 7.35357 12.4153C7.23931 12.3084 7.09537 12.2565 6.95291 12.2565C6.79859 12.258 6.64425 12.3188 6.52999 12.442ZM22.0846 14.429C21.8649 14.662 21.8783 15.03 22.1113 15.2496C22.3472 15.4722 22.7123 15.4588 22.9334 15.2244C23.153 14.9914 23.1456 14.6249 22.9082 14.4037C22.7969 14.2984 22.6544 14.2465 22.5105 14.2465C22.3546 14.2479 22.1988 14.3088 22.0846 14.429ZM6.48844 14.7851C6.21095 15.0804 6.2243 15.5493 6.52108 15.8283C6.81787 16.1103 7.28531 16.0954 7.56429 15.7986C7.84327 15.5033 7.82991 15.0359 7.53313 14.7525C7.39067 14.6189 7.20963 14.5521 7.02859 14.5521C6.83122 14.5521 6.63535 14.6308 6.48844 14.7851ZM21.4806 16.8611C21.3011 17.0496 21.31 17.3479 21.4999 17.5289C21.6913 17.707 21.9881 17.6981 22.1677 17.5052C22.3443 17.3167 22.3368 17.0184 22.1484 16.8404C22.0564 16.7558 21.9406 16.7142 21.8249 16.7127C21.6987 16.7127 21.5741 16.7617 21.4806 16.8611ZM7.2497 17.0333C6.93511 17.3642 6.94549 17.8895 7.28086 18.2071C7.61771 18.5202 8.14303 18.5024 8.45465 18.1715C8.76925 17.8391 8.75292 17.3108 8.42052 16.9991C8.26025 16.8478 8.05695 16.7721 7.85514 16.7721C7.63552 16.7706 7.41293 16.8611 7.2497 17.0333ZM8.66091 18.8867C8.30032 19.2755 8.31813 19.872 8.70247 20.2371C9.08532 20.5992 9.69077 20.5828 10.0499 20.197C10.412 19.8127 10.3942 19.2117 10.0098 18.8466C9.82432 18.673 9.58986 18.587 9.3554 18.587C9.10165 18.5855 8.84789 18.6864 8.66091 18.8867ZM20.1837 18.9713C20.0516 19.1123 20.059 19.3349 20.1985 19.4669C20.3409 19.5975 20.5621 19.5916 20.6941 19.4491C20.8277 19.3111 20.8217 19.087 20.6793 18.9565C20.6125 18.8926 20.5264 18.86 20.4389 18.86H20.4374C20.3439 18.86 20.2519 18.8971 20.1837 18.9713ZM10.777 20.3588C10.4639 20.6867 10.4787 21.2135 10.8141 21.5311C11.148 21.8457 11.6748 21.8293 11.9864 21.4955C12.2995 21.1616 12.2877 20.6363 11.9523 20.3217C11.792 20.1703 11.5872 20.0961 11.3839 20.0961C11.1613 20.0961 10.9417 20.1837 10.777 20.3588ZM18.1581 20.3899C17.9785 20.5784 17.9874 20.8781 18.1759 21.0547C18.3673 21.2343 18.6641 21.2239 18.8422 21.034C19.0203 20.847 19.0128 20.5502 18.8229 20.3706C18.7324 20.2846 18.6151 20.2415 18.4994 20.2415C18.3747 20.243 18.2501 20.292 18.1581 20.3899ZM13.1988 21.1037C12.9198 21.399 12.9332 21.8694 13.2314 22.1454C13.5312 22.4274 13.9957 22.414 14.2731 22.1172C14.5536 21.8219 14.5417 21.353 14.245 21.074C14.1025 20.939 13.9215 20.8722 13.7389 20.8722C13.5401 20.8737 13.3442 20.9509 13.1988 21.1037ZM15.766 21.1408C15.5478 21.3723 15.5582 21.7403 15.7912 21.9614C16.0257 22.1825 16.3937 22.1677 16.6133 21.9362C16.8329 21.7047 16.824 21.3352 16.5896 21.1156C16.4768 21.0102 16.3328 20.9583 16.1919 20.9583C16.0361 20.9583 15.8802 21.0191 15.766 21.1408Z" fill="black"/>
<path d="M15.806 2.93894C15.4587 3.00868 15.2346 3.34108 15.3044 3.68981C15.3741 4.03408 15.7095 4.25815 16.0553 4.18989C16.401 4.12015 16.6251 3.78478 16.5553 3.43902C16.4945 3.13482 16.2289 2.92558 15.9306 2.92558C15.892 2.92706 15.849 2.93152 15.806 2.93894ZM13.1601 3.11404C12.8885 3.15559 12.7001 3.40638 12.7387 3.67942C12.7802 3.95246 13.034 4.13944 13.3055 4.09937C13.5771 4.05931 13.767 3.80704 13.727 3.53399C13.6914 3.28618 13.4777 3.10811 13.2328 3.10811C13.2091 3.10811 13.1853 3.10959 13.1601 3.11404ZM18.3554 3.47909C17.9428 3.58445 17.6906 4.0044 17.7974 4.4199C17.9042 4.83244 18.3257 5.0847 18.7382 4.97786C19.1507 4.8725 19.4015 4.44958 19.2962 4.03853C19.2057 3.68684 18.8925 3.45683 18.5468 3.45683C18.4859 3.45535 18.4207 3.46277 18.3554 3.47909ZM10.4534 3.91685C10.2175 4.01776 10.1077 4.28932 10.21 4.52675C10.311 4.76121 10.5855 4.86953 10.82 4.76862C11.0544 4.66772 11.1657 4.39319 11.0633 4.16021C10.9876 3.98363 10.817 3.87975 10.6374 3.87975C10.5781 3.87827 10.5143 3.89162 10.4534 3.91685ZM20.6154 4.6232C20.1079 4.78198 19.8215 5.32065 19.9818 5.83112C20.139 6.33863 20.6822 6.62206 21.1897 6.46328C21.6987 6.3045 21.9806 5.76286 21.8218 5.25535C21.6927 4.84282 21.3143 4.57868 20.9048 4.57868C20.8098 4.57868 20.7118 4.59352 20.6154 4.6232ZM8.01086 5.334C7.79569 5.50466 7.75859 5.81777 7.92925 6.03442C8.10138 6.25107 8.41598 6.28669 8.62967 6.11604C8.84632 5.9439 8.8849 5.63227 8.71277 5.41562C8.61334 5.29097 8.4694 5.22716 8.32249 5.22716C8.21268 5.22716 8.10286 5.26278 8.01086 5.334ZM22.4718 6.42321C21.9198 6.62799 21.6378 7.23641 21.8426 7.78991C22.0474 8.34194 22.6588 8.6224 23.2078 8.4191C23.7584 8.2158 24.0403 7.60294 23.837 7.0524C23.6767 6.62206 23.2716 6.35792 22.8413 6.35792C22.7181 6.35643 22.5935 6.37869 22.4718 6.42321ZM6.06988 7.13847C5.782 7.34325 5.71225 7.73797 5.91703 8.02883C6.12182 8.31522 6.51951 8.38348 6.80591 8.18019C7.09379 7.9754 7.16206 7.57623 6.95876 7.29131C6.83411 7.11472 6.63674 7.02124 6.4379 7.02124C6.31176 7.02124 6.18266 7.05833 6.06988 7.13847ZM23.7643 8.6773C23.1767 8.93106 22.9051 9.60773 23.1588 10.1968C23.4111 10.783 24.0922 11.0546 24.6784 10.8023C25.2645 10.5485 25.5361 9.86742 25.2824 9.28126C25.0939 8.8435 24.668 8.58233 24.2214 8.58233C24.0685 8.58233 23.9127 8.61349 23.7643 8.6773ZM4.7106 9.3614C4.35148 9.58992 4.24168 10.0663 4.47168 10.4283C4.69873 10.7889 5.17804 10.8973 5.53715 10.6702C5.89923 10.4417 6.00607 9.96239 5.77754 9.60031C5.63063 9.36733 5.38134 9.2412 5.12462 9.2412C4.98365 9.2412 4.8397 9.28126 4.7106 9.3614ZM24.487 11.3825C23.9617 11.6422 23.745 12.2803 24.0062 12.8056C24.2688 13.3354 24.9054 13.5476 25.4307 13.2864C25.9561 13.0267 26.1727 12.3916 25.9115 11.8633C25.7261 11.4894 25.3476 11.2727 24.9559 11.2727C24.7986 11.2727 24.6383 11.3083 24.487 11.3825ZM3.99238 11.7936C3.52791 12.0532 3.36318 12.6394 3.62436 13.1054C3.88404 13.5683 4.47169 13.7345 4.93616 13.4734C5.40063 13.2137 5.56534 12.6246 5.30417 12.1601C5.12758 11.8455 4.80112 11.6689 4.46427 11.6689C4.30549 11.6689 4.14225 11.7075 3.99238 11.7936ZM24.5226 14.1931C24.0596 14.4528 23.8934 15.0419 24.1546 15.5064C24.4157 15.9723 25.0034 16.1341 25.4664 15.8729C25.9308 15.6117 26.097 15.0271 25.8344 14.5611C25.6578 14.2465 25.3313 14.0684 24.9945 14.0684C24.8357 14.0684 24.6725 14.11 24.5226 14.1931ZM4.02948 14.3786C3.50565 14.6368 3.28603 15.2734 3.54868 15.8017C3.80986 16.3285 4.44943 16.5421 4.97474 16.2825C5.50005 16.0228 5.7167 15.3847 5.45553 14.8594C5.26856 14.4824 4.89609 14.2673 4.50581 14.2673C4.34406 14.2673 4.18084 14.3029 4.02948 14.3786ZM4.78331 16.8642C4.19715 17.1164 3.92412 17.7946 4.17787 18.3852C4.43014 18.9728 5.11423 19.2414 5.6989 18.9891C6.28505 18.7354 6.55513 18.0543 6.30138 17.4681C6.11292 17.0304 5.68702 16.7707 5.24036 16.7707C5.08752 16.7692 4.9317 16.7989 4.78331 16.8642ZM23.9231 16.9962C23.5625 17.2262 23.4542 17.7026 23.6827 18.0632C23.9112 18.4253 24.389 18.5306 24.7496 18.3036C25.1087 18.075 25.2186 17.6002 24.9885 17.2366C24.8416 17.0036 24.5894 16.8775 24.3341 16.8775C24.1931 16.876 24.0507 16.9146 23.9231 16.9962ZM6.25092 19.2474C5.70186 19.4521 5.41844 20.0635 5.62322 20.6126C5.828 21.1676 6.44087 21.4451 6.98844 21.2403C7.54046 21.0355 7.82241 20.4286 7.61762 19.8736C7.45884 19.4462 7.05224 19.1806 6.62042 19.1806C6.49725 19.1806 6.3726 19.2028 6.25092 19.2474ZM22.6528 19.4863C22.3649 19.691 22.2967 20.0887 22.5 20.3766C22.7062 20.666 23.1025 20.7328 23.3918 20.5295C23.6782 20.3262 23.7465 19.9285 23.5417 19.6376C23.4171 19.4625 23.2197 19.369 23.0194 19.369C22.8932 19.369 22.7641 19.4061 22.6528 19.4863ZM8.27055 21.2032C7.76304 21.3605 7.47961 21.9006 7.63988 22.4096C7.79866 22.9216 8.33733 23.202 8.84484 23.0418C9.35383 22.8845 9.63874 22.3458 9.47996 21.8368C9.35086 21.4243 8.96948 21.1587 8.55843 21.1587C8.46198 21.1587 8.36552 21.1735 8.27055 21.2032ZM20.8306 21.5489C20.6154 21.7211 20.5783 22.0342 20.7489 22.2493C20.9196 22.4675 21.2342 22.5001 21.4494 22.331C21.666 22.1588 21.7031 21.8472 21.531 21.6291C21.433 21.5044 21.2876 21.4406 21.1407 21.4406C21.0324 21.4421 20.9226 21.4762 20.8306 21.5489ZM10.722 22.6901C10.3095 22.7954 10.0602 23.2154 10.1655 23.6294C10.2709 24.0464 10.6908 24.2927 11.1049 24.1874C11.5189 24.0805 11.7697 23.6635 11.6643 23.248C11.5753 22.8978 11.2607 22.6663 10.9149 22.6663C10.8511 22.6663 10.7873 22.6723 10.722 22.6901ZM18.6388 22.8978C18.4043 22.9973 18.2945 23.2718 18.3969 23.5062C18.4993 23.7437 18.7723 23.8505 19.0068 23.7496C19.2428 23.6487 19.3526 23.3742 19.2502 23.1382C19.1745 22.9631 19.0024 22.8578 18.8228 22.8578C18.762 22.8592 18.7011 22.8711 18.6388 22.8978ZM13.4035 23.4751C13.0577 23.5448 12.8336 23.8817 12.9034 24.2259C12.9731 24.5732 13.31 24.7973 13.6557 24.7275C14 24.6563 14.2256 24.3224 14.1558 23.9737C14.095 23.671 13.8279 23.4617 13.5296 23.4617C13.4881 23.4617 13.4465 23.4662 13.4035 23.4751ZM16.1547 23.5656C15.8831 23.6057 15.6947 23.8594 15.7347 24.1325C15.7748 24.4055 16.0286 24.5925 16.3001 24.5524C16.5732 24.5123 16.7631 24.2601 16.7215 23.987C16.6859 23.7377 16.4708 23.5597 16.2259 23.5597C16.2037 23.5597 16.1784 23.5611 16.1547 23.5656Z" fill="black"/>
<path d="M14.1241 0.593453C14.1241 0.922886 14.3912 1.18851 14.7176 1.18851C15.0471 1.18851 15.3142 0.922886 15.3142 0.593453C15.3142 0.262537 15.0471 -0.000119492 14.7176 -0.000119492C14.3912 -0.000119492 14.1241 0.262537 14.1241 0.593453ZM17.5282 0.878368C17.4362 1.22116 17.6395 1.56988 17.9793 1.6604C18.3206 1.75241 18.6723 1.55059 18.7628 1.20928C18.8548 0.86798 18.6501 0.519258 18.3088 0.427254C18.2538 0.412414 18.1975 0.404993 18.1426 0.404993C17.8621 0.406477 17.6054 0.593453 17.5282 0.878368ZM11.128 0.428737C10.7882 0.519257 10.5834 0.86798 10.6754 1.20928C10.7659 1.55059 11.1191 1.75241 11.4574 1.6604C11.7987 1.56988 12.002 1.21967 11.9115 0.876885C11.8344 0.59197 11.5776 0.404993 11.2957 0.404993C11.2408 0.406477 11.1844 0.412414 11.128 0.428737ZM20.5391 2.19313C20.4456 2.63534 20.7276 3.07014 21.1683 3.16362C21.6105 3.25711 22.0438 2.97516 22.1388 2.53592C22.2338 2.09074 21.9503 1.65892 21.5096 1.56691C21.4517 1.55504 21.3939 1.54911 21.336 1.54911C20.9591 1.54762 20.6207 1.80879 20.5391 2.19313ZM7.92865 1.56543C7.48792 1.65892 7.20449 2.09074 7.29798 2.53592C7.39146 2.97665 7.82626 3.25859 8.26699 3.16362C8.7092 3.07014 8.99115 2.63534 8.89766 2.19313C8.81604 1.80879 8.47771 1.54762 8.10079 1.54762C8.0444 1.54762 7.98652 1.55207 7.92865 1.56543ZM23.1019 4.31516C23.0158 4.85531 23.3853 5.3643 23.9254 5.45036C24.4626 5.53643 24.9731 5.16545 25.0577 4.6253C25.1437 4.08218 24.7728 3.57913 24.2356 3.49157C24.1822 3.48415 24.1302 3.4797 24.0783 3.4797C23.599 3.4797 23.179 3.82546 23.1019 4.31516ZM5.20415 3.49157C4.66548 3.57764 4.29599 4.0807 4.38206 4.62381C4.46664 5.16397 4.97414 5.53346 5.51429 5.44888C6.05592 5.36281 6.42543 4.85382 6.33936 4.31367C6.2622 3.82397 5.84076 3.47822 5.36293 3.47822C5.30951 3.4797 5.25757 3.48267 5.20415 3.49157ZM24.9538 7.08269C24.8826 7.76085 25.3767 8.36926 26.0534 8.44049C26.733 8.51172 27.34 8.01905 27.4097 7.34089C27.4809 6.65977 26.9898 6.05432 26.3116 5.98309C26.2671 5.97864 26.224 5.97716 26.181 5.97716C25.5592 5.97716 25.0206 6.44608 24.9538 7.08269ZM3.12665 5.98309C2.44701 6.05432 1.95582 6.65977 2.02853 7.34089C2.09976 8.01905 2.70521 8.51172 3.38485 8.44049C4.06301 8.36926 4.55568 7.76085 4.48445 7.08269C4.41767 6.44608 3.88197 5.97716 3.25872 5.97716C3.2142 5.97716 3.16968 5.97716 3.12665 5.98309ZM26.1499 10.331C26.1113 11.0819 26.687 11.7229 27.4364 11.763C28.1888 11.8016 28.8313 11.2258 28.8699 10.4735C28.91 9.71964 28.3297 9.08303 27.5818 9.04296C27.5566 9.04148 27.5314 9.04148 27.5076 9.04148C26.7879 9.04148 26.1884 9.60092 26.1499 10.331ZM1.8564 9.04445C1.10998 9.08303 0.529766 9.71964 0.568349 10.475C0.608415 11.2258 1.25095 11.8031 2.00182 11.7645C2.75269 11.7244 3.32846 11.0834 3.28987 10.3325C3.25129 9.60241 2.65179 9.04296 1.9306 9.04296C1.90685 9.04148 1.88014 9.04296 1.8564 9.04445ZM26.4748 13.8286C26.4748 14.6478 27.1367 15.3126 27.9543 15.3126C28.7734 15.3126 29.4368 14.6478 29.4368 13.8301C29.4368 13.0065 28.7734 12.3492 27.9573 12.3492C27.1367 12.3492 26.4748 13.0065 26.4748 13.8286ZM0 13.8301C0 14.6478 0.666285 15.3126 1.48393 15.3126C2.30009 15.3126 2.96193 14.6478 2.96193 13.8286C2.96193 13.0065 2.30009 12.3506 1.48393 12.3506C0.666285 12.3492 0 13.0065 0 13.8301ZM27.4349 15.8972C26.687 15.9358 26.1098 16.5769 26.1484 17.3278C26.187 18.0831 26.828 18.6544 27.5804 18.6158C28.3283 18.5772 28.907 17.9421 28.8684 17.1853C28.8313 16.4597 28.2274 15.8958 27.5076 15.8958C27.4824 15.8958 27.4587 15.8958 27.4349 15.8972ZM0.569834 17.1853C0.531252 17.9421 1.10998 18.5772 1.85789 18.6158C2.61024 18.6544 3.25129 18.0846 3.29136 17.3278C3.33143 16.5769 2.75418 15.9358 2.00331 15.8972C1.97957 15.8958 1.95583 15.8958 1.93208 15.8958C1.21089 15.8958 0.606932 16.4597 0.569834 17.1853ZM26.0534 19.2213C25.3767 19.2925 24.8826 19.9009 24.9538 20.5791C25.025 21.2602 25.6349 21.7484 26.3116 21.6772C26.9898 21.6059 27.4824 21.002 27.4097 20.3209C27.3429 19.6857 26.8087 19.2153 26.184 19.2153C26.1409 19.2138 26.0964 19.2153 26.0534 19.2213ZM2.02853 20.3194C1.9573 21.0005 2.44849 21.6045 3.12665 21.6757C3.8048 21.7469 4.41322 21.2587 4.48296 20.5776C4.55419 19.8994 4.06152 19.291 3.38336 19.2198C3.33885 19.2138 3.29581 19.2124 3.25278 19.2124C2.62953 19.2138 2.09531 19.6857 2.02853 20.3194ZM23.9254 22.2129C23.3853 22.2989 23.0143 22.805 23.1019 23.3466C23.1879 23.8897 23.6954 24.2548 24.2356 24.1702C24.7742 24.0841 25.1452 23.5811 25.0577 23.0364C24.9805 22.5482 24.5576 22.201 24.0798 22.201C24.0293 22.1995 23.9774 22.204 23.9254 22.2129ZM4.38206 23.035C4.29599 23.5796 4.664 24.0826 5.20415 24.1687C5.74579 24.2548 6.25181 23.8897 6.33936 23.3451C6.42543 22.805 6.05592 22.2989 5.51429 22.2129C5.46235 22.204 5.40893 22.201 5.35848 22.201C4.87917 22.201 4.45922 22.5482 4.38206 23.035ZM21.1683 24.4966C20.7261 24.5901 20.4441 25.0249 20.5391 25.4671C20.6326 25.9108 21.0674 26.1913 21.5096 26.0978C21.9503 26.0043 22.2338 25.571 22.1388 25.1258C22.0572 24.743 21.7173 24.4788 21.3389 24.4788C21.284 24.4788 21.2262 24.4848 21.1683 24.4966ZM7.29946 25.1258C7.20449 25.571 7.48792 26.0028 7.92865 26.0978C8.36938 26.1913 8.80417 25.9093 8.89766 25.4671C8.99115 25.0264 8.7092 24.5901 8.26847 24.4966C8.21208 24.4848 8.15421 24.4788 8.0993 24.4788C7.7209 24.4788 7.38108 24.743 7.29946 25.1258ZM17.9793 25.9999C17.6395 26.0919 17.4362 26.4421 17.5267 26.7834C17.6187 27.1232 17.9689 27.325 18.3088 27.233C18.6501 27.1425 18.8548 26.7938 18.7628 26.451C18.6872 26.1661 18.4275 25.9776 18.144 25.9776C18.0906 25.9776 18.0357 25.9835 17.9793 25.9999ZM10.6754 26.451C10.5849 26.7923 10.7882 27.141 11.128 27.2315C11.4693 27.3235 11.8195 27.1217 11.9115 26.7804C12.002 26.4406 11.8002 26.0904 11.4574 25.9984C11.4025 25.9835 11.3476 25.9761 11.2927 25.9761C11.0123 25.9776 10.7526 26.1646 10.6754 26.451ZM14.1241 27.0683C14.1241 27.3977 14.3912 27.6619 14.7176 27.6619C15.0471 27.6619 15.3142 27.3977 15.3142 27.0668C15.3142 26.7389 15.0471 26.4732 14.7176 26.4732C14.3912 26.4732 14.1241 26.7389 14.1241 27.0683Z" fill="black"/>
</svg>
