<svg width="46" height="36" viewBox="0 0 46 36" fill="none" xmlns="http://www.w3.org/2000/svg">
<path d="M6.01335 7.28102C4.17527 8.94496 3.50628 12.7152 6.81978 14.9193L20.0388 23.9885L13.6293 9.30427C12.2862 5.83913 8.61192 5.0835 6.01335 7.28102Z" fill="black"/>
<path d="M17.3895 0.141715C15.2408 0.185496 12.0142 2.74429 13.4501 6.65163L20.0793 22.2858L22.4087 5.84165C22.9477 1.75564 19.8556 -0.130555 17.3895 0.141715Z" fill="black"/>
<path d="M23.4458 5.21448H24.6994C24.6994 5.21448 25.3687 5.21448 25.4598 5.53027C24.9666 5.93309 23.6239 5.98357 23.8022 8.13527L25.9094 22.2836L32.4933 6.60838C33.84 3.1084 31.0133 0.185373 28.5058 0.0960384C28.3887 0.0876366 28.2711 0.0808105 28.1495 0.0808105C25.8989 0.0807449 23.3198 1.7164 23.4458 5.21448Z" fill="black"/>
<path d="M32.2272 9.43747L25.9999 23.9455L39.2151 14.8284C42.2613 12.6677 41.77 9.21332 40.0648 7.50579C39.3499 6.70211 38.0374 6.0813 36.6469 6.0813C35.0043 6.08097 33.2463 6.95226 32.2272 9.43747Z" fill="black"/>
<path d="M37.7355 16.8928L25.3248 25.5615H40.6059C43.741 25.5615 45.7557 22.3291 44.8601 19.3627C44.2602 17.4982 42.4855 16.0346 40.4255 16.0325C39.5584 16.0328 38.6389 16.294 37.7355 16.8928Z" fill="black"/>
<path d="M5.65592 25.5613H20.7115L8.29775 16.8926C5.42986 15.05 2.20517 16.1282 1.041 19.186C0.0541866 22.6863 2.51807 25.5613 5.65592 25.5613Z" fill="black"/>
<path d="M0 31.8354C0 33.3118 1.2069 35.9991 5.81526 35.9991C10.0641 35.9991 11.406 34.0495 11.406 33.1556H8.11662C8.11662 33.1556 7.9604 34.3366 6.10486 34.3366C4.24814 34.3366 3.746 32.7868 3.746 31.8906C3.746 30.9979 4.24814 29.5318 6.10486 29.5318C7.9604 29.5318 8.11662 30.56 8.11662 30.56H11.406C11.406 29.665 10.4214 27.7429 5.81526 27.7429C1.2069 27.7429 0 30.6049 0 31.8354Z" fill="black"/>
<path d="M34.5 31.8354C34.5 33.3118 35.7081 35.9991 40.3153 35.9991C44.5637 35.9991 45.9061 34.0495 45.9061 33.1556H42.619C42.619 33.1556 42.4621 34.3366 40.6061 34.3366C38.7492 34.3366 38.2465 32.7868 38.2465 31.8906C38.2465 30.9979 38.7492 29.5318 40.6061 29.5318C42.4621 29.5318 42.619 30.56 42.619 30.56H45.9061C45.9061 29.665 44.9226 27.7429 40.3153 27.7429C35.7082 27.7429 34.5 30.6049 34.5 31.8354Z" fill="black"/>
<path d="M20.3961 27.8806V32.8784L16.568 27.8806H12.2617V35.7967H15.214V30.7415L18.975 35.7967H23.3486V27.8806H20.3961Z" fill="black"/>
<path d="M29.8564 33.9055V33.916H27.3966V32.4625H29.8564V32.4672C30.3817 32.4672 30.8062 32.79 30.8062 33.1875C30.8062 33.584 30.3817 33.9055 29.8564 33.9055ZM27.4191 29.4202H29.7894V29.4236C30.1909 29.4236 30.5166 29.6878 30.5166 30.013C30.5166 30.3394 30.1909 30.6013 29.7894 30.6013V30.6048H27.4191V29.4202ZM32.2724 31.5882C32.8099 31.5882 33.9336 30.9643 33.9336 29.7557C33.9336 28.0345 30.7287 27.8806 30.237 27.8806H24.332V35.7967H30.237C33.0771 35.7967 34.2179 34.8995 34.2179 33.4012C34.2179 31.903 32.2724 31.5882 32.2724 31.5882Z" fill="black"/>
</svg>
