<svg width="346" height="341" viewBox="0 0 346 341" fill="none" xmlns="http://www.w3.org/2000/svg">
<g filter="url(#filter0_d)">
<path d="M65.9727 100.059C65.9727 92.1243 71.7073 85.339 79.4472 83.59C91.4363 80.8808 109.129 76.1442 122.742 69.3801C145.449 58.0968 168.157 41.1719 179.511 41.1719C190.865 41.1719 213.572 58.0968 236.28 69.3801C249.893 76.1442 267.586 80.8808 279.575 83.59C287.315 85.339 293.049 92.1243 293.049 100.059V151.498C293.049 208.802 262.294 262.405 210.855 287.659C195.488 295.204 183.096 300.688 179.542 300.688C175.988 300.688 163.583 295.201 148.201 287.652C96.7437 262.402 65.9727 208.789 65.9727 151.47V100.059Z" fill="white"/>
</g>
<path d="M80.4219 109.077C80.4219 102.152 85.4267 96.2301 92.1816 94.7037C102.645 92.3393 118.086 88.2054 129.967 82.3022C149.785 72.4547 169.603 57.6836 179.512 57.6836C189.421 57.6836 209.238 72.4547 229.056 82.3022C240.937 88.2054 256.378 92.3393 266.842 94.7037C273.596 96.2301 278.601 102.152 278.601 109.077V153.97C278.601 203.982 251.76 250.763 206.867 272.804C193.455 279.388 182.64 284.174 179.539 284.174C176.437 284.174 165.611 279.385 152.186 272.798C107.277 250.76 80.4219 203.971 80.4219 153.946V109.077Z" stroke="#E6EAF8" stroke-width="2" stroke-linejoin="round"/>
<g filter="url(#filter1_d)">
<circle cx="179.512" cy="170.931" r="61.7811" fill="#1E4DD8"/>
</g>
<path d="M211.873 156.967C213.87 154.992 213.889 151.772 211.914 149.774C209.94 147.776 206.719 147.758 204.722 149.733L211.873 156.967ZM154.191 169.711C152.134 167.798 148.916 167.914 147.003 169.971C145.09 172.027 145.206 175.245 147.262 177.159L154.191 169.711ZM170.83 190.386L174.406 194.003L170.83 190.386ZM168.977 190.414L165.512 194.138L168.977 190.414ZM204.722 149.733L167.255 186.769L174.406 194.003L211.873 156.967L204.722 149.733ZM172.441 186.69L154.191 169.711L147.262 177.159L165.512 194.138L172.441 186.69ZM167.255 186.769C168.683 185.357 170.971 185.322 172.441 186.69L165.512 194.138C168.034 196.483 171.956 196.424 174.406 194.003L167.255 186.769Z" fill="white"/>
<path d="M37.5034 226.149L25.8439 232.371C25.5516 232.528 25.1978 232.528 24.9056 232.371L1.125 219.677V206.713L37.5034 226.149Z" stroke="#1E4DD8" stroke-width="2"/>
<path d="M1.125 232.713L13.1708 226.209L1.125 219.713V232.713Z" stroke="#1E4DD8" stroke-width="2"/>
<path d="M307.891 306.802L319.551 300.58C319.843 300.423 320.197 300.423 320.489 300.58L344.27 313.274V326.238L307.891 306.802Z" stroke="#1E4DD8" stroke-width="2"/>
<path d="M334.628 7.88644L322.969 1.66384C322.677 1.50739 322.323 1.50739 322.031 1.66384L298.25 14.3579V27.3223L334.628 7.88644Z" stroke="#3A8EF6" stroke-width="2"/>
<defs>
<filter id="filter0_d" x="55.9727" y="41.1719" width="267.077" height="299.516" filterUnits="userSpaceOnUse" color-interpolation-filters="sRGB">
<feFlood flood-opacity="0" result="BackgroundImageFix"/>
<feColorMatrix in="SourceAlpha" type="matrix" values="0 0 0 0 0 0 0 0 0 0 0 0 0 0 0 0 0 0 127 0"/>
<feOffset dx="10" dy="20"/>
<feGaussianBlur stdDeviation="10"/>
<feColorMatrix type="matrix" values="0 0 0 0 0.900469 0 0 0 0 0.9125 0 0 0 0 0.924531 0 0 0 0.5 0"/>
<feBlend mode="normal" in2="BackgroundImageFix" result="effect1_dropShadow"/>
<feBlend mode="normal" in="SourceGraphic" in2="effect1_dropShadow" result="shape"/>
</filter>
<filter id="filter1_d" x="96.7632" y="100.764" width="165.497" height="165.497" filterUnits="userSpaceOnUse" color-interpolation-filters="sRGB">
<feFlood flood-opacity="0" result="BackgroundImageFix"/>
<feColorMatrix in="SourceAlpha" type="matrix" values="0 0 0 0 0 0 0 0 0 0 0 0 0 0 0 0 0 0 127 0"/>
<feOffset dy="12.5803"/>
<feGaussianBlur stdDeviation="10.4836"/>
<feColorMatrix type="matrix" values="0 0 0 0 0.517361 0 0 0 0 0.600304 0 0 0 0 0.833333 0 0 0 0.75 0"/>
<feBlend mode="normal" in2="BackgroundImageFix" result="effect1_dropShadow"/>
<feBlend mode="normal" in="SourceGraphic" in2="effect1_dropShadow" result="shape"/>
</filter>
</defs>
</svg>
