<svg width="502" height="431" viewBox="0 0 502 431" fill="none" xmlns="http://www.w3.org/2000/svg">
<g opacity="0.8">
<path d="M0.518799 119.631L161.003 27.2184C165.026 24.8948 169.895 24.8948 173.918 27.2184L501.238 215.74V408.275L0.518799 119.631Z" fill="url(#paint0_linear)"/>
<path d="M501.234 23.2763L334.475 119.689L501.234 215.996V23.2763Z" fill="url(#paint1_linear)"/>
</g>
<mask id="mask0" mask-type="alpha" maskUnits="userSpaceOnUse" x="35" y="0" width="431" height="431">
<circle cx="250.473" cy="215.398" r="214.93" fill="white"/>
</mask>
<g mask="url(#mask0)">
<path d="M78.9688 253.486H154.621" stroke="#BCBFC1" stroke-width="2.06429" stroke-linejoin="round"/>
<path d="M103.055 285.885L122.396 285.897L160.327 253.896" stroke="#BCBFC1" stroke-width="2.06429" stroke-linejoin="round"/>
<path d="M201.703 32.0922L221.044 32.1041L258.976 0.103516" stroke="#BCBFC1" stroke-width="2.06429" stroke-linejoin="round"/>
<path d="M401.766 240.738H469.179" stroke="#BCBFC1" stroke-width="2.06429" stroke-linejoin="round"/>
<path d="M322.699 199.197L389.261 237.317" stroke="#BCBFC1" stroke-width="2.06429" stroke-linejoin="round"/>
<path d="M97.8438 159.635L164.405 197.754" stroke="#BCBFC1" stroke-width="2.06429" stroke-linejoin="round"/>
<path d="M278.381 64.4303L231.238 97.7573" stroke="#BCBFC1" stroke-width="2.06429" stroke-linejoin="round"/>
<path d="M265.027 399.831L222.402 429.965" stroke="#BCBFC1" stroke-width="2.06429" stroke-linejoin="round"/>
<circle cx="72" cy="253.486" r="6.5" stroke="#1E4DD8" stroke-width="2" stroke-linejoin="round"/>
<circle cx="97.1094" cy="285.896" r="6.5" stroke="#3A8EF6" stroke-width="2" stroke-linejoin="round"/>
<circle cx="195.758" cy="32.1035" r="6.5" stroke="#3A8EF6" stroke-width="2" stroke-linejoin="round"/>
<circle cx="394.91" cy="240.738" r="6.5" stroke="#1E4DD8" stroke-width="2" stroke-linejoin="round"/>
<circle cx="92.175" cy="155.944" r="6.5" transform="rotate(-29.9749 92.175 155.944)" stroke="#3A8EF6" stroke-width="2" stroke-linejoin="round"/>
<circle cx="283.784" cy="59.426" r="6.5" transform="rotate(-29.9749 283.784 59.426)" stroke="#1E4DD8" stroke-width="2" stroke-linejoin="round"/>
<circle cx="270.437" cy="395.824" r="6.5" transform="rotate(-29.9749 270.437 395.824)" stroke="#3A8EF6" stroke-width="2" stroke-linejoin="round"/>
</g>
<g filter="url(#filter0_d)">
<rect x="142.352" y="86.2305" width="216.246" height="258.335" rx="9.97356" fill="white"/>
</g>
<g filter="url(#filter1_d)">
<rect x="178.895" y="169.393" width="143.155" height="92.0107" rx="3.65077" fill="#1E4DD8"/>
</g>
<path d="M214.829 186.854C210.583 186.854 206.996 188.269 204.088 191.1C201.18 193.93 199.726 197.342 199.726 201.336C199.726 205.33 201.18 208.761 204.088 211.592C206.996 214.422 210.583 215.837 214.829 215.837C216.263 215.837 217.659 215.643 219.016 215.236C220.373 214.849 221.459 214.403 222.293 213.918C223.126 213.433 223.902 212.871 224.639 212.231C225.375 211.592 225.841 211.146 226.054 210.894C226.267 210.642 226.422 210.428 226.538 210.273L222.952 206.493L222.642 206.9C222.428 207.191 222.099 207.52 221.634 207.908C221.168 208.296 220.625 208.684 220.024 209.071C219.404 209.459 218.648 209.789 217.717 210.06C216.787 210.331 215.837 210.467 214.829 210.467C212.231 210.467 210.06 209.595 208.315 207.85C206.57 206.105 205.698 203.934 205.698 201.336C205.698 198.738 206.57 196.567 208.315 194.822C210.06 193.077 212.231 192.205 214.829 192.205C215.759 192.205 216.69 192.36 217.601 192.651C218.493 192.941 219.23 193.252 219.792 193.6C220.335 193.949 220.858 194.337 221.323 194.783C221.789 195.248 222.099 195.559 222.235 195.752C222.37 195.946 222.487 196.082 222.564 196.179L226.345 192.398L225.899 191.817C225.608 191.449 225.143 190.983 224.483 190.44C223.824 189.898 223.088 189.355 222.235 188.812C221.382 188.269 220.315 187.823 218.997 187.435C217.679 187.048 216.283 186.854 214.829 186.854ZM243.555 186.854C239.309 186.854 235.723 188.269 232.815 191.1C229.907 193.93 228.453 197.342 228.453 201.336C228.453 205.33 229.907 208.761 232.815 211.592C235.723 214.422 239.309 215.837 243.555 215.837C244.99 215.837 246.386 215.643 247.743 215.236C249.1 214.849 250.186 214.403 251.019 213.918C251.853 213.433 252.628 212.871 253.365 212.231C254.102 211.592 254.567 211.146 254.78 210.894C254.993 210.642 255.149 210.428 255.265 210.273L251.678 206.493L251.368 206.9C251.155 207.191 250.825 207.52 250.36 207.908C249.895 208.296 249.352 208.684 248.751 209.071C248.131 209.459 247.374 209.789 246.444 210.06C245.513 210.331 244.563 210.467 243.555 210.467C240.957 210.467 238.786 209.595 237.041 207.85C235.296 206.105 234.424 203.934 234.424 201.336C234.424 198.738 235.296 196.567 237.041 194.822C238.786 193.077 240.957 192.205 243.555 192.205C244.486 192.205 245.416 192.36 246.328 192.651C247.219 192.941 247.956 193.252 248.518 193.6C249.061 193.949 249.585 194.337 250.05 194.783C250.515 195.248 250.825 195.559 250.961 195.752C251.097 195.946 251.213 196.082 251.291 196.179L255.071 192.398L254.625 191.817C254.334 191.449 253.869 190.983 253.21 190.44C252.551 189.898 251.814 189.355 250.961 188.812C250.108 188.269 249.042 187.823 247.723 187.435C246.405 187.048 245.009 186.854 243.555 186.854ZM271.7 207.094C271.7 208.141 271.293 208.994 270.479 209.653C269.664 210.331 268.559 210.661 267.125 210.661C265.884 210.661 264.682 210.39 263.557 209.827C262.414 209.285 261.677 208.839 261.347 208.509C261.018 208.179 260.766 207.908 260.591 207.695L257.005 211.262L257.451 211.747C257.703 212.057 258.129 212.445 258.73 212.891C259.312 213.356 260.01 213.802 260.785 214.228C261.561 214.674 262.569 215.062 263.771 215.372C264.973 215.682 266.233 215.837 267.512 215.837C270.808 215.837 273.387 215.023 275.248 213.395C277.109 211.766 278.04 209.672 278.04 207.094C278.04 205.271 277.574 203.779 276.624 202.577C275.694 201.394 274.55 200.541 273.193 200.018C271.836 199.514 270.498 199.048 269.16 198.66C267.823 198.273 266.679 197.807 265.748 197.245C264.818 196.683 264.333 195.927 264.333 194.996C264.333 194.182 264.682 193.465 265.38 192.883C266.078 192.302 266.989 192.011 268.113 192.011C269.063 192.011 269.975 192.243 270.866 192.67C271.758 193.116 272.359 193.465 272.631 193.736C272.902 194.008 273.115 194.221 273.27 194.415L276.838 190.634L276.489 190.247C276.275 189.975 275.907 189.646 275.403 189.277C274.899 188.909 274.298 188.54 273.619 188.192C272.941 187.843 272.068 187.532 271.002 187.261C269.955 186.99 268.85 186.873 267.706 186.873C264.837 186.873 262.491 187.668 260.688 189.258C258.885 190.848 257.974 192.767 257.974 195.016C257.974 196.838 258.459 198.331 259.389 199.533C260.339 200.715 261.483 201.569 262.821 202.092C264.158 202.596 265.496 203.042 266.853 203.43C268.21 203.817 269.354 204.283 270.285 204.864C271.215 205.427 271.7 206.163 271.7 207.094ZM295.076 207.094C295.076 208.141 294.668 208.994 293.854 209.653C293.04 210.331 291.935 210.661 290.5 210.661C289.26 210.661 288.058 210.39 286.933 209.827C285.789 209.285 285.053 208.839 284.723 208.509C284.393 208.179 284.141 207.908 283.967 207.695L280.38 211.262L280.826 211.747C281.078 212.057 281.505 212.445 282.106 212.891C282.687 213.356 283.385 213.802 284.161 214.228C284.936 214.674 285.944 215.062 287.146 215.372C288.348 215.682 289.608 215.837 290.888 215.837C294.184 215.837 296.762 215.023 298.623 213.395C300.485 211.766 301.415 209.672 301.415 207.094C301.415 205.271 300.95 203.779 300 202.577C299.069 201.394 297.926 200.541 296.568 200.018C295.211 199.514 293.874 199.048 292.536 198.66C291.198 198.273 290.054 197.807 289.124 197.245C288.193 196.683 287.709 195.927 287.709 194.996C287.709 194.182 288.058 193.465 288.755 192.883C289.453 192.302 290.365 192.011 291.489 192.011C292.439 192.011 293.35 192.243 294.242 192.67C295.134 193.116 295.735 193.465 296.006 193.736C296.278 194.008 296.491 194.221 296.646 194.415L300.213 190.634L299.864 190.247C299.651 189.975 299.283 189.646 298.779 189.277C298.274 188.909 297.673 188.54 296.995 188.192C296.316 187.843 295.444 187.532 294.378 187.261C293.331 186.99 292.226 186.873 291.082 186.873C288.213 186.873 285.867 187.668 284.064 189.258C282.261 190.848 281.35 192.767 281.35 195.016C281.35 196.838 281.834 198.331 282.765 199.533C283.715 200.715 284.859 201.569 286.196 202.092C287.534 202.596 288.872 203.042 290.229 203.43C291.586 203.817 292.73 204.283 293.66 204.864C294.591 205.427 295.076 206.163 295.076 207.094Z" fill="white"/>
<path d="M217.449 245.236V242.126H206.889V223.479H203.475V245.236H217.449ZM233.798 238.864L233.965 237.316C233.965 235.223 233.267 233.493 231.871 232.097C230.475 230.701 228.745 230.003 226.651 230.003C224.558 230.003 222.767 230.762 221.28 232.249C219.794 233.736 219.035 235.526 219.035 237.62C219.035 239.805 219.809 241.671 221.341 243.218C222.874 244.766 224.694 245.54 226.803 245.54C227.592 245.54 228.366 245.434 229.109 245.206C229.853 244.978 230.46 244.736 230.915 244.463C231.385 244.189 231.825 243.886 232.235 243.537C232.66 243.188 232.933 242.945 233.054 242.794C233.176 242.642 233.267 242.536 233.327 242.445L231.309 240.427L230.839 241.003C230.536 241.383 230.005 241.762 229.246 242.156C228.487 242.551 227.683 242.748 226.803 242.748C225.605 242.748 224.573 242.369 223.693 241.595C222.813 240.836 222.297 239.926 222.13 238.864H233.798ZM226.636 232.658C227.789 232.658 228.73 232.992 229.489 233.66C230.247 234.327 230.718 235.177 230.9 236.224H222.267C222.54 235.177 223.056 234.327 223.814 233.66C224.573 232.992 225.514 232.658 226.636 232.658ZM244.23 245.236L250.298 230.322H247.036L242.682 241.2L238.327 230.322H235.065L241.134 245.236H244.23ZM266.162 238.864L266.329 237.316C266.329 235.223 265.631 233.493 264.235 232.097C262.839 230.701 261.11 230.003 259.016 230.003C256.922 230.003 255.132 230.762 253.645 232.249C252.158 233.736 251.399 235.526 251.399 237.62C251.399 239.805 252.173 241.671 253.706 243.218C255.238 244.766 257.059 245.54 259.168 245.54C259.957 245.54 260.73 245.434 261.474 245.206C262.217 244.978 262.824 244.736 263.279 244.463C263.75 244.189 264.19 243.886 264.599 243.537C265.024 243.188 265.297 242.945 265.419 242.794C265.54 242.642 265.631 242.536 265.692 242.445L263.674 240.427L263.203 241.003C262.9 241.383 262.369 241.762 261.61 242.156C260.852 242.551 260.048 242.748 259.168 242.748C257.969 242.748 256.937 242.369 256.057 241.595C255.177 240.836 254.661 239.926 254.494 238.864H266.162ZM259.001 232.658C260.154 232.658 261.094 232.992 261.853 233.66C262.612 234.327 263.082 235.177 263.264 236.224H254.631C254.904 235.177 255.42 234.327 256.179 233.66C256.937 232.992 257.878 232.658 259.001 232.658ZM272.71 223.479H269.615V245.236H272.71V223.479ZM294.074 233.736L294.378 233.554C294.59 233.463 294.833 233.28 295.121 233.038C295.409 232.795 295.698 232.492 295.971 232.143C296.244 231.809 296.487 231.354 296.699 230.807C296.911 230.261 297.018 229.685 297.018 229.093C297.018 227.348 296.411 225.922 295.197 224.829C293.983 223.737 292.314 223.191 290.175 223.191C289.31 223.191 288.476 223.297 287.671 223.54C286.852 223.783 286.2 224.04 285.714 224.314C285.214 224.587 284.743 224.92 284.303 225.3C283.878 225.694 283.59 225.952 283.469 226.104C283.347 226.256 283.241 226.362 283.18 226.438L285.35 228.607L285.851 228.016C286.215 227.652 286.791 227.272 287.596 226.878C288.415 226.483 289.265 226.286 290.175 226.286C291.252 226.286 292.087 226.574 292.694 227.12C293.3 227.682 293.589 228.44 293.589 229.396C293.589 230.352 293.3 231.111 292.694 231.657C292.087 232.218 291.252 232.492 290.175 232.492H287.99V235.602H290.175C291.525 235.602 292.587 235.936 293.361 236.588C294.135 237.24 294.514 238.06 294.514 239.031C294.514 240.002 294.135 240.821 293.361 241.474C292.587 242.126 291.525 242.445 290.175 242.445C289.477 242.445 288.794 242.369 288.157 242.187C287.52 242.005 286.989 241.807 286.594 241.595C286.2 241.383 285.836 241.125 285.487 240.836C285.138 240.548 284.91 240.351 284.804 240.229C284.698 240.108 284.622 240.017 284.576 239.956L282.407 242.126L282.68 242.505C282.892 242.733 283.211 243.006 283.636 243.34C284.06 243.674 284.561 244.007 285.138 244.341C285.714 244.675 286.458 244.948 287.353 245.191C288.248 245.434 289.189 245.555 290.175 245.555C292.511 245.555 294.393 244.933 295.819 243.704C297.245 242.475 297.943 240.973 297.943 239.198C297.943 238.409 297.807 237.68 297.518 237.013C297.245 236.345 296.927 235.829 296.593 235.45C296.259 235.086 295.865 234.752 295.409 234.464C294.969 234.176 294.666 233.994 294.484 233.918C294.302 233.842 294.165 233.781 294.074 233.736Z" fill="#C9D4F6"/>
<defs>
<filter id="filter0_d" x="132.352" y="86.2305" width="256.246" height="298.335" filterUnits="userSpaceOnUse" color-interpolation-filters="sRGB">
<feFlood flood-opacity="0" result="BackgroundImageFix"/>
<feColorMatrix in="SourceAlpha" type="matrix" values="0 0 0 0 0 0 0 0 0 0 0 0 0 0 0 0 0 0 127 0"/>
<feOffset dx="10" dy="20"/>
<feGaussianBlur stdDeviation="10"/>
<feColorMatrix type="matrix" values="0 0 0 0 0.900469 0 0 0 0 0.9125 0 0 0 0 0.924531 0 0 0 0.5 0"/>
<feBlend mode="normal" in2="BackgroundImageFix" result="effect1_dropShadow"/>
<feBlend mode="normal" in="SourceGraphic" in2="effect1_dropShadow" result="shape"/>
</filter>
<filter id="filter1_d" x="153.629" y="159.286" width="193.687" height="142.543" filterUnits="userSpaceOnUse" color-interpolation-filters="sRGB">
<feFlood flood-opacity="0" result="BackgroundImageFix"/>
<feColorMatrix in="SourceAlpha" type="matrix" values="0 0 0 0 0 0 0 0 0 0 0 0 0 0 0 0 0 0 127 0"/>
<feOffset dy="15.1596"/>
<feGaussianBlur stdDeviation="12.633"/>
<feColorMatrix type="matrix" values="0 0 0 0 0.517361 0 0 0 0 0.600304 0 0 0 0 0.833333 0 0 0 0.75 0"/>
<feBlend mode="normal" in2="BackgroundImageFix" result="effect1_dropShadow"/>
<feBlend mode="normal" in="SourceGraphic" in2="effect1_dropShadow" result="shape"/>
</filter>
<linearGradient id="paint0_linear" x1="-77.1774" y1="96.111" x2="766.793" y2="597.596" gradientUnits="userSpaceOnUse">
<stop stop-color="#E6E9EC"/>
<stop offset="1" stop-color="#F6F8FB" stop-opacity="0"/>
</linearGradient>
<linearGradient id="paint1_linear" x1="407.153" y1="198.866" x2="636.136" y2="-29.5948" gradientUnits="userSpaceOnUse">
<stop offset="0.0212266" stop-color="#E6E9EC"/>
<stop offset="1" stop-color="#F6F8FB" stop-opacity="0"/>
</linearGradient>
</defs>
</svg>
