<svg width="73" height="72" viewBox="0 0 73 72" fill="none" xmlns="http://www.w3.org/2000/svg">
<path fill-rule="evenodd" clip-rule="evenodd" d="M36.7689 21.111C36.2829 20.8823 35.7201 20.8823 35.2341 21.111L18.8325 28.8294C18.397 29.0343 18.5431 29.6877 19.0244 29.6877H52.9786C53.4599 29.6877 53.606 29.0343 53.1705 28.8294L36.7689 21.111ZM48.9598 30.8027C49.2087 30.8027 49.4104 31.0045 49.4104 31.2533V43.7588C49.4104 44.0077 49.2087 44.2094 48.9598 44.2094H46.5117C46.2629 44.2094 46.0611 44.0077 46.0611 43.7588V35.2738C46.0611 34.0397 45.0607 33.0393 43.8267 33.0393C42.5926 33.0393 41.5922 34.0397 41.5922 35.2738V43.7588C41.5922 44.0077 41.3905 44.2094 41.1416 44.2094H38.6918C38.443 44.2094 38.2412 44.0077 38.2412 43.7588V35.273C38.2412 34.039 37.2408 33.0386 36.0068 33.0386C34.7727 33.0386 33.7723 34.039 33.7723 35.273V43.7588C33.7723 44.0077 33.5706 44.2094 33.3218 44.2094H30.8717C30.6229 44.2094 30.4212 44.0077 30.4212 43.7588V35.2725C30.4212 34.0385 29.4208 33.0381 28.1867 33.0381C26.9527 33.0381 25.9523 34.0385 25.9523 35.2725V43.7588C25.9523 44.0077 25.7505 44.2094 25.5017 44.2094H23.0476C22.7988 44.2094 22.597 44.0077 22.597 43.7588V31.2533C22.597 31.0045 22.7988 30.8027 23.0476 30.8027H48.9598ZM20.3615 45.7791C20.3615 45.5302 20.5632 45.3285 20.8121 45.3285H51.1932C51.442 45.3285 51.6438 45.5302 51.6438 45.7791V47.1124C51.6438 47.3612 51.442 47.5629 51.1932 47.5629H20.8121C20.5632 47.5629 20.3615 47.3612 20.3615 47.1124V45.7791ZM18.5775 48.6793C18.3287 48.6793 18.127 48.8811 18.127 49.1299V50.4632C18.127 50.7121 18.3287 50.9138 18.5775 50.9138H53.4275C53.6764 50.9138 53.8781 50.7121 53.8781 50.4632V49.1299C53.8781 48.8811 53.6764 48.6793 53.4275 48.6793H18.5775Z" fill="#F4F6FD"/>
<path d="M36.3125 0.254476L37.0693 2.52328L39.4608 2.54188C39.7705 2.54423 39.8988 2.93929 39.6498 3.12335L37.7258 4.5441L38.4471 6.82424C38.5405 7.11925 38.2044 7.36381 37.9524 7.18359L36.0068 5.79277L34.0612 7.18359C33.8094 7.36359 33.4731 7.11946 33.5666 6.82424L34.2878 4.5441L32.3638 3.12335C32.1148 2.93929 32.2431 2.54423 32.5528 2.54188L34.9443 2.52328L35.7011 0.254476C35.7988 -0.0392523 36.2146 -0.0392523 36.3125 0.254476Z" fill="#FFCC00"/>
<path d="M68.5372 32.4814L69.294 34.7502L71.6856 34.7688C71.9953 34.7712 72.1236 35.1662 71.8745 35.3503L69.9505 36.7711L70.6718 39.0513C70.7652 39.3463 70.4292 39.5909 70.1771 39.4106L68.2315 38.0198L66.2859 39.4106C66.034 39.5906 65.6978 39.3465 65.7912 39.0513L66.5125 36.7711L64.5885 35.3503C64.3394 35.1662 64.4677 34.7712 64.7774 34.7688L67.169 34.7502L67.9258 32.4814C68.0235 32.1879 68.4393 32.1879 68.5372 32.4814Z" fill="#FFCC00"/>
<path d="M4.08017 32.4814L4.83696 34.7502L7.22852 34.7688C7.53829 34.7712 7.66656 35.1662 7.4175 35.3503L5.49348 36.7711L6.21478 39.0513C6.3082 39.3463 5.97213 39.5909 5.72008 39.4106L3.77447 38.0198L1.82885 39.4106C1.57702 39.5906 1.24074 39.3465 1.33416 39.0513L2.05546 36.7711L0.13143 35.3503C-0.117624 35.1662 0.010645 34.7712 0.320413 34.7688L2.71198 34.7502L3.46876 32.4814C3.56667 32.1879 3.98248 32.1879 4.08017 32.4814Z" fill="#FFCC00"/>
<path d="M8.91993 15.6507L9.67669 17.9195L12.0682 17.9381C12.378 17.9405 12.5062 18.3355 12.2572 18.5196L10.3332 19.9403L11.0545 22.2205C11.1479 22.5155 10.8118 22.76 10.5598 22.5798L8.61423 21.189L6.66865 22.5798C6.41682 22.7598 6.08056 22.5157 6.17398 22.2205L6.89526 19.9403L4.97127 18.5196C4.72222 18.3355 4.85049 17.9405 5.16025 17.9381L7.55176 17.9195L8.30853 15.6507C8.40644 15.357 8.8218 15.357 8.91993 15.6507Z" fill="#FFCC00"/>
<path d="M52.9476 3.8593L53.7044 6.12815L56.0959 6.14675C56.4057 6.14911 56.534 6.54417 56.2849 6.72824L54.3609 8.14902L55.0822 10.4292C55.1756 10.7242 54.8395 10.9688 54.5875 10.7886L52.6419 9.39772L50.696 10.7886C50.4442 10.9686 50.1079 10.7244 50.2013 10.4292L50.9226 8.14902L48.9986 6.72824C48.7496 6.54417 48.8778 6.14911 49.1876 6.14675L51.5792 6.12815L52.3359 3.8593C52.4339 3.56578 52.8492 3.56578 52.9476 3.8593Z" fill="#FFCC00"/>
<path d="M64.1327 15.6507L63.376 17.9195L60.9845 17.9381C60.6747 17.9405 60.5464 18.3355 60.7955 18.5196L62.7195 19.9403L61.9982 22.2205C61.9048 22.5155 62.2408 22.76 62.4929 22.5798L64.4384 21.189L66.384 22.5798C66.6358 22.7598 66.9721 22.5157 66.8787 22.2205L66.1574 19.9403L68.0814 18.5196C68.3305 18.3355 68.2022 17.9405 67.8924 17.9381L65.5009 17.9195L64.7441 15.6507C64.6462 15.357 64.2307 15.357 64.1327 15.6507Z" fill="#FFCC00"/>
<path d="M20.0996 3.85906L19.3428 6.12791L16.9513 6.14651C16.6415 6.14886 16.5132 6.54393 16.7623 6.72799L18.6863 8.14878L17.965 10.429C17.8716 10.724 18.2077 10.9685 18.4597 10.7883L20.4053 9.39747L22.3509 10.7883C22.6028 10.9683 22.9391 10.7242 22.8456 10.429L22.1243 8.14878L24.0484 6.72799C24.2974 6.54393 24.1691 6.14886 23.8594 6.14651L21.4678 6.12791L20.711 3.85906C20.6129 3.56554 20.1975 3.56554 20.0996 3.85906Z" fill="#FFCC00"/>
<path d="M64.7442 47.8786L65.501 50.1474L67.8925 50.166C68.2023 50.1684 68.3306 50.5634 68.0815 50.7475L66.1575 52.1683L66.8788 54.4484C66.9722 54.7439 66.6361 54.988 66.3841 54.8078L64.4385 53.417L62.4929 54.8078C62.2411 54.9878 61.9048 54.7437 61.9982 54.4484L62.7195 52.1683L60.7955 50.7475C60.5464 50.5634 60.6747 50.1684 60.9845 50.166L63.376 50.1474L64.1328 47.8786C64.2307 47.5851 64.6463 47.5851 64.7442 47.8786Z" fill="#FFCC00"/>
<path d="M8.30857 47.8786L7.5518 50.1474L5.16025 50.166C4.85049 50.1684 4.72222 50.5634 4.97127 50.7475L6.89528 52.1683L6.17399 54.4484C6.08057 54.7439 6.41663 54.988 6.66868 54.8078L8.61428 53.417L10.5599 54.8078C10.8117 54.9878 11.148 54.7437 11.0546 54.4484L10.3333 52.1683L12.2573 50.7475C12.5063 50.5634 12.3781 50.1684 12.0683 50.166L9.67676 50.1474L8.91998 47.8786C8.82186 47.5851 8.40649 47.5851 8.30857 47.8786Z" fill="#FFCC00"/>
<path d="M36.3124 64.71L37.0692 66.9787L39.4606 66.9973C39.7704 66.9997 39.8986 67.3947 39.6496 67.5788L37.7257 68.9995L38.4469 71.2796C38.5403 71.5746 38.2043 71.8191 37.9522 71.6389L36.0067 70.2481L34.0612 71.6389C33.8094 71.8189 33.4731 71.5748 33.5665 71.2796L34.2878 68.9995L32.3638 67.5788C32.1148 67.3947 32.2431 66.9997 32.5528 66.9973L34.9443 66.9787L35.701 64.71C35.7987 64.416 36.2145 64.416 36.3124 64.71Z" fill="#FFCC00"/>
<path d="M20.7128 59.6762L21.4696 61.945L23.861 61.9636C24.1708 61.9659 24.2991 62.361 24.05 62.5451L22.1261 63.9658L22.8473 66.2459C22.9408 66.5409 22.6047 66.7854 22.3527 66.6052L20.4071 65.2144L18.4616 66.6052C18.2098 66.7852 17.8735 66.5411 17.9669 66.2459L18.6882 63.9658L16.7642 62.5451C16.5152 62.361 16.6435 61.9659 16.9532 61.9636L19.3447 61.9452L20.1014 59.6765C20.1993 59.3823 20.6151 59.3823 20.7128 59.6762Z" fill="#FFCC00"/>
<path d="M52.3339 59.676L51.5771 61.9448L49.1856 61.9634C48.8759 61.9657 48.7476 62.3608 48.9967 62.5448L50.9206 63.9655L50.1993 66.2456C50.1059 66.5406 50.442 66.7852 50.694 66.605L52.6395 65.2142L54.5851 66.605C54.8369 66.785 55.1732 66.5409 55.0798 66.2456L54.3585 63.9655L56.2824 62.5448C56.5315 62.3608 56.4032 61.9657 56.0935 61.9634L53.702 61.945L52.9452 59.6762C52.8471 59.3821 52.4318 59.3821 52.3339 59.676Z" fill="#FFCC00"/>
</svg>
