<svg width="37" height="37" viewBox="0 0 37 37" fill="none" xmlns="http://www.w3.org/2000/svg">
<path fill-rule="evenodd" clip-rule="evenodd" d="M5.76758 13.8066C5.21529 13.8066 4.76758 14.2544 4.76758 14.8066V15.5732C4.76758 16.1254 5.21529 16.5732 5.76758 16.5732H6.1514L5.45984 27.6382H12.3761L11.6846 16.5732H12.0671C12.6194 16.5732 13.0671 16.1254 13.0671 15.5732V14.8066C13.0671 14.2544 12.6194 13.8066 12.0671 13.8066H5.76758Z" fill="#5FA4F8"/>
<path fill-rule="evenodd" clip-rule="evenodd" d="M15.4492 13.8066C14.8969 13.8066 14.4492 14.2544 14.4492 14.8066V15.5732C14.4492 16.1254 14.8969 16.5732 15.4492 16.5732H15.8336L15.1421 27.6382H22.0583L21.3668 16.5732H21.7488C22.301 16.5732 22.7488 16.1254 22.7488 15.5732V14.8066C22.7488 14.2544 22.301 13.8066 21.7488 13.8066H15.4492Z" fill="#5FA4F8"/>
<path fill-rule="evenodd" clip-rule="evenodd" d="M25.8242 13.8066C25.2719 13.8066 24.8242 14.2544 24.8242 14.8066V15.5732C24.8242 16.1254 25.2719 16.5732 25.8242 16.5732H26.208L25.5165 27.6382H32.4328L31.7412 16.5732H32.1238C32.676 16.5732 33.1238 16.1254 33.1238 15.5732V14.8066C33.1238 14.2544 32.676 13.8066 32.1238 13.8066H25.8242Z" fill="#5FA4F8"/>
<path d="M2.66778 28.4972C2.73816 28.0046 3.16008 27.6387 3.65773 27.6387H33.5404C34.0381 27.6387 34.46 28.0046 34.5304 28.4973L35.0351 32.0303C35.1212 32.6327 34.6537 33.1717 34.0452 33.1717H3.15301C2.54446 33.1717 2.077 32.6327 2.16306 32.0303L2.66778 28.4972Z" fill="#1E4DD8"/>
<path fill-rule="evenodd" clip-rule="evenodd" d="M2.71542 7.45865C2.29105 7.58462 2 7.97462 2 8.4173V11.4237C2 11.976 2.44772 12.4237 3 12.4237H34.1982C34.7504 12.4237 35.1982 11.976 35.1982 11.4237V8.41708C35.1982 7.97451 34.9073 7.58457 34.483 7.45851L20.3159 3.24857C19.2011 2.91731 18.0141 2.91714 16.8993 3.24809L2.71542 7.45865ZM18.5991 10.35C19.745 10.35 20.674 9.42107 20.674 8.27515C20.674 7.12922 19.745 6.20026 18.5991 6.20026C17.4532 6.20026 16.5242 7.12922 16.5242 8.27515C16.5242 9.42107 17.4532 10.35 18.5991 10.35Z" fill="#1E4DD8"/>
</svg>
