<svg width="32" height="33" viewBox="0 0 32 33" fill="none" xmlns="http://www.w3.org/2000/svg">
<path d="M29.3113 5.85616L26.4583 26.4018C26.3773 26.985 26.0225 27.4627 25.5417 27.7231V8.78925C25.5417 6.58022 23.7508 4.78944 21.5417 4.78944H8.59521C8.67747 4.19798 8.75959 3.60651 8.84162 3.01503C9.0042 1.84261 10.0864 1.02385 11.2589 1.18664L27.4838 3.43943C28.6558 3.60217 29.474 4.68417 29.3113 5.85616Z" fill="#1E4DD8"/>
<path fill-rule="evenodd" clip-rule="evenodd" d="M2.6665 29.1663C2.6665 30.639 3.86041 31.8329 5.33317 31.8329H21.5415C23.0143 31.8329 24.2082 30.639 24.2082 29.1663V8.78959C24.2082 7.3169 23.0143 6.12305 21.5415 6.12305H5.33317C3.86041 6.12305 2.6665 7.3169 2.6665 8.78959V29.1663ZM5.99984 12.5064C5.99984 11.3987 6.89784 10.5008 8.00559 10.5008H9.32742C10.4352 10.5008 11.3332 11.3987 11.3332 12.5064V15.1615C11.3332 16.2692 10.4352 17.1671 9.32742 17.1671H8.00559C6.89784 17.1671 5.99984 16.2692 5.99984 15.1615V12.5064ZM8.00559 11.834C7.63422 11.834 7.33317 12.1351 7.33317 12.5064V15.1615C7.33317 15.5328 7.63422 15.8339 8.00559 15.8339H9.32742C9.69879 15.8339 9.99984 15.5328 9.99984 15.1615V12.5064C9.99984 12.1351 9.69879 11.834 9.32742 11.834H8.00559ZM15.3317 27.8339C14.7742 28.2543 14.0807 28.5039 13.3286 28.5039C11.4865 28.5039 9.99528 27.0068 9.99528 25.1671C9.99528 23.3274 11.4865 21.8303 13.3286 21.8303C14.0804 21.8303 14.7738 22.0797 15.3312 22.5C15.8883 22.0815 16.5808 21.8335 17.3312 21.8335C19.1722 21.8335 20.6646 23.3258 20.6646 25.1667C20.6646 27.0076 19.1722 28.4999 17.3312 28.4999C16.5811 28.4999 15.8887 28.2521 15.3317 27.8339ZM14.4421 23.5031C14.1237 23.2888 13.7406 23.1636 13.3286 23.1636C12.2252 23.1636 11.3286 24.0614 11.3286 25.1671C11.3286 26.2728 12.2252 27.1706 13.3286 27.1706C13.7407 27.1706 14.124 27.0454 14.4424 26.8308C14.1597 26.3411 13.9979 25.7728 13.9979 25.1667C13.9979 24.5608 14.1596 23.9927 14.4421 23.5031ZM17.3306 27.2777C18.4967 27.2777 19.4421 26.3324 19.4421 25.1663C19.4421 24.0001 18.4967 23.0548 17.3306 23.0548C16.1644 23.0548 15.219 24.0001 15.219 25.1663C15.219 26.3324 16.1644 27.2777 17.3306 27.2777Z" fill="#5FA4F8"/>
</svg>
