<svg width="14" height="17" viewBox="0 0 14 17" fill="none" xmlns="http://www.w3.org/2000/svg">
<path d="M12.5 8.5H4.75V5.28125C4.75 4.0625 5.71875 3.03125 6.96875 3C8.21875 3 9.25 4.03125 9.25 5.25V5.75C9.25 6.1875 9.5625 6.5 10 6.5H11C11.4062 6.5 11.75 6.1875 11.75 5.75V5.25C11.75 2.625 9.59375 0.5 6.96875 0.5C4.34375 0.53125 2.25 2.6875 2.25 5.3125V8.5H1.5C0.65625 8.5 0 9.1875 0 10V15C0 15.8438 0.65625 16.5 1.5 16.5H12.5C13.3125 16.5 14 15.8438 14 15V10C14 9.1875 13.3125 8.5 12.5 8.5Z" fill="#4BD359"/>
</svg>
