<svg width="32" height="33" viewBox="0 0 32 33" fill="none" xmlns="http://www.w3.org/2000/svg">
<path fill-rule="evenodd" clip-rule="evenodd" d="M25.3213 16.3798C28.8365 15.7428 31.4498 12.6122 31.3339 8.9342C31.2064 4.88634 27.8217 1.70825 23.7738 1.83574C20.2627 1.94632 17.406 4.50758 16.7933 7.82655C20.7978 9.19472 23.9647 12.37 25.3213 16.3798ZM23.2189 16.4567C22.0393 13.4876 19.6759 11.1176 16.7113 9.92918C17.0694 13.3819 19.8093 16.0936 23.2189 16.4567Z" fill="#5FA4F8"/>
<path fill-rule="evenodd" clip-rule="evenodd" d="M13.1402 0.819939C13.4527 0.51091 13.9565 0.513691 14.2655 0.826152L15.7547 2.3319C16.0511 2.63153 16.0624 3.11024 15.7806 3.42357L14.4402 4.9139C14.1463 5.24065 13.6432 5.2673 13.3164 4.97342C12.9897 4.67954 12.963 4.17642 13.2569 3.84967L13.3578 3.73744C12.5304 3.8557 11.7074 4.10755 10.918 4.50313C9.56571 5.18078 8.49231 6.18989 7.74462 7.38243C7.51118 7.75477 7.02009 7.86737 6.64776 7.63392C6.27542 7.40048 6.16282 6.9094 6.39627 6.53706C7.29446 5.10446 8.58475 3.89226 10.205 3.08033C11.2114 2.57599 12.2654 2.26609 13.3234 2.13673L13.134 1.94525C12.825 1.63279 12.8277 1.12897 13.1402 0.819939Z" fill="#1E4DD8"/>
<path d="M24.0384 20.7624C24.0384 27.2057 18.8151 32.429 12.3717 32.429C5.92842 32.429 0.705078 27.2057 0.705078 20.7624C0.705078 14.319 5.92842 9.0957 12.3717 9.0957C18.8151 9.0957 24.0384 14.319 24.0384 20.7624Z" fill="#1E4DD8"/>
<path fill-rule="evenodd" clip-rule="evenodd" d="M11.8648 14.0659C12.2205 14.1611 12.4315 14.5267 12.3362 14.8823L12.1694 15.505L13.4138 15.8385L13.5802 15.2174C13.6755 14.8618 14.0411 14.6507 14.3967 14.746C14.7524 14.8413 14.9634 15.2069 14.8681 15.5625L14.6993 16.1924C16.0861 16.6855 16.8831 18.1701 16.4955 19.6164C16.3146 20.2918 15.9057 20.8453 15.3739 21.2163C16.1378 21.9112 16.4962 22.9982 16.2105 24.0645C15.8027 25.5864 14.2374 26.4887 12.716 26.0787L12.0957 25.9116L11.9283 26.5364C11.833 26.8921 11.4674 27.1031 11.1118 27.0078C10.7561 26.9125 10.5451 26.547 10.6404 26.1913L10.8083 25.5647L9.56375 25.2294L9.39585 25.856C9.30055 26.2116 8.935 26.4227 8.57935 26.3274C8.22371 26.2321 8.01265 25.8665 8.10795 25.5109L8.27633 24.8825L7.23228 24.6012C6.87677 24.5054 6.66622 24.1395 6.76202 23.784C6.85781 23.4285 7.22366 23.218 7.57917 23.3137L8.62142 23.5946L10.5364 16.4478L9.49096 16.1677C9.13532 16.0724 8.92426 15.7069 9.01956 15.3512C9.11485 14.9956 9.48041 14.7845 9.83606 14.8798L10.8815 15.1599L11.0483 14.5373C11.1436 14.1816 11.5092 13.9706 11.8648 14.0659ZM9.90884 23.9415L13.0629 24.7913C13.8726 25.0095 14.7056 24.5293 14.9226 23.7194C15.1394 22.9102 14.6592 22.0785 13.8501 21.8617L10.6928 21.0157L9.90884 23.9415ZM13.6818 17.2906C13.6919 17.2939 13.7021 17.2969 13.7125 17.2996C13.7228 17.3024 13.7332 17.3049 13.7436 17.3072L14.1341 17.4118C14.944 17.6289 15.4247 18.4614 15.2076 19.2713C14.9906 20.0813 14.1581 20.5619 13.3481 20.3449L11.0384 19.726L11.8243 16.7929L13.6818 17.2906Z" fill="white"/>
</svg>
