<svg width="37" height="37" viewBox="0 0 37 37" fill="none" xmlns="http://www.w3.org/2000/svg">
<path fill-rule="evenodd" clip-rule="evenodd" d="M32.9409 16.8909C32.6795 16.873 32.417 16.8066 32.166 16.687L28.419 14.9006C27.4331 14.4306 27.0149 13.2504 27.4849 12.2645C27.8363 11.5275 28.5846 11.1077 29.3519 11.1391C26.9943 7.66278 23.0101 5.37898 18.4951 5.37898C12.5512 5.37898 7.52648 9.3371 5.92281 14.7657C5.61338 15.8131 4.51343 16.4114 3.46599 16.102C2.41856 15.7925 1.82028 14.6926 2.12971 13.6451C4.21637 6.5816 10.7508 1.42383 18.4951 1.42383C24.852 1.42383 30.3942 4.89899 33.33 10.052C33.8497 9.19292 34.9464 8.85141 35.8719 9.29262C36.8578 9.76262 37.276 10.9428 36.806 11.9287L35.0197 15.6758C34.9306 15.8627 34.8179 16.0307 34.6869 16.1781C34.4238 16.4997 34.0575 16.7414 33.6224 16.8467C33.3929 16.9023 33.1629 16.9153 32.9409 16.8909ZM7.64606 25.8582C10.0036 29.3354 13.9882 31.6199 18.5038 31.6199C24.4478 31.6199 29.4724 27.6617 31.0761 22.2332C31.3855 21.1857 32.4855 20.5874 33.5329 20.8969C34.5804 21.2063 35.1786 22.3062 34.8692 23.3537C32.7826 30.4172 26.2481 35.575 18.5038 35.575C12.1466 35.575 6.60419 32.0995 3.66853 26.9462C3.14864 27.8047 2.05225 28.1459 1.12703 27.7048C0.141143 27.2348 -0.277065 26.0546 0.192934 25.0687L1.97926 21.3216C2.0716 21.128 2.18926 20.9545 2.3264 20.8034C2.58843 20.4904 2.94932 20.2555 3.37648 20.1521C3.59429 20.0994 3.81242 20.085 4.02377 20.1045C4.29651 20.1187 4.57104 20.1856 4.83291 20.3105L8.57997 22.0968C9.56585 22.5668 9.98406 23.747 9.51406 24.7329C9.16253 25.4703 8.41372 25.8901 7.64606 25.8582Z" fill="#5FA4F8"/>
<path fill-rule="evenodd" clip-rule="evenodd" d="M18.5111 11.1758C19.5754 11.1758 20.4382 12.0386 20.4382 13.1029V23.8945C20.4382 24.9588 19.5754 25.8216 18.5111 25.8216C17.4468 25.8216 16.584 24.9588 16.584 23.8945V13.1029C16.584 12.0386 17.4468 11.1758 18.5111 11.1758Z" fill="#1E4DD8"/>
<path fill-rule="evenodd" clip-rule="evenodd" d="M11.1885 18.4987C11.1885 17.4344 12.0513 16.5716 13.1156 16.5716L23.9072 16.5716C24.9715 16.5716 25.8343 17.4344 25.8343 18.4987C25.8343 19.563 24.9715 20.4258 23.9072 20.4258L13.1156 20.4258C12.0513 20.4258 11.1885 19.563 11.1885 18.4987Z" fill="#1E4DD8"/>
</svg>
