<svg width="18" height="18" viewBox="0 0 19 18" fill="none" xmlns="http://www.w3.org/2000/svg">
<path fill-rule="evenodd" clip-rule="evenodd" d="M16.5028 7.67097C16.4481 7.66156 16.3938 7.64458 16.3413 7.61954L14.5027 6.74304C14.2534 6.62421 14.1477 6.32581 14.2665 6.07654C14.3854 5.82727 14.6838 5.72154 14.933 5.84037L15.8317 6.26878C14.7713 3.72682 12.2619 1.94043 9.33619 1.94043C6.14519 1.94043 3.44921 4.06543 2.58862 6.9786C2.51039 7.24342 2.23228 7.39469 1.96745 7.31646C1.70262 7.23822 1.55136 6.96012 1.62959 6.69529C2.61229 3.36874 5.69001 0.94043 9.33619 0.94043C12.6749 0.94043 15.5371 2.97642 16.7505 5.87413L17.1393 5.05858C17.2582 4.80931 17.5566 4.70358 17.8058 4.82241C18.0551 4.94124 18.1608 5.23964 18.042 5.48891L17.1655 7.32747C17.146 7.36834 17.1226 7.40609 17.096 7.44048C17.0304 7.55757 16.9181 7.64808 16.7774 7.68215C16.6831 7.70497 16.5885 7.69942 16.5028 7.67097ZM2.78747 11.7285C3.84731 14.2716 6.35734 16.059 9.28389 16.059C12.4749 16.059 15.1709 13.934 16.0315 11.0209C16.1097 10.7561 16.3878 10.6048 16.6526 10.683C16.9175 10.7613 17.0687 11.0394 16.9905 11.3042C16.0078 14.6307 12.9301 17.059 9.28389 17.059C5.94483 17.059 3.08237 15.0226 1.86915 12.1244L1.48075 12.9391C1.36192 13.1884 1.06351 13.2942 0.814249 13.1753C0.564983 13.0565 0.459245 12.7581 0.578077 12.5088L1.45457 10.6703C1.47495 10.6275 1.49959 10.5882 1.52775 10.5525C1.59382 10.4386 1.70455 10.3508 1.84269 10.3173C1.93291 10.2955 2.02335 10.2996 2.10612 10.3249C2.16456 10.3339 2.22269 10.3514 2.27881 10.3782L4.11737 11.2547C4.36664 11.3735 4.47237 11.6719 4.35354 11.9212C4.23471 12.1705 3.93631 12.2762 3.68704 12.1574L2.78747 11.7285Z" fill="#83888C"/>
<path d="M16.3413 7.61954L16.4797 7.32914L16.4797 7.32914L16.3413 7.61954ZM16.5028 7.67097L16.604 7.36562L16.5811 7.35802L16.5573 7.35392L16.5028 7.67097ZM14.5027 6.74304L14.6411 6.45264H14.6411L14.5027 6.74304ZM14.2665 6.07654L13.9761 5.9381V5.9381L14.2665 6.07654ZM14.933 5.84037L15.0715 5.54997L14.933 5.84037ZM15.8317 6.26878L15.6933 6.55918L16.4524 6.92107L16.1286 6.14493L15.8317 6.26878ZM2.58862 6.9786L2.89715 7.06974L2.58862 6.9786ZM1.96745 7.31646L2.05859 7.00793L2.05859 7.00793L1.96745 7.31646ZM1.62959 6.69529L1.93812 6.78643L1.62959 6.69529ZM16.7505 5.87413L16.4538 5.99839L16.7315 6.6616L17.0409 6.01257L16.7505 5.87413ZM17.1393 5.05858L17.4297 5.19702V5.19702L17.1393 5.05858ZM17.8058 4.82241L17.9443 4.53201V4.53201L17.8058 4.82241ZM18.042 5.48891L18.3324 5.62735V5.62735L18.042 5.48891ZM17.1655 7.32747L16.8751 7.18903L16.8751 7.18904L17.1655 7.32747ZM17.096 7.44048L16.8416 7.24353L16.827 7.26241L16.8153 7.28323L17.096 7.44048ZM16.7774 7.68215L16.7017 7.36947H16.7017L16.7774 7.68215ZM2.78747 11.7285L2.92591 11.4381L2.16719 11.0764L2.49052 11.8523L2.78747 11.7285ZM16.0315 11.0209L15.7229 10.9297L16.0315 11.0209ZM16.6526 10.683L16.5615 10.9916L16.6526 10.683ZM16.9905 11.3042L17.299 11.3953V11.3953L16.9905 11.3042ZM1.86915 12.1244L2.16591 12.0002L1.88822 11.3368L1.57876 11.986L1.86915 12.1244ZM1.48075 12.9391L1.19035 12.8007L1.19035 12.8007L1.48075 12.9391ZM0.814249 13.1753L0.675807 13.4657H0.675808L0.814249 13.1753ZM0.578077 12.5088L0.868475 12.6473H0.868475L0.578077 12.5088ZM1.45457 10.6703L1.16418 10.5318H1.16418L1.45457 10.6703ZM1.52775 10.5525L1.7802 10.752L1.79449 10.7339L1.80605 10.7139L1.52775 10.5525ZM1.84269 10.3173L1.91838 10.63H1.91838L1.84269 10.3173ZM2.10612 10.3249L2.01204 10.6326L2.03435 10.6394L2.05742 10.6429L2.10612 10.3249ZM2.27881 10.3782L2.41725 10.0878L2.41725 10.0878L2.27881 10.3782ZM4.11737 11.2547L4.25581 10.9643H4.25581L4.11737 11.2547ZM4.35354 11.9212L4.64394 12.0596V12.0596L4.35354 11.9212ZM3.68704 12.1574L3.82548 11.867H3.82548L3.68704 12.1574ZM16.2028 7.90993C16.2822 7.94778 16.3648 7.97365 16.4482 7.98801L16.5573 7.35392C16.5314 7.34946 16.5054 7.34138 16.4797 7.32914L16.2028 7.90993ZM14.3643 7.03344L16.2028 7.90993L16.4797 7.32914L14.6411 6.45264L14.3643 7.03344ZM13.9761 5.9381C13.7808 6.34775 13.9546 6.83815 14.3643 7.03344L14.6411 6.45264C14.5523 6.41027 14.5146 6.30386 14.5569 6.21498L13.9761 5.9381ZM15.0715 5.54997C14.6618 5.35468 14.1714 5.52845 13.9761 5.9381L14.5569 6.21498C14.5993 6.1261 14.7057 6.08839 14.7946 6.13077L15.0715 5.54997ZM15.9701 5.97839L15.0715 5.54997L14.7946 6.13077L15.6933 6.55918L15.9701 5.97839ZM16.1286 6.14493C15.02 3.48732 12.3962 1.61872 9.33619 1.61872V2.26214C12.1276 2.26214 14.5227 3.96632 15.5348 6.39264L16.1286 6.14493ZM9.33619 1.61872C5.9988 1.61872 3.17998 3.84125 2.28009 6.88745L2.89715 7.06974C3.71843 4.28961 6.29157 2.26214 9.33619 2.26214V1.61872ZM2.28009 6.88745C2.2522 6.98189 2.15303 7.03582 2.05859 7.00793L1.87631 7.62498C2.31153 7.75355 2.76858 7.50496 2.89715 7.06974L2.28009 6.88745ZM2.05859 7.00793C1.96416 6.98003 1.91022 6.88086 1.93812 6.78643L1.32106 6.60414C1.19249 7.03937 1.44108 7.49641 1.87631 7.62498L2.05859 7.00793ZM1.93812 6.78643C2.88155 3.59283 5.83649 1.26214 9.33619 1.26214V0.618721C5.54353 0.618721 2.34304 3.14466 1.32106 6.60414L1.93812 6.78643ZM9.33619 1.26214C12.5407 1.26214 15.2887 3.21605 16.4538 5.99839L17.0473 5.74987C15.7855 2.73678 12.8091 0.618721 9.33619 0.618721V1.26214ZM16.8489 4.92014L16.4601 5.73569L17.0409 6.01257L17.4297 5.19702L16.8489 4.92014ZM17.9443 4.53201C17.5346 4.33672 17.0442 4.51049 16.8489 4.92014L17.4297 5.19702C17.4721 5.10814 17.5785 5.07043 17.6674 5.11281L17.9443 4.53201ZM18.3324 5.62735C18.5277 5.2177 18.3539 4.7273 17.9443 4.53201L17.6674 5.11281C17.7563 5.15518 17.794 5.26159 17.7516 5.35047L18.3324 5.62735ZM17.4559 7.46591L18.3324 5.62735L17.7516 5.35047L16.8751 7.18903L17.4559 7.46591ZM17.3504 7.63743C17.391 7.58499 17.4265 7.52765 17.4559 7.46591L16.8751 7.18904C16.8656 7.20903 16.8543 7.22718 16.8416 7.24353L17.3504 7.63743ZM16.8153 7.28323C16.7916 7.32553 16.7519 7.35732 16.7017 7.36947L16.8531 7.99482C17.0843 7.93884 17.2692 7.78961 17.3767 7.59773L16.8153 7.28323ZM16.7017 7.36947C16.6676 7.37772 16.6343 7.37567 16.604 7.36562L16.4015 7.97632C16.5427 8.02317 16.6986 8.03222 16.8531 7.99482L16.7017 7.36947ZM9.28389 15.7373C6.49167 15.7373 4.09604 14.0322 3.08443 11.6048L2.49052 11.8523C3.59857 14.5111 6.22301 16.3808 9.28389 16.3808V15.7373ZM15.7229 10.9297C14.9016 13.7099 12.3285 15.7373 9.28389 15.7373V16.3808C12.6213 16.3808 15.4401 14.1582 16.34 11.112L15.7229 10.9297ZM16.7438 10.3745C16.3085 10.2459 15.8515 10.4945 15.7229 10.9297L16.34 11.112C16.3679 11.0176 16.467 10.9637 16.5615 10.9916L16.7438 10.3745ZM17.299 11.3953C17.4276 10.9601 17.179 10.5031 16.7438 10.3745L16.5615 10.9916C16.6559 11.0194 16.7099 11.1186 16.682 11.213L17.299 11.3953ZM9.28389 17.3808C13.0765 17.3808 16.277 14.8548 17.299 11.3953L16.682 11.213C15.7385 14.4066 12.7836 16.7373 9.28389 16.7373V17.3808ZM1.5724 12.2486C2.83391 15.2622 5.81063 17.3808 9.28389 17.3808V16.7373C6.07903 16.7373 3.33082 14.783 2.16591 12.0002L1.5724 12.2486ZM1.77115 13.0776L2.15955 12.2629L1.57876 11.986L1.19035 12.8007L1.77115 13.0776ZM0.675808 13.4657C1.08546 13.661 1.57586 13.4872 1.77115 13.0776L1.19035 12.8007C1.14798 12.8896 1.04157 12.9273 0.952689 12.8849L0.675808 13.4657ZM0.28768 12.3704C0.0923887 12.78 0.26616 13.2704 0.675807 13.4657L0.95269 12.8849C0.863805 12.8426 0.826102 12.7361 0.868475 12.6473L0.28768 12.3704ZM1.16418 10.5318L0.28768 12.3704L0.868475 12.6473L1.74497 10.8087L1.16418 10.5318ZM1.2753 10.3531C1.23236 10.4075 1.19495 10.4673 1.16418 10.5318L1.74497 10.8087C1.75494 10.7878 1.76682 10.7689 1.7802 10.752L1.2753 10.3531ZM1.767 10.0047C1.54002 10.0596 1.35774 10.2044 1.24944 10.3912L1.80605 10.7139C1.82991 10.6728 1.86908 10.6419 1.91838 10.63L1.767 10.0047ZM2.2002 10.0173C2.06383 9.9756 1.91477 9.96889 1.767 10.0047L1.91838 10.63C1.95106 10.6221 1.98286 10.6237 2.01204 10.6326L2.2002 10.0173ZM2.41725 10.0878C2.33242 10.0474 2.24402 10.0206 2.15482 10.0069L2.05742 10.6429C2.08509 10.6472 2.11296 10.6555 2.14037 10.6686L2.41725 10.0878ZM4.25581 10.9643L2.41725 10.0878L2.14037 10.6686L3.97893 11.5451L4.25581 10.9643ZM4.64394 12.0596C4.83923 11.65 4.66546 11.1596 4.25581 10.9643L3.97893 11.5451C4.06781 11.5875 4.10552 11.6939 4.06314 11.7828L4.64394 12.0596ZM3.5486 12.4478C3.95825 12.6431 4.44865 12.4693 4.64394 12.0596L4.06314 11.7828C4.02077 11.8716 3.91436 11.9093 3.82548 11.867L3.5486 12.4478ZM2.64903 12.0189L3.5486 12.4478L3.82548 11.867L2.92591 11.4381L2.64903 12.0189Z" fill="#83888C"/>
<path d="M9.27783 6.5332V11.4778" stroke="#83888C" stroke-width="1.5" stroke-linecap="round" stroke-linejoin="round"/>
<path d="M6.8374 8.97461L11.782 8.97461" stroke="#83888C" stroke-width="1.5" stroke-linecap="round" stroke-linejoin="round"/>
</svg>
