<svg width="32" height="31" viewBox="0 0 32 31" fill="none" xmlns="http://www.w3.org/2000/svg">
<path fill-rule="evenodd" clip-rule="evenodd" d="M0 3.83203C0 2.17518 1.34315 0.832031 3 0.832031H22.3333C23.9902 0.832031 25.3333 2.17518 25.3333 3.83203V8.36434C24.8258 8.23447 24.2936 8.16536 23.7445 8.16536C20.1727 8.16536 17.3174 11.0887 17.3174 14.6449C17.3174 16.5144 18.1065 18.209 19.3739 19.3959C16.5408 20.5755 14.4018 23.103 13.6381 26.1654H3C1.34315 26.1654 0 24.8222 0 23.1654V3.83203ZM23.7445 10.1654C24.3045 10.1654 24.8402 10.2706 25.3333 10.4625V18.8274C25.0227 18.9483 24.6952 19.0348 24.3554 19.0822C24.1557 19.1101 23.9518 19.1245 23.7445 19.1245C23.4831 19.1245 23.2269 19.1016 22.978 19.0576C22.6142 18.9934 22.2657 18.8842 21.9383 18.736C20.3936 18.0366 19.3174 16.468 19.3174 14.6449C19.3174 12.1709 21.2995 10.1654 23.7445 10.1654ZM24.3554 20.6792C24.6867 20.6792 25.0131 20.7012 25.3333 20.7439V23.1654C25.3333 24.8222 23.9902 26.1654 22.3333 26.1654H15.7134C16.5871 23.3892 18.8815 21.2854 21.6993 20.7903C22.1151 20.7172 22.5423 20.6792 22.978 20.6792H23.7445H24.3554ZM11.747 5.75171C11.9754 5.98016 11.9754 6.35057 11.747 6.57902L7.90219 10.4238C7.59215 10.7339 7.09185 10.7414 6.77256 10.4409L4.93239 8.70901C4.69712 8.48758 4.6859 8.11734 4.90734 7.88207C5.12877 7.6468 5.499 7.63558 5.73427 7.85701L7.32099 9.35039L10.9197 5.75171C11.1481 5.52325 11.5185 5.52325 11.747 5.75171ZM10.8619 15.0273C11.1223 14.7669 11.5444 14.7669 11.8047 15.0273C12.0651 15.2876 12.0651 15.7098 11.8047 15.9701L9.27614 18.4987L11.8047 21.0273C12.0651 21.2876 12.0651 21.7098 11.8047 21.9701C11.5444 22.2305 11.1223 22.2305 10.8619 21.9701L8.33333 19.4415L5.80474 21.9701C5.54439 22.2305 5.12228 22.2305 4.86193 21.9701C4.60158 21.7098 4.60158 21.2876 4.86193 21.0273L7.39052 18.4987L4.86193 15.9701C4.60158 15.7098 4.60158 15.2876 4.86193 15.0273C5.12228 14.7669 5.54439 14.7669 5.80474 15.0273L8.33333 17.5559L10.8619 15.0273Z" fill="#5FA4F8"/>
<path d="M22.9779 20.6798C18.7559 20.6798 15.3333 24.2513 15.3333 28.6569C15.3333 29.4903 15.9808 30.166 16.7796 30.166H30.5537C31.3525 30.166 32 29.4903 32 28.6569C32 24.2513 28.5774 20.6798 24.3554 20.6798H22.9779Z" fill="#1E4DD8"/>
<path d="M23.7445 10.166C21.2995 10.166 19.3174 12.1716 19.3174 14.6456C19.3174 17.1196 21.2995 19.1252 23.7445 19.1252C26.1895 19.1252 28.1716 17.1196 28.1716 14.6456C28.1716 12.1716 26.1895 10.166 23.7445 10.166Z" fill="#1E4DD8"/>
</svg>
