<svg width="40" height="40" viewBox="0 0 40 40" fill="none" xmlns="http://www.w3.org/2000/svg">
<path fill-rule="evenodd" clip-rule="evenodd" d="M0 6.33398C0 4.67713 1.34315 3.33398 3 3.33398H28.6667C30.3235 3.33398 31.6667 4.67713 31.6667 6.33398V15.1009C31.5077 15.0897 31.3472 15.084 31.1853 15.084C27.4702 15.084 24.4585 18.0957 24.4585 21.8109C24.4585 23.8218 25.3408 25.6266 26.7395 26.8593C23.3673 28.1788 20.8832 31.2836 20.3236 35.0006H3C1.34314 35.0006 0 33.6575 0 32.0006V6.33398ZM31.6667 30.1782V32.0007C31.6667 33.6575 30.3235 35.0006 28.6667 35.0006H24.3952C25.0811 32.1956 27.5344 30.1782 30.3669 30.1782H31.6667ZM31.6667 19.1263V24.4954C31.5104 24.5232 31.3496 24.5378 31.1853 24.5378C29.6793 24.5378 28.4585 23.3169 28.4585 21.8109C28.4585 20.3049 29.6793 19.084 31.1853 19.084C31.3496 19.084 31.5104 19.0985 31.6667 19.1263ZM5.66641 18.3339C5.66641 18.8862 6.11413 19.3339 6.66641 19.3339H14.9997C15.552 19.3339 15.9997 18.8862 15.9997 18.3339V10.0006C15.9997 9.44827 15.552 9.00056 14.9997 9.00056H6.66641C6.11413 9.00056 5.66641 9.44827 5.66641 10.0006V18.3339ZM7.66641 17.3339V11.0006H13.9997V17.3339H7.66641ZM20.9997 23.3339C20.9997 22.7816 20.552 22.3339 19.9997 22.3339H6.66641C6.11413 22.3339 5.66641 22.7816 5.66641 23.3339C5.66641 23.8862 6.11413 24.3339 6.66641 24.3339H19.9997C20.552 24.3339 20.9997 23.8862 20.9997 23.3339ZM16.6664 27.3339C17.2187 27.3339 17.6664 27.7816 17.6664 28.3339C17.6664 28.8862 17.2187 29.3339 16.6664 29.3339H6.66641C6.11413 29.3339 5.66641 28.8862 5.66641 28.3339C5.66641 27.7816 6.11413 27.3339 6.66641 27.3339H16.6664Z" fill="#5FA4F8"/>
<path d="M30.3669 28.1782C25.859 28.1782 22.2046 31.9468 22.2046 36.5956C22.2046 37.4751 22.896 38.1881 23.7488 38.1881H38.4557C39.3085 38.1881 39.9999 37.4751 39.9999 36.5956C39.9999 31.9468 36.3455 28.1782 31.8376 28.1782H30.3669Z" fill="#1E4DD8"/>
<path d="M31.1853 17.084C28.5748 17.084 26.4585 19.2003 26.4585 21.8109C26.4585 24.4215 28.5748 26.5378 31.1853 26.5378C33.7959 26.5378 35.9122 24.4215 35.9122 21.8109C35.9122 19.2003 33.7959 17.084 31.1853 17.084Z" fill="#1E4DD8"/>
</svg>
