<svg width="15" height="15" viewBox="0 0 15 15" fill="none" xmlns="http://www.w3.org/2000/svg">
<path d="M3.625 14.1836V4.83984H0.71875V14.1836H3.625ZM2.15625 3.58984C3.09375 3.58984 3.84375 2.80859 3.84375 1.87109C3.84375 0.964844 3.09375 0.214844 2.15625 0.214844C1.25 0.214844 0.5 0.964844 0.5 1.87109C0.5 2.80859 1.25 3.58984 2.15625 3.58984ZM14.4688 14.1836H14.5V9.05859C14.5 6.55859 13.9375 4.62109 11 4.62109C9.59375 4.62109 8.65625 5.40234 8.25 6.12109H8.21875V4.83984H5.4375V14.1836H8.34375V9.55859C8.34375 8.33984 8.5625 7.18359 10.0625 7.18359C11.5625 7.18359 11.5938 8.55859 11.5938 9.65234V14.1836H14.4688Z" fill="#0077B5"/>
</svg>
