<?xml version="1.0" encoding="utf-8"?>
<svg width="24" height="21" viewBox="0 0 24 21" fill="none" xmlns="http://www.w3.org/2000/svg">
<path fill-rule="evenodd" clip-rule="evenodd" d="M13.6578 19H1.9C0.850658 19 0 18.1493 0 17.1V1.9C0 0.850658 0.850661 -1.91047e-06 1.9 0L18.0649 2.94306e-05C19.1201 3.13518e-05 19.9731 0.859823 19.9648 1.91497C19.9628 2.17074 19.7549 2.37703 19.4991 2.37703H3.08797C2.69446 2.37703 2.37546 2.69603 2.37546 3.08953C2.37546 3.48303 2.69446 3.80203 3.08797 3.80203H20.9887C21.9969 3.84835 22.8 4.68038 22.8 5.7V10.5766C22.625 10.5926 22.4491 10.6461 22.2824 10.7425L21.8983 10.9569C21.7677 10.8725 21.633 10.7933 21.4943 10.7197V10.2798C21.4943 9.66958 21.0498 9.17514 20.485 9.0584C19.5116 8.82585 18.5486 8.85448 17.6533 9.05613C16.9654 9.19005 16.6552 9.79592 16.6552 10.2798V10.7121C16.5076 10.7893 16.3649 10.8735 16.2267 10.9646L15.855 10.7484C15.3245 10.4351 14.6964 10.5601 14.3086 10.9479L14.2878 10.9687L14.2683 10.9906C13.6556 11.68 13.161 12.5052 12.8699 13.4431C12.67 14.0144 12.9156 14.6309 13.4144 14.9302L13.4278 14.9383L13.821 15.1577C13.8145 15.3143 13.8145 15.4706 13.821 15.6272L13.4278 15.8466L13.4144 15.8547C12.9156 16.154 12.67 16.7705 12.8699 17.3418C13.0565 17.9429 13.3266 18.4976 13.6578 19Z" fill="#758698"/>
<path d="M23.7284 16.5916L22.8621 16.108C22.9628 15.6245 22.9628 15.1611 22.8621 14.6775L23.7284 14.1939C23.8292 14.1335 23.8695 14.0126 23.8292 13.9119C23.6076 13.1865 23.2247 12.5418 22.7412 11.9978C22.6606 11.9172 22.5397 11.8971 22.439 11.9575L21.5726 12.4411C21.2099 12.1388 20.807 11.8971 20.3637 11.7359V10.7486C20.3637 10.6479 20.2831 10.5471 20.1622 10.527C19.4168 10.3457 18.6713 10.3658 17.9661 10.527C17.8452 10.5471 17.7848 10.6479 17.7848 10.7486V11.7359C17.3213 11.8971 16.9184 12.1388 16.5557 12.4612L15.6894 11.9575C15.5886 11.8971 15.4677 11.9172 15.3871 11.9978C14.9036 12.5418 14.5208 13.1865 14.2991 13.9119C14.2588 14.0126 14.2991 14.1335 14.3999 14.1939L15.2662 14.6775C15.1856 15.1611 15.1856 15.6245 15.2662 16.108L14.3999 16.5916C14.2991 16.652 14.2588 16.7729 14.2991 16.8736C14.5208 17.599 14.9036 18.2437 15.3871 18.7877C15.4677 18.8683 15.5886 18.8885 15.6894 18.828L16.5557 18.3445C16.9184 18.6467 17.3213 18.8885 17.7848 19.0496V20.0369C17.7848 20.1376 17.8653 20.2384 17.9661 20.2787C18.7116 20.4399 19.457 20.4197 20.1622 20.2787C20.2831 20.2384 20.3637 20.1376 20.3637 20.0369V19.0496C20.807 18.8885 21.2099 18.6467 21.5726 18.3445L22.439 18.828C22.5397 18.8885 22.6606 18.8683 22.7412 18.7877C23.2449 18.2437 23.6076 17.599 23.8493 16.8736C23.8695 16.7729 23.8292 16.652 23.7284 16.5916ZM19.0742 16.9945C18.1676 16.9945 17.4624 16.2894 17.4624 15.3827C17.4624 14.4962 18.1676 13.7708 19.0742 13.7708C19.9607 13.7708 20.6861 14.4962 20.6861 15.3827C20.6861 16.2894 19.9607 16.9945 19.0742 16.9945Z" fill="#758698"/>
</svg>
