<svg width="34" height="33" viewBox="0 0 34 33" fill="none" xmlns="http://www.w3.org/2000/svg">
<path fill-rule="evenodd" clip-rule="evenodd" d="M4.48334 16.1342C4.48334 14.0412 6.17882 12.3438 8.27115 12.3438C10.3635 12.3438 12.059 14.0412 12.059 16.1342C12.059 18.2272 10.3635 19.9247 8.27115 19.9247C6.17882 19.9247 4.48334 18.2272 4.48334 16.1342ZM0.848145 28.139C0.848145 24.3837 3.89239 21.3394 7.64766 21.3394H8.89685C10.8022 21.3394 12.5246 22.1232 13.7591 23.3858C11.1216 24.2853 9.09695 26.5101 8.47766 29.267H1.97614C1.35316 29.267 0.848145 28.7619 0.848145 28.139ZM25.5206 29.267H32.0223C32.6453 29.267 33.1503 28.762 33.1503 28.139C33.1503 24.3838 30.1061 21.3395 26.3508 21.3395H25.1016C23.1962 21.3395 21.4739 22.1233 20.2394 23.3859C22.8768 24.2855 24.9013 26.5102 25.5206 29.267ZM21.9373 16.1343C21.9373 14.0412 23.6328 12.3438 25.7251 12.3438C27.8174 12.3438 29.5129 14.0412 29.5129 16.1343C29.5129 18.2273 27.8174 19.9247 25.7251 19.9247C23.6328 19.9247 21.9373 18.2273 21.9373 16.1343Z" fill="#5FA4F8"/>
<path fill-rule="evenodd" clip-rule="evenodd" d="M13.2114 19.0463C13.2114 16.9533 14.9068 15.2559 16.9992 15.2559C19.0915 15.2559 20.787 16.9533 20.787 19.0463C20.787 21.1394 19.0915 22.8368 16.9992 22.8368C14.9068 22.8368 13.2114 21.1394 13.2114 19.0463ZM9.57617 31.0511C9.57617 27.2958 12.6204 24.2516 16.3757 24.2516H17.6249C21.3801 24.2516 24.4244 27.2958 24.4244 31.0511C24.4244 31.6741 23.9194 32.1791 23.2964 32.1791H10.7042C10.0812 32.1791 9.57617 31.6741 9.57617 31.0511Z" fill="#5FA4F8"/>
<path d="M16.4954 1.52419C16.6543 1.04923 17.346 1.04923 17.5049 1.52419L18.2427 3.73007C18.3138 3.94248 18.5175 4.08629 18.7474 4.08629H21.1351C21.6492 4.08629 21.863 4.72534 21.4471 5.01888L19.5154 6.38219C19.3294 6.51347 19.2515 6.74616 19.3226 6.95856L20.0604 9.16445C20.2193 9.63941 19.6597 10.0344 19.2438 9.74082L17.3121 8.37751C17.1261 8.24624 16.8742 8.24624 16.6882 8.37751L14.7566 9.74082C14.3406 10.0344 13.781 9.63941 13.9399 9.16445L14.6777 6.95856C14.7488 6.74616 14.6709 6.51347 14.4849 6.38219L12.5533 5.01888C12.1374 4.72534 12.3511 4.08629 12.8652 4.08629H15.2529C15.4828 4.08629 15.6866 3.94248 15.7576 3.73007L16.4954 1.52419Z" fill="#1E4DD8"/>
</svg>
