<?xml version="1.0" encoding="utf-8"?>
<!-- Generator: Adobe Illustrator 23.0.2, SVG Export Plug-In . SVG Version: 6.00 Build 0)  -->
<svg version="1.1" xmlns="http://www.w3.org/2000/svg" xmlns:xlink="http://www.w3.org/1999/xlink" x="0px" y="0px"
	 viewBox="0 0 1000 1000" style="enable-background:new 0 0 1000 1000;" xml:space="preserve">
<style type="text/css">
	.st0{fill:#191982;}
	.st1{fill:url(#SVGID_1_);}
	.st2{fill:url(#SVGID_2_);}
	.st3{fill:#FAFCFF;}
	.st4{fill:url(#SVGID_3_);}
	.st5{fill:url(#SVGID_4_);}
	.st6{fill:none;stroke:url(#SVGID_5_);stroke-width:8.5039;stroke-linecap:round;stroke-miterlimit:10;}
	.st7{fill:none;stroke:url(#SVGID_6_);stroke-width:8.5039;stroke-linecap:round;stroke-miterlimit:10;}
	.st8{fill:none;stroke:url(#SVGID_7_);stroke-width:8.5039;stroke-linecap:round;stroke-miterlimit:10;}
	.st9{fill:url(#SVGID_8_);}
	.st10{fill:url(#SVGID_9_);}
	.st11{fill:none;stroke:url(#SVGID_10_);stroke-width:17.0079;stroke-linecap:round;stroke-miterlimit:10;}
	.st12{fill:url(#SVGID_11_);}
	.st13{fill:url(#SVGID_12_);}
	.st14{fill:url(#SVGID_13_);}
	.st15{fill:url(#SVGID_14_);}
	.st16{opacity:0.3;fill:#191982;}
	.st17{fill:url(#SVGID_15_);}
	.st18{fill:url(#SVGID_16_);}
	.st19{fill:url(#SVGID_17_);}
	.st20{fill:url(#SVGID_18_);}
	.st21{fill:url(#SVGID_19_);}
	.st22{fill:url(#SVGID_20_);}
	.st23{fill:none;stroke:url(#SVGID_21_);stroke-width:0.5669;stroke-miterlimit:10;}
	.st24{fill:url(#SVGID_22_);}
	.st25{fill:url(#SVGID_23_);}
	.st26{fill:url(#SVGID_24_);}
	.st27{fill:url(#SVGID_25_);}
	.st28{fill:url(#SVGID_26_);}
	.st29{fill:none;stroke:url(#SVGID_27_);stroke-width:8.5039;stroke-linecap:round;stroke-miterlimit:10;}
	.st30{fill:none;stroke:url(#SVGID_28_);stroke-width:8.5039;stroke-linecap:round;stroke-miterlimit:10;}
	.st31{fill:none;stroke:url(#SVGID_29_);stroke-width:8.5039;stroke-linecap:round;stroke-miterlimit:10;}
	.st32{fill:url(#SVGID_30_);}
	.st33{fill:url(#SVGID_31_);}
	.st34{fill:none;stroke:url(#SVGID_32_);stroke-width:17.0079;stroke-linecap:round;stroke-miterlimit:10;}
	.st35{fill:url(#SVGID_33_);}
	.st36{fill:url(#SVGID_34_);}
	.st37{fill:url(#SVGID_35_);}
	.st38{fill:url(#SVGID_36_);}
	.st39{fill:url(#SVGID_37_);}
	.st40{fill:url(#SVGID_38_);}
	.st41{fill:url(#SVGID_39_);}
	.st42{fill:url(#SVGID_40_);}
	.st43{fill:url(#SVGID_41_);}
	.st44{fill:url(#SVGID_42_);}
	.st45{fill:url(#SVGID_43_);}
	.st46{fill:url(#SVGID_44_);}
	.st47{fill:none;stroke:url(#SVGID_45_);stroke-width:0.5669;stroke-miterlimit:10;}
	.st48{fill:url(#SVGID_46_);}
	.st49{fill:url(#SVGID_47_);}
	.st50{fill:url(#SVGID_48_);}
	.st51{fill:url(#SVGID_49_);}
	.st52{fill:url(#SVGID_50_);}
	.st53{fill:url(#SVGID_51_);}
	.st54{fill:url(#SVGID_52_);}
	.st55{fill:url(#SVGID_53_);}
	.st56{fill:url(#SVGID_54_);}
	.st57{fill:none;stroke:url(#SVGID_55_);stroke-width:7.0866;stroke-linecap:round;stroke-miterlimit:10;}
	.st58{fill:none;stroke:url(#SVGID_56_);stroke-width:7.0866;stroke-linecap:round;stroke-miterlimit:10;}
	.st59{fill:none;stroke:url(#SVGID_57_);stroke-width:7.0866;stroke-linecap:round;stroke-miterlimit:10;}
	.st60{fill:#041466;}
	.st61{fill:url(#SVGID_58_);}
	.st62{fill:url(#SVGID_59_);}
	.st63{fill:url(#SVGID_60_);}
	.st64{fill:url(#SVGID_61_);}
	.st65{fill:url(#SVGID_62_);}
	.st66{fill:url(#SVGID_63_);}
	.st67{fill:url(#SVGID_64_);}
	.st68{fill:url(#SVGID_65_);}
	.st69{fill:url(#SVGID_66_);}
	.st70{fill:url(#SVGID_67_);}
	.st71{fill:url(#SVGID_68_);}
	.st72{fill:url(#SVGID_69_);}
	.st73{fill:url(#SVGID_70_);}
	.st74{fill:url(#SVGID_71_);}
	.st75{fill:url(#SVGID_72_);}
	.st76{fill:url(#SVGID_73_);}
	.st77{fill:url(#SVGID_74_);}
	.st78{fill:url(#SVGID_75_);}
	.st79{fill:url(#SVGID_76_);}
	.st80{fill:url(#SVGID_77_);}
	.st81{fill:url(#SVGID_78_);}
	.st82{fill:url(#SVGID_79_);}
	.st83{fill:url(#SVGID_80_);}
	.st84{fill:url(#SVGID_81_);}
	.st85{fill:url(#SVGID_82_);}
	.st86{fill:url(#SVGID_83_);}
	.st87{fill:url(#SVGID_84_);}
	.st88{fill:url(#SVGID_85_);}
	.st89{fill:url(#SVGID_86_);}
	.st90{fill:url(#SVGID_87_);}
	.st91{fill:#FFFFFF;}
	.st92{fill:#D9EEFF;}
	.st93{fill:#BBDDFF;}
	.st94{fill:#A0CCFF;}
	.st95{fill:none;stroke:url(#SVGID_88_);stroke-width:7.0866;stroke-linecap:round;stroke-miterlimit:10;}
	.st96{fill:none;stroke:url(#SVGID_89_);stroke-width:7.0866;stroke-linecap:round;stroke-miterlimit:10;}
	.st97{fill:none;stroke:url(#SVGID_90_);stroke-width:7.0866;stroke-linecap:round;stroke-miterlimit:10;}
	.st98{fill:url(#SVGID_91_);}
	.st99{fill:url(#SVGID_92_);}
	.st100{fill:url(#SVGID_93_);}
	.st101{fill:url(#SVGID_94_);}
	.st102{fill:url(#SVGID_95_);}
	.st103{fill:url(#SVGID_96_);}
	.st104{fill:url(#SVGID_97_);}
	.st105{fill:#FFF2CC;}
	.st106{fill:none;stroke:#FFF1CC;stroke-width:1.9843;stroke-miterlimit:10;}
	.st107{fill:url(#SVGID_98_);}
	.st108{fill:url(#SVGID_99_);}
	.st109{fill:url(#SVGID_100_);}
	.st110{fill:url(#SVGID_101_);}
	.st111{fill:url(#SVGID_102_);}
	.st112{fill:url(#SVGID_103_);}
	.st113{fill:url(#SVGID_104_);}
	.st114{fill:url(#SVGID_105_);}
	.st115{fill:url(#SVGID_106_);}
	.st116{fill:url(#SVGID_107_);}
	.st117{fill:url(#SVGID_108_);}
	.st118{fill:url(#SVGID_109_);}
	.st119{fill:url(#SVGID_110_);}
	.st120{fill:url(#SVGID_111_);}
	.st121{fill:url(#SVGID_112_);}
	.st122{fill:url(#SVGID_113_);}
	.st123{fill:url(#SVGID_114_);}
	.st124{fill:url(#SVGID_115_);}
	.st125{fill:url(#SVGID_116_);}
	.st126{fill:#3CA9E5;}
	.st127{fill:#2853C3;}
	.st128{fill:#1A4199;}
	.st129{fill:#60BEFF;}
	.st130{fill:url(#SVGID_117_);}
	.st131{fill:url(#SVGID_118_);}
	.st132{fill:url(#SVGID_119_);}
	.st133{fill:url(#SVGID_120_);}
	.st134{fill:url(#SVGID_121_);}
	.st135{fill:url(#SVGID_122_);}
	.st136{fill:url(#SVGID_123_);}
	.st137{fill:url(#SVGID_124_);}
	.st138{fill:url(#SVGID_125_);}
	.st139{fill:url(#SVGID_126_);}
	.st140{fill:url(#SVGID_127_);}
	.st141{fill:url(#SVGID_128_);}
	.st142{fill:url(#SVGID_129_);}
	.st143{fill:url(#SVGID_130_);}
	.st144{fill:url(#SVGID_131_);}
	.st145{fill:url(#SVGID_132_);}
	.st146{fill:url(#SVGID_133_);}
	.st147{fill:none;stroke:url(#SVGID_134_);stroke-width:0.6236;stroke-miterlimit:10;}
	.st148{fill:url(#SVGID_135_);}
	.st149{fill:url(#SVGID_136_);}
	.st150{fill:url(#SVGID_137_);}
	.st151{fill:url(#SVGID_138_);}
	.st152{fill:url(#SVGID_139_);}
	.st153{fill:url(#SVGID_140_);}
	.st154{fill:url(#SVGID_141_);}
	.st155{fill:url(#SVGID_142_);}
	.st156{fill:url(#SVGID_143_);}
	.st157{fill:url(#SVGID_144_);}
	.st158{fill:url(#SVGID_145_);}
	.st159{fill:url(#SVGID_146_);}
	.st160{fill:url(#SVGID_147_);}
	.st161{fill:url(#SVGID_148_);}
	.st162{fill:url(#SVGID_149_);}
	.st163{fill:url(#SVGID_150_);}
	.st164{fill:url(#SVGID_151_);}
	.st165{fill:url(#SVGID_152_);}
	.st166{fill:url(#SVGID_153_);}
	.st167{fill:url(#SVGID_154_);}
	.st168{fill:url(#SVGID_155_);}
	.st169{fill:url(#SVGID_156_);}
	.st170{fill:url(#SVGID_157_);}
	.st171{fill:url(#SVGID_158_);}
	.st172{fill:url(#SVGID_159_);}
	.st173{fill:url(#SVGID_160_);}
	.st174{fill:url(#SVGID_161_);}
	.st175{fill:url(#SVGID_162_);}
	.st176{fill:url(#SVGID_163_);}
	.st177{fill:url(#SVGID_164_);}
	.st178{fill:url(#SVGID_165_);}
	.st179{fill:url(#SVGID_166_);}
	.st180{fill:url(#SVGID_167_);}
	.st181{fill:url(#SVGID_168_);}
	.st182{fill:none;stroke:url(#SVGID_169_);stroke-width:0.6236;stroke-miterlimit:10;}
	.st183{fill:url(#SVGID_170_);}
	.st184{fill:url(#SVGID_171_);}
	.st185{fill:url(#SVGID_172_);}
	.st186{fill:url(#SVGID_173_);}
	.st187{fill:url(#SVGID_174_);}
	.st188{fill:url(#SVGID_175_);}
	.st189{fill:url(#SVGID_176_);}
	.st190{fill:url(#SVGID_177_);}
	.st191{fill:none;}
	.st192{fill:url(#SVGID_178_);}
	.st193{fill:url(#SVGID_179_);}
	.st194{fill:url(#SVGID_180_);}
	.st195{fill:url(#SVGID_181_);}
	.st196{fill:url(#SVGID_182_);}
	.st197{fill:url(#SVGID_183_);}
	.st198{fill:url(#SVGID_184_);}
	.st199{fill:url(#SVGID_185_);}
	.st200{fill:url(#SVGID_186_);}
	.st201{fill:url(#SVGID_187_);}
	.st202{fill:url(#SVGID_188_);}
	.st203{fill:url(#SVGID_189_);}
	.st204{fill:url(#SVGID_190_);}
	.st205{fill:url(#SVGID_191_);}
	.st206{fill:url(#SVGID_192_);}
	.st207{fill:url(#SVGID_193_);}
	.st208{fill:url(#SVGID_194_);}
	.st209{fill:url(#SVGID_195_);}
	.st210{fill:url(#SVGID_196_);}
	.st211{fill:url(#SVGID_197_);}
	.st212{fill:url(#SVGID_198_);}
	.st213{fill:#211155;}
	.st214{fill:url(#SVGID_199_);}
	.st215{fill:#9C6F66;}
	.st216{fill:#4F3834;}
	.st217{fill:#BD867B;}
	.st218{fill:#0DC72D;}
	.st219{fill:#00AB17;}
	.st220{fill:#009619;}
	.st221{fill:#0D6B10;}
	.st222{fill:#0E7A12;}
	.st223{fill:#08990B;}
	.st224{fill:url(#SVGID_200_);}
	.st225{fill:url(#SVGID_201_);}
	.st226{fill:url(#SVGID_202_);}
	.st227{fill:url(#SVGID_203_);}
	.st228{fill:url(#SVGID_204_);}
	.st229{fill:url(#SVGID_205_);}
	.st230{fill:url(#SVGID_206_);}
	.st231{fill:url(#SVGID_207_);}
	.st232{fill:url(#SVGID_208_);}
	.st233{fill:url(#SVGID_209_);}
	.st234{fill:url(#SVGID_210_);}
	.st235{fill:url(#SVGID_211_);}
	.st236{fill:url(#SVGID_212_);}
	.st237{fill:url(#SVGID_213_);}
	.st238{fill:#FFF1CC;}
	.st239{fill:url(#SVGID_214_);}
</style>
<g id="Layer_1">
	<g>
		<path class="st0" d="M415.89,832.66L97.61,648.9c-10.62-6.13-9.29-16.85,2.98-23.93l436.23-251.86
			c12.27-7.08,30.82-7.85,41.45-1.72l318.28,183.76c10.62,6.13,9.29,16.85-2.98,23.93L457.34,830.94
			C445.07,838.02,426.52,838.79,415.89,832.66z"/>
		<path class="st0" d="M835.81,652.73L551.71,488.71c-3.73-2.16-3.27-5.92,1.05-8.41l55.45-32.01c4.31-2.49,10.83-2.76,14.57-0.6
			l284.09,164.02c3.73,2.16,3.27,5.92-1.05,8.41l-55.45,32.01C846.06,654.62,839.54,654.89,835.81,652.73z"/>
		<path class="st0" d="M709.99,725.38L425.89,561.35c-3.73-2.16-3.27-5.92,1.05-8.41l55.45-32.01c4.31-2.49,10.83-2.76,14.57-0.6
			l284.09,164.02c3.73,2.16,3.27,5.92-1.05,8.41l-55.45,32.01C720.24,727.26,713.72,727.53,709.99,725.38z"/>
		<path class="st0" d="M587.01,796.38L302.92,632.35c-3.73-2.16-3.27-5.92,1.05-8.41l55.45-32.01c4.31-2.49,10.83-2.76,14.57-0.6
			l284.09,164.02c3.73,2.16,3.27,5.92-1.05,8.41l-55.45,32.01C597.27,798.26,590.75,798.53,587.01,796.38z"/>
		<linearGradient id="SVGID_1_" gradientUnits="userSpaceOnUse" x1="-49.1233" y1="580.1271" x2="645.7896" y2="554.061">
			<stop  offset="0" style="stop-color:#3479ED"/>
			<stop  offset="0.1013" style="stop-color:#377BED"/>
			<stop  offset="0.1763" style="stop-color:#4081ED"/>
			<stop  offset="0.2429" style="stop-color:#508BED"/>
			<stop  offset="0.3043" style="stop-color:#6799ED"/>
			<stop  offset="0.3134" style="stop-color:#6B9CED"/>
			<stop  offset="0.5123" style="stop-color:#6E9EED"/>
			<stop  offset="0.6596" style="stop-color:#77A4ED"/>
			<stop  offset="0.7904" style="stop-color:#87AEED"/>
			<stop  offset="0.9108" style="stop-color:#9EBBED"/>
			<stop  offset="1" style="stop-color:#B4C9ED"/>
		</linearGradient>
		<path class="st1" d="M903.72,512.57l-3.54,2.91c-1-0.97-2.2-1.89-3.63-2.72L578.26,329.01c-10.62-6.13-29.18-5.36-41.45,1.72
			L100.59,582.58c-3.38,1.95-5.89,4.18-7.59,6.5l-2.55-2.91l-0.01,10.51l0.03,0.01c0.22,3.68,2.57,7.17,7.14,9.81l318.28,183.76
			c10.62,6.13,29.18,5.36,41.45-1.72L893.57,536.7c6.61-3.82,10.02-8.69,10.11-13.33h0.03V512.57z"/>
		
			<linearGradient id="SVGID_2_" gradientUnits="userSpaceOnUse" x1="481.3153" y1="895.3373" x2="645.433" y2="519.3209" gradientTransform="matrix(0.866 0.5 -1.5 0.2887 868.0245 71.0006)">
			<stop  offset="0" style="stop-color:#ABCAFC"/>
			<stop  offset="0.1083" style="stop-color:#B3CFFC"/>
			<stop  offset="0.6344" style="stop-color:#D7E5FA"/>
			<stop  offset="0.9152" style="stop-color:#E5EDF9"/>
		</linearGradient>
		<path class="st2" d="M415.89,779.93L97.61,596.17c-4.65-2.68-7.01-6.24-7.16-9.99c-0.2-4.82,3.24-9.95,10.14-13.94l436.23-251.86
			c12.27-7.08,30.82-7.85,41.45-1.72l318.28,183.76c10.62,6.13,9.29,16.85-2.98,23.93L457.34,778.21
			C445.07,785.29,426.52,786.06,415.89,779.93z"/>
		<path class="st16" d="M835.98,652.73L551.89,488.71c-3.73-2.16-3.27-5.92,1.05-8.41l55.45-32.01c4.31-2.49,10.83-2.76,14.57-0.6
			l284.09,164.02c3.73,2.16,3.27,5.92-1.05,8.41l-55.45,32.01C846.23,654.62,839.71,654.89,835.98,652.73z"/>
		<path class="st16" d="M710.16,725.38L426.07,561.35c-3.73-2.16-3.27-5.92,1.05-8.41l55.45-32.01c4.31-2.49,10.83-2.76,14.57-0.6
			l284.09,164.02c3.73,2.16,3.27,5.92-1.05,8.41l-55.45,32.01C720.41,727.26,713.89,727.53,710.16,725.38z"/>
		<path class="st16" d="M587.18,796.38L303.09,632.35c-3.73-2.16-3.27-5.92,1.05-8.41l55.45-32.01c4.31-2.49,10.83-2.76,14.57-0.6
			l284.09,164.02c3.73,2.16,3.27,5.92-1.05,8.41l-55.45,32.01C597.44,798.26,590.92,798.53,587.18,796.38z"/>
		<g>
			<linearGradient id="SVGID_3_" gradientUnits="userSpaceOnUse" x1="329.8952" y1="580.9592" x2="558.3639" y2="710.0115">
				<stop  offset="0.1427" style="stop-color:#4280FD"/>
				<stop  offset="1" style="stop-color:#86B0FD"/>
			</linearGradient>
			<path class="st4" d="M660.77,724.14c0,0-3.26,1.12-6.82,2.36L374.15,564.96c-3.73-2.16-10.25-1.89-14.57,0.6l-55.26,31.9
				l-3.73-3.53v7.96c0,0.03,0,0.06,0,0.1v0.7l0.03,0c0.13,1.24,0.92,2.4,2.46,3.29l284.09,164.02c3.73,2.16,10.25,1.89,14.57-0.6
				l55.45-32.01c2.52-1.45,3.68-3.34,3.51-5.09c0.01,0,0.06,0.01,0.06,0.01V724.14z"/>
			<linearGradient id="SVGID_4_" gradientUnits="userSpaceOnUse" x1="452.8476" y1="509.9226" x2="681.3163" y2="638.9749">
				<stop  offset="0.1427" style="stop-color:#4280FD"/>
				<stop  offset="1" style="stop-color:#86B0FD"/>
			</linearGradient>
			<path class="st5" d="M783.72,653.1c0,0-3.26,1.12-6.82,2.36L497.11,493.92c-3.73-2.16-10.25-1.89-14.57,0.6l-55.26,31.9
				l-3.73-3.53v7.96c0,0.03,0,0.06,0,0.1v0.7l0.03,0c0.13,1.24,0.92,2.4,2.46,3.29l284.09,164.02c3.73,2.16,10.25,1.89,14.57-0.6
				l55.45-32.01c2.52-1.45,3.68-3.34,3.51-5.09c0.01,0,0.06,0.01,0.06,0.01V653.1z"/>
			<linearGradient id="SVGID_5_" gradientUnits="userSpaceOnUse" x1="578.6746" y1="437.3746" x2="807.1432" y2="566.4269">
				<stop  offset="0.1427" style="stop-color:#4280FD"/>
				<stop  offset="1" style="stop-color:#86B0FD"/>
			</linearGradient>
			<path style="fill:url(#SVGID_5_);" d="M909.55,580.55c0,0-3.26,1.12-6.82,2.36L622.93,421.38c-3.73-2.16-10.25-1.89-14.57,0.6
				l-55.26,31.9l-3.73-3.53v7.96c0,0.03,0,0.06,0,0.1v0.7l0.03,0c0.13,1.24,0.92,2.4,2.46,3.29l284.09,164.02
				c3.73,2.16,10.25,1.89,14.57-0.6l55.45-32.01c2.52-1.45,3.68-3.34,3.51-5.09c0.01,0,0.06,0.01,0.06,0.01V580.55z"/>
			
				<linearGradient id="SVGID_6_" gradientUnits="userSpaceOnUse" x1="453.1801" y1="455.4902" x2="712.2686" y2="453.0227" gradientTransform="matrix(0.866 0.5 -1.5 0.2887 868.0245 71.0006)">
				<stop  offset="0.1427" style="stop-color:#79A5FD"/>
				<stop  offset="1" style="stop-color:#BED4FD"/>
			</linearGradient>
			<path style="fill:url(#SVGID_6_);" d="M835.98,617.58L551.89,453.56c-3.73-2.16-3.27-5.92,1.05-8.41l55.45-32.01
				c4.31-2.49,10.83-2.76,14.57-0.6l284.09,164.02c3.73,2.16,3.27,5.92-1.05,8.41l-55.45,32.01
				C846.23,619.47,839.71,619.74,835.98,617.58z"/>
			
				<linearGradient id="SVGID_7_" gradientUnits="userSpaceOnUse" x1="527.3752" y1="581.2945" x2="786.4637" y2="578.827" gradientTransform="matrix(0.866 0.5 -1.5 0.2887 868.0245 71.0006)">
				<stop  offset="0.1427" style="stop-color:#79A5FD"/>
				<stop  offset="1" style="stop-color:#BED4FD"/>
			</linearGradient>
			<path style="fill:url(#SVGID_7_);" d="M710.16,690.22L426.07,526.2c-3.73-2.16-3.27-5.92,1.05-8.41l55.45-32.01
				c4.31-2.49,10.83-2.76,14.57-0.6l284.09,164.02c3.73,2.16,3.27,5.92-1.05,8.41l-55.45,32.01
				C720.41,692.11,713.89,692.38,710.16,690.22z"/>
			
				<linearGradient id="SVGID_8_" gradientUnits="userSpaceOnUse" x1="599.8831" y1="704.2551" x2="858.9716" y2="701.7876" gradientTransform="matrix(0.866 0.5 -1.5 0.2887 868.0245 71.0006)">
				<stop  offset="0.1427" style="stop-color:#79A5FD"/>
				<stop  offset="1" style="stop-color:#BED4FD"/>
			</linearGradient>
			<path class="st9" d="M587.18,761.22L303.09,597.2c-3.73-2.16-3.27-5.92,1.05-8.41l55.45-32.01c4.31-2.49,10.83-2.76,14.57-0.6
				l284.09,164.02c3.73,2.16,3.27,5.92-1.05,8.41l-55.45,32.01C597.44,763.11,590.92,763.38,587.18,761.22z"/>
			
				<linearGradient id="SVGID_9_" gradientUnits="userSpaceOnUse" x1="609.4902" y1="486.2835" x2="779.9222" y2="420.8899" gradientTransform="matrix(0.866 0.5 -1 0.5774 605.6769 -80.4658)">
				<stop  offset="0.2315" style="stop-color:#2A60D1"/>
				<stop  offset="0.3699" style="stop-color:#3267D5"/>
				<stop  offset="0.5829" style="stop-color:#4779DF"/>
				<stop  offset="0.8423" style="stop-color:#6A97F1"/>
				<stop  offset="1" style="stop-color:#83ACFD"/>
			</linearGradient>
			
				<line style="fill:none;stroke:url(#SVGID_9_);stroke-width:7.0866;stroke-linecap:round;stroke-miterlimit:10;" x1="672.35" y1="481.78" x2="835.1" y2="575.75"/>
			
				<linearGradient id="SVGID_10_" gradientUnits="userSpaceOnUse" x1="609.4902" y1="612.1026" x2="779.9222" y2="546.709" gradientTransform="matrix(0.866 0.5 -1 0.5774 605.6769 -80.4658)">
				<stop  offset="0.2315" style="stop-color:#2A60D1"/>
				<stop  offset="0.3699" style="stop-color:#3267D5"/>
				<stop  offset="0.5829" style="stop-color:#4779DF"/>
				<stop  offset="0.8423" style="stop-color:#6A97F1"/>
				<stop  offset="1" style="stop-color:#83ACFD"/>
			</linearGradient>
			
				<line style="fill:none;stroke:url(#SVGID_10_);stroke-width:7.0866;stroke-linecap:round;stroke-miterlimit:10;" x1="546.53" y1="554.42" x2="709.28" y2="648.39"/>
			
				<linearGradient id="SVGID_11_" gradientUnits="userSpaceOnUse" x1="609.4902" y1="735.0776" x2="779.9222" y2="669.684" gradientTransform="matrix(0.866 0.5 -1 0.5774 605.6769 -80.4658)">
				<stop  offset="0.2315" style="stop-color:#2A60D1"/>
				<stop  offset="0.3699" style="stop-color:#3267D5"/>
				<stop  offset="0.5829" style="stop-color:#4779DF"/>
				<stop  offset="0.8423" style="stop-color:#6A97F1"/>
				<stop  offset="1" style="stop-color:#83ACFD"/>
			</linearGradient>
			
				<line style="fill:none;stroke:url(#SVGID_11_);stroke-width:7.0866;stroke-linecap:round;stroke-miterlimit:10;" x1="423.55" y1="625.42" x2="586.31" y2="719.39"/>
			<g>
				<path class="st60" d="M395.89,608.43c-1.69,0.98-4.09,1.29-6.25,0.96l-10.97,6.33c-0.66,0.38-2.8,1.03-4.59,0
					c-0.44-0.26-0.86-0.76-0.93-1.12l-1.22-6.34c-0.62-3.18-3.11-6.18-7.03-8.45l-2.01-1.16c-0.93,0.31-1.82,0.68-2.61,1.14
					c-2.09,1.2-3.31,2.72-3.68,4.29c-0.35,1.51-3.62,2.1-5.49,1.02l-7.62-4.4c-0.85-0.49-1.21-1.23-0.81-1.88
					c1.24-2.07,3.27-4.01,6.13-5.65l2.33-1.31c-2.54-1.46-2.54-3.84,0-5.3l6.89-3.98c2.54-1.46,6.65-1.46,9.18,0l13.77,7.95
					c3.92,2.26,9.12,3.71,14.63,4.06l10.98,0.7c0.75,0.05,1.43,0.24,1.94,0.54c1.8,1.04,0.63,2.29,0,2.65l-10.97,6.33
					C398.12,606.07,397.59,607.45,395.89,608.43z M376.38,591.86l-12.63-7.29c-0.63-0.37-1.66-0.37-2.3,0l-6.89,3.98
					c-0.63,0.37-0.63,0.96,0,1.33l12.63,7.29L376.38,591.86z M352.47,601.91c0.86-1.54,2.34-2.94,4.36-4.11
					c0.76-0.44,1.63-0.82,2.55-1.18l-4.66-2.69c-0.54,0.24-1.46,0.63-2.48,1.22c-1.99,1.15-3.52,2.49-4.58,3.99L352.47,601.91z
					 M402.69,597.88l-7.62-0.49c-5.53-0.36-10.78-1.63-15.1-3.63l-9.47,5.47c3.45,2.5,5.66,5.53,6.28,8.72l0.85,4.4L402.69,597.88z"
					/>
			</g>
			<g>
				<path class="st60" d="M523.44,530.81l-1.99,1.15c-0.48,0.27-1.25,0.27-1.72,0l-1.43-0.83l-0.86,0.5c-0.48,0.27-1.25,0.27-1.72,0
					l-28.12-16.24c-0.48-0.27-0.48-0.72,0-0.99l0.86-0.5l-1.43-0.83c-0.48-0.27-0.48-0.72,0-0.99l1.99-1.15
					c0.33-0.19,0.94-0.25,1.36-0.14l22.07,5.24c0.39,0.11,0.96,0.35,1.27,0.53c0.31,0.18,0.72,0.51,0.91,0.73l9.07,12.74
					C523.9,530.29,523.8,530.6,523.44,530.81z M499.35,544.72l-1.15,0.66c-0.32,0.18-0.83,0.18-1.15,0l-33.29-19.22
					c-0.32-0.18-0.32-0.48,0-0.66l1.15-0.66c0.95-0.55,2.49-0.55,3.44,0l0.57,0.33l4.02-2.32c0.95-0.55,2.49-0.55,3.44,0l1.15,0.66
					l10.91-6.3l3.44,1.99l-10.91,6.3l3.44,1.99l10.91-6.3l3.44,1.99l-10.91,6.3l3.44,1.99l10.91-6.3l3.44,1.99l-10.91,6.3l3.44,1.99
					l10.91-6.3l3.44,1.99l-10.91,6.3l1.15,0.66c0.95,0.55,0.95,1.44,0,1.99l-4.02,2.32l0.57,0.33
					C500.31,543.28,500.31,544.17,499.35,544.72z M518.87,529.47l-8.61-10.94l-18.94-4.97L518.87,529.47z M497.63,539.08
					l-22.96-13.25l-2.3,1.33l22.96,13.25L497.63,539.08z"/>
			</g>
			<g>
				<path class="st60" d="M622.88,438.99c6.44,0,12.88,1.42,17.79,4.25c9.81,5.66,9.8,14.9-0.01,20.55
					c-9.83,5.67-25.75,5.66-35.57-0.01c-4.59-2.65-7.03-6.06-7.34-9.53c-0.03-0.4,0.52-0.74,1.22-0.74l2.83,0
					c0.64,0,1.19,0.29,1.22,0.66c0.27,2.71,2.2,5.38,5.8,7.46c7.77,4.49,20.35,4.49,28.12,0c7.77-4.49,7.77-11.75,0-16.24
					c-3.89-2.24-8.97-3.37-14.06-3.36l0,4.48c0,0.63-1.31,0.94-2.08,0.5l-10.26-5.92c-0.48-0.27-0.48-0.72,0-0.99l10.26-5.92
					c0.77-0.44,2.08-0.13,2.08,0.5L622.88,438.99z"/>
			</g>
		</g>
		<linearGradient id="SVGID_12_" gradientUnits="userSpaceOnUse" x1="291.1866" y1="464.2899" x2="376.1619" y2="464.2899">
			<stop  offset="0.0138" style="stop-color:#FFC030"/>
			<stop  offset="0.0308" style="stop-color:#FDBD2E"/>
			<stop  offset="0.1752" style="stop-color:#ECA322"/>
			<stop  offset="0.2625" style="stop-color:#E69A1E"/>
			<stop  offset="0.7797" style="stop-color:#FACF55"/>
			<stop  offset="0.8653" style="stop-color:#FCC435"/>
			<stop  offset="0.9494" style="stop-color:#FEBC1B"/>
			<stop  offset="1" style="stop-color:#FFB912"/>
		</linearGradient>
		<path class="st13" d="M376.16,416.6l-84.98,49.06c0,15.45,6.19,25.65,15.85,29.06l34.29,17.26l-6.28-22.62
			C357.88,475.34,376.16,443.16,376.16,416.6z"/>
		<linearGradient id="SVGID_13_" gradientUnits="userSpaceOnUse" x1="250.8692" y1="551.4932" x2="399.6496" y2="207.3677">
			<stop  offset="0.0138" style="stop-color:#FFC030"/>
			<stop  offset="0.0214" style="stop-color:#FFBF2F"/>
			<stop  offset="0.174" style="stop-color:#F8A515"/>
			<stop  offset="0.2663" style="stop-color:#F59C0C"/>
			<stop  offset="0.7191" style="stop-color:#F9C94C"/>
			<stop  offset="0.7797" style="stop-color:#FACF55"/>
			<stop  offset="0.8653" style="stop-color:#FCC435"/>
			<stop  offset="0.9494" style="stop-color:#FEBC1B"/>
			<stop  offset="1" style="stop-color:#FFB912"/>
		</linearGradient>
		<path class="st14" d="M448.85,349.1c0-20-7.32-40.58-19.03-46.74c-7.23-3.8-11.04-12.86-11.04-24.41v-52.82
			c0-12.84-2.12-23.87-5.95-32.93l19.02-1.03c-2.02-1.23-27.12-15.48-36.93-21.05c-1.17-0.74-2.37-1.42-3.6-2.04
			c-0.19-0.11-0.31-0.18-0.31-0.18l-0.01,0.01c-15.4-7.53-35.97-5.7-58.58,7.35l0,0c-47.7,27.54-86.37,94.52-86.37,149.6v52.81
			c0,11.59-3.89,25.09-11.17,37.27c-11.69,19.54-19,48.68-19,68.66l0.03,8.33c0,3.17,0.97,5.52,2.58,6.88l0,0l0,0
			c0.51,0.43,1.08,0.75,1.7,0.98l35.27,20.17l8.08-42.25l173.82-100.35c6.37-3.68,11.52-12.62,11.52-19.96L448.85,349.1z"/>
		<linearGradient id="SVGID_14_" gradientUnits="userSpaceOnUse" x1="335.8499" y1="519.9766" x2="398.042" y2="426.6884">
			<stop  offset="0.0312" style="stop-color:#FFC836"/>
			<stop  offset="0.5738" style="stop-color:#FFE6AD"/>
			<stop  offset="1" style="stop-color:#FFD975"/>
		</linearGradient>
		<path class="st15" d="M368.83,507.77c23.47-13.55,42.49-46.5,42.49-73.59l-84.98,49.06C326.34,510.33,345.36,521.32,368.83,507.77
			z"/>
		<linearGradient id="SVGID_15_" gradientUnits="userSpaceOnUse" x1="289.2176" y1="567.7741" x2="436.2293" y2="227.7394">
			<stop  offset="0.3142" style="stop-color:#FFC245"/>
			<stop  offset="0.4071" style="stop-color:#FFC54E"/>
			<stop  offset="0.5573" style="stop-color:#FFCD66"/>
			<stop  offset="0.7449" style="stop-color:#FFDA8C"/>
			<stop  offset="0.874" style="stop-color:#FFE4AB"/>
		</linearGradient>
		<path class="st17" d="M485.27,369.85c0-20-7.32-40.58-19.03-46.74c-7.23-3.8-11.04-12.86-11.04-24.41v-52.82
			c0-55.08-38.67-77.41-86.37-49.87l0,0c-47.7,27.54-86.37,94.52-86.37,149.6v52.81c0,11.59-3.89,25.09-11.17,37.27
			c-11.69,19.54-19,48.68-19,68.66l0.03,8.33c0.01,7.33,5.16,10.3,11.52,6.63l209.95-121.21c6.37-3.68,11.52-12.62,11.52-19.96
			L485.27,369.85z"/>
	</g>
</g>
<g id="Layer_2">
</g>
</svg>
