<?xml version="1.0" encoding="utf-8"?>
<!-- Generator: Adobe Illustrator 23.0.2, SVG Export Plug-In . SVG Version: 6.00 Build 0)  -->
<svg version="1.1" xmlns="http://www.w3.org/2000/svg" xmlns:xlink="http://www.w3.org/1999/xlink" x="0px" y="0px"
	 viewBox="0 0 1000 1000" style="enable-background:new 0 0 1000 1000;" xml:space="preserve">
<style type="text/css">
	.st0{fill:#191982;}
	.st1{fill:url(#SVGID_1_);}
	.st2{fill:url(#SVGID_2_);}
	.st3{fill:#FAFCFF;}
	.st4{fill:url(#SVGID_3_);}
	.st5{fill:url(#SVGID_4_);}
	.st6{fill:none;stroke:url(#SVGID_5_);stroke-width:8.5039;stroke-linecap:round;stroke-miterlimit:10;}
	.st7{fill:none;stroke:url(#SVGID_6_);stroke-width:8.5039;stroke-linecap:round;stroke-miterlimit:10;}
	.st8{fill:none;stroke:url(#SVGID_7_);stroke-width:8.5039;stroke-linecap:round;stroke-miterlimit:10;}
	.st9{fill:url(#SVGID_8_);}
	.st10{fill:url(#SVGID_9_);}
	.st11{fill:none;stroke:url(#SVGID_10_);stroke-width:17.0079;stroke-linecap:round;stroke-miterlimit:10;}
	.st12{fill:url(#SVGID_11_);}
	.st13{fill:url(#SVGID_12_);}
	.st14{fill:url(#SVGID_13_);}
	.st15{fill:url(#SVGID_14_);}
	.st16{opacity:0.3;fill:#191982;}
	.st17{fill:url(#SVGID_15_);}
	.st18{fill:url(#SVGID_16_);}
	.st19{fill:url(#SVGID_17_);}
	.st20{fill:url(#SVGID_18_);}
	.st21{fill:url(#SVGID_19_);}
	.st22{fill:url(#SVGID_20_);}
	.st23{fill:none;stroke:url(#SVGID_21_);stroke-width:0.5669;stroke-miterlimit:10;}
	.st24{fill:url(#SVGID_22_);}
	.st25{fill:url(#SVGID_23_);}
	.st26{fill:url(#SVGID_24_);}
	.st27{fill:url(#SVGID_25_);}
	.st28{fill:url(#SVGID_26_);}
	.st29{fill:none;stroke:url(#SVGID_27_);stroke-width:8.5039;stroke-linecap:round;stroke-miterlimit:10;}
	.st30{fill:none;stroke:url(#SVGID_28_);stroke-width:8.5039;stroke-linecap:round;stroke-miterlimit:10;}
	.st31{fill:none;stroke:url(#SVGID_29_);stroke-width:8.5039;stroke-linecap:round;stroke-miterlimit:10;}
	.st32{fill:url(#SVGID_30_);}
	.st33{fill:url(#SVGID_31_);}
	.st34{fill:none;stroke:url(#SVGID_32_);stroke-width:17.0079;stroke-linecap:round;stroke-miterlimit:10;}
	.st35{fill:url(#SVGID_33_);}
	.st36{fill:url(#SVGID_34_);}
	.st37{fill:url(#SVGID_35_);}
	.st38{fill:url(#SVGID_36_);}
	.st39{fill:url(#SVGID_37_);}
	.st40{fill:url(#SVGID_38_);}
	.st41{fill:url(#SVGID_39_);}
	.st42{fill:url(#SVGID_40_);}
	.st43{fill:url(#SVGID_41_);}
	.st44{fill:url(#SVGID_42_);}
	.st45{fill:url(#SVGID_43_);}
	.st46{fill:url(#SVGID_44_);}
	.st47{fill:none;stroke:url(#SVGID_45_);stroke-width:0.5669;stroke-miterlimit:10;}
	.st48{fill:url(#SVGID_46_);}
	.st49{fill:url(#SVGID_47_);}
	.st50{fill:url(#SVGID_48_);}
	.st51{fill:url(#SVGID_49_);}
	.st52{fill:url(#SVGID_50_);}
	.st53{fill:url(#SVGID_51_);}
	.st54{fill:url(#SVGID_52_);}
	.st55{fill:url(#SVGID_53_);}
	.st56{fill:url(#SVGID_54_);}
	.st57{fill:none;stroke:url(#SVGID_55_);stroke-width:7.0866;stroke-linecap:round;stroke-miterlimit:10;}
	.st58{fill:none;stroke:url(#SVGID_56_);stroke-width:7.0866;stroke-linecap:round;stroke-miterlimit:10;}
	.st59{fill:none;stroke:url(#SVGID_57_);stroke-width:7.0866;stroke-linecap:round;stroke-miterlimit:10;}
	.st60{fill:#041466;}
	.st61{fill:url(#SVGID_58_);}
	.st62{fill:url(#SVGID_59_);}
	.st63{fill:url(#SVGID_60_);}
	.st64{fill:url(#SVGID_61_);}
	.st65{fill:url(#SVGID_62_);}
	.st66{fill:url(#SVGID_63_);}
	.st67{fill:url(#SVGID_64_);}
	.st68{fill:url(#SVGID_65_);}
	.st69{fill:url(#SVGID_66_);}
	.st70{fill:url(#SVGID_67_);}
	.st71{fill:url(#SVGID_68_);}
	.st72{fill:url(#SVGID_69_);}
	.st73{fill:url(#SVGID_70_);}
	.st74{fill:url(#SVGID_71_);}
	.st75{fill:url(#SVGID_72_);}
	.st76{fill:url(#SVGID_73_);}
	.st77{fill:url(#SVGID_74_);}
	.st78{fill:url(#SVGID_75_);}
	.st79{fill:url(#SVGID_76_);}
	.st80{fill:url(#SVGID_77_);}
	.st81{fill:url(#SVGID_78_);}
	.st82{fill:url(#SVGID_79_);}
	.st83{fill:url(#SVGID_80_);}
	.st84{fill:url(#SVGID_81_);}
	.st85{fill:url(#SVGID_82_);}
	.st86{fill:url(#SVGID_83_);}
	.st87{fill:url(#SVGID_84_);}
	.st88{fill:url(#SVGID_85_);}
	.st89{fill:url(#SVGID_86_);}
	.st90{fill:url(#SVGID_87_);}
	.st91{fill:#FFFFFF;}
	.st92{fill:#D9EEFF;}
	.st93{fill:#BBDDFF;}
	.st94{fill:#A0CCFF;}
	.st95{fill:none;stroke:url(#SVGID_88_);stroke-width:7.0866;stroke-linecap:round;stroke-miterlimit:10;}
	.st96{fill:none;stroke:url(#SVGID_89_);stroke-width:7.0866;stroke-linecap:round;stroke-miterlimit:10;}
	.st97{fill:none;stroke:url(#SVGID_90_);stroke-width:7.0866;stroke-linecap:round;stroke-miterlimit:10;}
	.st98{fill:url(#SVGID_91_);}
	.st99{fill:url(#SVGID_92_);}
	.st100{fill:url(#SVGID_93_);}
	.st101{fill:url(#SVGID_94_);}
	.st102{fill:url(#SVGID_95_);}
	.st103{fill:url(#SVGID_96_);}
	.st104{fill:url(#SVGID_97_);}
	.st105{fill:#FFF2CC;}
	.st106{fill:none;stroke:#FFF1CC;stroke-width:1.9843;stroke-miterlimit:10;}
	.st107{fill:url(#SVGID_98_);}
	.st108{fill:url(#SVGID_99_);}
	.st109{fill:url(#SVGID_100_);}
	.st110{fill:url(#SVGID_101_);}
	.st111{fill:url(#SVGID_102_);}
	.st112{fill:url(#SVGID_103_);}
	.st113{fill:url(#SVGID_104_);}
	.st114{fill:url(#SVGID_105_);}
	.st115{fill:url(#SVGID_106_);}
	.st116{fill:url(#SVGID_107_);}
	.st117{fill:url(#SVGID_108_);}
	.st118{fill:url(#SVGID_109_);}
	.st119{fill:url(#SVGID_110_);}
	.st120{fill:url(#SVGID_111_);}
	.st121{fill:url(#SVGID_112_);}
	.st122{fill:url(#SVGID_113_);}
	.st123{fill:url(#SVGID_114_);}
	.st124{fill:url(#SVGID_115_);}
	.st125{fill:url(#SVGID_116_);}
	.st126{fill:#3CA9E5;}
	.st127{fill:#2853C3;}
	.st128{fill:#1A4199;}
	.st129{fill:#60BEFF;}
	.st130{fill:url(#SVGID_117_);}
	.st131{fill:url(#SVGID_118_);}
	.st132{fill:url(#SVGID_119_);}
	.st133{fill:url(#SVGID_120_);}
	.st134{fill:url(#SVGID_121_);}
	.st135{fill:url(#SVGID_122_);}
	.st136{fill:url(#SVGID_123_);}
	.st137{fill:url(#SVGID_124_);}
	.st138{fill:url(#SVGID_125_);}
	.st139{fill:url(#SVGID_126_);}
	.st140{fill:url(#SVGID_127_);}
	.st141{fill:url(#SVGID_128_);}
	.st142{fill:url(#SVGID_129_);}
	.st143{fill:url(#SVGID_130_);}
	.st144{fill:url(#SVGID_131_);}
	.st145{fill:url(#SVGID_132_);}
	.st146{fill:url(#SVGID_133_);}
	.st147{fill:none;stroke:url(#SVGID_134_);stroke-width:0.6236;stroke-miterlimit:10;}
	.st148{fill:url(#SVGID_135_);}
	.st149{fill:url(#SVGID_136_);}
	.st150{fill:url(#SVGID_137_);}
	.st151{fill:url(#SVGID_138_);}
	.st152{fill:url(#SVGID_139_);}
	.st153{fill:url(#SVGID_140_);}
	.st154{fill:url(#SVGID_141_);}
	.st155{fill:url(#SVGID_142_);}
	.st156{fill:url(#SVGID_143_);}
	.st157{fill:url(#SVGID_144_);}
	.st158{fill:url(#SVGID_145_);}
	.st159{fill:url(#SVGID_146_);}
	.st160{fill:url(#SVGID_147_);}
	.st161{fill:url(#SVGID_148_);}
	.st162{fill:url(#SVGID_149_);}
	.st163{fill:url(#SVGID_150_);}
	.st164{fill:url(#SVGID_151_);}
	.st165{fill:url(#SVGID_152_);}
	.st166{fill:url(#SVGID_153_);}
	.st167{fill:url(#SVGID_154_);}
	.st168{fill:url(#SVGID_155_);}
	.st169{fill:url(#SVGID_156_);}
	.st170{fill:url(#SVGID_157_);}
	.st171{fill:url(#SVGID_158_);}
	.st172{fill:url(#SVGID_159_);}
	.st173{fill:url(#SVGID_160_);}
	.st174{fill:url(#SVGID_161_);}
	.st175{fill:url(#SVGID_162_);}
	.st176{fill:url(#SVGID_163_);}
	.st177{fill:url(#SVGID_164_);}
	.st178{fill:url(#SVGID_165_);}
	.st179{fill:url(#SVGID_166_);}
	.st180{fill:url(#SVGID_167_);}
	.st181{fill:url(#SVGID_168_);}
	.st182{fill:none;stroke:url(#SVGID_169_);stroke-width:0.6236;stroke-miterlimit:10;}
	.st183{fill:url(#SVGID_170_);}
	.st184{fill:url(#SVGID_171_);}
	.st185{fill:url(#SVGID_172_);}
	.st186{fill:url(#SVGID_173_);}
	.st187{fill:url(#SVGID_174_);}
	.st188{fill:url(#SVGID_175_);}
	.st189{fill:url(#SVGID_176_);}
	.st190{fill:url(#SVGID_177_);}
	.st191{fill:none;}
	.st192{fill:url(#SVGID_178_);}
	.st193{fill:url(#SVGID_179_);}
	.st194{fill:url(#SVGID_180_);}
	.st195{fill:url(#SVGID_181_);}
	.st196{fill:url(#SVGID_182_);}
	.st197{fill:url(#SVGID_183_);}
	.st198{fill:url(#SVGID_184_);}
	.st199{fill:url(#SVGID_185_);}
	.st200{fill:url(#SVGID_186_);}
	.st201{fill:url(#SVGID_187_);}
	.st202{fill:url(#SVGID_188_);}
	.st203{fill:url(#SVGID_189_);}
	.st204{fill:url(#SVGID_190_);}
	.st205{fill:url(#SVGID_191_);}
	.st206{fill:url(#SVGID_192_);}
	.st207{fill:url(#SVGID_193_);}
	.st208{fill:url(#SVGID_194_);}
	.st209{fill:url(#SVGID_195_);}
	.st210{fill:url(#SVGID_196_);}
	.st211{fill:url(#SVGID_197_);}
	.st212{fill:url(#SVGID_198_);}
	.st213{fill:#211155;}
	.st214{fill:url(#SVGID_199_);}
	.st215{fill:#9C6F66;}
	.st216{fill:#4F3834;}
	.st217{fill:#BD867B;}
	.st218{fill:#0DC72D;}
	.st219{fill:#00AB17;}
	.st220{fill:#009619;}
	.st221{fill:#0D6B10;}
	.st222{fill:#0E7A12;}
	.st223{fill:#08990B;}
	.st224{fill:url(#SVGID_200_);}
	.st225{fill:url(#SVGID_201_);}
	.st226{fill:url(#SVGID_202_);}
	.st227{fill:url(#SVGID_203_);}
	.st228{fill:url(#SVGID_204_);}
	.st229{fill:url(#SVGID_205_);}
	.st230{fill:url(#SVGID_206_);}
	.st231{fill:url(#SVGID_207_);}
	.st232{fill:url(#SVGID_208_);}
	.st233{fill:url(#SVGID_209_);}
	.st234{fill:url(#SVGID_210_);}
	.st235{fill:url(#SVGID_211_);}
	.st236{fill:url(#SVGID_212_);}
	.st237{fill:url(#SVGID_213_);}
	.st238{fill:#FFF1CC;}
	.st239{fill:url(#SVGID_214_);}
</style>
<g id="Layer_1">
	<g>
		<path class="st0" d="M418.84,815.25L100.56,631.49c-10.62-6.13-9.29-16.85,2.98-23.93L539.76,355.7
			c12.27-7.08,30.82-7.85,41.45-1.72l318.28,183.76c10.62,6.13,9.29,16.85-2.98,23.93L460.29,813.53
			C448.02,820.61,429.47,821.38,418.84,815.25z"/>
		<linearGradient id="SVGID_1_" gradientUnits="userSpaceOnUse" x1="926.4023" y1="358.8307" x2="-733.139" y2="383.2357">
			<stop  offset="0.0127" style="stop-color:#1A54C9"/>
			<stop  offset="0.1309" style="stop-color:#1B56CB"/>
			<stop  offset="0.1735" style="stop-color:#205DD0"/>
			<stop  offset="0.2037" style="stop-color:#2968DA"/>
			<stop  offset="0.2255" style="stop-color:#3377E6"/>
			<stop  offset="0.2388" style="stop-color:#377CE9"/>
			<stop  offset="0.2989" style="stop-color:#458DF2"/>
			<stop  offset="0.3735" style="stop-color:#4F98F8"/>
			<stop  offset="0.4784" style="stop-color:#549FFC"/>
			<stop  offset="0.7698" style="stop-color:#56A1FD"/>
		</linearGradient>
		<path class="st1" d="M867.12,374.63L580.88,209.37c-9.55-5.52-26.24-4.82-37.28,1.55L140.55,443.78
			c-6.21,3.58-13.94,8.03-13.76,12.36l4.96,29.89l0.31,0.35c5.83,3.36,10.94,10.79,12.51,18.18l5.16,24.21l49.03-28.31h0
			l341.01-196.88c12.27-7.08,30.82-7.85,41.45-1.72l223.3,128.92l59.92-34.62C875.48,389.79,876.67,380.15,867.12,374.63z"/>
		<linearGradient id="SVGID_2_" gradientUnits="userSpaceOnUse" x1="228.1006" y1="791.1816" x2="700.5659" y2="340.0534">
			<stop  offset="0.1787" style="stop-color:#B5D6FF"/>
			<stop  offset="0.36" style="stop-color:#A3C9FD"/>
			<stop  offset="0.7235" style="stop-color:#73A9F8"/>
			<stop  offset="0.9586" style="stop-color:#5192F5"/>
		</linearGradient>
		<path class="st2" d="M418.79,762.55L100.7,578.33c-4.65-2.68-7.03-8.08-7.18-11.83c-0.2-4.82,3.06-7.66,9.96-11.64L539.71,303
			c12.27-7.08,30.82-7.85,41.45-1.72l318.28,183.76c10.62,6.13,9.29,16.85-2.98,23.93L460.24,760.83
			C447.97,767.91,429.41,768.68,418.79,762.55z"/>
		<path class="st191" d="M566.73,205.71c0.08,0,0.17,0.01,0.25,0.01C566.89,205.72,566.81,205.72,566.73,205.71z"/>
		<path class="st191" d="M568.87,205.87c0.15,0.01,0.3,0.03,0.45,0.05C569.17,205.9,569.02,205.88,568.87,205.87z"/>
		<path class="st191" d="M579.09,208.45c0.62,0.28,1.22,0.59,1.78,0.92C580.31,209.04,579.71,208.74,579.09,208.45z"/>
		<path class="st191" d="M577.19,207.68c0.39,0.14,0.77,0.3,1.15,0.46C577.96,207.98,577.58,207.82,577.19,207.68z"/>
		<path class="st191" d="M573.13,206.52c0.27,0.06,0.53,0.12,0.8,0.19C573.66,206.64,573.4,206.58,573.13,206.52z"/>
		<path class="st191" d="M571.01,206.13c0.21,0.03,0.42,0.07,0.63,0.1C571.44,206.2,571.23,206.17,571.01,206.13z"/>
		<path class="st191" d="M575.19,207.03c0.33,0.09,0.64,0.2,0.96,0.3C575.84,207.23,575.52,207.13,575.19,207.03z"/>
		<linearGradient id="SVGID_3_" gradientUnits="userSpaceOnUse" x1="107.1782" y1="441.983" x2="107.2155" y2="441.8976">
			<stop  offset="0" style="stop-color:#ABCAFC"/>
			<stop  offset="0.1083" style="stop-color:#B3CFFC"/>
			<stop  offset="0.6344" style="stop-color:#D7E5FA"/>
			<stop  offset="0.9152" style="stop-color:#E5EDF9"/>
		</linearGradient>
		<path class="st4" d="M107.2,441.85v0.12l0.01-0.01C107.21,441.93,107.21,441.89,107.2,441.85z"/>
		<linearGradient id="SVGID_4_" gradientUnits="userSpaceOnUse" x1="928.2325" y1="505.1679" x2="-721.2703" y2="529.4253">
			<stop  offset="0.0127" style="stop-color:#1A54C9"/>
			<stop  offset="0.1309" style="stop-color:#1B56CB"/>
			<stop  offset="0.1735" style="stop-color:#205DD0"/>
			<stop  offset="0.2037" style="stop-color:#2968DA"/>
			<stop  offset="0.2255" style="stop-color:#3377E6"/>
			<stop  offset="0.2388" style="stop-color:#377CE9"/>
			<stop  offset="0.2989" style="stop-color:#458DF2"/>
			<stop  offset="0.3735" style="stop-color:#4F98F8"/>
			<stop  offset="0.4784" style="stop-color:#549FFC"/>
			<stop  offset="0.7698" style="stop-color:#56A1FD"/>
		</linearGradient>
		<polygon class="st5" points="149.73,528.76 149.73,528.76 144.57,504.55 		"/>
		<linearGradient id="SVGID_5_" gradientUnits="userSpaceOnUse" x1="927.7814" y1="474.4961" x2="-721.7214" y2="498.7534">
			<stop  offset="0.0127" style="stop-color:#1A54C9"/>
			<stop  offset="0.1309" style="stop-color:#1B56CB"/>
			<stop  offset="0.1735" style="stop-color:#205DD0"/>
			<stop  offset="0.2037" style="stop-color:#2968DA"/>
			<stop  offset="0.2255" style="stop-color:#3377E6"/>
			<stop  offset="0.2388" style="stop-color:#377CE9"/>
			<stop  offset="0.2989" style="stop-color:#458DF2"/>
			<stop  offset="0.3735" style="stop-color:#4F98F8"/>
			<stop  offset="0.4784" style="stop-color:#549FFC"/>
			<stop  offset="0.7698" style="stop-color:#56A1FD"/>
		</linearGradient>
		<polygon style="fill:url(#SVGID_5_);" points="131.75,486.03 131.75,486.03 132.05,486.37 131.75,486.03 		"/>
		<linearGradient id="SVGID_6_" gradientUnits="userSpaceOnUse" x1="326.5814" y1="758.7411" x2="508.0462" y2="342.9798">
			<stop  offset="0" style="stop-color:#ABCAFC"/>
			<stop  offset="0.1083" style="stop-color:#B3CFFC"/>
			<stop  offset="0.6344" style="stop-color:#D7E5FA"/>
			<stop  offset="0.9152" style="stop-color:#E5EDF9"/>
		</linearGradient>
		<path style="fill:url(#SVGID_6_);" d="M566.97,205.72c0.64,0.03,1.27,0.08,1.9,0.14C568.24,205.81,567.61,205.76,566.97,205.72z"
			/>
		<linearGradient id="SVGID_7_" gradientUnits="userSpaceOnUse" x1="923.753" y1="200.5616" x2="-725.7498" y2="224.819">
			<stop  offset="0.0127" style="stop-color:#1A54C9"/>
			<stop  offset="0.1309" style="stop-color:#1B56CB"/>
			<stop  offset="0.1735" style="stop-color:#205DD0"/>
			<stop  offset="0.2037" style="stop-color:#2968DA"/>
			<stop  offset="0.2255" style="stop-color:#3377E6"/>
			<stop  offset="0.2388" style="stop-color:#377CE9"/>
			<stop  offset="0.2989" style="stop-color:#458DF2"/>
			<stop  offset="0.3735" style="stop-color:#4F98F8"/>
			<stop  offset="0.4784" style="stop-color:#549FFC"/>
			<stop  offset="0.7698" style="stop-color:#56A1FD"/>
		</linearGradient>
		<path style="fill:url(#SVGID_7_);" d="M566.97,205.72c0.64,0.03,1.27,0.08,1.9,0.14C568.24,205.81,567.61,205.76,566.97,205.72z"
			/>
		<linearGradient id="SVGID_8_" gradientUnits="userSpaceOnUse" x1="330.5473" y1="760.472" x2="512.0122" y2="344.7108">
			<stop  offset="0" style="stop-color:#ABCAFC"/>
			<stop  offset="0.1083" style="stop-color:#B3CFFC"/>
			<stop  offset="0.6344" style="stop-color:#D7E5FA"/>
			<stop  offset="0.9152" style="stop-color:#E5EDF9"/>
		</linearGradient>
		<path class="st9" d="M571.65,206.24c0.5,0.08,0.99,0.18,1.48,0.28C572.64,206.42,572.15,206.32,571.65,206.24z"/>
		<linearGradient id="SVGID_9_" gradientUnits="userSpaceOnUse" x1="923.7625" y1="201.2122" x2="-725.7402" y2="225.4696">
			<stop  offset="0.0127" style="stop-color:#1A54C9"/>
			<stop  offset="0.1309" style="stop-color:#1B56CB"/>
			<stop  offset="0.1735" style="stop-color:#205DD0"/>
			<stop  offset="0.2037" style="stop-color:#2968DA"/>
			<stop  offset="0.2255" style="stop-color:#3377E6"/>
			<stop  offset="0.2388" style="stop-color:#377CE9"/>
			<stop  offset="0.2989" style="stop-color:#458DF2"/>
			<stop  offset="0.3735" style="stop-color:#4F98F8"/>
			<stop  offset="0.4784" style="stop-color:#549FFC"/>
			<stop  offset="0.7698" style="stop-color:#56A1FD"/>
		</linearGradient>
		<path class="st10" d="M571.65,206.24c0.5,0.08,0.99,0.18,1.48,0.28C572.64,206.42,572.15,206.32,571.65,206.24z"/>
		<linearGradient id="SVGID_10_" gradientUnits="userSpaceOnUse" x1="316.7861" y1="754.4686" x2="498.251" y2="338.7073">
			<stop  offset="0" style="stop-color:#ABCAFC"/>
			<stop  offset="0.1083" style="stop-color:#B3CFFC"/>
			<stop  offset="0.6344" style="stop-color:#D7E5FA"/>
			<stop  offset="0.9152" style="stop-color:#E5EDF9"/>
		</linearGradient>
		<path style="fill:url(#SVGID_10_);" d="M566.73,205.71c-7.91-0.37-16.53,1.39-23.13,5.2l21.02-5.26
			C565.32,205.66,566.03,205.68,566.73,205.71z"/>
		<linearGradient id="SVGID_11_" gradientUnits="userSpaceOnUse" x1="923.7866" y1="202.8522" x2="-725.7161" y2="227.1096">
			<stop  offset="0.0127" style="stop-color:#1A54C9"/>
			<stop  offset="0.1309" style="stop-color:#1B56CB"/>
			<stop  offset="0.1735" style="stop-color:#205DD0"/>
			<stop  offset="0.2037" style="stop-color:#2968DA"/>
			<stop  offset="0.2255" style="stop-color:#3377E6"/>
			<stop  offset="0.2388" style="stop-color:#377CE9"/>
			<stop  offset="0.2989" style="stop-color:#458DF2"/>
			<stop  offset="0.3735" style="stop-color:#4F98F8"/>
			<stop  offset="0.4784" style="stop-color:#549FFC"/>
			<stop  offset="0.7698" style="stop-color:#56A1FD"/>
		</linearGradient>
		<path class="st12" d="M566.73,205.71c-7.91-0.37-16.53,1.39-23.13,5.2l21.02-5.26C565.32,205.66,566.03,205.68,566.73,205.71z"/>
		<linearGradient id="SVGID_12_" gradientUnits="userSpaceOnUse" x1="916.275" y1="205.9655" x2="265.2194" y2="542.5549">
			<stop  offset="0" style="stop-color:#C7DBFC"/>
			<stop  offset="0.9152" style="stop-color:#E5EDF9"/>
		</linearGradient>
		<path class="st13" d="M899.49,374.28L581.21,190.52c-10.39-6-28.35-5.38-40.62,1.28l-437.06,252.3
			c-6.9,3.98-10.34,9.12-10.14,13.94c0.16,3.75,2.52,7.31,7.16,9.99l31.19,18.01l0,0c5.83,3.36,11.25,11.14,12.82,18.52l5.16,24.21
			l2.54,11.93c1.93,9.07,8.21,18.18,15.36,22.31l194.52,112.31c7.15,4.13,13.43,2.26,15.36-4.57l2.77-9.8
			c-1.39-0.35-2.84-0.93-4.33-1.8L181.44,546.83c-7.15-4.13-13.43-13.25-15.36-22.31l-0.99-4.63l-3.55-16.66
			c0,0-2.13-9.12-4.62-17.2c-3.03-9.79-8.91-14.01-19.05-20.73c-4.65-3.08-8.29-5.66-8.46-9.03c-0.26-5.11,4.93-8.91,11.14-12.49
			L543.6,210.92c6.6-3.81,15.22-5.57,23.13-5.2c0.08,0,0.17,0.01,0.25,0.01c0.64,0.03,1.27,0.08,1.9,0.14
			c0.15,0.01,0.3,0.03,0.45,0.05c0.57,0.06,1.13,0.14,1.69,0.22c0.21,0.03,0.42,0.07,0.63,0.1c0.5,0.09,0.99,0.18,1.48,0.28
			c0.27,0.06,0.53,0.12,0.8,0.19c0.43,0.1,0.85,0.21,1.26,0.32c0.33,0.09,0.64,0.2,0.96,0.3c0.35,0.11,0.7,0.22,1.04,0.34
			c0.39,0.14,0.77,0.3,1.15,0.46c0.25,0.11,0.51,0.2,0.76,0.32c0.62,0.28,1.21,0.59,1.78,0.92l286.24,165.26
			c9.55,5.52,8.36,15.15-2.68,21.52l-59.92,34.62L461.39,629.02c-11.03,6.37-27.72,7.06-37.28,1.55l0,0
			c-6.33-3.66-14.13-3.7-20.5-0.1l-15.37,8.67c-0.27,0.16,9.86,0.68,9.86,0.68l20.74,11.97c10.62,6.13,29.18,5.36,41.45-1.72
			l436.23-251.86C908.79,391.12,910.12,380.41,899.49,374.28z"/>
		<linearGradient id="SVGID_13_" gradientUnits="userSpaceOnUse" x1="626.6226" y1="889.6983" x2="808.0874" y2="473.937">
			<stop  offset="0" style="stop-color:#ABCAFC"/>
			<stop  offset="0.1083" style="stop-color:#B3CFFC"/>
			<stop  offset="0.6344" style="stop-color:#D7E5FA"/>
			<stop  offset="0.9152" style="stop-color:#E5EDF9"/>
		</linearGradient>
		<polygon class="st14" points="864.44,396.16 804.52,430.78 804.52,430.78 		"/>
		<linearGradient id="SVGID_14_" gradientUnits="userSpaceOnUse" x1="926.864" y1="412.1081" x2="-722.6388" y2="436.3655">
			<stop  offset="0.0127" style="stop-color:#1A54C9"/>
			<stop  offset="0.1309" style="stop-color:#1B56CB"/>
			<stop  offset="0.1735" style="stop-color:#205DD0"/>
			<stop  offset="0.2037" style="stop-color:#2968DA"/>
			<stop  offset="0.2255" style="stop-color:#3377E6"/>
			<stop  offset="0.2388" style="stop-color:#377CE9"/>
			<stop  offset="0.2989" style="stop-color:#458DF2"/>
			<stop  offset="0.3735" style="stop-color:#4F98F8"/>
			<stop  offset="0.4784" style="stop-color:#549FFC"/>
			<stop  offset="0.7698" style="stop-color:#56A1FD"/>
		</linearGradient>
		<polygon class="st15" points="864.44,396.16 804.52,430.78 804.52,430.78 		"/>
		<linearGradient id="SVGID_15_" gradientUnits="userSpaceOnUse" x1="332.5528" y1="761.3474" x2="514.0176" y2="345.5861">
			<stop  offset="0" style="stop-color:#ABCAFC"/>
			<stop  offset="0.1083" style="stop-color:#B3CFFC"/>
			<stop  offset="0.6344" style="stop-color:#D7E5FA"/>
			<stop  offset="0.9152" style="stop-color:#E5EDF9"/>
		</linearGradient>
		<path class="st17" d="M573.93,206.71c0.43,0.1,0.85,0.21,1.26,0.32C574.78,206.91,574.36,206.81,573.93,206.71z"/>
		<linearGradient id="SVGID_16_" gradientUnits="userSpaceOnUse" x1="923.7702" y1="201.7352" x2="-725.7325" y2="225.9926">
			<stop  offset="0.0127" style="stop-color:#1A54C9"/>
			<stop  offset="0.1309" style="stop-color:#1B56CB"/>
			<stop  offset="0.1735" style="stop-color:#205DD0"/>
			<stop  offset="0.2037" style="stop-color:#2968DA"/>
			<stop  offset="0.2255" style="stop-color:#3377E6"/>
			<stop  offset="0.2388" style="stop-color:#377CE9"/>
			<stop  offset="0.2989" style="stop-color:#458DF2"/>
			<stop  offset="0.3735" style="stop-color:#4F98F8"/>
			<stop  offset="0.4784" style="stop-color:#549FFC"/>
			<stop  offset="0.7698" style="stop-color:#56A1FD"/>
		</linearGradient>
		<path class="st18" d="M573.93,206.71c0.43,0.1,0.85,0.21,1.26,0.32C574.78,206.91,574.36,206.81,573.93,206.71z"/>
		<linearGradient id="SVGID_17_" gradientUnits="userSpaceOnUse" x1="328.5529" y1="759.6016" x2="510.0178" y2="343.8403">
			<stop  offset="0" style="stop-color:#ABCAFC"/>
			<stop  offset="0.1083" style="stop-color:#B3CFFC"/>
			<stop  offset="0.6344" style="stop-color:#D7E5FA"/>
			<stop  offset="0.9152" style="stop-color:#E5EDF9"/>
		</linearGradient>
		<path class="st19" d="M569.33,205.91c0.57,0.06,1.13,0.14,1.69,0.22C570.46,206.05,569.89,205.97,569.33,205.91z"/>
		<linearGradient id="SVGID_18_" gradientUnits="userSpaceOnUse" x1="923.7568" y1="200.8233" x2="-725.746" y2="225.0807">
			<stop  offset="0.0127" style="stop-color:#1A54C9"/>
			<stop  offset="0.1309" style="stop-color:#1B56CB"/>
			<stop  offset="0.1735" style="stop-color:#205DD0"/>
			<stop  offset="0.2037" style="stop-color:#2968DA"/>
			<stop  offset="0.2255" style="stop-color:#3377E6"/>
			<stop  offset="0.2388" style="stop-color:#377CE9"/>
			<stop  offset="0.2989" style="stop-color:#458DF2"/>
			<stop  offset="0.3735" style="stop-color:#4F98F8"/>
			<stop  offset="0.4784" style="stop-color:#549FFC"/>
			<stop  offset="0.7698" style="stop-color:#56A1FD"/>
		</linearGradient>
		<path class="st20" d="M569.33,205.91c0.57,0.06,1.13,0.14,1.69,0.22C570.46,206.05,569.89,205.97,569.33,205.91z"/>
		<linearGradient id="SVGID_19_" gradientUnits="userSpaceOnUse" x1="334.5582" y1="762.2227" x2="516.023" y2="346.4614">
			<stop  offset="0" style="stop-color:#ABCAFC"/>
			<stop  offset="0.1083" style="stop-color:#B3CFFC"/>
			<stop  offset="0.6344" style="stop-color:#D7E5FA"/>
			<stop  offset="0.9152" style="stop-color:#E5EDF9"/>
		</linearGradient>
		<path class="st21" d="M576.15,207.33c0.35,0.11,0.7,0.22,1.04,0.34C576.85,207.55,576.5,207.45,576.15,207.33z"/>
		<linearGradient id="SVGID_20_" gradientUnits="userSpaceOnUse" x1="923.78" y1="202.4006" x2="-725.7228" y2="226.658">
			<stop  offset="0.0127" style="stop-color:#1A54C9"/>
			<stop  offset="0.1309" style="stop-color:#1B56CB"/>
			<stop  offset="0.1735" style="stop-color:#205DD0"/>
			<stop  offset="0.2037" style="stop-color:#2968DA"/>
			<stop  offset="0.2255" style="stop-color:#3377E6"/>
			<stop  offset="0.2388" style="stop-color:#377CE9"/>
			<stop  offset="0.2989" style="stop-color:#458DF2"/>
			<stop  offset="0.3735" style="stop-color:#4F98F8"/>
			<stop  offset="0.4784" style="stop-color:#549FFC"/>
			<stop  offset="0.7698" style="stop-color:#56A1FD"/>
		</linearGradient>
		<path class="st22" d="M576.15,207.33c0.35,0.11,0.7,0.22,1.04,0.34C576.85,207.55,576.5,207.45,576.15,207.33z"/>
		<linearGradient id="SVGID_21_" gradientUnits="userSpaceOnUse" x1="555.4061" y1="261.699" x2="602.0166" y2="154.9078">
			<stop  offset="0" style="stop-color:#ABCAFC"/>
			<stop  offset="0.1083" style="stop-color:#B3CFFC"/>
			<stop  offset="0.6344" style="stop-color:#D7E5FA"/>
			<stop  offset="0.9152" style="stop-color:#E5EDF9"/>
		</linearGradient>
		<path style="fill:url(#SVGID_21_);" d="M578.34,208.14c0.25,0.11,0.51,0.2,0.76,0.32C578.85,208.34,578.59,208.25,578.34,208.14z"
			/>
		<linearGradient id="SVGID_22_" gradientUnits="userSpaceOnUse" x1="923.7921" y1="203.2226" x2="-725.7106" y2="227.48">
			<stop  offset="0.0127" style="stop-color:#1A54C9"/>
			<stop  offset="0.1309" style="stop-color:#1B56CB"/>
			<stop  offset="0.1735" style="stop-color:#205DD0"/>
			<stop  offset="0.2037" style="stop-color:#2968DA"/>
			<stop  offset="0.2255" style="stop-color:#3377E6"/>
			<stop  offset="0.2388" style="stop-color:#377CE9"/>
			<stop  offset="0.2989" style="stop-color:#458DF2"/>
			<stop  offset="0.3735" style="stop-color:#4F98F8"/>
			<stop  offset="0.4784" style="stop-color:#549FFC"/>
			<stop  offset="0.7698" style="stop-color:#56A1FD"/>
		</linearGradient>
		<path class="st24" d="M578.34,208.14c0.25,0.11,0.51,0.2,0.76,0.32C578.85,208.34,578.59,208.25,578.34,208.14z"/>
		<linearGradient id="SVGID_23_" gradientUnits="userSpaceOnUse" x1="262.2509" y1="617.2204" x2="980.6937" y2="233.4207">
			<stop  offset="0" style="stop-color:#64A5F5"/>
			<stop  offset="0.708" style="stop-color:#9DBEF2"/>
		</linearGradient>
		<path class="st25" d="M906.62,385.16c-0.23,4.56-3.62,9.31-10.1,13.05L460.29,650.06c-7.29,4.21-16.81,6.17-25.56,5.79
			c-0.31-0.01-0.63-0.02-0.94-0.04c-0.5-0.03-0.99-0.08-1.48-0.13c-0.36-0.03-0.73-0.07-1.09-0.11c-0.46-0.05-0.91-0.12-1.36-0.19
			c-0.39-0.06-0.78-0.12-1.16-0.19c-0.42-0.08-0.83-0.16-1.24-0.25c-0.41-0.09-0.81-0.18-1.21-0.28c-0.37-0.09-0.74-0.19-1.11-0.29
			c-0.43-0.12-0.85-0.26-1.27-0.4c-0.32-0.11-0.64-0.21-0.96-0.32c-0.47-0.17-0.92-0.36-1.37-0.55c-0.25-0.1-0.5-0.2-0.74-0.31
			c-0.68-0.31-1.34-0.65-1.97-1.01l-20.74-11.97l0,0c-5.83-3.36-11.3-1.88-12.88,3.69l-7.71,27.24c-1.93,6.83-8.21,8.7-15.36,4.57
			L167.64,563c-7.15-4.13-13.43-13.25-15.36-22.31l-7.71-36.14c-1.58-7.39-7-15.16-12.82-18.52l0,0l-31.19-18.01
			c-4.65-2.68-7.01-6.24-7.16-9.99L93.33,565.4c0.05,5.58,2.28,10.49,9.5,14.67l316.01,182.45c4.71,2.72,10.97,4.07,17.56,4.13
			c8.28,0.07,17.06-1.91,23.89-5.85l436.23-251.86c6.56-3.79,10-8.63,10.15-13.24l0,0V385.14L906.62,385.16z"/>
		<g>
			<path class="st213" d="M222.03,317.36c-0.14,0-0.28-0.06-0.38-0.17c-0.18-0.21-0.16-0.52,0.05-0.71c0.03-0.03,0.79-0.69,2.22-1.8
				c0.22-0.17,0.53-0.13,0.7,0.09c0.17,0.22,0.13,0.53-0.09,0.7c-1.41,1.09-2.17,1.76-2.18,1.76
				C222.26,317.31,222.14,317.36,222.03,317.36z"/>
			<path class="st213" d="M461.26,470.85c-1.76,0-3.51-0.05-5.19-0.15c-0.28-0.02-0.49-0.25-0.47-0.53
				c0.02-0.28,0.25-0.51,0.53-0.47c1.66,0.1,3.38,0.14,5.13,0.15l0.5,0c0,0,0,0,0,0c0.27,0,0.5,0.22,0.5,0.5
				c0,0.28-0.22,0.5-0.5,0.5L461.26,470.85z M467.39,470.6c-0.26,0-0.48-0.2-0.5-0.46c-0.02-0.28,0.18-0.52,0.46-0.54
				c1.86-0.16,3.73-0.39,5.55-0.7c0.28-0.05,0.53,0.14,0.58,0.41s-0.14,0.53-0.41,0.58c-1.85,0.31-3.74,0.55-5.63,0.71
				C467.41,470.6,467.4,470.6,467.39,470.6z M450.47,470.18c-0.02,0-0.04,0-0.06,0c-1.9-0.25-3.78-0.56-5.6-0.95
				c-0.27-0.06-0.44-0.32-0.39-0.59c0.06-0.27,0.32-0.45,0.59-0.39c1.79,0.38,3.65,0.69,5.53,0.93c0.27,0.04,0.47,0.29,0.43,0.56
				C450.93,470,450.72,470.18,450.47,470.18z M478.48,468.72c-0.22,0-0.43-0.15-0.48-0.37c-0.07-0.27,0.09-0.54,0.36-0.61
				c1.8-0.47,3.6-1.02,5.34-1.64c0.26-0.1,0.55,0.04,0.64,0.3c0.09,0.26-0.04,0.55-0.3,0.64c-1.77,0.63-3.6,1.19-5.43,1.67
				C478.56,468.72,478.52,468.72,478.48,468.72z M439.44,467.85c-0.05,0-0.1-0.01-0.14-0.02c-1.82-0.55-3.62-1.19-5.36-1.89
				c-0.26-0.1-0.38-0.4-0.28-0.65s0.4-0.38,0.65-0.27c1.71,0.69,3.48,1.32,5.27,1.86c0.26,0.08,0.41,0.36,0.33,0.62
				C439.85,467.71,439.65,467.85,439.44,467.85z M489.07,464.95c-0.19,0-0.37-0.11-0.46-0.29c-0.12-0.25,0-0.55,0.25-0.66
				c1.67-0.77,3.35-1.63,4.98-2.55c0.24-0.14,0.55-0.05,0.68,0.19s0.05,0.55-0.19,0.68c-1.65,0.94-3.36,1.81-5.06,2.59
				C489.21,464.93,489.14,464.95,489.07,464.95z M429,463.6c-0.08,0-0.16-0.02-0.23-0.06c-1.67-0.88-3.32-1.84-4.91-2.88
				c-0.23-0.15-0.3-0.46-0.14-0.69c0.15-0.23,0.46-0.3,0.69-0.14c1.56,1.02,3.18,1.97,4.82,2.83c0.24,0.13,0.34,0.43,0.21,0.67
				C429.36,463.5,429.18,463.6,429,463.6z M498.88,459.4c-0.16,0-0.32-0.08-0.41-0.22c-0.16-0.23-0.1-0.54,0.13-0.69
				c1.52-1.03,3.04-2.15,4.52-3.33c0.22-0.17,0.53-0.14,0.7,0.08c0.17,0.22,0.14,0.53-0.08,0.7c-1.5,1.19-3.04,2.33-4.58,3.37
				C499.08,459.37,498.98,459.4,498.88,459.4z M419.57,457.44c-0.11,0-0.22-0.04-0.31-0.11c-1.46-1.17-2.9-2.43-4.28-3.75
				c-0.2-0.19-0.21-0.51-0.02-0.71c0.19-0.2,0.51-0.21,0.71-0.02c1.36,1.3,2.78,2.54,4.22,3.69c0.22,0.17,0.25,0.49,0.08,0.7
				C419.86,457.37,419.71,457.44,419.57,457.44z M507.73,452.37c-0.14,0-0.27-0.05-0.37-0.16c-0.19-0.2-0.17-0.52,0.03-0.71
				c1.35-1.23,2.71-2.55,4.03-3.92c0.19-0.2,0.51-0.2,0.71-0.01c0.2,0.19,0.2,0.51,0.01,0.71c-1.34,1.38-2.71,2.72-4.08,3.97
				C507.97,452.33,507.85,452.37,507.73,452.37z M411.39,449.64c-0.14,0-0.27-0.06-0.37-0.17c-1.23-1.38-2.45-2.86-3.62-4.39
				c-0.17-0.22-0.13-0.53,0.09-0.7c0.22-0.17,0.53-0.13,0.7,0.09c1.16,1.51,2.36,2.97,3.57,4.34c0.18,0.21,0.17,0.52-0.04,0.71
				C411.63,449.6,411.51,449.64,411.39,449.64z M515.6,444.25c-0.12,0-0.23-0.04-0.33-0.12c-0.21-0.18-0.23-0.5-0.05-0.71
				c1.2-1.38,2.4-2.85,3.58-4.35c0.17-0.22,0.48-0.25,0.7-0.08c0.22,0.17,0.26,0.48,0.08,0.7c-1.19,1.52-2.41,2.99-3.62,4.39
				C515.88,444.19,515.74,444.25,515.6,444.25z M404.5,440.67c-0.16,0-0.32-0.08-0.42-0.22c-1.02-1.53-2.05-3.15-3.03-4.81
				c-0.14-0.24-0.06-0.54,0.17-0.68c0.24-0.14,0.54-0.06,0.69,0.17c0.98,1.65,1.99,3.25,3.01,4.77c0.15,0.23,0.09,0.54-0.14,0.69
				C404.69,440.65,404.6,440.67,404.5,440.67z M522.59,435.35c-0.1,0-0.2-0.03-0.29-0.09c-0.22-0.16-0.28-0.47-0.11-0.7
				c1.07-1.49,2.14-3.06,3.2-4.65c0.15-0.23,0.46-0.3,0.69-0.14c0.23,0.15,0.29,0.46,0.14,0.69c-1.06,1.61-2.15,3.19-3.22,4.69
				C522.9,435.27,522.75,435.35,522.59,435.35z M398.7,430.95c-0.18,0-0.35-0.1-0.44-0.26c-0.86-1.61-1.72-3.31-2.57-5.07
				c-0.12-0.25-0.02-0.55,0.23-0.67c0.25-0.12,0.55-0.02,0.67,0.23c0.85,1.75,1.7,3.44,2.55,5.04c0.13,0.24,0.04,0.55-0.21,0.68
				C398.86,430.93,398.78,430.95,398.7,430.95z M528.85,425.89c-0.09,0-0.18-0.02-0.26-0.07c-0.24-0.14-0.31-0.45-0.17-0.69
				c0.96-1.57,1.93-3.21,2.88-4.86c0.14-0.24,0.44-0.32,0.68-0.18c0.24,0.14,0.32,0.44,0.19,0.68c-0.96,1.67-1.93,3.31-2.9,4.89
				C529.18,425.81,529.02,425.89,528.85,425.89z M393.76,420.75c-0.19,0-0.37-0.11-0.46-0.3c-0.74-1.66-1.49-3.42-2.23-5.23
				c-0.1-0.25,0.02-0.55,0.27-0.65c0.25-0.11,0.55,0.02,0.65,0.27c0.74,1.8,1.49,3.55,2.22,5.2c0.11,0.25,0,0.55-0.25,0.66
				C393.9,420.73,393.83,420.75,393.76,420.75z M534.49,416.06c-0.08,0-0.16-0.02-0.24-0.06c-0.24-0.13-0.33-0.43-0.2-0.68
				c0.89-1.65,1.76-3.32,2.63-5.01c0.12-0.25,0.43-0.35,0.67-0.22c0.25,0.12,0.34,0.43,0.22,0.67c-0.87,1.7-1.75,3.38-2.64,5.03
				C534.84,415.97,534.67,416.06,534.49,416.06z M389.43,410.27c-0.2,0-0.39-0.12-0.47-0.32c-0.68-1.76-1.35-3.53-2.01-5.31
				c-0.1-0.26,0.04-0.55,0.3-0.64c0.26-0.1,0.55,0.04,0.64,0.3c0.66,1.78,1.32,3.55,2,5.3c0.1,0.26-0.03,0.55-0.29,0.65
				C389.55,410.26,389.49,410.27,389.43,410.27z M539.65,405.96c-0.07,0-0.15-0.02-0.22-0.05c-0.25-0.12-0.35-0.42-0.23-0.67
				c0.82-1.69,1.62-3.39,2.42-5.12c0.12-0.25,0.41-0.36,0.66-0.24c0.25,0.12,0.36,0.41,0.24,0.66c-0.8,1.73-1.61,3.44-2.43,5.13
				C540.02,405.86,539.84,405.96,539.65,405.96z M385.5,399.63c-0.21,0-0.4-0.13-0.47-0.33c-0.63-1.78-1.25-3.57-1.87-5.36
				c-0.09-0.26,0.05-0.55,0.31-0.64c0.26-0.09,0.55,0.05,0.64,0.31c0.62,1.79,1.24,3.58,1.87,5.35c0.09,0.26-0.04,0.55-0.3,0.64
				C385.61,399.62,385.56,399.63,385.5,399.63z M544.42,395.67c-0.07,0-0.14-0.01-0.2-0.04c-0.25-0.11-0.37-0.41-0.25-0.66
				c0.76-1.71,1.52-3.45,2.27-5.19c0.11-0.25,0.4-0.37,0.66-0.26c0.25,0.11,0.37,0.4,0.26,0.66c-0.75,1.75-1.51,3.49-2.27,5.21
				C544.8,395.56,544.62,395.67,544.42,395.67z M381.79,388.91c-0.21,0-0.4-0.13-0.47-0.34l-1.83-5.38
				c-0.09-0.26,0.05-0.55,0.31-0.63c0.26-0.09,0.55,0.05,0.63,0.31l1.83,5.38c0.09,0.26-0.05,0.55-0.31,0.63
				C381.9,388.9,381.85,388.91,381.79,388.91z M548.89,385.24c-0.06,0-0.13-0.01-0.19-0.04c-0.26-0.11-0.38-0.4-0.27-0.65
				c0.72-1.74,1.43-3.49,2.14-5.25c0.1-0.26,0.4-0.38,0.65-0.28c0.26,0.1,0.38,0.39,0.28,0.65c-0.71,1.77-1.43,3.52-2.15,5.26
				C549.28,385.13,549.09,385.24,548.89,385.24z M378.13,378.15c-0.21,0-0.4-0.13-0.47-0.34c-0.61-1.79-1.23-3.57-1.86-5.35
				c-0.09-0.26,0.05-0.55,0.31-0.64c0.26-0.09,0.55,0.05,0.64,0.31c0.63,1.78,1.24,3.57,1.86,5.36c0.09,0.26-0.05,0.54-0.31,0.63
				C378.24,378.14,378.18,378.15,378.13,378.15z M553.13,374.72c-0.06,0-0.12-0.01-0.18-0.03c-0.26-0.1-0.38-0.39-0.28-0.65
				c0.69-1.75,1.37-3.51,2.05-5.29c0.1-0.26,0.39-0.38,0.65-0.29c0.26,0.1,0.39,0.39,0.29,0.65c-0.68,1.77-1.37,3.54-2.06,5.29
				C553.52,374.6,553.33,374.72,553.13,374.72z M374.37,367.46c-0.2,0-0.4-0.13-0.47-0.33c-0.65-1.78-1.3-3.55-1.97-5.31
				c-0.1-0.26,0.03-0.55,0.29-0.65c0.26-0.09,0.55,0.03,0.65,0.29c0.67,1.76,1.33,3.54,1.98,5.32c0.09,0.26-0.04,0.55-0.3,0.64
				C374.48,367.45,374.43,367.46,374.37,367.46z M557.21,364.13c-0.06,0-0.12-0.01-0.18-0.03c-0.26-0.1-0.39-0.39-0.29-0.64
				c0.67-1.76,1.33-3.53,1.99-5.31c0.1-0.26,0.39-0.39,0.64-0.29c0.26,0.1,0.39,0.38,0.29,0.64c-0.66,1.78-1.33,3.55-1.99,5.31
				C557.6,364.01,557.41,364.13,557.21,364.13z M370.33,356.86c-0.2,0-0.39-0.12-0.46-0.31c-0.72-1.79-1.45-3.55-2.17-5.23
				c-0.11-0.25,0.01-0.55,0.26-0.66c0.25-0.11,0.55,0.01,0.66,0.26c0.73,1.68,1.46,3.45,2.18,5.25c0.1,0.26-0.02,0.55-0.28,0.65
				C370.46,356.85,370.39,356.86,370.33,356.86z M561.17,353.5c-0.06,0-0.12-0.01-0.17-0.03c-0.26-0.1-0.39-0.38-0.3-0.64
				c0.65-1.77,1.3-3.54,1.95-5.33c0.09-0.26,0.38-0.39,0.64-0.3c0.26,0.09,0.39,0.38,0.3,0.64c-0.65,1.78-1.3,3.56-1.95,5.33
				C561.56,353.37,561.37,353.5,561.17,353.5z M365.84,346.45c-0.19,0-0.37-0.11-0.45-0.29c-0.82-1.76-1.65-3.47-2.47-5.08
				c-0.12-0.25-0.03-0.55,0.22-0.67c0.25-0.13,0.55-0.03,0.67,0.22c0.83,1.63,1.66,3.35,2.48,5.11c0.12,0.25,0.01,0.55-0.24,0.66
				C365.98,346.43,365.91,346.45,365.84,346.45z M565.06,342.84c-0.06,0-0.11-0.01-0.17-0.03c-0.26-0.09-0.39-0.38-0.3-0.64
				l1.93-5.32c0.09-0.26,0.38-0.39,0.64-0.3c0.26,0.09,0.39,0.38,0.3,0.64l-1.93,5.32C565.46,342.72,565.26,342.84,565.06,342.84z
				 M360.69,336.35c-0.18,0-0.34-0.09-0.44-0.26c-0.94-1.67-1.91-3.31-2.87-4.86c-0.15-0.23-0.08-0.54,0.16-0.69
				c0.23-0.15,0.54-0.08,0.69,0.16c0.98,1.56,1.95,3.21,2.9,4.9c0.14,0.24,0.05,0.54-0.19,0.68
				C360.86,336.33,360.77,336.35,360.69,336.35z M568.93,332.2c-0.06,0-0.11-0.01-0.17-0.03c-0.26-0.09-0.39-0.38-0.3-0.64
				l1.94-5.33c0.1-0.26,0.38-0.39,0.64-0.3c0.26,0.09,0.39,0.38,0.3,0.64l-1.94,5.33C569.32,332.08,569.13,332.2,568.93,332.2z
				 M354.68,326.75c-0.16,0-0.31-0.07-0.41-0.21c-1.1-1.56-2.23-3.07-3.38-4.5c-0.17-0.22-0.14-0.53,0.08-0.7
				c0.22-0.17,0.53-0.14,0.7,0.08c1.16,1.45,2.31,2.98,3.42,4.55c0.16,0.23,0.1,0.54-0.12,0.7
				C354.88,326.72,354.78,326.75,354.68,326.75z M572.83,321.53c-0.06,0-0.12-0.01-0.17-0.03c-0.26-0.09-0.39-0.38-0.3-0.64
				c0.65-1.78,1.31-3.55,1.97-5.32c0.1-0.26,0.39-0.39,0.64-0.29c0.26,0.1,0.39,0.38,0.29,0.64c-0.66,1.77-1.32,3.54-1.97,5.32
				C573.23,321.41,573.04,321.53,572.83,321.53z M347.6,317.93c-0.13,0-0.27-0.05-0.37-0.16c-1.28-1.39-2.61-2.73-3.96-3.98
				c-0.2-0.19-0.21-0.5-0.03-0.71c0.19-0.2,0.5-0.21,0.71-0.03c1.37,1.27,2.72,2.63,4.02,4.04c0.19,0.2,0.17,0.52-0.03,0.71
				C347.84,317.89,347.72,317.93,347.6,317.93z M228.8,312.22c-0.16,0-0.31-0.08-0.41-0.21c-0.16-0.23-0.1-0.54,0.13-0.7
				c1.53-1.06,3.13-2.12,4.75-3.13c0.23-0.15,0.54-0.08,0.69,0.16c0.15,0.23,0.08,0.54-0.16,0.69c-1.61,1.01-3.19,2.05-4.71,3.11
				C228.99,312.19,228.89,312.22,228.8,312.22z M576.8,310.9c-0.06,0-0.12-0.01-0.18-0.03c-0.26-0.1-0.39-0.39-0.29-0.64
				c0.67-1.77,1.34-3.54,2.02-5.3c0.1-0.26,0.39-0.38,0.65-0.29c0.26,0.1,0.39,0.39,0.29,0.65c-0.68,1.76-1.35,3.53-2.02,5.3
				C577.19,310.78,577,310.9,576.8,310.9z M339.31,310.25c-0.11,0-0.22-0.04-0.31-0.11c-0.29-0.23-0.58-0.45-0.87-0.67
				c-1.21-0.92-2.45-1.81-3.67-2.66c-0.23-0.16-0.28-0.47-0.13-0.7s0.47-0.29,0.7-0.13c1.23,0.85,2.48,1.75,3.71,2.68
				c0.3,0.23,0.59,0.46,0.89,0.69c0.22,0.17,0.25,0.49,0.08,0.7C339.61,310.18,339.46,310.25,339.31,310.25z M238.4,306.2
				c-0.17,0-0.34-0.09-0.44-0.25c-0.14-0.24-0.05-0.54,0.19-0.68c1.65-0.93,3.34-1.84,5.02-2.69c0.25-0.12,0.55-0.03,0.67,0.22
				c0.12,0.25,0.03,0.55-0.22,0.67c-1.66,0.84-3.33,1.74-4.98,2.67C238.57,306.18,238.48,306.2,238.4,306.2z M329.99,303.82
				c-0.09,0-0.18-0.02-0.26-0.07c-1.61-0.97-3.27-1.9-4.91-2.76c-0.25-0.13-0.34-0.43-0.21-0.67c0.13-0.25,0.43-0.34,0.67-0.21
				c1.67,0.87,3.34,1.8,4.97,2.79c0.24,0.14,0.31,0.45,0.17,0.69C330.32,303.74,330.16,303.82,329.99,303.82z M248.51,301.08
				c-0.19,0-0.37-0.11-0.46-0.29c-0.11-0.25,0-0.55,0.25-0.66c1.73-0.78,3.5-1.52,5.25-2.21c0.26-0.1,0.55,0.03,0.65,0.28
				c0.1,0.26-0.03,0.55-0.28,0.65c-1.74,0.68-3.49,1.42-5.2,2.19C248.65,301.06,248.58,301.08,248.51,301.08z M580.87,300.31
				c-0.06,0-0.12-0.01-0.18-0.03c-0.26-0.1-0.38-0.39-0.28-0.65c0.69-1.76,1.39-3.52,2.09-5.28c0.1-0.26,0.39-0.38,0.65-0.28
				c0.26,0.1,0.38,0.39,0.28,0.65c-0.7,1.75-1.4,3.51-2.09,5.27C581.26,300.19,581.07,300.31,580.87,300.31z M319.93,298.61
				c-0.07,0-0.13-0.01-0.2-0.04c-1.72-0.75-3.48-1.45-5.23-2.07c-0.26-0.09-0.4-0.38-0.3-0.64c0.09-0.26,0.38-0.4,0.64-0.3
				c1.78,0.63,3.56,1.34,5.3,2.1c0.25,0.11,0.37,0.41,0.26,0.66C320.31,298.5,320.13,298.61,319.93,298.61z M259.06,296.94
				c-0.21,0-0.4-0.13-0.47-0.34c-0.09-0.26,0.05-0.54,0.32-0.63c1.82-0.61,3.65-1.16,5.45-1.66c0.27-0.07,0.54,0.08,0.61,0.35
				c0.07,0.27-0.08,0.54-0.35,0.61c-1.78,0.49-3.6,1.04-5.4,1.64C259.17,296.94,259.12,296.94,259.06,296.94z M309.26,294.82
				c-0.04,0-0.09-0.01-0.13-0.02c-1.8-0.5-3.65-0.94-5.48-1.3c-0.27-0.05-0.45-0.32-0.39-0.59c0.05-0.27,0.32-0.45,0.59-0.39
				c1.85,0.37,3.72,0.81,5.55,1.32c0.27,0.07,0.42,0.35,0.35,0.62C309.68,294.67,309.48,294.82,309.26,294.82z M269.99,293.96
				c-0.23,0-0.44-0.16-0.49-0.4c-0.06-0.27,0.12-0.54,0.39-0.59c1.87-0.4,3.76-0.74,5.61-1.02c0.27-0.04,0.53,0.15,0.57,0.42
				s-0.15,0.53-0.42,0.57c-1.83,0.27-3.7,0.61-5.55,1.01C270.06,293.95,270.03,293.96,269.99,293.96z M298.16,292.6
				c-0.02,0-0.04,0-0.06,0c-1.85-0.23-3.74-0.4-5.61-0.5c-0.28-0.01-0.49-0.25-0.47-0.53c0.01-0.28,0.24-0.51,0.53-0.47
				c1.9,0.1,3.81,0.27,5.68,0.5c0.27,0.03,0.47,0.28,0.43,0.56C298.63,292.41,298.41,292.6,298.16,292.6z M281.2,292.29
				c-0.26,0-0.48-0.2-0.5-0.46c-0.02-0.28,0.18-0.52,0.46-0.54c1.9-0.16,3.82-0.26,5.69-0.29c0.24,0.02,0.5,0.22,0.51,0.49
				c0,0.28-0.22,0.5-0.49,0.51c-1.85,0.03-3.74,0.13-5.62,0.29C281.22,292.29,281.21,292.29,281.2,292.29z M585.09,289.79
				c-0.06,0-0.13-0.01-0.19-0.04c-0.26-0.1-0.38-0.4-0.27-0.65c0.72-1.75,1.45-3.5,2.19-5.24c0.11-0.25,0.4-0.37,0.66-0.26
				c0.25,0.11,0.37,0.4,0.27,0.66c-0.73,1.73-1.46,3.48-2.18,5.23C585.48,289.67,585.29,289.79,585.09,289.79z M589.52,279.34
				c-0.07,0-0.13-0.01-0.2-0.04c-0.25-0.11-0.37-0.41-0.26-0.66c0.76-1.74,1.53-3.47,2.31-5.19c0.11-0.25,0.41-0.36,0.66-0.25
				c0.25,0.11,0.36,0.41,0.25,0.66c-0.78,1.71-1.54,3.44-2.3,5.18C589.9,279.23,589.71,279.34,589.52,279.34z M803.43,275.57
				c-0.24,0-0.46-0.18-0.49-0.43c-0.28-1.83-0.6-3.71-0.95-5.58c-0.05-0.27,0.13-0.53,0.4-0.58c0.27-0.05,0.53,0.13,0.58,0.4
				c0.36,1.88,0.68,3.77,0.96,5.62c0.04,0.27-0.15,0.53-0.42,0.57C803.48,275.57,803.46,275.57,803.43,275.57z M594.2,269.01
				c-0.07,0-0.14-0.02-0.21-0.05c-0.25-0.12-0.36-0.42-0.24-0.67c0.81-1.72,1.63-3.43,2.45-5.12c0.12-0.25,0.42-0.35,0.67-0.23
				c0.25,0.12,0.35,0.42,0.23,0.67c-0.83,1.69-1.64,3.39-2.45,5.11C594.57,268.91,594.39,269.01,594.2,269.01z M801.3,264.41
				c-0.23,0-0.43-0.16-0.49-0.39c-0.43-1.84-0.89-3.69-1.38-5.49c-0.07-0.27,0.08-0.54,0.35-0.61s0.54,0.08,0.61,0.35
				c0.49,1.81,0.96,3.67,1.39,5.52c0.06,0.27-0.11,0.54-0.37,0.6C801.37,264.41,801.34,264.41,801.3,264.41z M599.19,258.83
				c-0.08,0-0.15-0.02-0.23-0.05c-0.25-0.13-0.34-0.43-0.22-0.67c0.87-1.69,1.74-3.37,2.63-5.03c0.13-0.24,0.43-0.33,0.68-0.2
				s0.33,0.43,0.2,0.68c-0.89,1.65-1.76,3.33-2.62,5.01C599.55,258.73,599.37,258.83,599.19,258.83z M798.32,253.46
				c-0.21,0-0.41-0.14-0.48-0.35c-0.57-1.81-1.18-3.61-1.81-5.36c-0.09-0.26,0.04-0.55,0.3-0.64c0.26-0.09,0.55,0.04,0.64,0.3
				c0.63,1.76,1.25,3.58,1.82,5.4c0.08,0.26-0.06,0.54-0.33,0.63C798.42,253.45,798.37,253.46,798.32,253.46z M604.55,248.84
				c-0.08,0-0.17-0.02-0.25-0.06c-0.24-0.14-0.33-0.44-0.19-0.68c0.95-1.68,1.9-3.33,2.85-4.92c0.14-0.24,0.45-0.31,0.69-0.17
				c0.24,0.14,0.31,0.45,0.17,0.69c-0.94,1.58-1.89,3.22-2.83,4.89C604.89,248.75,604.72,248.84,604.55,248.84z M794.47,242.79
				c-0.2,0-0.38-0.12-0.46-0.31c-0.72-1.75-1.48-3.49-2.26-5.18c-0.12-0.25-0.01-0.55,0.24-0.66c0.25-0.11,0.55-0.01,0.66,0.24
				c0.79,1.7,1.55,3.46,2.27,5.22c0.1,0.26-0.02,0.55-0.27,0.65C794.6,242.78,794.53,242.79,794.47,242.79z M610.34,239.1
				c-0.09,0-0.18-0.02-0.27-0.08c-0.23-0.15-0.3-0.46-0.16-0.69c1.02-1.61,2.06-3.21,3.09-4.76c0.15-0.23,0.46-0.29,0.69-0.14
				c0.23,0.15,0.29,0.46,0.14,0.69c-1.03,1.54-2.07,3.14-3.08,4.74C610.67,239.02,610.51,239.1,610.34,239.1z M789.7,232.5
				c-0.18,0-0.35-0.1-0.44-0.27c-0.88-1.68-1.8-3.34-2.73-4.94c-0.14-0.24-0.06-0.54,0.18-0.68c0.24-0.14,0.54-0.06,0.68,0.18
				c0.95,1.61,1.87,3.29,2.76,4.98c0.13,0.25,0.03,0.55-0.21,0.67C789.86,232.48,789.78,232.5,789.7,232.5z M616.66,229.69
				c-0.1,0-0.2-0.03-0.29-0.09c-0.22-0.16-0.28-0.47-0.12-0.7c1.12-1.57,2.26-3.1,3.38-4.56c0.17-0.22,0.48-0.26,0.7-0.09
				c0.22,0.17,0.26,0.48,0.09,0.7c-1.12,1.45-2.25,2.98-3.36,4.54C616.97,229.62,616.81,229.69,616.66,229.69z M783.96,222.73
				c-0.16,0-0.32-0.08-0.42-0.22c-1.04-1.57-2.13-3.13-3.24-4.62c-0.17-0.22-0.12-0.54,0.1-0.7c0.22-0.17,0.53-0.12,0.7,0.1
				c1.12,1.5,2.22,3.07,3.27,4.66c0.15,0.23,0.09,0.54-0.14,0.69C784.15,222.7,784.05,222.73,783.96,222.73z M623.56,220.72
				c-0.11,0-0.23-0.04-0.32-0.12c-0.21-0.18-0.24-0.49-0.07-0.7c1.22-1.47,2.46-2.92,3.71-4.3c0.19-0.21,0.5-0.22,0.71-0.04
				c0.21,0.18,0.22,0.5,0.04,0.71c-1.23,1.38-2.47,2.81-3.68,4.27C623.84,220.65,623.7,220.72,623.56,220.72z M777.19,213.64
				c-0.14,0-0.28-0.06-0.38-0.18c-1.22-1.45-2.48-2.86-3.75-4.2c-0.19-0.2-0.18-0.52,0.02-0.71s0.52-0.18,0.71,0.02
				c1.29,1.36,2.57,2.79,3.79,4.25c0.18,0.21,0.15,0.53-0.06,0.7C777.42,213.6,777.3,213.64,777.19,213.64z M631.12,212.3
				c-0.13,0-0.25-0.05-0.35-0.14c-0.2-0.19-0.2-0.51-0.01-0.71c1.33-1.36,2.7-2.7,4.06-3.97c0.2-0.19,0.52-0.18,0.71,0.03
				c0.19,0.2,0.18,0.52-0.02,0.71c-1.35,1.26-2.71,2.58-4.03,3.94C631.38,212.25,631.25,212.3,631.12,212.3z M769.38,205.44
				c-0.12,0-0.24-0.04-0.34-0.13c-1.38-1.28-2.81-2.52-4.25-3.69c-0.21-0.17-0.25-0.49-0.07-0.7c0.17-0.21,0.49-0.25,0.7-0.07
				c1.46,1.18,2.9,2.44,4.3,3.73c0.2,0.19,0.21,0.5,0.03,0.71C769.65,205.38,769.52,205.44,769.38,205.44z M639.4,204.59
				c-0.14,0-0.28-0.06-0.38-0.18c-0.18-0.21-0.15-0.53,0.06-0.7c1.46-1.23,2.95-2.42,4.44-3.55c0.22-0.17,0.53-0.12,0.7,0.1
				c0.17,0.22,0.12,0.53-0.1,0.7c-1.48,1.12-2.95,2.3-4.4,3.51C639.62,204.55,639.51,204.59,639.4,204.59z M760.6,198.3
				c-0.1,0-0.2-0.03-0.29-0.09c-1.53-1.08-3.11-2.12-4.7-3.09c-0.24-0.14-0.31-0.45-0.17-0.69c0.14-0.24,0.45-0.31,0.69-0.17
				c1.61,0.98,3.21,2.03,4.76,3.13c0.23,0.16,0.28,0.47,0.12,0.7C760.91,198.23,760.75,198.3,760.6,198.3z M648.41,197.78
				c-0.16,0-0.32-0.08-0.42-0.22c-0.15-0.23-0.09-0.54,0.14-0.69c1.57-1.06,3.19-2.08,4.8-3.03c0.24-0.14,0.54-0.06,0.68,0.18
				c0.14,0.24,0.06,0.54-0.18,0.69c-1.59,0.94-3.19,1.95-4.75,3C648.6,197.75,648.51,197.78,648.41,197.78z M750.94,192.4
				c-0.08,0-0.16-0.02-0.23-0.06c-1.65-0.86-3.35-1.68-5.07-2.44c-0.25-0.11-0.37-0.41-0.26-0.66c0.11-0.25,0.41-0.37,0.66-0.25
				c1.73,0.77,3.46,1.6,5.13,2.47c0.24,0.13,0.34,0.43,0.21,0.67C751.3,192.3,751.13,192.4,750.94,192.4z M658.13,192.04
				c-0.18,0-0.36-0.1-0.45-0.27c-0.13-0.25-0.03-0.55,0.22-0.67c1.68-0.86,3.41-1.68,5.13-2.44c0.26-0.11,0.55,0,0.66,0.26
				c0.11,0.25,0,0.55-0.26,0.66c-1.7,0.74-3.4,1.55-5.07,2.41C658.28,192.02,658.21,192.04,658.13,192.04z M740.6,187.82
				c-0.06,0-0.12-0.01-0.17-0.03c-1.75-0.64-3.54-1.24-5.34-1.78c-0.26-0.08-0.41-0.36-0.33-0.62s0.35-0.42,0.62-0.33
				c1.81,0.54,3.63,1.15,5.4,1.8c0.26,0.09,0.39,0.38,0.3,0.64C741,187.7,740.81,187.82,740.6,187.82z M668.46,187.51
				c-0.2,0-0.4-0.12-0.47-0.33c-0.09-0.26,0.04-0.55,0.3-0.64c1.76-0.65,3.58-1.25,5.38-1.79c0.26-0.07,0.54,0.07,0.62,0.34
				c0.08,0.26-0.07,0.54-0.34,0.62c-1.79,0.53-3.58,1.13-5.33,1.77C668.58,187.5,668.52,187.51,668.46,187.51z M729.77,184.56
				c-0.04,0-0.08,0-0.12-0.01c-1.81-0.43-3.66-0.82-5.51-1.15c-0.27-0.05-0.45-0.31-0.4-0.58c0.05-0.27,0.31-0.45,0.58-0.4
				c1.87,0.34,3.74,0.73,5.57,1.16c0.27,0.06,0.44,0.33,0.37,0.6C730.2,184.41,730,184.56,729.77,184.56z M679.27,184.28
				c-0.23,0-0.43-0.16-0.49-0.39c-0.06-0.27,0.1-0.54,0.37-0.6c1.82-0.43,3.69-0.81,5.56-1.13c0.27-0.06,0.53,0.13,0.58,0.41
				c0.05,0.27-0.13,0.53-0.41,0.58c-1.85,0.32-3.7,0.7-5.5,1.12C679.35,184.27,679.31,184.28,679.27,184.28z M718.64,182.55
				c-0.02,0-0.04,0-0.06,0c-1.83-0.23-3.72-0.42-5.61-0.57c-0.28-0.02-0.48-0.26-0.46-0.54s0.26-0.5,0.54-0.46
				c1.9,0.15,3.8,0.34,5.65,0.57c0.27,0.04,0.47,0.29,0.43,0.56C719.1,182.37,718.89,182.55,718.64,182.55z M690.4,182.34
				c-0.25,0-0.47-0.19-0.5-0.44c-0.03-0.27,0.16-0.52,0.44-0.55c1.86-0.22,3.77-0.39,5.66-0.51c0.26-0.03,0.51,0.19,0.53,0.47
				c0.02,0.28-0.19,0.51-0.47,0.53c-1.88,0.12-3.77,0.29-5.61,0.5C690.44,182.34,690.42,182.34,690.4,182.34z M707.36,181.68
				c-0.01,0-0.01,0-0.02,0c-1.85-0.06-3.75-0.08-5.64-0.06c0,0,0,0-0.01,0c-0.27,0-0.5-0.22-0.5-0.49c0-0.28,0.22-0.5,0.49-0.51
				c1.9-0.02,3.82,0,5.68,0.06c0.28,0.01,0.49,0.24,0.48,0.52C707.85,181.46,707.63,181.68,707.36,181.68z"/>
			<path class="st213" d="M804.44,284.7c-0.27,0-0.49-0.21-0.5-0.48c0-0.01-0.05-1.02-0.22-2.8c-0.03-0.27,0.17-0.52,0.45-0.55
				c0.27-0.01,0.52,0.17,0.55,0.45c0.17,1.81,0.22,2.81,0.22,2.85c0.01,0.28-0.2,0.51-0.48,0.52
				C804.45,284.7,804.45,284.7,804.44,284.7z"/>
		</g>
		<path class="st213" d="M231.76,324.25c-0.78-2.28-4.39-4.64-7.69-3.76c-4.05,1.08-6.85,2.69-8.96,5.19
			c0.63-3.8,0.97-7.18-0.32-10.7c-0.88-2.39-2.18-2.83-3.59-2.84c-2.22,0-3.95,1.02-4.82,1.82c-3.73,3.41-4.81,8.7-3.79,13.65
			c0.64,3.08,1.9,5.4,3.92,7.11c0.03,1.12,0.5,2.2,1.54,2.98c1.61,1.21,4.54,1.08,5.67-0.81c0.15-0.26,0.33-0.49,0.49-0.74
			c3.15,0.03,7.98-0.63,13.44-3.93C229.93,330.83,232.8,327.27,231.76,324.25z"/>
		<g>
			<path class="st0" d="M835.46,728.3c15.11,24.98-7.72,52.3-50.99,61.03c-43.27,8.72-90.59-4.46-105.7-29.44
				c-2.97-4.9-4.47-9.9-4.64-14.82c-0.71-20.17,20.86-39.19,55.63-46.2C773.03,690.13,820.35,703.31,835.46,728.3z"/>
			<linearGradient id="SVGID_24_" gradientUnits="userSpaceOnUse" x1="684.5718" y1="694.7101" x2="812.2242" y2="636.8533">
				<stop  offset="0" style="stop-color:#664843"/>
				<stop  offset="0.679" style="stop-color:#7D5952"/>
				<stop  offset="1" style="stop-color:#7A5650"/>
			</linearGradient>
			<path class="st26" d="M858.93,603.04H655.29l19.39,108.44l0.02-0.01c0.7,3.4,2.03,6.8,4.07,10.17
				c15.11,24.98,62.43,38.16,105.7,29.44c30.95-6.24,51.43-21.99,55.06-39.6l0.01,0L858.93,603.04z"/>
			<path class="st215" d="M853.87,576.67c18.66,30.85-9.53,64.6-62.97,75.37c-53.44,10.77-111.88-5.5-130.54-36.36
				c-3.66-6.06-5.52-12.22-5.74-18.31c-0.88-24.91,25.76-48.4,68.71-57.06C776.77,529.54,835.21,545.82,853.87,576.67z"/>
			<path class="st216" d="M839.69,577.62c15.93,26.33-8.14,55.13-53.74,64.33c-45.61,9.19-95.49-4.7-111.41-31.03
				c-3.13-5.17-4.71-10.43-4.9-15.63c-0.75-21.26,21.99-41.31,58.64-48.7C773.89,537.39,823.77,551.29,839.69,577.62z"/>
			<path class="st191" d="M756.7,593.29c-5.92-9.79-24.46-14.95-41.41-11.53c-13.4,2.7-21.78,9.96-21.78,17.72h64.98
				C758.49,597.43,757.94,595.34,756.7,593.29z"/>
			<g>
				<path class="st217" d="M757.12,537.27c43.42,0,82.21,15.89,96.51,39.54c6.6,10.92,7.5,22.59,2.6,33.74
					c-8.46,19.25-32.9,34.65-65.39,41.2c-10.92,2.2-22.27,3.32-33.73,3.32c-43.42,0-82.21-15.89-96.51-39.54
					c-3.56-5.89-5.48-12-5.69-18.17c-0.43-12.29,5.73-24.18,17.82-34.4c12.37-10.45,29.89-18.19,50.66-22.38
					C734.31,538.39,745.66,537.27,757.12,537.27 M757.11,645.06c9.82,0,19.54-0.96,28.89-2.84c27.89-5.62,48.89-18.88,56.18-35.47
					c4.26-9.69,3.48-19.81-2.25-29.28c-12.3-20.34-45.58-34-82.82-34c-9.82,0-19.54,0.96-28.89,2.84
					c-35.99,7.26-59.65,26.94-58.87,48.99c0.19,5.36,1.85,10.66,4.94,15.76C686.59,631.4,719.88,645.06,757.11,645.06
					 M757.12,536.99c-11.21,0-22.61,1.07-33.79,3.32c-42.95,8.66-69.59,32.15-68.71,57.06c0.22,6.08,2.07,12.25,5.74,18.31
					c14.76,24.4,54.39,39.68,96.76,39.68c11.21,0,22.61-1.07,33.79-3.32c53.44-10.77,81.63-44.52,62.97-75.37
					C839.12,552.27,799.48,536.99,757.12,536.99L757.12,536.99z M757.11,644.78c-36.16,0-69.98-13.04-82.58-33.87
					c-3.13-5.17-4.71-10.43-4.9-15.63c-0.75-21.26,21.99-41.31,58.64-48.7c9.54-1.92,19.27-2.84,28.84-2.84
					c36.16,0,69.98,13.04,82.58,33.87c15.93,26.33-8.14,55.13-53.74,64.33C776.41,643.87,766.68,644.78,757.11,644.78L757.11,644.78
					z"/>
			</g>
			<path class="st218" d="M788.05,463.97c-21.45,0-38.85,17.39-38.85,38.85v75.76c0,0,0.01,0.3,0.02,0.45
				c0.08,2.3,0.79,4.64,2.17,6.94c7.07,11.69,29.21,17.86,49.46,13.78c16.01-3.23,26.04-11.9,26.04-21.17v-75.76
				C826.9,481.36,809.51,463.97,788.05,463.97z"/>
			<path class="st219" d="M721.34,500.98c-20.06,0-36.33,16.26-36.33,36.33v56.22c0,0,0.01,0.28,0.02,0.42
				c0.08,2.16,0.73,4.34,2.03,6.49c6.61,10.93,27.32,16.7,46.26,12.88c14.97-3.02,24.35-11.13,24.35-19.79v-56.22
				C757.67,517.24,741.41,500.98,721.34,500.98z"/>
			<path class="st220" d="M773.38,536.06c-17.18,0-31.1,13.92-31.1,31.1v47.48c0,0,0.01,0.24,0.01,0.36
				c0.07,1.85,0.63,3.72,1.74,5.55c5.66,9.36,23.39,14.3,39.6,11.03c12.82-2.58,20.85-9.53,20.85-16.95v-47.48
				C804.48,549.98,790.55,536.06,773.38,536.06z"/>
			<g>
				<path class="st221" d="M756.39,614.82c3.7-1.39,7.4-2.78,11.1-4.16c2.23-0.84,1.26-4.45-0.99-3.6c-3.7,1.39-7.4,2.78-11.1,4.16
					C753.16,612.05,754.13,615.67,756.39,614.82L756.39,614.82z"/>
				<path class="st221" d="M769.05,569.27c1.92,3.45,3.85,6.91,5.77,10.36c1.17,2.1,4.4,0.22,3.23-1.89
					c-1.92-3.45-3.85-6.91-5.77-10.36C771.11,565.28,767.88,567.16,769.05,569.27L769.05,569.27z"/>
				<path class="st221" d="M795.21,554.83c2.84-2.71,5.68-5.43,8.52-8.14c1.74-1.66-0.9-4.3-2.64-2.64
					c-2.84,2.71-5.68,5.43-8.52,8.14C790.82,553.85,793.47,556.49,795.21,554.83L795.21,554.83z"/>
				<path class="st221" d="M775.36,540.46c-0.12-3.08-0.2-6.16-0.23-9.23c-0.02-2.4-3.76-2.41-3.74,0c0.03,3.08,0.1,6.16,0.23,9.23
					C771.72,542.85,775.46,542.87,775.36,540.46L775.36,540.46z"/>
				<path class="st221" d="M753.21,556.23c-3.48-0.99-6.99-1.96-10.4-3.2c-2.26-0.82-3.24,2.79-0.99,3.6
					c3.41,1.24,6.92,2.21,10.4,3.2C754.54,560.49,755.53,556.89,753.21,556.23L753.21,556.23z"/>
				<path class="st221" d="M800.08,586.12c3.95-0.92,7.82-2.08,11.63-3.46c2.24-0.82,1.27-4.43-0.99-3.6
					c-3.81,1.39-7.68,2.54-11.63,3.46C796.74,583.07,797.74,586.67,800.08,586.12L800.08,586.12z"/>
				<path class="st221" d="M736.42,587.74c4.96,1.52,9.92,3.05,14.88,4.57c2.3,0.71,3.29-2.9,0.99-3.6
					c-4.96-1.52-9.92-3.05-14.88-4.57C735.11,583.43,734.13,587.04,736.42,587.74L736.42,587.74z"/>
				<path class="st221" d="M788.56,603.89c-1.14,3.36-2.29,6.71-3.43,10.07c-0.78,2.28,2.83,3.26,3.6,0.99
					c1.14-3.36,2.29-6.71,3.43-10.07C792.94,602.6,789.34,601.62,788.56,603.89L788.56,603.89z"/>
			</g>
			<g>
				<path class="st222" d="M721.45,510.28c-0.22-4.29-0.43-8.59-0.65-12.88c-0.12-2.39-3.86-2.41-3.74,0
					c0.22,4.29,0.43,8.59,0.65,12.88C717.83,512.68,721.57,512.69,721.45,510.28L721.45,510.28z"/>
				<path class="st222" d="M739.4,517.16c2.8-2.8,5.59-5.59,8.39-8.39c1.7-1.7-0.94-4.35-2.64-2.64c-2.8,2.8-5.59,5.59-8.39,8.39
					C735.06,516.22,737.7,518.86,739.4,517.16L739.4,517.16z"/>
				<path class="st222" d="M679.42,541.53c4.13,1.19,8.27,2.37,12.4,3.56c2.32,0.66,3.3-2.94,0.99-3.6
					c-4.13-1.19-8.27-2.37-12.4-3.56C678.09,537.26,677.1,540.86,679.42,541.53L679.42,541.53z"/>
				<path class="st222" d="M689.38,515.16c3.48,2.66,6.96,5.33,10.44,7.99c1.91,1.46,3.77-1.78,1.89-3.23
					c-3.48-2.66-6.96-5.33-10.44-7.99C689.36,510.47,687.5,513.71,689.38,515.16L689.38,515.16z"/>
				<path class="st222" d="M746.96,535.33c4.41-1.38,8.81-2.76,13.22-4.13c2.29-0.72,1.31-4.32-0.99-3.6
					c-4.41,1.38-8.81,2.76-13.22,4.13C743.68,532.45,744.66,536.05,746.96,535.33L746.96,535.33z"/>
				<path class="st222" d="M678.44,568.14c4.34,2.8,8.81,5.4,13.39,7.79c2.13,1.11,4.02-2.11,1.89-3.23
					c-4.59-2.39-9.05-4.98-13.39-7.79C678.3,563.6,676.42,566.84,678.44,568.14L678.44,568.14z"/>
				<path class="st222" d="M721.55,530.98c-2.61,3.95-5.21,7.89-7.82,11.84c-1.33,2.01,1.91,3.89,3.23,1.89
					c2.61-3.95,5.21-7.89,7.82-11.84C726.11,530.85,722.87,528.98,721.55,530.98L721.55,530.98z"/>
				<path class="st222" d="M717.01,570.33c4.01-0.84,8.03-1.63,12.06-2.36c2.36-0.43,1.36-4.03-0.99-3.6
					c-4.03,0.73-8.05,1.52-12.06,2.36C713.67,567.22,714.66,570.83,717.01,570.33L717.01,570.33z"/>
				<path class="st222" d="M702.91,599.79c4.27-1.3,8.53-2.6,12.8-3.91c2.3-0.7,1.38-4.32-0.92-3.62c-4.27,1.3-8.53,2.6-12.8,3.91
					C699.69,596.87,700.61,600.49,702.91,599.79L702.91,599.79z"/>
			</g>
			<g>
				<path class="st223" d="M811.49,483.6c3.34-3.69,6.68-7.38,10.02-11.06c1.61-1.78-1.02-4.43-2.64-2.64
					c-3.34,3.69-6.68,7.38-10.02,11.06C807.24,482.74,809.88,485.39,811.49,483.6L811.49,483.6z"/>
				<path class="st223" d="M810.22,527.56c-2.08-3.56-4.16-7.13-6.24-10.69c-1.21-2.08-4.44-0.2-3.23,1.89
					c2.08,3.56,4.16,7.13,6.24,10.69C808.2,531.52,811.43,529.65,810.22,527.56L810.22,527.56z"/>
				<path class="st223" d="M763.4,482.23c-2.94-2.87-5.88-5.74-8.82-8.61c-1.72-1.68-4.37,0.96-2.64,2.64
					c2.94,2.87,5.88,5.74,8.82,8.61C762.48,486.56,765.13,483.92,763.4,482.23L763.4,482.23z"/>
				<path class="st223" d="M786.14,459.78c-0.67,4.33-1.35,8.66-2.02,12.99c-0.37,2.35,3.23,3.37,3.6,0.99
					c0.67-4.33,1.35-8.66,2.02-12.99C790.11,458.42,786.51,457.41,786.14,459.78L786.14,459.78z"/>
				<path class="st223" d="M766.67,506.98c4.88-1.03,9.76-2.05,14.64-3.08c2.35-0.49,1.36-4.1-0.99-3.6
					c-4.88,1.03-9.76,2.05-14.64,3.08C763.32,503.87,764.32,507.48,766.67,506.98L766.67,506.98z"/>
				<path class="st223" d="M818.54,506.48c4.67,0.23,9.35,0.45,14.02,0.68c2.4,0.12,2.4-3.62,0-3.74
					c-4.67-0.23-9.35-0.45-14.02-0.68C816.14,502.63,816.14,506.37,818.54,506.48L818.54,506.48z"/>
				<path class="st223" d="M820.8,549.58c4.64-2.2,9.4-4.17,14.2-6.01c2.22-0.86,1.26-4.47-0.99-3.6
					c-5.09,1.96-10.16,4.05-15.09,6.39C816.75,547.38,818.64,550.6,820.8,549.58L820.8,549.58z"/>
			</g>
		</g>
	</g>
</g>
<g id="Layer_2">
</g>
</svg>
