<svg width="32" height="33" viewBox="0 0 32 33" fill="none" xmlns="http://www.w3.org/2000/svg">
<path fill-rule="evenodd" clip-rule="evenodd" d="M22.666 3.16699H3.33268C3.33268 3.16699 5.33268 3.16699 5.33268 5.83366V27.8344C5.33268 28.939 6.22812 29.8336 7.33269 29.8336H24.666C25.7706 29.8336 26.666 28.9382 26.666 27.8336V7.16699C26.666 4.95785 24.8752 3.16699 22.666 3.16699ZM18.3802 9.16699C18.3802 8.61471 17.9325 8.16699 17.3802 8.16699H10.0469C9.49459 8.16699 9.04687 8.61471 9.04687 9.16699C9.04687 9.71928 9.49459 10.167 10.0469 10.167H17.3802C17.9325 10.167 18.3802 9.71928 18.3802 9.16699ZM20.9993 13.167C20.9993 12.6147 20.5516 12.167 19.9993 12.167H10.0469C9.49459 12.167 9.04687 12.6147 9.04687 13.167C9.04687 13.7193 9.49459 14.167 10.0469 14.167H19.9993C20.5516 14.167 20.9993 13.7193 20.9993 13.167Z" fill="#9EB3EE"/>
<path d="M1.33398 7.50033C1.33398 8.05261 1.7817 8.50033 2.33398 8.50033H5.33398V5.16699C5.33398 4.00429 4.49115 3.16699 3.33398 3.16699C2.17682 3.16699 1.33398 4.00429 1.33398 5.16699V7.50033Z" fill="#1E4DD8"/>
<path d="M15.334 19.2582C15.334 18.4555 15.9155 17.7707 16.6944 17.577C17.4687 17.3845 18.4354 17.096 19.209 16.7116C20.759 15.9414 22.309 14.7861 23.084 14.7861C23.859 14.7861 25.409 15.9414 26.959 16.7116C27.7325 17.0959 28.699 17.3844 29.4732 17.5769C30.2524 17.7707 30.834 18.4557 30.834 19.2586V19.9951C30.834 25.3389 28.4299 32.5004 23.0861 32.5004C17.7402 32.5004 15.334 25.3372 15.334 19.9913V19.2582Z" fill="#1E4DD8"/>
<path d="M27.3941 21.9666C27.7726 21.5644 27.7534 20.9316 27.3512 20.5531C26.9491 20.1745 26.3162 20.1937 25.9377 20.5959L27.3941 21.9666ZM20.2481 23.246C19.8576 22.8554 19.2244 22.8554 18.8339 23.246C18.4434 23.6365 18.4434 24.2697 18.8339 24.6602L20.2481 23.246ZM22.1047 26.1275L22.8329 26.8128L22.1047 26.1275ZM25.9377 20.5959L21.3765 25.4421L22.8329 26.8128L27.3941 21.9666L25.9377 20.5959ZM22.4283 25.4262L20.2481 23.246L18.8339 24.6602L21.0141 26.8404L22.4283 25.4262ZM21.3765 25.4421C21.6599 25.1411 22.136 25.1338 22.4283 25.4262L21.0141 26.8404C21.5196 27.3459 22.343 27.3334 22.8329 26.8128L21.3765 25.4421Z" fill="white"/>
</svg>
