<svg width="32" height="33" viewBox="0 0 32 33" fill="none" xmlns="http://www.w3.org/2000/svg">
<path d="M6.08907 18.3732L3.20835 20.0959C2.42479 20.5645 2.50863 21.7329 3.35093 22.0832L25.3104 31.2144C25.9716 31.4893 26.714 31.0693 26.8249 30.3576L30.6528 5.80495C30.798 4.87367 29.8005 4.19315 28.9957 4.67444L19.9594 10.0784C19.499 15.1741 15.2159 19.167 10.0003 19.167C8.61237 19.167 7.29047 18.8842 6.08907 18.3732Z" fill="#5FA4F8"/>
<path d="M7.56917 17.488C8.34051 17.713 9.15633 17.8337 10.0003 17.8337C14.1711 17.8337 17.6538 14.8874 18.4807 10.9626L7.56917 17.488Z" fill="#5FA4F8"/>
<path d="M10.6665 25.1676L29.2695 5.84961L16.6665 27.501L14.166 32.1579C14.1368 32.2122 14.1041 32.2652 14.0596 32.3077C13.7109 32.6404 13.0989 32.5311 12.9136 32.0744L10.6665 25.1676Z" fill="#1E4DD8"/>
<path d="M10.5982 12.0087L8.40149 11.4168L8.89531 9.56153L11.0941 10.1507C11.607 10.2882 11.9121 10.8156 11.7756 11.3288C11.6388 11.8425 11.1114 12.147 10.5982 12.0087Z" fill="#1E4DD8"/>
<path d="M10.9828 6.74649C10.9732 6.74392 10.9637 6.74115 10.9543 6.7382L9.73384 6.41116L9.23862 8.27173L10.8032 8.69096C11.3167 8.82857 11.8439 8.52362 11.9806 8.00984C12.1174 7.49606 11.8119 6.96799 11.2984 6.83038L11.0115 6.75352C11.0019 6.7514 10.9924 6.74905 10.9828 6.74649Z" fill="#1E4DD8"/>
<path fill-rule="evenodd" clip-rule="evenodd" d="M10.0002 17.8333C14.7866 17.8333 18.6668 13.9531 18.6668 9.16667C18.6668 4.3802 14.7866 0.5 10.0002 0.5C5.21369 0.5 1.3335 4.3802 1.3335 9.16667C1.3335 13.9531 5.21369 17.8333 10.0002 17.8333ZM10.1566 4.82275C10.2513 4.46695 10.0398 4.10126 9.68415 4.00597C9.32851 3.91067 8.96343 4.12186 8.86873 4.47766L8.7889 4.77758L8.1721 4.61231C7.81646 4.51701 7.45138 4.72819 7.35668 5.08399C7.26198 5.4398 7.47352 5.80548 7.82916 5.90078L8.44595 6.06605L7.11407 11.0699L6.50118 10.9048C6.14567 10.809 5.7803 11.0197 5.6851 11.3753C5.58991 11.731 5.80093 12.097 6.15644 12.1928L6.77112 12.3584L6.68971 12.6643C6.59501 13.0201 6.80654 13.3857 7.16219 13.481C7.51783 13.5763 7.88291 13.3651 7.97761 13.0093L8.05854 12.7053L8.66405 12.8685L8.58312 13.1725C8.48842 13.5283 8.69995 13.894 9.0556 13.9893C9.41124 14.0846 9.77632 13.8734 9.87102 13.5176L9.95147 13.2154L10.2534 13.2967C11.4784 13.6268 12.7371 12.8999 13.0635 11.6739C13.2737 10.884 13.0455 10.0799 12.5285 9.52054C12.8772 9.22791 13.1425 8.82864 13.2685 8.35494C13.565 7.24123 12.9902 6.09939 11.9634 5.65412L12.0495 5.33071C12.1442 4.97491 11.9327 4.60923 11.577 4.51393C11.2214 4.41864 10.8563 4.62982 10.7616 4.98562L10.6819 5.28484L10.0768 5.12268L10.1566 4.82275Z" fill="#1E4DD8"/>
</svg>
