<svg width="37" height="37" viewBox="0 0 37 37" fill="none" xmlns="http://www.w3.org/2000/svg">
<circle cx="18.4993" cy="18.4993" r="10.0208" fill="#1E4DD8"/>
<path fill-rule="evenodd" clip-rule="evenodd" d="M14.6485 16.3909C14.6571 14.8558 15.9081 13.6188 17.4427 13.628L20.7454 13.6479C21.171 13.6504 21.5141 13.9977 21.5117 14.4235C21.5094 14.8493 21.1624 15.1923 20.7367 15.1898L17.4341 15.1699C16.7507 15.1658 16.1937 15.7166 16.1898 16.4002C16.186 17.0837 16.7368 17.6412 17.4202 17.6453L19.3049 17.6566C20.8395 17.6659 22.0766 18.9178 22.068 20.4529C22.0594 21.9881 20.8083 23.2251 19.2737 23.2158L15.9711 23.196C15.5454 23.1934 15.2023 22.8462 15.2047 22.4204C15.2071 21.9946 15.5541 21.6515 15.9797 21.6541L19.2824 21.6739C19.9657 21.678 20.5228 21.1272 20.5266 20.4437C20.5304 19.7601 19.9796 19.2027 19.2963 19.1985L17.4115 19.1872C15.8769 19.178 14.6398 17.926 14.6485 16.3909Z" fill="white"/>
<path fill-rule="evenodd" clip-rule="evenodd" d="M18.3924 12.2369C18.818 12.2395 19.161 12.5867 19.1584 13.0125L19.1495 14.4866L17.6081 14.4773L17.617 13.0032C17.6196 12.5774 17.9667 12.2343 18.3924 12.2369ZM17.5565 23.7742L17.5625 22.3505L19.1039 22.357L19.0979 23.7807C19.0961 24.2065 18.7496 24.5502 18.324 24.5484C17.8983 24.5466 17.5547 24.2 17.5565 23.7742Z" fill="white"/>
<path fill-rule="evenodd" clip-rule="evenodd" d="M34.7459 15.7936C34.5405 16.0462 34.2538 16.236 33.913 16.3185C33.7276 16.3634 33.5418 16.3727 33.363 16.3508C33.1542 16.3366 32.9444 16.2835 32.744 16.188L28.9108 14.3606C28.1423 13.9942 27.8162 13.0741 28.1826 12.3056C28.549 11.537 29.4691 11.211 30.2377 11.5774L30.755 11.824C28.3995 7.50408 23.8163 4.57357 18.5511 4.57357C14.3754 4.57357 10.6285 6.41663 8.08158 9.33459C8.04369 9.39277 8.00142 9.44908 7.95473 9.50307C7.65066 9.85473 7.36646 10.2194 7.10241 10.5953C6.28424 11.7833 5.64623 13.105 5.22789 14.5212C5.19492 14.6328 5.15045 14.7378 5.09615 14.8354C4.00425 18.7451 4.62775 23.0968 7.17039 26.6558C8.05841 27.8988 9.11378 28.9517 10.284 29.8056C12.5757 31.4725 15.3966 32.4557 18.4464 32.4557C24.7462 32.4557 30.0702 28.2605 31.7695 22.5081C32.0108 21.6915 32.8683 21.2251 33.6848 21.4663C34.5014 21.7076 34.9678 22.5651 34.7265 23.3816C33.2025 28.5408 29.2931 32.6776 24.2739 34.5123C24.1936 34.5577 24.108 34.5965 24.0177 34.6277C18.5803 36.509 12.5083 35.4903 7.98292 31.9311C5.02768 29.6141 2.8604 26.338 1.94873 22.5718C1.92727 22.4831 1.91394 22.3944 1.90827 22.3064C0.862534 17.6469 1.83346 12.7109 4.60479 8.7869C7.66979 4.37755 12.7721 1.49023 18.5511 1.49023C25.2058 1.49023 30.9636 5.31888 33.7461 10.8925L34.0664 10.2207C34.4328 9.45213 35.3528 9.12611 36.1214 9.49251C36.89 9.85891 37.216 10.779 36.8496 11.5476L35.0222 15.3807C34.9487 15.535 34.855 15.6732 34.7459 15.7936Z" fill="#5FA4F8"/>
</svg>
