<svg width="28" height="31" viewBox="0 0 28 31" fill="none" xmlns="http://www.w3.org/2000/svg">
<rect width="8" height="16" rx="0.974987" transform="matrix(-1 0 0 1 27.3677 14.1523)" fill="#5FA4F8"/>
<rect width="8" height="8" rx="1" transform="matrix(-1 0 0 1 8.75049 22.1523)" fill="#5FA4F8"/>
<rect width="8" height="12" rx="0.974987" transform="matrix(-1 0 0 1 18.0591 18.1523)" fill="#5FA4F8"/>
<path fill-rule="evenodd" clip-rule="evenodd" d="M1.13274 18.4201C0.616329 17.8951 0.623255 17.0509 1.1482 16.5345L10.209 7.62111C10.7275 7.11102 11.5592 7.11063 12.0782 7.62022L15.4629 10.9435L25.0879 1.24378C25.6066 0.721075 26.4508 0.717812 26.9735 1.23649C27.4962 1.75518 27.4995 2.59939 26.9808 3.1221L16.4216 13.7633C15.9048 14.284 15.0645 14.2895 14.541 13.7755L11.145 10.4411L3.0183 18.4355C2.49335 18.9519 1.64915 18.945 1.13274 18.4201Z" fill="#1E4DD8"/>
<path fill-rule="evenodd" clip-rule="evenodd" d="M20.0991 2.18294C20.0991 1.44656 20.6961 0.849609 21.4325 0.84961L26.0341 0.84961C26.7705 0.849611 27.3674 1.44656 27.3674 2.18294L27.3674 6.76883C27.3674 7.50521 26.7705 8.10216 26.0341 8.10216C25.2977 8.10216 24.7008 7.50521 24.7008 6.76883L24.7008 3.51628L21.4325 3.51628C20.6961 3.51628 20.0991 2.91932 20.0991 2.18294Z" fill="#1E4DD8"/>
</svg>
