<svg width="32" height="33" viewBox="0 0 32 33" fill="none" xmlns="http://www.w3.org/2000/svg">
<path fill-rule="evenodd" clip-rule="evenodd" d="M1.98341 19.6942L6.12083 12.566H5.91683C5.42794 12.566 5.00016 11.9793 5.00016 11.4993C5.00016 11.0193 5.42794 10.4993 5.91683 10.4993H7.3204L9.25518 7.16602H3.77794C2.4335 7.16602 1.3335 8.24602 1.3335 9.56602V28.766C1.3335 30.086 2.4335 31.166 3.77794 31.166H28.2224C29.5668 31.166 30.6668 30.086 30.6668 28.766V14.966C30.6668 13.646 29.6279 12.626 28.2835 12.566H27.4785L18.0016 28.8932C16.9336 30.7332 14.5722 31.3659 12.7272 30.3064L3.39016 24.9443C1.54521 23.8848 0.915381 21.5342 1.98341 19.6942ZM24.5557 26.966C23.5168 26.966 22.7224 26.186 22.7224 25.166C22.7224 24.146 23.5168 23.366 24.5557 23.366C25.5946 23.366 26.3891 24.146 26.3891 25.166C26.3891 26.186 25.5335 26.966 24.5557 26.966Z" fill="#5FA4F8"/>
<path fill-rule="evenodd" clip-rule="evenodd" d="M5.52481 21.5597L14.6077 26.7758L25.183 8.55616L16.1001 3.34002L5.52481 21.5597ZM3.4076 21.2256C3.06545 21.8151 3.26723 22.5681 3.85828 22.9076L14.2674 28.8854C14.8585 29.2248 15.615 29.0221 15.9571 28.4326L27.3002 8.89022C27.6424 8.30075 27.4406 7.54772 26.8495 7.20829L16.4404 1.2305C15.8493 0.89107 15.0928 1.09377 14.7507 1.68324L3.4076 21.2256Z" fill="#1E4DD8"/>
<mask id="mask0_2696_12495" style="mask-type:alpha" maskUnits="userSpaceOnUse" x="3" y="1" width="25" height="28">
<rect width="25.1018" height="14.4596" rx="1.85227" transform="matrix(0.50191 -0.864139 0.866747 0.497426 2.78809 22.3086)" fill="#CCA301"/>
</mask>
<g mask="url(#mask0_2696_12495)">
<path d="M18.4616 3.73534C19.591 1.79191 18.959 -0.671242 17.0499 -1.76626C15.1409 -2.86128 12.6777 -2.17351 11.5483 -0.23008C10.419 1.71335 11.051 4.1765 12.9601 5.27152C14.8691 6.36654 17.3323 5.67877 18.4616 3.73534Z" fill="#1E4DD8"/>
<path d="M30.5098 10.6919C31.6392 8.74845 31.0072 6.2853 29.0981 5.19028C27.1891 4.09526 24.7259 4.78303 23.5965 6.72646C22.4671 8.66989 23.0992 11.133 25.0082 12.2281C26.9173 13.3231 29.3804 12.6353 30.5098 10.6919Z" fill="#1E4DD8"/>
<path d="M5.3338 18.5252C7.24285 19.6203 7.8749 22.0834 6.74551 24.0268C5.61611 25.9703 3.15296 26.658 1.24391 25.563C-0.66515 24.468 -1.29719 22.0048 -0.167802 20.0614C0.961589 18.118 3.42474 17.4302 5.3338 18.5252Z" fill="#1E4DD8"/>
<path d="M18.7937 30.9844C19.9231 29.0409 19.291 26.5778 17.382 25.4828C15.4729 24.3877 13.0098 25.0755 11.8804 27.0189C10.751 28.9624 11.383 31.4255 13.2921 32.5205C15.2011 33.6156 17.6643 32.9278 18.7937 30.9844Z" fill="#1E4DD8"/>
</g>
<ellipse rx="1.50614" ry="1.45174" transform="matrix(0.50184 -0.864272 0.866751 0.497575 19.0293 8.69407)" fill="#1E4DD8"/>
<ellipse rx="1.50614" ry="1.45174" transform="matrix(0.501839 -0.864273 0.866751 0.497576 11.7065 21.3777)" fill="#1E4DD8"/>
<path fill-rule="evenodd" clip-rule="evenodd" d="M28.2835 12.5665C19.3002 12.5665 10.3168 12.5667 1.3335 12.5664V28.7665C1.3335 30.0865 2.4335 31.1665 3.77794 31.1665H28.2224C29.5668 31.1665 30.6668 30.0865 30.6668 28.7665V14.9665C30.6668 13.6465 29.6279 12.6265 28.2835 12.5665ZM24.5557 26.9665C23.5168 26.9665 22.7224 26.1865 22.7224 25.1665C22.7224 24.1465 23.5168 23.3665 24.5557 23.3665C25.5946 23.3665 26.3891 24.1465 26.3891 25.1665C26.3891 26.1865 25.5335 26.9665 24.5557 26.9665Z" fill="#5FA4F8"/>
</svg>
