<svg width="598" height="157" viewBox="0 0 598 157" fill="none" xmlns="http://www.w3.org/2000/svg">
<path d="M193.329 94.0796C205.322 94.0796 212.163 87.4073 212.417 74.9919H200.423C200.086 80.2284 197.974 82.4243 193.329 82.4243C189.613 82.4243 187.586 80.0594 187.586 74.9919V52.0192C187.586 46.7828 189.697 44.418 193.329 44.418C197.89 44.418 199.917 46.6139 200.255 52.0192H212.248C211.825 39.5194 205.238 32.7627 193.413 32.7627C181.843 32.7627 175.086 39.5194 175.086 52.0192V74.9919C175.086 87.4073 181.843 94.0796 193.329 94.0796Z" fill="#121010"/>
<path d="M235.888 94.0796C247.881 94.0796 254.722 87.4073 254.976 74.9919H242.983C242.645 80.2284 240.533 82.4243 235.888 82.4243C232.172 82.4243 230.145 80.0594 230.145 74.9919V52.0192C230.145 46.7828 232.256 44.418 235.888 44.418C240.449 44.418 242.476 46.6139 242.814 52.0192H254.807C254.385 39.5194 247.797 32.7627 235.973 32.7627C224.402 32.7627 217.645 39.5194 217.645 52.0192V74.9919C217.645 87.4073 224.402 94.0796 235.888 94.0796Z" fill="#121010"/>
<path d="M276.589 94.2485C288.329 94.2485 295.17 87.154 295.17 77.4412C295.17 58.607 271.691 58.0158 271.691 48.7253C271.691 46.0227 273.549 44.3335 276.674 44.3335C280.136 44.3335 281.91 46.2761 281.91 50.1611H294.241C294.241 39.266 287.653 32.7627 276.758 32.7627C265.863 32.7627 259.529 39.3505 259.529 48.3875C259.529 66.3772 282.67 67.5596 282.67 77.3568C282.67 80.3128 280.728 82.5932 276.758 82.5932C272.957 82.5932 270.593 80.5662 270.593 75.8365H258.262C258.262 87.7452 265.356 94.2485 276.589 94.2485Z" fill="#121010"/>
<path d="M317.004 94.2485C328.744 94.2485 335.585 87.154 335.585 77.4412C335.585 58.607 312.105 58.0158 312.105 48.7253C312.105 46.0227 313.963 44.3335 317.088 44.3335C320.551 44.3335 322.325 46.2761 322.325 50.1611H334.656C334.656 39.266 328.068 32.7627 317.173 32.7627C306.278 32.7627 299.943 39.3505 299.943 48.3875C299.943 66.3772 323.085 67.5596 323.085 77.3568C323.085 80.3128 321.142 82.5932 317.173 82.5932C313.372 82.5932 311.007 80.5662 311.007 75.8365H298.676C298.676 87.7452 305.771 94.2485 317.004 94.2485Z" fill="#121010"/>
<path d="M371.624 81.6642V33.9451H359.631V93.0661H389.191V81.6642H371.624Z" fill="#121010"/>
<path d="M406.925 81.6642V68.5731H423.732V57.5935H406.925V45.347H425.422V33.9451H394.932V93.0661H426.266V81.6642H406.925Z" fill="#121010"/>
<path d="M443.477 93.0661H456.145L470.165 33.9451H457.75L452.429 61.9009C451.584 66.2083 450.571 73.4717 449.98 78.3703H449.642C449.051 73.4717 448.037 66.2083 447.193 61.9009L441.872 33.9451H429.456L443.477 93.0661Z" fill="#121010"/>
<path d="M487.672 81.6642V68.5731H504.479V57.5935H487.672V45.347H506.168V33.9451H475.679V93.0661H507.013V81.6642H487.672Z" fill="#121010"/>
<path d="M527.18 81.6642V33.9451H515.186V93.0661H544.747V81.6642H527.18Z" fill="#121010"/>
<path d="M585.385 56.6644L594.676 41.4619V33.9451H565.115V44.3335H580.909L572.885 57.5935V65.0258H578.46C582.429 65.0258 584.456 66.3772 584.456 72.0359V74.9919C584.456 80.4817 583.527 82.931 579.473 82.931C576.01 82.931 574.743 80.8196 574.406 76.7656H563.088C563.595 87.7452 569.085 94.0796 579.558 94.0796C591.382 94.0796 595.943 87.5763 595.943 75.2453V71.6136C595.943 64.5191 591.973 57.6779 585.385 56.6644Z" fill="#121010"/>
<path d="M182.372 126.017C180.984 126.017 179.726 125.716 178.6 125.113C177.486 124.498 176.609 123.653 175.967 122.579C175.338 121.504 175.023 120.293 175.023 118.943C175.023 117.594 175.344 116.382 175.986 115.308C176.628 114.234 177.506 113.396 178.619 112.793C179.746 112.177 181.003 111.87 182.392 111.87C183.519 111.87 184.547 112.066 185.477 112.459C186.407 112.852 187.193 113.422 187.835 114.169L186.184 115.721C185.189 114.647 183.964 114.11 182.51 114.11C181.567 114.11 180.722 114.319 179.975 114.738C179.228 115.145 178.646 115.714 178.226 116.448C177.807 117.182 177.598 118.013 177.598 118.943C177.598 119.874 177.807 120.705 178.226 121.439C178.646 122.173 179.228 122.749 179.975 123.168C180.722 123.574 181.567 123.777 182.51 123.777C183.964 123.777 185.189 123.234 186.184 122.146L187.835 123.718C187.193 124.465 186.401 125.035 185.457 125.428C184.527 125.821 183.499 126.017 182.372 126.017Z" fill="#363636"/>
<path d="M199.282 125.821L196.472 121.793C196.354 121.806 196.177 121.812 195.942 121.812H192.837V125.821H190.283V112.066H195.942C197.134 112.066 198.169 112.263 199.046 112.656C199.937 113.049 200.618 113.612 201.09 114.345C201.561 115.079 201.797 115.95 201.797 116.959C201.797 117.994 201.542 118.885 201.031 119.631C200.533 120.378 199.813 120.935 198.869 121.301L202.033 125.821H199.282ZM199.223 116.959C199.223 116.081 198.935 115.407 198.359 114.935C197.782 114.463 196.937 114.228 195.824 114.228H192.837V119.71H195.824C196.937 119.71 197.782 119.474 198.359 119.002C198.935 118.518 199.223 117.837 199.223 116.959Z" fill="#363636"/>
<path d="M210.398 120.967V125.821H207.843V121.007L202.439 112.066H205.171L209.199 118.767L213.266 112.066H215.782L210.398 120.967Z" fill="#363636"/>
<path d="M222.922 112.066C224.114 112.066 225.149 112.263 226.026 112.656C226.917 113.049 227.598 113.612 228.07 114.345C228.541 115.079 228.777 115.95 228.777 116.959C228.777 117.954 228.541 118.826 228.07 119.572C227.598 120.306 226.917 120.869 226.026 121.262C225.149 121.655 224.114 121.852 222.922 121.852H219.817V125.821H217.262V112.066H222.922ZM222.804 119.69C223.917 119.69 224.762 119.454 225.338 118.983C225.915 118.511 226.203 117.837 226.203 116.959C226.203 116.081 225.915 115.407 225.338 114.935C224.762 114.463 223.917 114.228 222.804 114.228H219.817V119.69H222.804Z" fill="#363636"/>
<path d="M233.715 114.228H229.157V112.066H240.829V114.228H236.27V125.821H233.715V114.228Z" fill="#363636"/>
<path d="M248.979 126.017C247.577 126.017 246.313 125.716 245.187 125.113C244.06 124.498 243.176 123.653 242.534 122.579C241.892 121.491 241.571 120.28 241.571 118.943C241.571 117.607 241.892 116.402 242.534 115.328C243.176 114.241 244.06 113.396 245.187 112.793C246.313 112.177 247.577 111.87 248.979 111.87C250.381 111.87 251.645 112.177 252.771 112.793C253.898 113.396 254.782 114.234 255.424 115.308C256.066 116.382 256.387 117.594 256.387 118.943C256.387 120.293 256.066 121.504 255.424 122.579C254.782 123.653 253.898 124.498 252.771 125.113C251.645 125.716 250.381 126.017 248.979 126.017ZM248.979 123.777C249.896 123.777 250.721 123.574 251.455 123.168C252.189 122.749 252.765 122.173 253.184 121.439C253.603 120.692 253.813 119.86 253.813 118.943C253.813 118.027 253.603 117.201 253.184 116.468C252.765 115.721 252.189 115.145 251.455 114.738C250.721 114.319 249.896 114.11 248.979 114.11C248.062 114.11 247.237 114.319 246.503 114.738C245.77 115.145 245.193 115.721 244.774 116.468C244.355 117.201 244.145 118.027 244.145 118.943C244.145 119.86 244.355 120.692 244.774 121.439C245.193 122.173 245.77 122.749 246.503 123.168C247.237 123.574 248.062 123.777 248.979 123.777Z" fill="#363636"/>
<path d="M265.461 126.017C264.073 126.017 262.815 125.716 261.688 125.113C260.575 124.498 259.697 123.653 259.055 122.579C258.427 121.504 258.112 120.293 258.112 118.943C258.112 117.594 258.433 116.382 259.075 115.308C259.717 114.234 260.595 113.396 261.708 112.793C262.835 112.177 264.092 111.87 265.481 111.87C266.607 111.87 267.636 112.066 268.566 112.459C269.496 112.852 270.282 113.422 270.924 114.169L269.273 115.721C268.278 114.647 267.053 114.11 265.599 114.11C264.656 114.11 263.811 114.319 263.064 114.738C262.317 115.145 261.734 115.714 261.315 116.448C260.896 117.182 260.686 118.013 260.686 118.943C260.686 119.874 260.896 120.705 261.315 121.439C261.734 122.173 262.317 122.749 263.064 123.168C263.811 123.574 264.656 123.777 265.599 123.777C267.053 123.777 268.278 123.234 269.273 122.146L270.924 123.718C270.282 124.465 269.489 125.035 268.546 125.428C267.616 125.821 266.588 126.017 265.461 126.017Z" fill="#363636"/>
<path d="M279.19 126.017C277.29 126.017 275.81 125.487 274.749 124.426C273.688 123.352 273.158 121.819 273.158 119.828V112.066H275.712V119.729C275.712 122.428 276.878 123.777 279.21 123.777C281.528 123.777 282.688 122.428 282.688 119.729V112.066H285.203V119.828C285.203 121.819 284.672 123.352 283.611 124.426C282.563 125.487 281.089 126.017 279.19 126.017Z" fill="#363636"/>
<path d="M297.78 125.821L294.97 121.793C294.852 121.806 294.675 121.812 294.439 121.812H291.335V125.821H288.78V112.066H294.439C295.631 112.066 296.666 112.263 297.544 112.656C298.435 113.049 299.116 113.612 299.588 114.345C300.059 115.079 300.295 115.95 300.295 116.959C300.295 117.994 300.039 118.885 299.529 119.631C299.031 120.378 298.31 120.935 297.367 121.301L300.531 125.821H297.78ZM297.721 116.959C297.721 116.081 297.433 115.407 296.856 114.935C296.28 114.463 295.435 114.228 294.321 114.228H291.335V119.71H294.321C295.435 119.71 296.28 119.474 296.856 119.002C297.433 118.518 297.721 117.837 297.721 116.959Z" fill="#363636"/>
<path d="M312.152 125.821L309.342 121.793C309.225 121.806 309.048 121.812 308.812 121.812H305.707V125.821H303.153V112.066H308.812C310.004 112.066 311.039 112.263 311.917 112.656C312.807 113.049 313.489 113.612 313.96 114.345C314.432 115.079 314.668 115.95 314.668 116.959C314.668 117.994 314.412 118.885 313.901 119.631C313.403 120.378 312.683 120.935 311.74 121.301L314.903 125.821H312.152ZM312.093 116.959C312.093 116.081 311.805 115.407 311.229 114.935C310.652 114.463 309.808 114.228 308.694 114.228H305.707V119.71H308.694C309.808 119.71 310.652 119.474 311.229 119.002C311.805 118.518 312.093 117.837 312.093 116.959Z" fill="#363636"/>
<path d="M327.842 123.679V125.821H317.525V112.066H327.566V114.208H320.08V117.784H326.721V119.887H320.08V123.679H327.842Z" fill="#363636"/>
<path d="M342.911 112.066V125.821H340.809L333.224 116.507V125.821H330.689V112.066H332.792L340.376 121.38V112.066H342.911Z" fill="#363636"/>
<path d="M352.963 126.017C351.575 126.017 350.317 125.716 349.191 125.113C348.077 124.498 347.2 123.653 346.558 122.579C345.929 121.504 345.614 120.293 345.614 118.943C345.614 117.594 345.935 116.382 346.577 115.308C347.219 114.234 348.097 113.396 349.21 112.793C350.337 112.177 351.595 111.87 352.983 111.87C354.11 111.87 355.138 112.066 356.068 112.459C356.998 112.852 357.784 113.422 358.426 114.169L356.775 115.721C355.78 114.647 354.555 114.11 353.101 114.11C352.158 114.11 351.313 114.319 350.566 114.738C349.819 115.145 349.237 115.714 348.817 116.448C348.398 117.182 348.189 118.013 348.189 118.943C348.189 119.874 348.398 120.705 348.817 121.439C349.237 122.173 349.819 122.749 350.566 123.168C351.313 123.574 352.158 123.777 353.101 123.777C354.555 123.777 355.78 123.234 356.775 122.146L358.426 123.718C357.784 124.465 356.992 125.035 356.048 125.428C355.118 125.821 354.09 126.017 352.963 126.017Z" fill="#363636"/>
<path d="M366.616 120.967V125.821H364.061V121.007L358.658 112.066H361.389L365.417 118.767L369.485 112.066H372L366.616 120.967Z" fill="#363636"/>
<path d="M383.367 126.017C382.306 126.017 381.278 125.867 380.282 125.565C379.3 125.264 378.52 124.865 377.944 124.367L378.828 122.382C379.391 122.828 380.079 123.194 380.891 123.483C381.717 123.758 382.542 123.895 383.367 123.895C384.389 123.895 385.149 123.731 385.647 123.404C386.157 123.076 386.413 122.644 386.413 122.107C386.413 121.714 386.269 121.393 385.981 121.144C385.706 120.882 385.352 120.679 384.92 120.535C384.487 120.391 383.898 120.227 383.151 120.044C382.103 119.795 381.252 119.546 380.597 119.297C379.955 119.048 379.398 118.662 378.926 118.138C378.468 117.601 378.239 116.88 378.239 115.976C378.239 115.217 378.442 114.529 378.848 113.913C379.267 113.284 379.889 112.787 380.715 112.42C381.553 112.053 382.575 111.87 383.78 111.87C384.618 111.87 385.444 111.974 386.256 112.184C387.068 112.394 387.769 112.695 388.358 113.088L387.553 115.073C386.95 114.719 386.321 114.45 385.666 114.267C385.011 114.083 384.376 113.992 383.76 113.992C382.752 113.992 381.998 114.162 381.501 114.503C381.016 114.843 380.773 115.295 380.773 115.859C380.773 116.251 380.911 116.572 381.186 116.821C381.474 117.07 381.835 117.267 382.267 117.411C382.699 117.555 383.289 117.719 384.035 117.902C385.057 118.138 385.895 118.387 386.55 118.649C387.205 118.898 387.762 119.284 388.221 119.808C388.692 120.332 388.928 121.039 388.928 121.93C388.928 122.69 388.718 123.378 388.299 123.993C387.893 124.609 387.271 125.1 386.433 125.467C385.594 125.834 384.572 126.017 383.367 126.017Z" fill="#363636"/>
<path d="M401.777 123.679V125.821H391.461V112.066H401.502V114.208H394.015V117.784H400.657V119.887H394.015V123.679H401.777Z" fill="#363636"/>
<path d="M410.934 126.017C409.545 126.017 408.288 125.716 407.161 125.113C406.047 124.498 405.17 123.653 404.528 122.579C403.899 121.504 403.585 120.293 403.585 118.943C403.585 117.594 403.906 116.382 404.548 115.308C405.189 114.234 406.067 113.396 407.181 112.793C408.307 112.177 409.565 111.87 410.953 111.87C412.08 111.87 413.108 112.066 414.038 112.459C414.968 112.852 415.754 113.422 416.396 114.169L414.746 115.721C413.75 114.647 412.525 114.11 411.071 114.11C410.128 114.11 409.283 114.319 408.536 114.738C407.79 115.145 407.207 115.714 406.788 116.448C406.368 117.182 406.159 118.013 406.159 118.943C406.159 119.874 406.368 120.705 406.788 121.439C407.207 122.173 407.79 122.749 408.536 123.168C409.283 123.574 410.128 123.777 411.071 123.777C412.525 123.777 413.75 123.234 414.746 122.146L416.396 123.718C415.754 124.465 414.962 125.035 414.019 125.428C413.089 125.821 412.06 126.017 410.934 126.017Z" fill="#363636"/>
<path d="M424.662 126.017C422.763 126.017 421.283 125.487 420.222 124.426C419.161 123.352 418.63 121.819 418.63 119.828V112.066H421.184V119.729C421.184 122.428 422.35 123.777 424.682 123.777C427.001 123.777 428.16 122.428 428.16 119.729V112.066H430.675V119.828C430.675 121.819 430.145 123.352 429.084 124.426C428.036 125.487 426.562 126.017 424.662 126.017Z" fill="#363636"/>
<path d="M443.252 125.821L440.442 121.793C440.324 121.806 440.148 121.812 439.912 121.812H436.807V125.821H434.253V112.066H439.912C441.104 112.066 442.139 112.263 443.016 112.656C443.907 113.049 444.588 113.612 445.06 114.345C445.532 115.079 445.767 115.95 445.767 116.959C445.767 117.994 445.512 118.885 445.001 119.631C444.503 120.378 443.783 120.935 442.84 121.301L446.003 125.821H443.252ZM443.193 116.959C443.193 116.081 442.905 115.407 442.329 114.935C441.752 114.463 440.907 114.228 439.794 114.228H436.807V119.71H439.794C440.907 119.71 441.752 119.474 442.329 119.002C442.905 118.518 443.193 117.837 443.193 116.959Z" fill="#363636"/>
<path d="M448.625 112.066H451.18V125.821H448.625V112.066Z" fill="#363636"/>
<path d="M457.69 114.228H453.132V112.066H464.804V114.228H460.245V125.821H457.69V114.228Z" fill="#363636"/>
<path d="M472.463 120.967V125.821H469.908V121.007L464.505 112.066H467.236L471.264 118.767L475.332 112.066H477.847L472.463 120.967Z" fill="#363636"/>
<path d="M489.214 126.017C488.153 126.017 487.125 125.867 486.129 125.565C485.147 125.264 484.367 124.865 483.791 124.367L484.675 122.382C485.238 122.828 485.926 123.194 486.738 123.483C487.564 123.758 488.389 123.895 489.214 123.895C490.236 123.895 490.996 123.731 491.494 123.404C492.004 123.076 492.26 122.644 492.26 122.107C492.26 121.714 492.116 121.393 491.828 121.144C491.553 120.882 491.199 120.679 490.767 120.535C490.334 120.391 489.745 120.227 488.998 120.044C487.95 119.795 487.099 119.546 486.444 119.297C485.802 119.048 485.245 118.662 484.773 118.138C484.315 117.601 484.086 116.88 484.086 115.976C484.086 115.217 484.289 114.529 484.695 113.913C485.114 113.284 485.736 112.787 486.562 112.42C487.4 112.053 488.422 111.87 489.627 111.87C490.465 111.87 491.291 111.974 492.103 112.184C492.915 112.394 493.616 112.695 494.205 113.088L493.4 115.073C492.797 114.719 492.168 114.45 491.513 114.267C490.858 114.083 490.223 113.992 489.607 113.992C488.599 113.992 487.845 114.162 487.348 114.503C486.863 114.843 486.62 115.295 486.62 115.859C486.62 116.251 486.758 116.572 487.033 116.821C487.321 117.07 487.682 117.267 488.114 117.411C488.546 117.555 489.136 117.719 489.882 117.902C490.904 118.138 491.743 118.387 492.397 118.649C493.052 118.898 493.609 119.284 494.068 119.808C494.539 120.332 494.775 121.039 494.775 121.93C494.775 122.69 494.565 123.378 494.146 123.993C493.74 124.609 493.118 125.1 492.28 125.467C491.441 125.834 490.419 126.017 489.214 126.017Z" fill="#363636"/>
<path d="M499.906 114.228H495.348V112.066H507.02V114.228H502.461V125.821H499.906V114.228Z" fill="#363636"/>
<path d="M517.167 122.638H510.289L508.934 125.821H506.301L512.49 112.066H515.005L521.215 125.821H518.542L517.167 122.638ZM516.322 120.633L513.728 114.621L511.154 120.633H516.322Z" fill="#363636"/>
<path d="M535.186 112.066V125.821H533.083L525.499 116.507V125.821H522.964V112.066H525.066L532.651 121.38V112.066H535.186Z" fill="#363636"/>
<path d="M538.872 112.066H544.884C546.352 112.066 547.655 112.354 548.795 112.931C549.934 113.494 550.819 114.3 551.447 115.348C552.076 116.382 552.391 117.581 552.391 118.943C552.391 120.306 552.076 121.511 551.447 122.559C550.819 123.594 549.934 124.4 548.795 124.976C547.655 125.539 546.352 125.821 544.884 125.821H538.872V112.066ZM544.767 123.659C545.775 123.659 546.659 123.469 547.419 123.09C548.192 122.697 548.782 122.146 549.188 121.439C549.607 120.719 549.816 119.887 549.816 118.943C549.816 118 549.607 117.175 549.188 116.468C548.782 115.747 548.192 115.197 547.419 114.817C546.659 114.424 545.775 114.228 544.767 114.228H541.426V123.659H544.767Z" fill="#363636"/>
<path d="M563.835 122.638H556.957L555.601 125.821H552.968L559.158 112.066H561.673L567.882 125.821H565.21L563.835 122.638ZM562.99 120.633L560.396 114.621L557.822 120.633H562.99Z" fill="#363636"/>
<path d="M578.631 125.821L575.821 121.793C575.703 121.806 575.527 121.812 575.291 121.812H572.186V125.821H569.632V112.066H575.291C576.483 112.066 577.518 112.263 578.395 112.656C579.286 113.049 579.967 113.612 580.439 114.345C580.911 115.079 581.146 115.95 581.146 116.959C581.146 117.994 580.891 118.885 580.38 119.631C579.882 120.378 579.162 120.935 578.219 121.301L581.382 125.821H578.631ZM578.572 116.959C578.572 116.081 578.284 115.407 577.708 114.935C577.131 114.463 576.286 114.228 575.173 114.228H572.186V119.71H575.173C576.286 119.71 577.131 119.474 577.708 119.002C578.284 118.518 578.572 117.837 578.572 116.959Z" fill="#363636"/>
<path d="M584.004 112.066H590.017C591.484 112.066 592.788 112.354 593.927 112.931C595.067 113.494 595.951 114.3 596.58 115.348C597.209 116.382 597.523 117.581 597.523 118.943C597.523 120.306 597.209 121.511 596.58 122.559C595.951 123.594 595.067 124.4 593.927 124.976C592.788 125.539 591.484 125.821 590.017 125.821H584.004V112.066ZM589.899 123.659C590.908 123.659 591.792 123.469 592.552 123.09C593.325 122.697 593.914 122.146 594.32 121.439C594.74 120.719 594.949 119.887 594.949 118.943C594.949 118 594.74 117.175 594.32 116.468C593.914 115.747 593.325 115.197 592.552 114.817C591.792 114.424 590.908 114.228 589.899 114.228H586.559V123.659H589.899Z" fill="#363636"/>
<g filter="url(#filter0_d)">
<path d="M133.98 63.3436C133.98 53.3435 143.957 45.9953 144.508 45.6086L145.154 45.1797C149.104 42.5587 150.148 37.2137 147.474 33.2993L130.673 8.70208L130.132 7.90846C127.334 3.81016 121.636 2.96822 117.773 6.08234L117.059 6.65786C114.689 8.53634 107.083 13.3983 100.358 13.3983C92.917 13.3983 84.8146 8.48109 82.3894 6.60261L81.9329 6.23831C78.8686 3.79302 74.5297 3.75982 71.4284 6.15793L70.9248 6.54736C68.4444 8.42584 60.342 13.3983 52.901 13.3983C46.1766 13.3983 38.5702 8.53634 36.2001 6.71311L35.4911 6.13665C31.6304 2.99744 25.911 3.82982 23.1052 7.93925L6.32587 32.5145L5.8393 33.2141C3.11341 37.1332 4.14758 42.5279 8.12955 45.1611L8.80621 45.6086C9.35739 45.9953 19.3338 53.3435 19.3338 63.3436C19.3338 71.5757 15.8063 78.4266 7.86919 85.609L7.28506 86.1365C4.11833 88.9962 3.56151 93.76 5.98338 97.2729L6.43611 97.9296C34.5465 138.869 72.0271 152.35 73.6256 152.903L73.8465 152.982C75.6994 153.645 77.725 153.645 79.5779 152.982L79.7988 152.903C81.3973 152.35 118.878 138.869 146.988 97.9296L147.441 97.2729C149.863 93.76 149.306 88.9962 146.139 86.1365L145.555 85.609C137.508 78.4266 133.98 71.5757 133.98 63.3436Z" fill="#068B4B"/>
</g>
<g filter="url(#filter1_d)">
<path d="M17.2576 38.5936C16.7517 38.1595 16.3048 37.7974 15.9381 37.5104L30.6789 15.9228C30.9155 16.0922 31.1859 16.282 31.4876 16.4883C32.7258 17.3347 34.4984 18.4613 36.6448 19.5884C40.9126 21.8295 46.7749 24.1349 52.903 24.1349C59.4003 24.1349 65.5425 21.841 70.0075 19.5997C72.2506 18.4737 74.096 17.348 75.3834 16.5019C75.8732 16.18 76.283 15.898 76.604 15.6713C76.925 15.898 77.3348 16.18 77.8246 16.5019C79.112 17.348 80.9574 18.4737 83.2005 19.5997C87.6655 21.841 93.8077 24.1349 100.305 24.1349C106.46 24.1349 112.322 21.83 116.585 19.588C118.728 18.4606 120.496 17.3337 121.73 16.487C122.029 16.2822 122.296 16.0936 122.531 15.9251L137.27 37.5104C136.903 37.7974 136.456 38.1595 135.95 38.5936C134.537 39.8065 132.653 41.5893 130.768 43.8751C127.009 48.4313 123.157 55.0937 123.157 63.2877L123.157 63.2995C123.268 75.9545 129.337 85.2484 137.391 92.7682C124.321 111.503 109.136 123.94 97.1478 131.718C91.0527 135.673 85.7881 138.42 82.055 140.176C80.1887 141.054 78.7058 141.683 77.6942 142.092C77.2278 142.28 76.8617 142.422 76.6044 142.519C76.3475 142.422 75.9821 142.281 75.5168 142.092C74.5067 141.684 73.026 141.054 71.1623 140.176C67.4344 138.42 62.1766 135.673 56.0884 131.719C44.1137 123.941 28.9419 111.503 15.8722 92.7682C23.9271 85.2475 30.0509 75.8996 30.0509 63.2877C30.0509 55.0937 26.1987 48.4313 22.4403 43.8751C20.5548 41.5893 18.6713 39.8065 17.2576 38.5936ZM123.609 15.119L138.35 36.7071L123.609 15.119Z" stroke="white" stroke-width="2.68982" stroke-miterlimit="10" stroke-linejoin="round"/>
</g>
<g filter="url(#filter2_d)">
<path d="M49.4407 79.7282C54.7022 79.7282 57.7035 76.801 57.8147 71.3542H52.5532C52.4049 73.6515 51.4786 74.6149 49.4407 74.6149C47.8104 74.6149 46.9211 73.5774 46.9211 71.3542V61.2757C46.9211 58.9785 47.8474 57.941 49.4407 57.941C51.4416 57.941 52.3308 58.9043 52.479 61.2757H57.7406C57.5553 55.7919 54.6652 52.8276 49.4777 52.8276C44.4015 52.8276 41.4372 55.7919 41.4372 61.2757V71.3542C41.4372 76.801 44.4015 79.7282 49.4407 79.7282Z" fill="white"/>
<path d="M68.112 79.7282C73.3735 79.7282 76.3748 76.801 76.486 71.3542H71.2244C71.0762 73.6515 70.1499 74.6149 68.112 74.6149C66.4816 74.6149 65.5924 73.5774 65.5924 71.3542V61.2757C65.5924 58.9785 66.5187 57.941 68.112 57.941C70.1128 57.941 71.0021 58.9043 71.1503 61.2757H76.4119C76.2266 55.7919 73.3365 52.8276 68.149 52.8276C63.0728 52.8276 60.1085 55.7919 60.1085 61.2757V71.3542C60.1085 76.801 63.0728 79.7282 68.112 79.7282Z" fill="white"/>
<path d="M85.9681 79.8023C91.1185 79.8023 94.1198 76.6898 94.1198 72.4287C94.1198 64.1659 83.819 63.9065 83.819 59.8307C83.819 58.645 84.6342 57.9039 86.0051 57.9039C87.5243 57.9039 88.3024 58.7561 88.3024 60.4606H93.7122C93.7122 55.6807 90.822 52.8276 86.0422 52.8276C81.2624 52.8276 78.4834 55.7178 78.4834 59.6825C78.4834 67.5748 88.6359 68.0935 88.6359 72.3917C88.6359 73.6885 87.7837 74.689 86.0422 74.689C84.3748 74.689 83.3373 73.7997 83.3373 71.7247H77.9276C77.9276 76.9492 81.04 79.8023 85.9681 79.8023Z" fill="white"/>
<path d="M103.699 79.8023C108.849 79.8023 111.85 76.6898 111.85 72.4287C111.85 64.1659 101.549 63.9065 101.549 59.8307C101.549 58.645 102.365 57.9039 103.736 57.9039C105.255 57.9039 106.033 58.7561 106.033 60.4606H111.443C111.443 55.6807 108.553 52.8276 103.773 52.8276C98.9928 52.8276 96.2138 55.7178 96.2138 59.6825C96.2138 67.5748 106.366 68.0935 106.366 72.3917C106.366 73.6885 105.514 74.689 103.773 74.689C102.105 74.689 101.068 73.7997 101.068 71.7247H95.658C95.658 76.9492 98.7705 79.8023 103.699 79.8023Z" fill="white"/>
<path d="M44.9124 101.504V87.5692H41.4102V104.834H50.0425V101.504H44.9124Z" fill="white"/>
<path d="M55.2212 101.504V97.6814H60.1293V94.4751H55.2212V90.8989H60.6226V87.5692H51.7189V104.834H60.8692V101.504H55.2212Z" fill="white"/>
<path d="M65.8951 104.834H69.5946L73.6888 87.5692H70.0632L68.5094 95.733C68.2628 96.9909 67.9668 99.1119 67.7942 100.542H67.6955C67.5229 99.1119 67.2269 96.9909 66.9803 95.733L65.4264 87.5692H61.8008L65.8951 104.834Z" fill="white"/>
<path d="M78.8012 101.504V97.6814H83.7093V94.4751H78.8012V90.8989H84.2026V87.5692H75.2989V104.834H84.4492V101.504H78.8012Z" fill="white"/>
<path d="M90.3383 101.504V87.5692H86.8361V104.834H95.4684V101.504H90.3383Z" fill="white"/>
<path d="M107.336 94.2038L110.049 89.7643V87.5692H101.416V90.6029H106.029L103.686 94.4751V96.6456H105.313C106.473 96.6456 107.064 97.0402 107.064 98.6927V99.5559C107.064 101.159 106.793 101.874 105.609 101.874C104.598 101.874 104.228 101.258 104.129 100.074H100.825C100.973 103.28 102.576 105.13 105.634 105.13C109.087 105.13 110.419 103.231 110.419 99.6299V98.5693C110.419 96.4976 109.26 94.4998 107.336 94.2038Z" fill="white"/>
</g>
<defs>
<filter id="filter0_d" x="4.31641" y="4.19873" width="144.641" height="152.774" filterUnits="userSpaceOnUse" color-interpolation-filters="sRGB">
<feFlood flood-opacity="0" result="BackgroundImageFix"/>
<feColorMatrix in="SourceAlpha" type="matrix" values="0 0 0 0 0 0 0 0 0 0 0 0 0 0 0 0 0 0 127 0"/>
<feOffset dy="3.49327"/>
<feColorMatrix type="matrix" values="0 0 0 0 0.0379167 0 0 0 0 0.379167 0 0 0 0 0.230077 0 0 0 1 0"/>
<feBlend mode="normal" in2="BackgroundImageFix" result="effect1_dropShadow"/>
<feBlend mode="normal" in="SourceGraphic" in2="effect1_dropShadow" result="shape"/>
</filter>
<filter id="filter1_d" x="14.0996" y="14.0054" width="125.064" height="131.693" filterUnits="userSpaceOnUse" color-interpolation-filters="sRGB">
<feFlood flood-opacity="0" result="BackgroundImageFix"/>
<feColorMatrix in="SourceAlpha" type="matrix" values="0 0 0 0 0 0 0 0 0 0 0 0 0 0 0 0 0 0 127 0"/>
<feOffset dy="1.74663"/>
<feColorMatrix type="matrix" values="0 0 0 0 0.0392157 0 0 0 0 0.380392 0 0 0 0 0.231373 0 0 0 1 0"/>
<feBlend mode="normal" in2="BackgroundImageFix" result="effect1_dropShadow"/>
<feBlend mode="normal" in="SourceGraphic" in2="effect1_dropShadow" result="shape"/>
</filter>
<filter id="filter2_d" x="41.4102" y="52.8276" width="70.4401" height="53.1756" filterUnits="userSpaceOnUse" color-interpolation-filters="sRGB">
<feFlood flood-opacity="0" result="BackgroundImageFix"/>
<feColorMatrix in="SourceAlpha" type="matrix" values="0 0 0 0 0 0 0 0 0 0 0 0 0 0 0 0 0 0 127 0"/>
<feOffset dy="0.873317"/>
<feColorMatrix type="matrix" values="0 0 0 0 0.0392157 0 0 0 0 0.380392 0 0 0 0 0.231373 0 0 0 1 0"/>
<feBlend mode="normal" in2="BackgroundImageFix" result="effect1_dropShadow"/>
<feBlend mode="normal" in="SourceGraphic" in2="effect1_dropShadow" result="shape"/>
</filter>
</defs>
</svg>
