<svg width="471" height="167" viewBox="0 0 471 167" fill="none" xmlns="http://www.w3.org/2000/svg">
<path d="M206.47 84.625C202.734 84.625 199.107 84.1635 195.591 83.2404C192.074 82.3173 189.217 81.0865 187.019 79.548L191.305 69.9216C193.371 71.2842 195.767 72.3831 198.492 73.2183C201.217 74.0535 203.899 74.4711 206.536 74.4711C211.547 74.4711 214.053 73.2183 214.053 70.7128C214.053 69.3941 213.327 68.427 211.877 67.8117C210.47 67.1523 208.184 66.471 205.02 65.7677C201.547 65.0204 198.646 64.2292 196.316 63.394C193.987 62.5149 191.987 61.1303 190.316 59.2401C188.646 57.35 187.811 54.8005 187.811 51.5917C187.811 48.7785 188.58 46.251 190.118 44.0092C191.657 41.7235 193.943 39.9213 196.976 38.6026C200.053 37.2839 203.811 36.6245 208.25 36.6245C211.283 36.6245 214.272 36.9762 217.218 37.6795C220.163 38.3388 222.756 39.3278 224.998 40.6465L220.976 50.3389C216.58 47.9653 212.316 46.7785 208.184 46.7785C205.591 46.7785 203.701 47.1741 202.514 47.9653C201.327 48.7126 200.734 49.7016 200.734 50.9324C200.734 52.1631 201.437 53.0862 202.844 53.7016C204.25 54.317 206.514 54.9544 209.635 55.6137C213.152 56.361 216.053 57.1742 218.338 58.0533C220.668 58.8885 222.668 60.2511 224.339 62.1413C226.053 63.9874 226.91 66.5149 226.91 69.7238C226.91 72.493 226.141 74.9985 224.602 77.2403C223.064 79.4821 220.756 81.2843 217.679 82.647C214.602 83.9657 210.866 84.625 206.47 84.625Z" fill="#05041B"/>
<path d="M256.215 84.625C251.336 84.625 246.941 83.592 243.028 81.5261C239.16 79.4601 236.105 76.603 233.864 72.9546C231.666 69.3062 230.567 65.1962 230.567 60.6248C230.567 56.0533 231.666 51.9434 233.864 48.295C236.105 44.6466 239.16 41.7894 243.028 39.7234C246.941 37.6575 251.336 36.6245 256.215 36.6245C261.095 36.6245 265.468 37.6575 269.336 39.7234C273.249 41.7894 276.304 44.6466 278.501 48.295C280.743 51.9434 281.864 56.0533 281.864 60.6248C281.864 65.1962 280.743 69.3062 278.501 72.9546C276.304 76.603 273.249 79.4601 269.336 81.5261C265.468 83.592 261.095 84.625 256.215 84.625ZM256.215 73.8117C258.545 73.8117 260.655 73.2623 262.545 72.1634C264.435 71.0644 265.93 69.526 267.029 67.5479C268.128 65.5259 268.677 63.2182 268.677 60.6248C268.677 58.0313 268.128 55.7456 267.029 53.7676C265.93 51.7456 264.435 50.1851 262.545 49.0862C260.655 47.9873 258.545 47.4378 256.215 47.4378C253.886 47.4378 251.776 47.9873 249.886 49.0862C247.996 50.1851 246.501 51.7456 245.402 53.7676C244.303 55.7456 243.754 58.0313 243.754 60.6248C243.754 63.2182 244.303 65.5259 245.402 67.5479C246.501 69.526 247.996 71.0644 249.886 72.1634C251.776 73.2623 253.886 73.8117 256.215 73.8117Z" fill="#05041B"/>
<path d="M311.713 84.625C306.878 84.625 302.526 83.614 298.658 81.592C294.834 79.5261 291.823 76.6689 289.625 73.0205C287.427 69.3721 286.328 65.2402 286.328 60.6248C286.328 56.0093 287.427 51.8774 289.625 48.229C291.823 44.5806 294.834 41.7454 298.658 39.7234C302.526 37.6575 306.878 36.6245 311.713 36.6245C315.933 36.6245 319.735 37.3718 323.12 38.8663C326.504 40.3608 329.317 42.5147 331.559 45.3279L323.251 52.8445C320.262 49.24 316.636 47.4378 312.372 47.4378C309.867 47.4378 307.625 47.9873 305.647 49.0862C303.713 50.1851 302.196 51.7456 301.097 53.7676C300.042 55.7456 299.515 58.0313 299.515 60.6248C299.515 63.2182 300.042 65.5259 301.097 67.5479C302.196 69.526 303.713 71.0644 305.647 72.1634C307.625 73.2623 309.867 73.8117 312.372 73.8117C316.636 73.8117 320.262 72.0095 323.251 68.4051L331.559 75.9216C329.317 78.7349 326.504 80.8887 323.12 82.3832C319.735 83.8778 315.933 84.625 311.713 84.625Z" fill="#05041B"/>
<path d="M389.865 73.3502V83.7019H353.931V75.526L371.206 59.372C372.876 57.7896 373.997 56.4489 374.568 55.35C375.14 54.2071 375.425 53.0642 375.425 51.9214C375.425 50.4269 374.92 49.262 373.909 48.4268C372.898 47.5917 371.425 47.1741 369.491 47.1741C367.777 47.1741 366.195 47.5697 364.744 48.3609C363.337 49.1082 362.173 50.2071 361.249 51.6576L351.557 46.251C353.359 43.2619 355.887 40.9103 359.14 39.196C362.392 37.4817 366.239 36.6245 370.678 36.6245C374.195 36.6245 377.294 37.1959 379.975 38.3388C382.7 39.4817 384.81 41.1301 386.305 43.2839C387.843 45.3938 388.612 47.8554 388.612 50.6686C388.612 53.1741 388.063 55.5478 386.964 57.7896C385.909 59.9874 383.843 62.4929 380.766 65.3061L372.063 73.3502H389.865Z" fill="#05041B"/>
<path d="M195.045 106.061H185.789V102.706H208.118V106.061H198.863V129.702H195.045V106.061Z" fill="#05041B"/>
<path d="M228.586 109.262L218.674 131.746C217.8 133.828 216.772 135.294 215.589 136.142C214.432 136.991 213.031 137.415 211.385 137.415C210.383 137.415 209.406 137.248 208.454 136.914C207.529 136.605 206.758 136.142 206.141 135.525L207.722 132.749C208.776 133.751 209.997 134.253 211.385 134.253C212.285 134.253 213.031 134.008 213.622 133.52C214.239 133.057 214.792 132.247 215.281 131.09L215.936 129.663L206.912 109.262H210.768L217.903 125.614L224.96 109.262H228.586Z" fill="#05041B"/>
<path d="M242.878 109.069C244.857 109.069 246.631 109.506 248.2 110.381C249.768 111.255 250.989 112.476 251.864 114.044C252.763 115.613 253.213 117.425 253.213 119.482C253.213 121.539 252.763 123.364 251.864 124.958C250.989 126.527 249.768 127.748 248.2 128.622C246.631 129.496 244.857 129.933 242.878 129.933C241.412 129.933 240.062 129.651 238.828 129.085C237.62 128.519 236.592 127.697 235.743 126.617V137.184H232.041V109.262H235.589V112.502C236.412 111.37 237.453 110.522 238.713 109.956C239.972 109.365 241.361 109.069 242.878 109.069ZM242.569 126.694C243.88 126.694 245.05 126.398 246.079 125.807C247.133 125.19 247.956 124.341 248.547 123.262C249.164 122.156 249.472 120.896 249.472 119.482C249.472 118.068 249.164 116.821 248.547 115.741C247.956 114.636 247.133 113.787 246.079 113.196C245.05 112.605 243.88 112.309 242.569 112.309C241.284 112.309 240.114 112.617 239.06 113.234C238.031 113.826 237.209 114.661 236.592 115.741C236 116.821 235.705 118.068 235.705 119.482C235.705 120.896 236 122.156 236.592 123.262C237.183 124.341 238.006 125.19 239.06 125.807C240.114 126.398 241.284 126.694 242.569 126.694Z" fill="#05041B"/>
<path d="M276.802 119.598C276.802 119.881 276.776 120.253 276.724 120.716H260.141C260.373 122.516 261.157 123.969 262.494 125.074C263.856 126.154 265.54 126.694 267.546 126.694C269.988 126.694 271.955 125.871 273.446 124.226L275.49 126.617C274.565 127.697 273.408 128.519 272.019 129.085C270.657 129.651 269.127 129.933 267.43 129.933C265.27 129.933 263.355 129.496 261.684 128.622C260.013 127.722 258.714 126.475 257.789 124.881C256.889 123.287 256.439 121.487 256.439 119.482C256.439 117.502 256.876 115.716 257.75 114.121C258.65 112.527 259.871 111.293 261.414 110.419C262.982 109.519 264.743 109.069 266.697 109.069C268.651 109.069 270.387 109.519 271.904 110.419C273.446 111.293 274.642 112.527 275.49 114.121C276.364 115.716 276.802 117.541 276.802 119.598ZM266.697 112.193C264.923 112.193 263.432 112.733 262.224 113.813C261.041 114.893 260.347 116.307 260.141 118.055H273.254C273.048 116.333 272.341 114.931 271.132 113.852C269.95 112.746 268.471 112.193 266.697 112.193Z" fill="#05041B"/>
<path d="M292.839 102.706H296.696V129.702H292.839V102.706Z" fill="#05041B"/>
<path d="M334.881 130.126L331.294 126.54C328.903 128.854 325.895 130.01 322.27 130.01C320.47 130.01 318.85 129.715 317.41 129.123C315.971 128.532 314.839 127.709 314.017 126.655C313.22 125.575 312.821 124.354 312.821 122.992C312.821 121.346 313.322 119.893 314.325 118.634C315.354 117.348 317.038 116.037 319.377 114.7C318.195 113.517 317.359 112.45 316.87 111.499C316.382 110.548 316.138 109.558 316.138 108.529C316.138 106.704 316.793 105.239 318.105 104.133C319.442 103.027 321.216 102.475 323.427 102.475C325.483 102.475 327.116 102.976 328.324 103.979C329.533 104.981 330.137 106.357 330.137 108.105C330.137 109.468 329.687 110.689 328.787 111.769C327.913 112.849 326.448 113.98 324.391 115.163L331.063 121.796C331.834 120.331 332.387 118.698 332.721 116.898L335.69 117.862C335.228 120.228 334.443 122.285 333.338 124.033L336.963 127.658L334.881 130.126ZM323.427 105.174C322.218 105.174 321.267 105.483 320.573 106.1C319.904 106.691 319.57 107.475 319.57 108.452C319.57 109.147 319.75 109.815 320.11 110.458C320.496 111.101 321.228 111.975 322.308 113.08C324.082 112.078 325.303 111.216 325.972 110.496C326.666 109.776 327.013 108.992 327.013 108.144C327.013 107.244 326.692 106.524 326.049 105.984C325.432 105.444 324.558 105.174 323.427 105.174ZM322.501 126.925C325.175 126.925 327.373 126.077 329.096 124.38L321.421 116.744C319.57 117.772 318.272 118.736 317.526 119.636C316.806 120.51 316.446 121.5 316.446 122.606C316.446 123.891 316.999 124.933 318.105 125.73C319.236 126.527 320.701 126.925 322.501 126.925Z" fill="#05041B"/>
<path d="M357.291 106.061H348.035V102.706H370.365V106.061H361.109V129.702H357.291V106.061Z" fill="#05041B"/>
<path d="M390.832 109.262L380.921 131.746C380.046 133.828 379.018 135.294 377.835 136.142C376.678 136.991 375.277 137.415 373.632 137.415C372.629 137.415 371.652 137.248 370.701 136.914C369.775 136.605 369.004 136.142 368.387 135.525L369.968 132.749C371.022 133.751 372.243 134.253 373.632 134.253C374.532 134.253 375.277 134.008 375.868 133.52C376.486 133.057 377.038 132.247 377.527 131.09L378.182 129.663L369.158 109.262H373.015L380.149 125.614L387.207 109.262H390.832Z" fill="#05041B"/>
<path d="M405.124 109.069C407.104 109.069 408.878 109.506 410.446 110.381C412.014 111.255 413.236 112.476 414.11 114.044C415.01 115.613 415.46 117.425 415.46 119.482C415.46 121.539 415.01 123.364 414.11 124.958C413.236 126.527 412.014 127.748 410.446 128.622C408.878 129.496 407.104 129.933 405.124 129.933C403.659 129.933 402.309 129.651 401.075 129.085C399.866 128.519 398.838 127.697 397.989 126.617V137.184H394.287V109.262H397.835V112.502C398.658 111.37 399.699 110.522 400.959 109.956C402.219 109.365 403.607 109.069 405.124 109.069ZM404.816 126.694C406.127 126.694 407.297 126.398 408.325 125.807C409.379 125.19 410.202 124.341 410.793 123.262C411.41 122.156 411.719 120.896 411.719 119.482C411.719 118.068 411.41 116.821 410.793 115.741C410.202 114.636 409.379 113.787 408.325 113.196C407.297 112.605 406.127 112.309 404.816 112.309C403.53 112.309 402.36 112.617 401.306 113.234C400.278 113.826 399.455 114.661 398.838 115.741C398.247 116.821 397.951 118.068 397.951 119.482C397.951 120.896 398.247 122.156 398.838 123.262C399.429 124.341 400.252 125.19 401.306 125.807C402.36 126.398 403.53 126.694 404.816 126.694Z" fill="#05041B"/>
<path d="M439.048 119.598C439.048 119.881 439.022 120.253 438.971 120.716H422.388C422.619 122.516 423.403 123.969 424.74 125.074C426.103 126.154 427.787 126.694 429.792 126.694C432.235 126.694 434.201 125.871 435.693 124.226L437.737 126.617C436.811 127.697 435.654 128.519 434.266 129.085C432.903 129.651 431.373 129.933 429.676 129.933C427.517 129.933 425.601 129.496 423.93 128.622C422.259 127.722 420.961 126.475 420.035 124.881C419.135 123.287 418.685 121.487 418.685 119.482C418.685 117.502 419.122 115.716 419.996 114.121C420.896 112.527 422.118 111.293 423.66 110.419C425.229 109.519 426.99 109.069 428.944 109.069C430.898 109.069 432.633 109.519 434.15 110.419C435.693 111.293 436.888 112.527 437.737 114.121C438.611 115.716 439.048 117.541 439.048 119.598ZM428.944 112.193C427.17 112.193 425.678 112.733 424.47 113.813C423.287 114.893 422.593 116.307 422.388 118.055H435.5C435.294 116.333 434.587 114.931 433.379 113.852C432.196 112.746 430.718 112.193 428.944 112.193Z" fill="#05041B"/>
<path d="M455.086 102.706H458.942V129.702H455.086V102.706Z" fill="#05041B"/>
<path d="M467.024 102.706H470.881V129.702H467.024V102.706Z" fill="#05041B"/>
<g filter="url(#filter0_d)">
<path d="M137.397 89.5728C132.732 105.527 125.846 119.48 116.961 131.016C105.76 145.541 91.3536 156.251 74.1865 162.798C73.6471 163.021 73.0759 163.116 72.5047 163.116C71.9335 163.116 71.3623 163.021 70.8229 162.798C53.6241 156.251 39.2494 145.573 28.048 131.016C19.163 119.48 12.2771 105.559 7.61251 89.5728C-0.288792 62.5899 0.821832 39.3573 0.853564 38.4038C0.94876 36.6876 1.93246 35.1621 3.48733 34.3993L70.3469 0.869351C71.0133 0.551532 71.7431 0.36084 72.473 0.36084C73.2028 0.36084 73.9326 0.51975 74.599 0.869351L141.522 34.3675C143.045 35.1303 144.061 36.6558 144.156 38.3721C144.188 39.3573 145.298 62.5899 137.397 89.5728Z" fill="#29437B"/>
</g>
<path d="M118.891 49.8776C118.891 49.8776 72.9428 26.9946 72.4668 26.9946V139.185C77.6074 136.801 94.8379 124.629 102.39 114.84C108.356 107.085 112.989 97.7095 116.13 86.9672C121.429 68.8197 120.7 53.2147 120.668 52.5473C120.604 51.435 119.938 50.3862 118.891 49.8776Z" fill="#008AC0"/>
<path d="M26.0446 49.8767C25.0292 50.3852 24.3311 51.434 24.2676 52.5781C24.2359 53.2455 23.5061 68.8505 28.8053 86.998C31.9468 97.7403 36.5797 107.116 42.5453 114.871C50.0659 124.628 67.3281 136.832 72.4687 139.216V27.0254C71.9927 26.9936 26.0446 49.8767 26.0446 49.8767Z" fill="#00A6E7"/>
<g filter="url(#filter1_d)">
<path d="M72.2459 78.0015L49.5891 55.2774C47.939 53.6247 47.939 50.9233 49.5891 49.2706C51.2392 47.6179 53.9364 47.6179 55.5865 49.2706L72.2459 65.9561L101.915 36.24C103.565 34.5873 106.263 34.5873 107.913 36.24C109.563 37.8926 109.563 40.5941 107.913 42.2468L72.2459 78.0015Z" fill="white"/>
</g>
<path d="M72.25 65.9561L101.92 36.24C103.57 34.5873 106.267 34.5873 107.917 36.24C109.567 37.8926 109.567 40.5941 107.917 42.2468L72.25 78.0015V65.9561Z" fill="#E2E2E2"/>
<g filter="url(#filter2_d)">
<path d="M18.588 92.5968C17.2334 89.1968 19.738 85.5029 23.3979 85.5029H122.275C125.935 85.5029 128.44 89.1968 127.085 92.5968L114.974 122.996C113.629 126.372 110.362 128.587 106.728 128.587H38.9452C35.3114 128.587 32.0446 126.372 30.6997 122.996L18.588 92.5968Z" fill="white"/>
</g>
<path d="M72.1934 85.4819L122.279 85.5008C125.938 85.5022 128.441 89.1955 127.087 92.5947L114.974 122.997C113.629 126.373 110.362 128.588 106.729 128.588H72.4079L72.1934 85.4819Z" fill="#E2E2E2"/>
<path d="M39.4728 99.689C39.4728 97.3981 40.0254 95.6462 41.1304 94.4334C42.2354 93.1936 43.866 92.5737 46.0222 92.5737C48.1783 92.5737 49.8089 93.1936 50.9139 94.4334C52.019 95.6462 52.5715 97.3981 52.5715 99.689V100.578H48.367V99.406C48.367 98.4358 48.1783 97.735 47.801 97.3038C47.4237 96.8456 46.8711 96.6165 46.1434 96.6165C45.4157 96.6165 44.8632 96.8456 44.4859 97.3038C44.1086 97.735 43.9199 98.4358 43.9199 99.406C43.9199 100.592 44.2299 101.63 44.8498 102.519C45.4966 103.408 46.4534 104.419 47.7201 105.551C48.7713 106.521 49.6202 107.384 50.2671 108.138C50.9139 108.866 51.4664 109.756 51.9246 110.807C52.3828 111.858 52.6119 113.057 52.6119 114.405C52.6119 116.696 52.0459 118.461 50.9139 119.701C49.7819 120.914 48.1379 121.52 45.9817 121.52C43.8256 121.52 42.1815 120.914 41.0495 119.701C39.9176 118.461 39.3516 116.696 39.3516 114.405V112.666H43.5561V114.688C43.5561 116.52 44.3242 117.437 45.8604 117.437C47.3967 117.437 48.1648 116.52 48.1648 114.688C48.1648 113.502 47.8414 112.464 47.1946 111.575C46.5747 110.685 45.6314 109.675 44.3646 108.543C43.3135 107.572 42.4645 106.723 41.8177 105.996C41.1708 105.241 40.6183 104.338 40.1601 103.287C39.7019 102.236 39.4728 101.037 39.4728 99.689Z" fill="#29437B"/>
<path d="M54.7959 99.689C54.7959 97.4251 55.3754 95.6732 56.5343 94.4334C57.6933 93.1936 59.3643 92.5737 61.5474 92.5737C63.7305 92.5737 65.4015 93.1936 66.5605 94.4334C67.7194 95.6732 68.2989 97.4251 68.2989 99.689V114.405C68.2989 116.669 67.7194 118.421 66.5605 119.66C65.4015 120.9 63.7305 121.52 61.5474 121.52C59.3643 121.52 57.6933 120.9 56.5343 119.66C55.3754 118.421 54.7959 116.669 54.7959 114.405V99.689ZM59.243 114.688C59.243 116.547 60.0111 117.477 61.5474 117.477C63.0837 117.477 63.8518 116.547 63.8518 114.688V99.406C63.8518 97.5464 63.0837 96.6165 61.5474 96.6165C60.0111 96.6165 59.243 97.5464 59.243 99.406V114.688Z" fill="#29437B"/>
<path d="M84.0853 114.405C84.0853 116.696 83.5193 118.461 82.3873 119.701C81.2553 120.914 79.6113 121.52 77.4551 121.52C75.299 121.52 73.6549 120.914 72.5229 119.701C71.391 118.461 70.825 116.696 70.825 114.405V99.689C70.825 97.3981 71.391 95.6462 72.5229 94.4334C73.6549 93.1936 75.299 92.5737 77.4551 92.5737C79.6113 92.5737 81.2553 93.1936 82.3873 94.4334C83.5193 95.6462 84.0853 97.3981 84.0853 99.689V102.438H79.8808V99.406C79.8808 97.5464 79.1127 96.6165 77.5764 96.6165C76.0402 96.6165 75.272 97.5464 75.272 99.406V114.688C75.272 116.52 76.0402 117.437 77.5764 117.437C79.1127 117.437 79.8808 116.52 79.8808 114.688V110.645H84.0853V114.405Z" fill="#29437B"/>
<path d="M101.874 99.8507C101.874 98.6379 101.672 97.8024 101.268 97.3442C100.89 96.8591 100.324 96.6165 99.5698 96.6165C98.0335 96.6165 97.2654 97.5464 97.2654 99.406V102.438H93.0609V99.689C93.0609 97.3981 93.6269 95.6462 94.7589 94.4334C95.8909 93.1936 97.5349 92.5737 99.6911 92.5737C101.847 92.5737 103.491 93.1936 104.623 94.4334C105.755 95.6462 106.321 97.3981 106.321 99.689C106.321 101.279 106.052 102.748 105.513 104.096C105.001 105.416 104.381 106.562 103.653 107.532C102.925 108.502 101.982 109.621 100.823 110.888C99.6641 112.181 98.8151 113.232 98.2761 114.041C97.7371 114.849 97.4675 115.685 97.4675 116.547C97.4675 116.817 97.481 117.019 97.508 117.154H105.917V121.197H93.0609V117.72C93.0609 116.399 93.2631 115.227 93.6673 114.203C94.0716 113.152 94.5702 112.235 95.1632 111.454C95.7561 110.672 96.5377 109.756 97.508 108.704C98.5052 107.599 99.2868 106.683 99.8528 105.955C100.419 105.201 100.89 104.311 101.268 103.287C101.672 102.263 101.874 101.117 101.874 99.8507Z" fill="#29437B"/>
<defs>
<filter id="filter0_d" x="0.783203" y="0.36084" width="143.443" height="165.714" filterUnits="userSpaceOnUse" color-interpolation-filters="sRGB">
<feFlood flood-opacity="0" result="BackgroundImageFix"/>
<feColorMatrix in="SourceAlpha" type="matrix" values="0 0 0 0 0 0 0 0 0 0 0 0 0 0 0 0 0 0 127 0"/>
<feOffset dy="2.95861"/>
<feColorMatrix type="matrix" values="0 0 0 0 0.0798611 0 0 0 0 0.18329 0 0 0 0 0.416667 0 0 0 1 0"/>
<feBlend mode="normal" in2="BackgroundImageFix" result="effect1_dropShadow"/>
<feBlend mode="normal" in="SourceGraphic" in2="effect1_dropShadow" result="shape"/>
</filter>
<filter id="filter1_d" x="48.3516" y="35.0005" width="60.7988" height="44.4803" filterUnits="userSpaceOnUse" color-interpolation-filters="sRGB">
<feFlood flood-opacity="0" result="BackgroundImageFix"/>
<feColorMatrix in="SourceAlpha" type="matrix" values="0 0 0 0 0 0 0 0 0 0 0 0 0 0 0 0 0 0 127 0"/>
<feOffset dy="1.47931"/>
<feColorMatrix type="matrix" values="0 0 0 0 0.745098 0 0 0 0 0.745098 0 0 0 0 0.745098 0 0 0 1 0"/>
<feBlend mode="normal" in2="BackgroundImageFix" result="effect1_dropShadow"/>
<feBlend mode="normal" in="SourceGraphic" in2="effect1_dropShadow" result="shape"/>
</filter>
<filter id="filter2_d" x="18.2148" y="85.5029" width="109.243" height="44.5635" filterUnits="userSpaceOnUse" color-interpolation-filters="sRGB">
<feFlood flood-opacity="0" result="BackgroundImageFix"/>
<feColorMatrix in="SourceAlpha" type="matrix" values="0 0 0 0 0 0 0 0 0 0 0 0 0 0 0 0 0 0 127 0"/>
<feOffset dy="1.47931"/>
<feColorMatrix type="matrix" values="0 0 0 0 0.745098 0 0 0 0 0.745098 0 0 0 0 0.745098 0 0 0 1 0"/>
<feBlend mode="normal" in2="BackgroundImageFix" result="effect1_dropShadow"/>
<feBlend mode="normal" in="SourceGraphic" in2="effect1_dropShadow" result="shape"/>
</filter>
</defs>
</svg>
