<svg width="690" height="140" viewBox="0 0 690 140" fill="none" xmlns="http://www.w3.org/2000/svg">
<path d="M192.315 37.9219H181.784L179.418 44.4824H176L185.599 19.3453H188.499L198.116 44.4824H194.715L192.315 37.9219ZM182.785 35.1941H191.331L187.049 23.437L182.785 35.1941Z" fill="black"/>
<path d="M215.708 32.8634H204.814V41.7719H217.469V44.4824H201.5V19.3453H217.297V22.0731H204.814V30.1529H215.708V32.8634Z" fill="black"/>
<path d="M229.002 33.2777C226.159 32.4605 224.087 31.4592 222.787 30.2737C221.498 29.0767 220.853 27.6035 220.853 25.854C220.853 23.8743 221.642 22.24 223.218 20.9509C224.807 19.6503 226.867 19 229.399 19C231.126 19 232.662 19.3338 234.009 20.0013C235.367 20.6689 236.414 21.5897 237.151 22.7637C237.899 23.9376 238.273 25.221 238.273 26.6136H234.941C234.941 25.0944 234.458 23.9031 233.491 23.0399C232.524 22.1652 231.16 21.7278 229.399 21.7278C227.765 21.7278 226.487 22.0903 225.566 22.8155C224.657 23.529 224.202 24.5246 224.202 25.8022C224.202 26.8266 224.634 27.6955 225.497 28.4091C226.372 29.1112 227.851 29.7558 229.934 30.3428C232.029 30.9298 233.663 31.5801 234.837 32.2937C236.023 32.9957 236.898 33.8187 237.462 34.7625C238.037 35.7063 238.325 36.8169 238.325 38.0945C238.325 40.1317 237.531 41.7661 235.942 42.9976C234.354 44.2177 232.23 44.8277 229.572 44.8277C227.845 44.8277 226.234 44.4996 224.738 43.8436C223.241 43.176 222.085 42.2668 221.267 41.1158C220.462 39.9648 220.059 38.6585 220.059 37.1968H223.391C223.391 38.716 223.949 39.9188 225.066 40.805C226.194 41.6798 227.696 42.1171 229.572 42.1171C231.321 42.1171 232.662 41.7603 233.594 41.0467C234.527 40.3331 234.993 39.3606 234.993 38.129C234.993 36.8975 234.561 35.948 233.698 35.2804C232.835 34.6013 231.269 33.9338 229.002 33.2777Z" fill="black"/>
<path d="M267.001 44.4824H250.531V42.1862L259.232 32.5181C260.521 31.0564 261.407 29.8709 261.891 28.9616C262.386 28.0408 262.633 27.0913 262.633 26.113C262.633 24.8009 262.236 23.7247 261.442 22.8845C260.648 22.0443 259.589 21.6242 258.265 21.6242C256.677 21.6242 255.44 22.0788 254.553 22.9881C253.679 23.8858 253.241 25.1404 253.241 26.7518H250.047C250.047 24.4383 250.79 22.568 252.274 21.1408C253.771 19.7136 255.768 19 258.265 19C260.602 19 262.449 19.6158 263.807 20.8473C265.165 22.0673 265.844 23.6959 265.844 25.7331C265.844 28.2077 264.268 31.1542 261.114 34.5726L254.381 41.8754H267.001V44.4824Z" fill="black"/>
<path d="M271.852 31.8793L273.13 19.3453H286.009V22.2975H275.841L275.081 29.1515C276.312 28.4264 277.711 28.0639 279.276 28.0639C281.567 28.0639 283.385 28.8235 284.732 30.3428C286.078 31.8505 286.752 33.8935 286.752 36.4717C286.752 39.0613 286.05 41.1043 284.645 42.6006C283.253 44.0853 281.302 44.8277 278.793 44.8277C276.571 44.8277 274.759 44.2119 273.354 42.9804C271.95 41.7488 271.15 40.0454 270.955 37.8701H273.976C274.172 39.3088 274.684 40.3965 275.512 41.1331C276.341 41.8582 277.435 42.2207 278.793 42.2207C280.277 42.2207 281.44 41.7143 282.28 40.7015C283.132 39.6886 283.558 38.2902 283.558 36.5062C283.558 34.8258 283.097 33.4791 282.177 32.4663C281.267 31.4419 280.053 30.9298 278.534 30.9298C277.141 30.9298 276.048 31.2348 275.254 31.8448L274.408 32.5354L271.852 31.8793Z" fill="black"/>
<path d="M302.773 19.328V22.0385H302.186C299.7 22.0846 297.72 22.8212 296.247 24.2484C294.774 25.6756 293.922 27.684 293.692 30.2737C295.016 28.7544 296.823 27.9948 299.113 27.9948C301.3 27.9948 303.044 28.7659 304.344 30.3082C305.656 31.8505 306.312 33.8417 306.312 36.2817C306.312 38.8714 305.605 40.9432 304.189 42.497C302.785 44.0508 300.897 44.8277 298.526 44.8277C296.121 44.8277 294.17 43.9069 292.673 42.0654C291.177 40.2123 290.429 37.8298 290.429 34.9179V33.6921C290.429 29.0652 291.413 25.5317 293.381 23.0917C295.361 20.6401 298.302 19.3856 302.203 19.328H302.773ZM298.578 30.6535C297.484 30.6535 296.477 30.9816 295.557 31.6376C294.636 32.2937 293.997 33.1166 293.64 34.1064V35.2804C293.64 37.3521 294.106 39.021 295.039 40.2871C295.971 41.5532 297.133 42.1862 298.526 42.1862C299.965 42.1862 301.093 41.6568 301.91 40.5979C302.739 39.539 303.153 38.1521 303.153 36.4371C303.153 34.7107 302.733 33.318 301.893 32.2591C301.064 31.1887 299.959 30.6535 298.578 30.6535Z" fill="black"/>
<path d="M317.068 35.1078H308.643V32.5008H317.068V35.1078Z" fill="black"/>
<path d="M320.694 44.4824V19.3453H328.912C331.639 19.3453 333.688 19.9093 335.058 21.0372C336.439 22.1652 337.129 23.8341 337.129 26.0439C337.129 27.2179 336.796 28.2595 336.128 29.1688C335.461 30.0665 334.551 30.7629 333.4 31.2578C334.758 31.6376 335.829 32.3627 336.612 33.4331C337.406 34.492 337.803 35.7581 337.803 37.2313C337.803 39.4872 337.072 41.2597 335.61 42.5488C334.148 43.8378 332.082 44.4824 329.412 44.4824H320.694ZM324.008 32.7253V41.7719H329.481C331.024 41.7719 332.238 41.3748 333.124 40.5806C334.022 39.7749 334.471 38.67 334.471 37.2658C334.471 34.2388 332.825 32.7253 329.533 32.7253H324.008ZM324.008 30.0665H329.015C330.465 30.0665 331.622 29.704 332.485 28.9789C333.36 28.2538 333.797 27.2697 333.797 26.0266C333.797 24.6455 333.395 23.6441 332.589 23.0226C331.783 22.3896 330.557 22.0731 328.912 22.0731H324.008V30.0665Z" fill="black"/>
<path d="M346.28 44.4824H342.965V19.3453H346.28V44.4824Z" fill="black"/>
<path d="M369.207 22.0731H361.127V44.4824H357.83V22.0731H349.767V19.3453H369.207V22.0731Z" fill="black"/>
<path d="M208.494 105.357C208.494 103.331 207.77 101.753 206.324 100.622C204.903 99.4903 202.391 98.3196 198.786 97.1095C195.182 95.8993 192.236 94.7286 189.947 93.5974C182.502 89.9406 178.779 84.9158 178.779 78.523C178.779 75.3398 179.7 72.538 181.542 70.1177C183.409 67.6711 186.04 65.7769 189.434 64.4352C192.828 63.0672 196.642 62.3832 200.878 62.3832C205.008 62.3832 208.704 63.1198 211.967 64.5931C215.255 66.0663 217.807 68.1709 219.622 70.9069C221.437 73.6166 222.345 76.721 222.345 80.2199H208.533C208.533 77.8785 207.81 76.0633 206.363 74.7742C204.942 73.4851 203.009 72.8406 200.562 72.8406C198.089 72.8406 196.129 73.393 194.682 74.4979C193.262 75.5766 192.551 76.9577 192.551 78.6414C192.551 80.1147 193.341 81.4564 194.919 82.6665C196.498 83.8504 199.273 85.0868 203.246 86.3759C207.218 87.6387 210.48 89.0067 213.032 90.4799C219.241 94.0578 222.345 98.9905 222.345 105.278C222.345 110.303 220.451 114.249 216.662 117.117C212.874 119.984 207.678 121.418 201.075 121.418C196.419 121.418 192.196 120.589 188.408 118.932C184.646 117.248 181.805 114.959 179.884 112.065C177.99 109.145 177.043 105.791 177.043 102.003H190.933C190.933 105.081 191.723 107.356 193.301 108.83C194.906 110.277 197.497 111 201.075 111C203.364 111 205.166 110.513 206.481 109.54C207.823 108.54 208.494 107.146 208.494 105.357Z" fill="black"/>
<path d="M259.084 105.357C259.084 103.331 258.36 101.753 256.913 100.622C255.493 99.4903 252.98 98.3196 249.376 97.1095C245.772 95.8993 242.826 94.7286 240.537 93.5974C233.092 89.9406 229.369 84.9158 229.369 78.523C229.369 75.3398 230.29 72.538 232.131 70.1177C233.999 67.6711 236.63 65.7769 240.024 64.4352C243.418 63.0672 247.232 62.3832 251.468 62.3832C255.598 62.3832 259.294 63.1198 262.556 64.5931C265.845 66.0663 268.397 68.1709 270.212 70.9069C272.027 73.6166 272.935 76.721 272.935 80.2199H259.123C259.123 77.8785 258.4 76.0633 256.953 74.7742C255.532 73.4851 253.599 72.8406 251.152 72.8406C248.679 72.8406 246.719 73.393 245.272 74.4979C243.852 75.5766 243.141 76.9577 243.141 78.6414C243.141 80.1147 243.931 81.4564 245.509 82.6665C247.087 83.8504 249.863 85.0868 253.835 86.3759C257.808 87.6387 261.07 89.0067 263.622 90.4799C269.831 94.0578 272.935 98.9905 272.935 105.278C272.935 110.303 271.041 114.249 267.252 117.117C263.464 119.984 258.268 121.418 251.665 121.418C247.009 121.418 242.786 120.589 238.998 118.932C235.236 117.248 232.395 114.959 230.474 112.065C228.58 109.145 227.633 105.791 227.633 102.003H241.523C241.523 105.081 242.313 107.356 243.891 108.83C245.496 110.277 248.087 111 251.665 111C253.954 111 255.756 110.513 257.071 109.54C258.413 108.54 259.084 107.146 259.084 105.357Z" fill="black"/>
<path d="M293.889 109.974H318V120.629H280.038V63.1724H293.889V109.974Z" fill="black"/>
<path d="M373.602 105.357C373.602 103.331 372.878 101.753 371.431 100.622C370.011 99.4903 367.498 98.3196 363.894 97.1095C360.29 95.8993 357.343 94.7286 355.055 93.5974C347.61 89.9406 343.887 84.9158 343.887 78.523C343.887 75.3398 344.808 72.538 346.649 70.1177C348.517 67.6711 351.148 65.7769 354.542 64.4352C357.935 63.0672 361.75 62.3832 365.985 62.3832C370.116 62.3832 373.812 63.1198 377.074 64.5931C380.363 66.0663 382.915 68.1709 384.73 70.9069C386.545 73.6166 387.453 76.721 387.453 80.2199H373.641C373.641 77.8785 372.918 76.0633 371.471 74.7742C370.05 73.4851 368.116 72.8406 365.67 72.8406C363.197 72.8406 361.237 73.393 359.79 74.4979C358.369 75.5766 357.659 76.9577 357.659 78.6414C357.659 80.1147 358.448 81.4564 360.027 82.6665C361.605 83.8504 364.381 85.0868 368.353 86.3759C372.326 87.6387 375.588 89.0067 378.14 90.4799C384.348 94.0578 387.453 98.9905 387.453 105.278C387.453 110.303 385.558 114.249 381.77 117.117C377.982 119.984 372.786 121.418 366.183 121.418C361.526 121.418 357.304 120.589 353.516 118.932C349.754 117.248 346.912 114.959 344.992 112.065C343.098 109.145 342.151 105.791 342.151 102.003H356.041C356.041 105.081 356.83 107.356 358.409 108.83C360.014 110.277 362.605 111 366.183 111C368.472 111 370.274 110.513 371.589 109.54C372.931 108.54 373.602 107.146 373.602 105.357Z" fill="black"/>
<path d="M430.19 96.2808H408.407V109.974H434.136V120.629H394.556V63.1724H434.215V73.8666H408.407V85.9813H430.19V96.2808Z" fill="black"/>
<path d="M486.265 101.174C486.081 105.173 485.002 108.711 483.029 111.789C481.056 114.841 478.28 117.209 474.702 118.892C471.151 120.576 467.086 121.418 462.509 121.418C454.958 121.418 449.013 118.958 444.672 114.039C440.331 109.119 438.161 102.174 438.161 93.2028V90.3615C438.161 84.7317 439.134 79.8121 441.081 75.6029C443.054 71.3673 445.882 68.1052 449.565 65.8164C453.248 63.5013 457.51 62.3438 462.351 62.3438C469.322 62.3438 474.926 64.1853 479.162 67.8684C483.397 71.5252 485.804 76.5763 486.383 83.0217H472.572C472.466 79.5227 471.585 77.0103 469.928 75.4845C468.27 73.9586 465.745 73.1957 462.351 73.1957C458.905 73.1957 456.379 74.4848 454.774 77.063C453.169 79.6411 452.328 83.7583 452.249 89.4145V93.479C452.249 99.6087 453.012 103.989 454.538 106.62C456.09 109.251 458.747 110.566 462.509 110.566C465.692 110.566 468.125 109.816 469.809 108.317C471.493 106.817 472.387 104.436 472.493 101.174H486.265Z" fill="black"/>
<path d="M537.881 63.1724V100.779C537.881 105.041 536.973 108.738 535.158 111.868C533.342 114.972 530.738 117.34 527.344 118.971C523.951 120.602 519.939 121.418 515.309 121.418C508.311 121.418 502.799 119.603 498.774 115.972C494.749 112.342 492.697 107.37 492.618 101.056V63.1724H506.548V101.332C506.706 107.619 509.626 110.763 515.309 110.763C518.176 110.763 520.346 109.974 521.82 108.396C523.293 106.817 524.03 104.252 524.03 100.701V63.1724H537.881Z" fill="black"/>
<path d="M567.911 100.345H560.413V120.629H546.562V63.1724H569.174C575.987 63.1724 581.315 64.6851 585.156 67.7105C588.997 70.7359 590.917 75.0109 590.917 80.5356C590.917 84.5344 590.102 87.8491 588.47 90.4799C586.866 93.1107 584.34 95.2416 580.894 96.8727L592.89 120.037V120.629H578.053L567.911 100.345ZM560.413 89.6512H569.174C571.804 89.6512 573.778 88.9672 575.093 87.5992C576.435 86.2049 577.105 84.2713 577.105 81.7984C577.105 79.3254 576.435 77.3918 575.093 75.9975C573.751 74.5769 571.778 73.8666 569.174 73.8666H560.413V89.6512Z" fill="black"/>
<path d="M634.917 96.2808H613.134V109.974H638.863V120.629H599.283V63.1724H638.942V73.8666H613.134V85.9813H634.917V96.2808Z" fill="black"/>
<path d="M644.506 120.629V63.1724H663.014C668.091 63.1724 672.655 64.33 676.707 66.6451C680.758 68.9339 683.915 72.1829 686.178 76.3921C688.466 80.575 689.624 85.271 689.65 90.4799V93.1239C689.65 98.3854 688.532 103.108 686.296 107.291C684.086 111.447 680.955 114.709 676.904 117.077C672.879 119.418 668.38 120.602 663.408 120.629H644.506ZM658.357 73.8666V109.974H663.171C667.144 109.974 670.196 108.567 672.327 105.752C674.457 102.91 675.523 98.7011 675.523 93.1239V90.6378C675.523 85.0868 674.457 80.9039 672.327 78.089C670.196 75.274 667.091 73.8666 663.014 73.8666H658.357Z" fill="black"/>
<rect width="140" height="140" rx="10" fill="#57AD45"/>
<path d="M101.536 64.375H97.3036V51.7187C97.3036 37.1289 85.1362 25 70.5 25C55.6875 25 43.6964 37.1289 43.6964 51.7187V64.375H39.4643C34.7031 64.375 31 68.2422 31 72.8125V106.562C31 111.309 34.7031 115 39.4643 115H101.536C106.121 115 110 111.309 110 106.562V72.8125C110 68.2422 106.121 64.375 101.536 64.375ZM77.5536 93.9063C77.5536 97.9492 74.3795 100.937 70.5 100.937C66.4442 100.937 63.4464 97.9492 63.4464 93.9063V85.4688C63.4464 81.6016 66.4442 78.4375 70.5 78.4375C74.3795 78.4375 77.5536 81.6016 77.5536 85.4688V93.9063ZM83.1964 64.375H57.8036V51.7187C57.8036 44.8633 63.4464 39.0625 70.5 39.0625C77.3772 39.0625 83.1964 44.8633 83.1964 51.7187V64.375Z" fill="white"/>
</svg>
