<svg width="191" height="40" viewBox="0 0 191 40" fill="none" xmlns="http://www.w3.org/2000/svg">
<path d="M47.4451 14.765L47.4453 14.7648L47.4357 14.7579C46.5318 14.1048 45.7284 13.2219 45.1625 12.1734L45.1624 12.1732C44.2914 10.5623 44.0026 8.56699 44.2714 6.66148C44.5402 4.75576 45.3637 2.96024 46.6924 1.73898L46.6924 1.73898L46.6936 1.73783C46.9502 1.4984 47.0538 1.44996 47.1288 1.44825C47.1648 1.44743 47.2155 1.45722 47.2993 1.4997C47.3848 1.5431 47.4895 1.61252 47.6315 1.71575L47.632 1.71617C49.1035 2.77878 50.1735 4.44462 50.721 6.2776C51.2685 8.11066 51.2877 10.092 50.6804 11.7763C50.2642 12.9309 49.5789 13.8927 48.7438 14.6597L48.738 14.665L48.7326 14.6708C48.5682 14.8445 48.4436 14.9635 48.3382 15.0406C48.2349 15.1162 48.1658 15.1396 48.1117 15.1432C48.0577 15.1469 47.9872 15.1331 47.8768 15.073C47.764 15.0116 47.6275 14.9121 47.4451 14.765Z" fill="#BCBFC1" stroke="#BCBFC1" stroke-width="0.447895"/>
<path d="M11.6135 14.7626L11.6133 14.7623L11.6229 14.7554C12.5267 14.1024 13.3302 13.2195 13.8961 12.1709L13.8962 12.1708C14.7672 10.5598 15.056 8.56455 14.7872 6.65903C14.5184 4.75332 13.6949 2.95779 12.3662 1.73654L12.3662 1.73654L12.365 1.73539C12.1084 1.49596 12.0048 1.44752 11.9298 1.44581C11.8938 1.44499 11.8431 1.45478 11.7593 1.49726C11.6738 1.54065 11.5691 1.61008 11.4271 1.7133L11.4265 1.71372C9.9551 2.77634 8.88506 4.44218 8.33759 6.27516C7.7901 8.10822 7.77092 10.0895 8.37816 11.7739C8.79444 12.9284 9.47968 13.8902 10.3148 14.6573L10.3206 14.6626L10.326 14.6683C10.4904 14.8421 10.615 14.9611 10.7203 15.0381C10.8237 15.1137 10.8928 15.1371 10.9469 15.1408C11.0009 15.1444 11.0714 15.1306 11.1818 15.0705C11.2946 15.0092 11.4311 14.9096 11.6135 14.7626Z" fill="#BCBFC1" stroke="#BCBFC1" stroke-width="0.447895"/>
<path d="M46.9812 21.9256L46.9815 21.9256L46.9816 21.9138C46.9847 20.7987 47.2332 19.6311 47.7547 18.5598L47.7548 18.5596C48.5552 16.9125 50.0074 15.514 51.7119 14.6207C53.4166 13.7274 55.3554 13.3489 57.1224 13.7158L57.1224 13.7158L57.1241 13.7161C57.4682 13.7849 57.568 13.8407 57.6131 13.9007C57.6348 13.9294 57.6564 13.9763 57.6708 14.0691C57.6854 14.1639 57.6901 14.2894 57.6891 14.465L57.6891 14.4657C57.6843 16.2807 56.9554 18.1216 55.786 19.6355C54.6164 21.1494 53.0183 22.3207 51.296 22.8101C50.1154 23.1454 48.9345 23.1499 47.8243 22.919L47.8166 22.9174L47.8088 22.9163C47.5718 22.8842 47.4024 22.8524 47.2784 22.8118C47.1567 22.7719 47.0974 22.7295 47.0629 22.6876C47.0284 22.6459 46.9985 22.5806 46.9829 22.4558C46.967 22.3284 46.9682 22.1595 46.9812 21.9256Z" fill="#BCBFC1" stroke="#BCBFC1" stroke-width="0.447895"/>
<path d="M12.0715 21.9256L12.0712 21.9256L12.0712 21.9138C12.068 20.7987 11.8196 19.6311 11.298 18.5598L11.2979 18.5596C10.4975 16.9125 9.04534 15.514 7.34082 14.6207C5.63612 13.7274 3.69738 13.3489 1.93033 13.7158L1.93033 13.7158L1.92868 13.7161C1.58452 13.7849 1.48478 13.8407 1.43961 13.9007C1.41798 13.9294 1.39633 13.9763 1.38198 14.0691C1.36733 14.1639 1.36265 14.2894 1.36368 14.465L1.36368 14.4657C1.36845 16.2807 2.09732 18.1216 3.26678 19.6355C4.43629 21.1494 6.0344 22.3207 7.75672 22.8101C8.93731 23.1454 10.1182 23.1499 11.2284 22.919L11.2361 22.9174L11.2439 22.9163C11.4809 22.8842 11.6503 22.8524 11.7743 22.8118C11.896 22.7719 11.9553 22.7295 11.9899 22.6876C12.0243 22.6459 12.0542 22.5806 12.0698 22.4558C12.0858 22.3284 12.0845 22.1595 12.0715 21.9256Z" fill="#BCBFC1" stroke="#BCBFC1" stroke-width="0.447895"/>
<path d="M43.1008 28.0228L43.101 28.023L43.1076 28.0132C43.7286 27.087 44.5828 26.2531 45.6109 25.6508L45.611 25.6507C47.1905 24.7239 49.1744 24.3653 51.0882 24.5672C53.0022 24.7691 54.8254 25.5291 56.0925 26.8143L56.0925 26.8143L56.0937 26.8155C56.3419 27.0635 56.394 27.1653 56.3983 27.2403C56.4004 27.2761 56.3924 27.3272 56.3529 27.4124C56.3125 27.4994 56.2468 27.6064 56.1486 27.752L56.1482 27.7526C55.1378 29.2603 53.5104 30.3881 51.6978 30.9994C49.885 31.6108 47.9056 31.6994 46.201 31.1515C45.0326 30.7759 44.0474 30.1248 43.2515 29.317L43.246 29.3114L43.2401 29.3062C43.0607 29.1481 42.9374 29.0277 42.8567 28.9251C42.7776 28.8245 42.7518 28.7562 42.7462 28.7023C42.7406 28.6484 42.752 28.5775 42.8082 28.465C42.8655 28.3502 42.9602 28.2103 43.1008 28.0228Z" fill="#BCBFC1" stroke="#BCBFC1" stroke-width="0.447895"/>
<path d="M15.9578 28.0204L15.9575 28.0206L15.951 28.0108C15.33 27.0846 14.4758 26.2507 13.4477 25.6484L13.4476 25.6483C11.8681 24.7214 9.88416 24.3629 7.9704 24.5647C6.05644 24.7666 4.23317 25.5267 2.96611 26.8118L2.96612 26.8118L2.96492 26.813C2.71665 27.0611 2.66461 27.1629 2.66027 27.2378C2.65819 27.2737 2.6662 27.3248 2.70572 27.4099C2.74609 27.497 2.81181 27.604 2.91 27.7495L2.9104 27.7501C3.92081 29.2579 5.54814 30.3856 7.36082 30.997C9.17357 31.6083 11.153 31.6969 12.8576 31.149C14.026 30.7735 15.0112 30.1223 15.8071 29.3146L15.8126 29.309L15.8185 29.3038C15.9979 29.1456 16.1212 29.0252 16.2019 28.9227C16.281 28.822 16.3068 28.7538 16.3124 28.6998C16.318 28.646 16.3066 28.5751 16.2504 28.4626C16.193 28.3477 16.0984 28.2079 15.9578 28.0204Z" fill="#BCBFC1" stroke="#BCBFC1" stroke-width="0.447895"/>
<path d="M34.4421 32.0989L34.4422 32.0992L34.4522 32.0928C35.3918 31.4924 36.5083 31.0698 37.6915 30.9291L37.6916 30.9291C39.51 30.7115 41.4717 31.1765 43.1449 32.1271C44.8183 33.0778 46.1852 34.5038 46.8324 36.1885L46.8324 36.1885L46.833 36.1901C46.9613 36.5168 46.9683 36.6309 46.9423 36.7013C46.9298 36.735 46.902 36.7786 46.8317 36.8408C46.7599 36.9045 46.6569 36.9763 46.5087 37.0703L46.5081 37.0707C44.9789 38.0484 43.0363 38.4309 41.1304 38.2661C39.2244 38.1012 37.3749 37.3905 36.0318 36.2065C35.1112 35.3949 34.4687 34.404 34.0625 33.3453L34.0597 33.3379L34.0563 33.3308C33.9552 33.1141 33.8903 32.9544 33.8574 32.8282C33.8251 32.7043 33.8288 32.6314 33.8453 32.5797C33.8617 32.5282 33.9005 32.4677 33.997 32.3871C34.0955 32.3048 34.2383 32.2145 34.4421 32.0989Z" fill="#BCBFC1" stroke="#BCBFC1" stroke-width="0.447895"/>
<path d="M24.6165 32.0989L24.6164 32.0992L24.6064 32.0928C23.6668 31.4924 22.5503 31.0698 21.3671 30.9291L21.367 30.9291C19.5486 30.7115 17.5869 31.1765 15.9137 32.1271C14.2403 33.0778 12.8734 34.5038 12.2262 36.1885L12.2262 36.1885L12.2256 36.1901C12.0973 36.5168 12.0903 36.6309 12.1163 36.7013C12.1288 36.735 12.1566 36.7786 12.2269 36.8408C12.2987 36.9045 12.4017 36.9763 12.5499 37.0703L12.5505 37.0707C14.0797 38.0484 16.0223 38.4309 17.9282 38.2661C19.8342 38.1012 21.6837 37.3905 23.0268 36.2065C23.9474 35.3949 24.5899 34.404 24.9961 33.3453L24.9989 33.3379L25.0023 33.3308C25.1034 33.1141 25.1683 32.9544 25.2012 32.8282C25.2335 32.7043 25.2298 32.6314 25.2133 32.5797C25.1969 32.5282 25.1581 32.4677 25.0616 32.3871C24.9631 32.3048 24.8203 32.2145 24.6165 32.0989Z" fill="#BCBFC1" stroke="#BCBFC1" stroke-width="0.447895"/>
<path d="M46.6128 7.65356C47.5072 9.82265 48.0005 12.1993 48.0005 14.6912C48.0005 23.06 42.4359 30.129 34.8049 32.4001M12.4405 7.65356C11.5461 9.82265 11.0527 12.1993 11.0527 14.6912C11.0527 23.06 16.6174 30.129 24.2484 32.4001" stroke="#BCBFC1" stroke-width="1.16971" stroke-linecap="round"/>
<mask id="path-10-inside-1" fill="white">
<path fill-rule="evenodd" clip-rule="evenodd" d="M28.0328 27.9225C23.3319 27.4913 19.3631 24.53 17.5003 20.4122H23.2341C24.1631 23.3233 25.8378 25.9014 28.0334 27.922C28.0332 27.9222 28.033 27.9223 28.0328 27.9225ZM28.033 2.31316C25.6492 4.50705 23.8796 7.35808 23.0116 10.5789H17.1873C18.8882 6.07113 23.0491 2.77018 28.033 2.31316ZM16.7214 12.0917C16.4873 13.0622 16.3633 14.0755 16.3633 15.1178C16.3633 16.4339 16.561 17.7038 16.9283 18.8994H22.826C22.556 17.6818 22.4137 16.4162 22.4137 15.1174C22.4137 14.0854 22.5036 13.0744 22.6759 12.0917H16.7214ZM30.4096 2.31299C35.3942 2.76936 39.556 6.07057 41.2571 10.5789H35.4311C34.5631 7.358 32.7935 4.5069 30.4096 2.31299ZM41.723 12.0917H35.7669C35.9392 13.0744 36.029 14.0854 36.029 15.1174C36.029 16.4162 35.8867 17.6818 35.6168 18.8994H41.5161C41.8834 17.7038 42.0811 16.4339 42.0811 15.1178C42.0811 14.0755 41.9571 13.0622 41.723 12.0917ZM40.9441 20.4122C39.0811 24.5304 35.1117 27.492 30.4101 27.9226C30.4098 27.9224 30.4096 27.9222 30.4093 27.922C32.605 25.9014 34.2796 23.3233 35.2086 20.4122H40.9441ZM23.9265 15.1174C23.9265 14.0827 24.0254 13.0712 24.2143 12.0917H34.2284C34.4173 13.0712 34.5162 14.0827 34.5162 15.1174C34.5162 16.4207 34.3593 17.6873 34.0632 18.8994H24.3795C24.0835 17.6873 23.9265 16.4207 23.9265 15.1174ZM29.2214 3.27752C27.061 5.21107 25.433 7.72718 24.5843 10.5789H33.8584C33.0097 7.72718 31.3817 5.21107 29.2214 3.27752ZM24.8304 20.4122C25.7283 22.9527 27.2541 25.1965 29.2214 26.9572C31.1886 25.1965 32.7144 22.9527 33.6124 20.4122H24.8304Z"/>
</mask>
<path fill-rule="evenodd" clip-rule="evenodd" d="M28.0328 27.9225C23.3319 27.4913 19.3631 24.53 17.5003 20.4122H23.2341C24.1631 23.3233 25.8378 25.9014 28.0334 27.922C28.0332 27.9222 28.033 27.9223 28.0328 27.9225ZM28.033 2.31316C25.6492 4.50705 23.8796 7.35808 23.0116 10.5789H17.1873C18.8882 6.07113 23.0491 2.77018 28.033 2.31316ZM16.7214 12.0917C16.4873 13.0622 16.3633 14.0755 16.3633 15.1178C16.3633 16.4339 16.561 17.7038 16.9283 18.8994H22.826C22.556 17.6818 22.4137 16.4162 22.4137 15.1174C22.4137 14.0854 22.5036 13.0744 22.6759 12.0917H16.7214ZM30.4096 2.31299C35.3942 2.76936 39.556 6.07057 41.2571 10.5789H35.4311C34.5631 7.358 32.7935 4.5069 30.4096 2.31299ZM41.723 12.0917H35.7669C35.9392 13.0744 36.029 14.0854 36.029 15.1174C36.029 16.4162 35.8867 17.6818 35.6168 18.8994H41.5161C41.8834 17.7038 42.0811 16.4339 42.0811 15.1178C42.0811 14.0755 41.9571 13.0622 41.723 12.0917ZM40.9441 20.4122C39.0811 24.5304 35.1117 27.492 30.4101 27.9226C30.4098 27.9224 30.4096 27.9222 30.4093 27.922C32.605 25.9014 34.2796 23.3233 35.2086 20.4122H40.9441ZM23.9265 15.1174C23.9265 14.0827 24.0254 13.0712 24.2143 12.0917H34.2284C34.4173 13.0712 34.5162 14.0827 34.5162 15.1174C34.5162 16.4207 34.3593 17.6873 34.0632 18.8994H24.3795C24.0835 17.6873 23.9265 16.4207 23.9265 15.1174ZM29.2214 3.27752C27.061 5.21107 25.433 7.72718 24.5843 10.5789H33.8584C33.0097 7.72718 31.3817 5.21107 29.2214 3.27752ZM24.8304 20.4122C25.7283 22.9527 27.2541 25.1965 29.2214 26.9572C31.1886 25.1965 32.7144 22.9527 33.6124 20.4122H24.8304Z" fill="#BCBFC1"/>
<path d="M28.0328 27.9225L27.9903 28.386L28.1663 28.4021L28.3087 28.2974L28.0328 27.9225ZM17.5003 20.4122V19.9468H16.7789L17.0762 20.6041L17.5003 20.4122ZM23.2341 20.4122L23.6775 20.2707L23.5741 19.9468H23.2341V20.4122ZM28.0334 27.922L28.3093 28.2969L28.7643 27.9621L28.3486 27.5795L28.0334 27.922ZM28.033 2.31316L28.3482 2.65565L29.3604 1.72401L27.9905 1.84964L28.033 2.31316ZM23.0116 10.5789V11.0444H23.3682L23.461 10.7L23.0116 10.5789ZM17.1873 10.5789L16.7518 10.4146L16.5141 11.0444H17.1873V10.5789ZM16.7214 12.0917V11.6263H16.3548L16.2689 11.9826L16.7214 12.0917ZM16.9283 18.8994L16.4834 19.0361L16.5844 19.3649H16.9283V18.8994ZM22.826 18.8994V19.3649H23.4059L23.2804 18.7987L22.826 18.8994ZM22.6759 12.0917L23.1343 12.1721L23.2301 11.6263H22.6759V12.0917ZM30.4096 2.31299L30.452 1.84947L29.0823 1.72406L30.0944 2.65548L30.4096 2.31299ZM41.2571 10.5789V11.0444H41.9303L41.6926 10.4146L41.2571 10.5789ZM35.4311 10.5789L34.9817 10.7L35.0745 11.0444H35.4311V10.5789ZM35.7669 12.0917V11.6263H35.2127L35.3084 12.1721L35.7669 12.0917ZM41.723 12.0917L42.1755 11.9826L42.0896 11.6263H41.723V12.0917ZM35.6168 18.8994L35.1624 18.7987L35.0368 19.3649H35.6168V18.8994ZM41.5161 18.8994V19.3649H41.86L41.961 19.0361L41.5161 18.8994ZM40.9441 20.4122L41.3682 20.6041L41.6655 19.9468H40.9441V20.4122ZM30.4101 27.9226L30.1334 28.2969L30.276 28.4023L30.4525 28.3861L30.4101 27.9226ZM30.4093 27.922L30.0941 27.5795L29.6793 27.9613L30.1326 28.2963L30.4093 27.922ZM35.2086 20.4122V19.9468H34.8686L34.7652 20.2707L35.2086 20.4122ZM24.2143 12.0917V11.6263H23.8301L23.7573 12.0036L24.2143 12.0917ZM34.2284 12.0917L34.6854 12.0036L34.6127 11.6263H34.2284V12.0917ZM34.0632 18.8994V19.3649H34.4287L34.5154 19.0098L34.0632 18.8994ZM24.3795 18.8994L23.9274 19.0098L24.0141 19.3649H24.3795V18.8994ZM24.5843 10.5789L24.1382 10.4461L23.9602 11.0444H24.5843V10.5789ZM29.2214 3.27752L29.5318 2.93069L29.2214 2.65285L28.9109 2.93069L29.2214 3.27752ZM33.8584 10.5789V11.0444H34.4826L34.3045 10.4461L33.8584 10.5789ZM29.2214 26.9572L28.9109 27.304L29.2214 27.5819L29.5318 27.304L29.2214 26.9572ZM24.8304 20.4122V19.9468H24.1722L24.3915 20.5673L24.8304 20.4122ZM33.6124 20.4122L34.0512 20.5673L34.2706 19.9468H33.6124V20.4122ZM28.0753 27.4589C23.546 27.0436 19.7201 24.1899 17.9244 20.2204L17.0762 20.6041C19.0061 24.87 23.1178 27.9391 27.9903 28.386L28.0753 27.4589ZM17.5003 20.8777H23.2341V19.9468H17.5003V20.8777ZM22.7907 20.5537C23.7448 23.5434 25.4644 26.1903 27.7183 28.2645L28.3486 27.5795C26.2112 25.6125 24.5815 23.1032 23.6775 20.2707L22.7907 20.5537ZM27.7576 27.5471C27.7576 27.5471 27.7576 27.5471 27.7576 27.5471H27.7576C27.7576 27.5471 27.7576 27.5471 27.7576 27.5471C27.7576 27.5471 27.7576 27.5471 27.7576 27.5471C27.7576 27.5471 27.7576 27.5471 27.7576 27.5471H27.7576H27.7576C27.7576 27.5471 27.7576 27.5471 27.7576 27.5471C27.7576 27.5471 27.7576 27.5471 27.7576 27.5471C27.7576 27.5471 27.7576 27.5471 27.7576 27.5471H27.7576C27.7576 27.5471 27.7576 27.5471 27.7576 27.5471C27.7576 27.5471 27.7576 27.5471 27.7576 27.5471C27.7576 27.5471 27.7576 27.5471 27.7576 27.5471H27.7576C27.7576 27.5471 27.7576 27.5471 27.7576 27.5471C27.7576 27.5471 27.7576 27.5471 27.7576 27.5471C27.7576 27.5471 27.7576 27.5471 27.7576 27.5471C27.7576 27.5471 27.7576 27.5471 27.7576 27.5471C27.7576 27.5471 27.7576 27.5471 27.7576 27.5471C27.7576 27.5471 27.7576 27.5471 27.7575 27.5471C27.7575 27.5471 27.7575 27.5471 27.7575 27.5471L27.7575 27.5471H27.7575C27.7575 27.5471 27.7575 27.5471 27.7575 27.5471C27.7575 27.5471 27.7575 27.5471 27.7575 27.5471C27.7575 27.5471 27.7575 27.5471 27.7575 27.5471H27.7575C27.7575 27.5471 27.7575 27.5471 27.7575 27.5471C27.7575 27.5471 27.7575 27.5471 27.7575 27.5471H27.7575C27.7575 27.5471 27.7575 27.5471 27.7575 27.5471C27.7575 27.5471 27.7575 27.5471 27.7575 27.5471C27.7575 27.5471 27.7575 27.5471 27.7575 27.5471H27.7575L27.7575 27.5471C27.7575 27.5471 27.7575 27.5471 27.7575 27.5471C27.7575 27.5471 27.7575 27.5471 27.7575 27.5471H27.7575C27.7575 27.5471 27.7575 27.5471 27.7575 27.5472C27.7575 27.5472 27.7575 27.5472 27.7575 27.5472C27.7575 27.5472 27.7575 27.5472 27.7575 27.5472C27.7575 27.5472 27.7575 27.5472 27.7575 27.5472H27.7575C27.7575 27.5472 27.7575 27.5472 27.7575 27.5472C27.7575 27.5472 27.7575 27.5472 27.7575 27.5472C27.7575 27.5472 27.7575 27.5472 27.7575 27.5472H27.7575C27.7575 27.5472 27.7575 27.5472 27.7575 27.5472C27.7575 27.5472 27.7575 27.5472 27.7575 27.5472C27.7575 27.5472 27.7575 27.5472 27.7575 27.5472H27.7575C27.7575 27.5472 27.7575 27.5472 27.7575 27.5472C27.7575 27.5472 27.7575 27.5472 27.7575 27.5472C27.7575 27.5472 27.7575 27.5472 27.7575 27.5472C27.7575 27.5472 27.7575 27.5472 27.7575 27.5472H27.7575C27.7575 27.5472 27.7575 27.5472 27.7575 27.5472C27.7575 27.5472 27.7575 27.5472 27.7575 27.5472L27.7575 27.5472H27.7575C27.7575 27.5472 27.7575 27.5472 27.7575 27.5472C27.7575 27.5472 27.7575 27.5472 27.7575 27.5472H27.7575C27.7575 27.5472 27.7575 27.5472 27.7575 27.5472C27.7575 27.5472 27.7575 27.5472 27.7575 27.5472C27.7575 27.5472 27.7575 27.5472 27.7575 27.5472H27.7575L27.7575 27.5472C27.7575 27.5472 27.7575 27.5472 27.7575 27.5472C27.7575 27.5472 27.7575 27.5472 27.7575 27.5472H27.7575C27.7575 27.5472 27.7575 27.5472 27.7575 27.5472C27.7575 27.5472 27.7575 27.5472 27.7575 27.5472C27.7575 27.5472 27.7575 27.5472 27.7575 27.5472H27.7575H27.7575C27.7575 27.5472 27.7575 27.5472 27.7575 27.5472C27.7575 27.5472 27.7575 27.5472 27.7575 27.5472C27.7575 27.5472 27.7575 27.5472 27.7575 27.5472H27.7575C27.7575 27.5472 27.7575 27.5472 27.7575 27.5472C27.7575 27.5472 27.7575 27.5472 27.7575 27.5472C27.7575 27.5472 27.7575 27.5472 27.7575 27.5472H27.7575C27.7575 27.5472 27.7575 27.5472 27.7575 27.5472C27.7575 27.5472 27.7575 27.5472 27.7575 27.5472C27.7575 27.5472 27.7575 27.5472 27.7575 27.5472C27.7575 27.5472 27.7575 27.5472 27.7575 27.5472H27.7575C27.7575 27.5472 27.7575 27.5472 27.7575 27.5472C27.7575 27.5472 27.7575 27.5472 27.7575 27.5472L27.7575 27.5472H27.7575C27.7575 27.5472 27.7575 27.5472 27.7575 27.5472C27.7575 27.5472 27.7575 27.5472 27.7575 27.5472C27.7575 27.5472 27.7575 27.5472 27.7575 27.5472H27.7575C27.7575 27.5472 27.7575 27.5472 27.7575 27.5472C27.7575 27.5472 27.7575 27.5472 27.7575 27.5472H27.7575C27.7575 27.5472 27.7575 27.5472 27.7575 27.5472C27.7575 27.5472 27.7575 27.5472 27.7575 27.5472C27.7575 27.5472 27.7575 27.5472 27.7575 27.5472H27.7575L27.7574 27.5472C27.7574 27.5472 27.7574 27.5472 27.7574 27.5472C27.7574 27.5472 27.7574 27.5472 27.7574 27.5472C27.7574 27.5472 27.7574 27.5472 27.7574 27.5472C27.7574 27.5472 27.7574 27.5472 27.7574 27.5472C27.7574 27.5472 27.7574 27.5472 27.7574 27.5472C27.7574 27.5472 27.7574 27.5472 27.7574 27.5472C27.7574 27.5472 27.7574 27.5472 27.7574 27.5472H27.7574C27.7574 27.5472 27.7574 27.5472 27.7574 27.5472C27.7574 27.5472 27.7574 27.5472 27.7574 27.5472C27.7574 27.5472 27.7574 27.5472 27.7574 27.5472H27.7574C27.7574 27.5472 27.7574 27.5472 27.7574 27.5472C27.7574 27.5472 27.7574 27.5472 27.7574 27.5472C27.7574 27.5472 27.7574 27.5472 27.7574 27.5472H27.7574H27.7574C27.7574 27.5472 27.7574 27.5472 27.7574 27.5472C27.7574 27.5472 27.7574 27.5472 27.7574 27.5472C27.7574 27.5472 27.7574 27.5472 27.7574 27.5472H27.7574C27.7574 27.5472 27.7574 27.5472 27.7574 27.5472C27.7574 27.5472 27.7574 27.5472 27.7574 27.5472C27.7574 27.5472 27.7574 27.5472 27.7574 27.5472H27.7574C27.7574 27.5472 27.7574 27.5472 27.7574 27.5472C27.7574 27.5472 27.7574 27.5472 27.7574 27.5472H27.7574C27.7574 27.5472 27.7574 27.5472 27.7574 27.5472C27.7574 27.5472 27.7574 27.5472 27.7574 27.5472C27.7574 27.5472 27.7574 27.5472 27.7574 27.5472H27.7574L27.7574 27.5472C27.7574 27.5472 27.7574 27.5472 27.7574 27.5472C27.7574 27.5472 27.7574 27.5472 27.7574 27.5472C27.7574 27.5472 27.7574 27.5472 27.7574 27.5472C27.7574 27.5472 27.7574 27.5472 27.7574 27.5472C27.7574 27.5472 27.7574 27.5472 27.7574 27.5472C27.7574 27.5472 27.7574 27.5472 27.7574 27.5472C27.7574 27.5472 27.7574 27.5472 27.7574 27.5472H27.7574C27.7574 27.5472 27.7574 27.5472 27.7574 27.5472C27.7574 27.5472 27.7574 27.5472 27.7574 27.5472C27.7574 27.5472 27.7574 27.5472 27.7574 27.5472H27.7574L27.7574 27.5472C27.7574 27.5472 27.7574 27.5472 27.7574 27.5472C27.7574 27.5472 27.7574 27.5472 27.7574 27.5473H27.7574C27.7574 27.5473 27.7574 27.5473 27.7574 27.5473C27.7574 27.5473 27.7574 27.5473 27.7574 27.5473C27.7574 27.5473 27.7574 27.5473 27.7574 27.5473C27.7574 27.5473 27.7574 27.5473 27.7574 27.5473H27.7574C27.7574 27.5473 27.7574 27.5473 27.7574 27.5473C27.7574 27.5473 27.7574 27.5473 27.7574 27.5473L27.7574 27.5473H27.7574C27.7574 27.5473 27.7574 27.5473 27.7574 27.5473C27.7574 27.5473 27.7574 27.5473 27.7574 27.5473C27.7574 27.5473 27.7574 27.5473 27.7574 27.5473H27.7574C27.7574 27.5473 27.7574 27.5473 27.7574 27.5473C27.7574 27.5473 27.7574 27.5473 27.7574 27.5473H27.7574C27.7574 27.5473 27.7574 27.5473 27.7574 27.5473C27.7574 27.5473 27.7574 27.5473 27.7574 27.5473C27.7574 27.5473 27.7574 27.5473 27.7574 27.5473C27.7574 27.5473 27.7574 27.5473 27.7574 27.5473L27.7574 27.5473C27.7574 27.5473 27.7574 27.5473 27.7574 27.5473C27.7574 27.5473 27.7574 27.5473 27.7574 27.5473C27.7574 27.5473 27.7574 27.5473 27.7574 27.5473C27.7574 27.5473 27.7574 27.5473 27.7574 27.5473C27.7574 27.5473 27.7574 27.5473 27.7574 27.5473C27.7574 27.5473 27.7574 27.5473 27.7574 27.5473C27.7574 27.5473 27.7574 27.5473 27.7574 27.5473H27.7574L27.7574 27.5473C27.7574 27.5473 27.7574 27.5473 27.7574 27.5473C27.7574 27.5473 27.7574 27.5473 27.7574 27.5473H27.7574C27.7574 27.5473 27.7574 27.5473 27.7574 27.5473C27.7573 27.5473 27.7573 27.5473 27.7573 27.5473C27.7573 27.5473 27.7573 27.5473 27.7573 27.5473H27.7573H27.7573C27.7573 27.5473 27.7573 27.5473 27.7573 27.5473C27.7573 27.5473 27.7573 27.5473 27.7573 27.5473C27.7573 27.5473 27.7573 27.5473 27.7573 27.5473H27.7573C27.7573 27.5473 27.7573 27.5473 27.7573 27.5473C27.7573 27.5473 27.7573 27.5473 27.7573 27.5473C27.7573 27.5473 27.7573 27.5473 27.7573 27.5473H27.7573C27.7573 27.5473 27.7573 27.5473 27.7573 27.5473C27.7573 27.5473 27.7573 27.5473 27.7573 27.5473H27.7573C27.7573 27.5473 27.7573 27.5473 27.7573 27.5473C27.7573 27.5473 27.7573 27.5473 27.7573 27.5473C27.7573 27.5473 27.7573 27.5473 27.7573 27.5473C27.7573 27.5473 27.7573 27.5473 27.7573 27.5473L27.7573 27.5473C27.7573 27.5473 27.7573 27.5473 27.7573 27.5473C27.7573 27.5473 27.7573 27.5473 27.7573 27.5473C27.7573 27.5473 27.7573 27.5473 27.7573 27.5473C27.7573 27.5473 27.7573 27.5473 27.7573 27.5473C27.7573 27.5473 27.7573 27.5473 27.7573 27.5473C27.7573 27.5473 27.7573 27.5473 27.7573 27.5473C27.7573 27.5473 27.7573 27.5473 27.7573 27.5473H27.7573C27.7573 27.5473 27.7573 27.5473 27.7573 27.5473C27.7573 27.5473 27.7573 27.5473 27.7573 27.5473C27.7573 27.5473 27.7573 27.5473 27.7573 27.5473H27.7573L27.7573 27.5473C27.7573 27.5473 27.7573 27.5473 27.7573 27.5473C27.7573 27.5473 27.7573 27.5473 27.7573 27.5473H27.7573C27.7573 27.5473 27.7573 27.5473 27.7573 27.5473C27.7573 27.5473 27.7573 27.5473 27.7573 27.5473C27.7573 27.5473 27.7573 27.5473 27.7573 27.5473C27.7573 27.5473 27.7573 27.5473 27.7573 27.5473H27.7573C27.7573 27.5473 27.7573 27.5473 27.7573 27.5473C27.7573 27.5473 27.7573 27.5473 27.7573 27.5473L27.7573 27.5473H27.7573C27.7573 27.5473 27.7573 27.5473 27.7573 27.5473C27.7573 27.5473 27.7573 27.5473 27.7573 27.5473C27.7573 27.5473 27.7573 27.5473 27.7573 27.5473H27.7573C27.7573 27.5473 27.7573 27.5473 27.7573 27.5473C27.7573 27.5473 27.7573 27.5473 27.7573 27.5473C27.7573 27.5473 27.7573 27.5473 27.7573 27.5473C27.7573 27.5473 27.7573 27.5473 27.7573 27.5473C27.7573 27.5473 27.7573 27.5473 27.7573 27.5473C27.7573 27.5473 27.7573 27.5473 27.7573 27.5473C27.7573 27.5473 27.7573 27.5473 27.7573 27.5473L27.7573 27.5473C27.7573 27.5473 27.7573 27.5473 27.7573 27.5473C27.7573 27.5473 27.7573 27.5473 27.7573 27.5473C27.7573 27.5473 27.7573 27.5473 27.7573 27.5473H27.7573C27.7573 27.5473 27.7573 27.5473 27.7573 27.5473C27.7573 27.5473 27.7573 27.5473 27.7573 27.5473C27.7573 27.5473 27.7573 27.5473 27.7573 27.5473H27.7573L27.7573 27.5473C27.7573 27.5473 27.7573 27.5473 27.7573 27.5473C27.7573 27.5473 27.7573 27.5473 27.7573 27.5473H27.7573C27.7573 27.5473 27.7573 27.5473 27.7573 27.5473C27.7573 27.5473 27.7573 27.5473 27.7573 27.5473C27.7573 27.5473 27.7573 27.5473 27.7573 27.5473H27.7573H27.7573C27.7573 27.5473 27.7573 27.5473 27.7573 27.5473C27.7573 27.5473 27.7573 27.5473 27.7573 27.5473C27.7573 27.5473 27.7573 27.5473 27.7573 27.5473H27.7573C27.7573 27.5473 27.7573 27.5473 27.7573 27.5473C27.7573 27.5473 27.7573 27.5473 27.7573 27.5473C27.7573 27.5473 27.7573 27.5473 27.7573 27.5474H27.7573C27.7573 27.5474 27.7573 27.5474 27.7573 27.5474C27.7573 27.5474 27.7573 27.5474 27.7573 27.5474C27.7573 27.5474 27.7573 27.5474 27.7572 27.5474C27.7572 27.5474 27.7572 27.5474 27.7572 27.5474C27.7572 27.5474 27.7572 27.5474 27.7572 27.5474C27.7572 27.5474 27.7572 27.5474 27.7572 27.5474C27.7572 27.5474 27.7572 27.5474 27.7572 27.5474L27.7572 27.5474H27.7572C27.7572 27.5474 27.7572 27.5474 27.7572 27.5474C27.7572 27.5474 27.7572 27.5474 27.7572 27.5474C27.7572 27.5474 27.7572 27.5474 27.7572 27.5474H27.7572C27.7572 27.5474 27.7572 27.5474 27.7572 27.5474C27.7572 27.5474 27.7572 27.5474 27.7572 27.5474H27.7572C27.7572 27.5474 27.7572 27.5474 27.7572 27.5474C27.7572 27.5474 27.7572 27.5474 27.7572 27.5474C27.7572 27.5474 27.7572 27.5474 27.7572 27.5474H27.7572L27.7572 27.5474C27.7572 27.5474 27.7572 27.5474 27.7572 27.5474C27.7572 27.5474 27.7572 27.5474 27.7572 27.5474H27.7572C27.7572 27.5474 27.7572 27.5474 27.7572 27.5474C27.7572 27.5474 27.7572 27.5474 27.7572 27.5474C27.7572 27.5474 27.7572 27.5474 27.7572 27.5474C27.7572 27.5474 27.7572 27.5474 27.7572 27.5474H27.7572C27.7572 27.5474 27.7572 27.5474 27.7572 27.5474C27.7572 27.5474 27.7572 27.5474 27.7572 27.5474C27.7572 27.5474 27.7572 27.5474 27.7572 27.5474H27.7572C27.7572 27.5474 27.7572 27.5474 27.7572 27.5474C27.7572 27.5474 27.7572 27.5474 27.7572 27.5474C27.7572 27.5474 27.7572 27.5474 27.7572 27.5474H27.7572C27.7572 27.5474 27.7572 27.5474 27.7572 27.5474C27.7572 27.5474 27.7572 27.5474 27.7572 27.5474C27.7572 27.5474 27.7572 27.5474 27.7572 27.5474C27.7572 27.5474 27.7572 27.5474 27.7572 27.5474H27.7572C27.7572 27.5474 27.7572 27.5474 27.7572 27.5474C27.7572 27.5474 27.7572 27.5474 27.7572 27.5474L27.7572 27.5474H27.7572C27.7572 27.5474 27.7572 27.5474 27.7572 27.5474C27.7572 27.5474 27.7572 27.5474 27.7572 27.5474H27.7572C27.7572 27.5474 27.7572 27.5474 27.7572 27.5474C27.7572 27.5474 27.7572 27.5474 27.7572 27.5474C27.7572 27.5474 27.7572 27.5474 27.7572 27.5474H27.7572L27.7572 27.5474C27.7572 27.5474 27.7572 27.5474 27.7572 27.5474C27.7572 27.5474 27.7572 27.5474 27.7572 27.5474H27.7572C27.7572 27.5474 27.7572 27.5474 27.7572 27.5474C27.7572 27.5474 27.7572 27.5474 27.7572 27.5474C27.7572 27.5474 27.7572 27.5474 27.7572 27.5474H27.7572H27.7572C27.7572 27.5474 27.7572 27.5474 27.7572 27.5474C27.7572 27.5474 27.7572 27.5474 27.7572 27.5474C27.7572 27.5474 27.7572 27.5474 27.7572 27.5474H27.7572C27.7572 27.5474 27.7572 27.5474 27.7572 27.5474C27.7572 27.5474 27.7572 27.5474 27.7572 27.5474C27.7572 27.5474 27.7572 27.5474 27.7572 27.5474H27.7572C27.7572 27.5474 27.7572 27.5474 27.7572 27.5474C27.7572 27.5474 27.7572 27.5474 27.7572 27.5474C27.7572 27.5474 27.7572 27.5474 27.7572 27.5474C27.7572 27.5474 27.7572 27.5474 27.7572 27.5474H27.7572C27.7572 27.5474 27.7572 27.5474 27.7572 27.5474C27.7572 27.5474 27.7572 27.5474 27.7572 27.5474L27.7572 27.5474H27.7572C27.7572 27.5474 27.7572 27.5474 27.7572 27.5474C27.7572 27.5474 27.7572 27.5474 27.7572 27.5474C27.7572 27.5474 27.7572 27.5474 27.7572 27.5474H27.7572C27.7572 27.5474 27.7572 27.5474 27.7572 27.5474C27.7572 27.5474 27.7572 27.5474 27.7572 27.5474H27.7572C27.7572 27.5474 27.7572 27.5474 27.7572 27.5474C27.7571 27.5474 27.7571 27.5474 27.7571 27.5474C27.7571 27.5474 27.7571 27.5474 27.7571 27.5474H27.7571L27.7571 27.5474C27.7571 27.5474 27.7571 27.5474 27.7571 27.5474C27.7571 27.5474 27.7571 27.5474 27.7571 27.5474C27.7571 27.5474 27.7571 27.5474 27.7571 27.5474C27.7571 27.5474 27.7571 27.5474 27.7571 27.5474C27.7571 27.5474 27.7571 27.5474 27.7571 27.5474C27.7571 27.5474 27.7571 27.5474 27.7571 27.5474C27.7571 27.5474 27.7571 27.5474 27.7571 27.5474H27.7571C27.7571 27.5474 27.7571 27.5474 27.7571 27.5474C27.7571 27.5474 27.7571 27.5474 27.7571 27.5474C27.7571 27.5474 27.7571 27.5474 27.7571 27.5474H27.7571C27.7571 27.5474 27.7571 27.5474 27.7571 27.5474C27.7571 27.5474 27.7571 27.5474 27.7571 27.5474C27.7571 27.5474 27.7571 27.5474 27.7571 27.5474H27.7571H27.7571C27.7571 27.5474 27.7571 27.5474 27.7571 27.5474C27.7571 27.5474 27.7571 27.5474 27.7571 27.5474C27.7571 27.5474 27.7571 27.5474 27.7571 27.5474H27.7571C27.7571 27.5474 27.7571 27.5475 27.7571 27.5475C27.7571 27.5475 27.7571 27.5475 27.7571 27.5475C27.7571 27.5475 27.7571 27.5475 27.7571 27.5475H27.7571C27.7571 27.5475 27.7571 27.5475 27.7571 27.5475C27.7571 27.5475 27.7571 27.5475 27.7571 27.5475H27.7571C27.7571 27.5475 27.7571 27.5475 27.7571 27.5475C27.7571 27.5475 27.7571 27.5475 27.7571 27.5475C27.7571 27.5475 27.7571 27.5475 27.7571 27.5475H27.7571L27.7571 27.5475C27.7571 27.5475 27.7571 27.5475 27.7571 27.5475C27.7571 27.5475 27.7571 27.5475 27.7571 27.5475C27.7571 27.5475 27.7571 27.5475 27.7571 27.5475C27.7571 27.5475 27.7571 27.5475 27.7571 27.5475C27.7571 27.5475 27.7571 27.5475 27.7571 27.5475C27.7571 27.5475 27.7571 27.5475 27.7571 27.5475C27.7571 27.5475 27.7571 27.5475 27.7571 27.5475H27.7571C27.7571 27.5475 27.7571 27.5475 27.7571 27.5475C27.7571 27.5475 27.7571 27.5475 27.7571 27.5475C27.7571 27.5475 27.7571 27.5475 27.7571 27.5475H27.7571L27.7571 27.5475C27.7571 27.5475 27.7571 27.5475 27.7571 27.5475C27.7571 27.5475 27.7571 27.5475 27.7571 27.5475H27.7571C27.7571 27.5475 27.7571 27.5475 27.7571 27.5475C27.7571 27.5475 27.7571 27.5475 27.7571 27.5475C27.7571 27.5475 27.7571 27.5475 27.7571 27.5475C27.7571 27.5475 27.7571 27.5475 27.7571 27.5475H27.7571C27.7571 27.5475 27.7571 27.5475 27.7571 27.5475C27.7571 27.5475 27.7571 27.5475 27.7571 27.5475L27.7571 27.5475H27.7571C27.7571 27.5475 27.7571 27.5475 27.7571 27.5475C27.7571 27.5475 27.7571 27.5475 27.7571 27.5475C27.7571 27.5475 27.7571 27.5475 27.7571 27.5475H27.7571C27.7571 27.5475 27.7571 27.5475 27.7571 27.5475C27.7571 27.5475 27.7571 27.5475 27.7571 27.5475H27.7571C27.7571 27.5475 27.7571 27.5475 27.7571 27.5475C27.7571 27.5475 27.7571 27.5475 27.7571 27.5475C27.7571 27.5475 27.7571 27.5475 27.7571 27.5475C27.7571 27.5475 27.7571 27.5475 27.7571 27.5475L27.7571 27.5475C27.7571 27.5475 27.7571 27.5475 27.7571 27.5475C27.7571 27.5475 27.7571 27.5475 27.7571 27.5475C27.7571 27.5475 27.7571 27.5475 27.7571 27.5475C27.7571 27.5475 27.7571 27.5475 27.7571 27.5475C27.7571 27.5475 27.7571 27.5475 27.7571 27.5475C27.7571 27.5475 27.7571 27.5475 27.7571 27.5475C27.7571 27.5475 27.7571 27.5475 27.7571 27.5475H27.7571L27.7571 27.5475C27.7571 27.5475 27.7571 27.5475 27.7571 27.5475C27.7571 27.5475 27.7571 27.5475 27.757 27.5475H27.757C27.757 27.5475 27.757 27.5475 27.757 27.5475C27.757 27.5475 27.757 27.5475 27.757 27.5475C27.757 27.5475 27.757 27.5475 27.757 27.5475H27.757H27.757C27.757 27.5475 27.757 27.5475 27.757 27.5475C27.757 27.5475 27.757 27.5475 27.757 27.5475C27.757 27.5475 27.757 27.5475 27.757 27.5475H27.757C27.757 27.5475 27.757 27.5475 27.757 27.5475C27.757 27.5475 27.757 27.5475 27.757 27.5475C27.757 27.5475 27.757 27.5475 27.757 27.5475H27.757C27.757 27.5475 27.757 27.5475 27.757 27.5475C27.757 27.5475 27.757 27.5475 27.757 27.5475H27.757C27.757 27.5475 27.757 27.5475 27.757 27.5475C27.757 27.5475 27.757 27.5475 27.757 27.5475C27.757 27.5475 27.757 27.5475 27.757 27.5475C27.757 27.5475 27.757 27.5475 27.757 27.5475L27.757 27.5475C27.757 27.5475 27.757 27.5475 27.757 27.5475C27.757 27.5475 27.757 27.5475 27.757 27.5475C27.757 27.5475 27.757 27.5475 27.757 27.5475C27.757 27.5475 27.757 27.5475 27.757 27.5475C27.757 27.5475 27.757 27.5475 27.757 27.5475C27.757 27.5475 27.757 27.5475 27.757 27.5475C27.757 27.5475 27.757 27.5475 27.757 27.5475H27.757C27.757 27.5475 27.757 27.5475 27.757 27.5475C27.757 27.5475 27.757 27.5475 27.757 27.5475C27.757 27.5475 27.757 27.5475 27.757 27.5475H27.757L27.757 27.5475C27.757 27.5475 27.757 27.5475 27.757 27.5475C27.757 27.5475 27.757 27.5475 27.757 27.5475H27.757C27.757 27.5475 27.757 27.5475 27.757 27.5475C27.757 27.5475 27.757 27.5475 27.757 27.5475C27.757 27.5475 27.757 27.5475 27.757 27.5475C27.757 27.5475 27.757 27.5475 27.757 27.5475H27.757C27.757 27.5475 27.757 27.5475 27.757 27.5475C27.757 27.5475 27.757 27.5475 27.757 27.5475L27.757 27.5475H27.757C27.757 27.5475 27.757 27.5475 27.757 27.5475C27.757 27.5475 27.757 27.5475 27.757 27.5475C27.757 27.5475 27.757 27.5475 27.757 27.5475H27.757C27.757 27.5475 27.757 27.5475 27.757 27.5475C27.757 27.5475 27.757 27.5475 27.757 27.5475C27.757 27.5475 27.757 27.5475 27.757 27.5475C27.757 27.5476 27.757 27.5476 27.757 27.5476C27.757 27.5476 27.757 27.5476 27.757 27.5476C27.757 27.5476 27.757 27.5476 27.757 27.5476C27.757 27.5476 27.757 27.5476 27.757 27.5476L27.757 27.5476C27.757 27.5476 27.757 27.5476 27.757 27.5476C27.757 27.5476 27.757 27.5476 27.757 27.5476C27.757 27.5476 27.757 27.5476 27.757 27.5476H27.757C27.757 27.5476 27.757 27.5476 27.757 27.5476C27.757 27.5476 27.757 27.5476 27.757 27.5476C27.757 27.5476 27.757 27.5476 27.757 27.5476H27.757L27.757 27.5476C27.757 27.5476 27.757 27.5476 27.757 27.5476L28.3087 28.2974C28.3087 28.2974 28.3087 28.2974 28.3087 28.2974H28.3087C28.3087 28.2974 28.3087 28.2974 28.3087 28.2974C28.3087 28.2974 28.3087 28.2974 28.3087 28.2974C28.3087 28.2974 28.3087 28.2974 28.3087 28.2974H28.3087L28.3087 28.2974C28.3087 28.2974 28.3087 28.2974 28.3087 28.2974C28.3087 28.2974 28.3087 28.2974 28.3087 28.2974H28.3087C28.3087 28.2974 28.3087 28.2974 28.3087 28.2974C28.3087 28.2974 28.3087 28.2974 28.3087 28.2974C28.3087 28.2974 28.3087 28.2974 28.3087 28.2974C28.3087 28.2973 28.3087 28.2973 28.3087 28.2973H28.3087C28.3087 28.2973 28.3087 28.2973 28.3087 28.2973C28.3087 28.2973 28.3087 28.2973 28.3087 28.2973C28.3087 28.2973 28.3087 28.2973 28.3087 28.2973H28.3087C28.3087 28.2973 28.3087 28.2973 28.3087 28.2973C28.3087 28.2973 28.3087 28.2973 28.3087 28.2973C28.3087 28.2973 28.3087 28.2973 28.3087 28.2973H28.3087C28.3087 28.2973 28.3087 28.2973 28.3087 28.2973C28.3087 28.2973 28.3087 28.2973 28.3087 28.2973C28.3087 28.2973 28.3087 28.2973 28.3087 28.2973C28.3087 28.2973 28.3087 28.2973 28.3087 28.2973H28.3087C28.3087 28.2973 28.3087 28.2973 28.3087 28.2973C28.3087 28.2973 28.3087 28.2973 28.3087 28.2973L28.3087 28.2973H28.3087C28.3087 28.2973 28.3087 28.2973 28.3087 28.2973C28.3087 28.2973 28.3087 28.2973 28.3087 28.2973C28.3087 28.2973 28.3087 28.2973 28.3087 28.2973H28.3088C28.3088 28.2973 28.3088 28.2973 28.3088 28.2973C28.3088 28.2973 28.3088 28.2973 28.3088 28.2973H28.3088C28.3088 28.2973 28.3088 28.2973 28.3088 28.2973C28.3088 28.2973 28.3088 28.2973 28.3088 28.2973C28.3088 28.2973 28.3088 28.2973 28.3088 28.2973H28.3088L28.3088 28.2973C28.3088 28.2973 28.3088 28.2973 28.3088 28.2973C28.3088 28.2973 28.3088 28.2973 28.3088 28.2973C28.3088 28.2973 28.3088 28.2973 28.3088 28.2973H28.3088C28.3088 28.2973 28.3088 28.2973 28.3088 28.2973C28.3088 28.2973 28.3088 28.2973 28.3088 28.2973C28.3088 28.2973 28.3088 28.2973 28.3088 28.2973H28.3088C28.3088 28.2973 28.3088 28.2973 28.3088 28.2973C28.3088 28.2973 28.3088 28.2973 28.3088 28.2973C28.3088 28.2973 28.3088 28.2973 28.3088 28.2973H28.3088C28.3088 28.2973 28.3088 28.2973 28.3088 28.2973C28.3088 28.2973 28.3088 28.2973 28.3088 28.2973C28.3088 28.2973 28.3088 28.2973 28.3088 28.2973H28.3088H28.3088C28.3088 28.2973 28.3088 28.2973 28.3088 28.2973C28.3088 28.2973 28.3088 28.2973 28.3088 28.2973C28.3088 28.2973 28.3088 28.2973 28.3088 28.2973H28.3088C28.3088 28.2973 28.3088 28.2973 28.3088 28.2973C28.3088 28.2973 28.3088 28.2973 28.3088 28.2973C28.3088 28.2973 28.3088 28.2973 28.3088 28.2973H28.3088C28.3088 28.2973 28.3088 28.2973 28.3088 28.2973C28.3088 28.2973 28.3088 28.2973 28.3088 28.2973H28.3088C28.3088 28.2973 28.3088 28.2973 28.3088 28.2973C28.3088 28.2973 28.3088 28.2973 28.3088 28.2973C28.3088 28.2973 28.3088 28.2973 28.3088 28.2973H28.3088L28.3088 28.2973C28.3088 28.2973 28.3088 28.2973 28.3088 28.2973C28.3088 28.2973 28.3088 28.2973 28.3088 28.2973C28.3088 28.2973 28.3088 28.2973 28.3088 28.2973C28.3088 28.2973 28.3088 28.2973 28.3088 28.2973C28.3088 28.2973 28.3088 28.2973 28.3088 28.2973C28.3088 28.2973 28.3088 28.2973 28.3088 28.2973C28.3088 28.2973 28.3088 28.2973 28.3088 28.2973H28.3088C28.3088 28.2973 28.3088 28.2973 28.3088 28.2973C28.3088 28.2973 28.3088 28.2973 28.3088 28.2973C28.3088 28.2973 28.3088 28.2973 28.3088 28.2973H28.3088L28.3088 28.2973C28.3088 28.2973 28.3088 28.2973 28.3088 28.2973C28.3088 28.2973 28.3088 28.2973 28.3088 28.2973H28.3088C28.3088 28.2973 28.3088 28.2973 28.3088 28.2973C28.3088 28.2973 28.3088 28.2973 28.3088 28.2973C28.3088 28.2973 28.3088 28.2973 28.3088 28.2973C28.3088 28.2973 28.3088 28.2973 28.3088 28.2973H28.3088C28.3088 28.2973 28.3088 28.2973 28.3088 28.2973C28.3088 28.2973 28.3088 28.2973 28.3088 28.2973L28.3088 28.2973H28.3088C28.3088 28.2973 28.3088 28.2973 28.3088 28.2973C28.3088 28.2973 28.3088 28.2973 28.3088 28.2973C28.3088 28.2973 28.3088 28.2973 28.3088 28.2973H28.3088C28.3088 28.2973 28.3088 28.2973 28.3088 28.2973C28.3088 28.2973 28.3088 28.2973 28.3088 28.2973C28.3088 28.2973 28.3088 28.2973 28.3088 28.2973C28.3088 28.2973 28.3088 28.2973 28.3088 28.2973C28.3088 28.2973 28.3088 28.2973 28.3088 28.2973C28.3088 28.2973 28.3088 28.2973 28.3088 28.2973C28.3088 28.2973 28.3088 28.2973 28.3088 28.2973L28.3088 28.2973C28.3088 28.2973 28.3088 28.2973 28.3088 28.2973C28.3088 28.2973 28.3088 28.2973 28.3088 28.2973C28.3088 28.2973 28.3088 28.2973 28.3088 28.2973H28.3088C28.3088 28.2973 28.3088 28.2973 28.3088 28.2973C28.3088 28.2973 28.3088 28.2973 28.3089 28.2973C28.3089 28.2973 28.3089 28.2973 28.3089 28.2973H28.3089L28.3089 28.2973C28.3089 28.2973 28.3089 28.2973 28.3089 28.2973C28.3089 28.2973 28.3089 28.2973 28.3089 28.2973H28.3089C28.3089 28.2973 28.3089 28.2973 28.3089 28.2973C28.3089 28.2973 28.3089 28.2973 28.3089 28.2973C28.3089 28.2973 28.3089 28.2973 28.3089 28.2972H28.3089H28.3089C28.3089 28.2972 28.3089 28.2972 28.3089 28.2972C28.3089 28.2972 28.3089 28.2972 28.3089 28.2972L28.3089 28.2972H28.3089C28.3089 28.2972 28.3089 28.2972 28.3089 28.2972C28.3089 28.2972 28.3089 28.2972 28.3089 28.2972C28.3089 28.2972 28.3089 28.2972 28.3089 28.2972H28.3089C28.3089 28.2972 28.3089 28.2972 28.3089 28.2972C28.3089 28.2972 28.3089 28.2972 28.3089 28.2972C28.3089 28.2972 28.3089 28.2972 28.3089 28.2972C28.3089 28.2972 28.3089 28.2972 28.3089 28.2972C28.3089 28.2972 28.3089 28.2972 28.3089 28.2972C28.3089 28.2972 28.3089 28.2972 28.3089 28.2972C28.3089 28.2972 28.3089 28.2972 28.3089 28.2972L28.3089 28.2972C28.3089 28.2972 28.3089 28.2972 28.3089 28.2972C28.3089 28.2972 28.3089 28.2972 28.3089 28.2972C28.3089 28.2972 28.3089 28.2972 28.3089 28.2972C28.3089 28.2972 28.3089 28.2972 28.3089 28.2972H28.3089C28.3089 28.2972 28.3089 28.2972 28.3089 28.2972C28.3089 28.2972 28.3089 28.2972 28.3089 28.2972H28.3089C28.3089 28.2972 28.3089 28.2972 28.3089 28.2972C28.3089 28.2972 28.3089 28.2972 28.3089 28.2972C28.3089 28.2972 28.3089 28.2972 28.3089 28.2972H28.3089L28.3089 28.2972C28.3089 28.2972 28.3089 28.2972 28.3089 28.2972C28.3089 28.2972 28.3089 28.2972 28.3089 28.2972H28.3089C28.3089 28.2972 28.3089 28.2972 28.3089 28.2972C28.3089 28.2972 28.3089 28.2972 28.3089 28.2972C28.3089 28.2972 28.3089 28.2972 28.3089 28.2972C28.3089 28.2972 28.3089 28.2972 28.3089 28.2972H28.3089C28.3089 28.2972 28.3089 28.2972 28.3089 28.2972C28.3089 28.2972 28.3089 28.2972 28.3089 28.2972L28.3089 28.2972H28.3089C28.3089 28.2972 28.3089 28.2972 28.3089 28.2972C28.3089 28.2972 28.3089 28.2972 28.3089 28.2972C28.3089 28.2972 28.3089 28.2972 28.3089 28.2972H28.3089C28.3089 28.2972 28.3089 28.2972 28.3089 28.2972C28.3089 28.2972 28.3089 28.2972 28.3089 28.2972C28.3089 28.2972 28.3089 28.2972 28.3089 28.2972C28.3089 28.2972 28.3089 28.2972 28.3089 28.2972C28.3089 28.2972 28.3089 28.2972 28.3089 28.2972C28.3089 28.2972 28.3089 28.2972 28.3089 28.2972C28.3089 28.2972 28.3089 28.2972 28.3089 28.2972C28.3089 28.2972 28.3089 28.2972 28.3089 28.2972H28.3089C28.3089 28.2972 28.3089 28.2972 28.3089 28.2972C28.3089 28.2972 28.3089 28.2972 28.3089 28.2972H28.3089C28.3089 28.2972 28.3089 28.2972 28.3089 28.2972C28.3089 28.2972 28.3089 28.2972 28.3089 28.2972C28.3089 28.2972 28.3089 28.2972 28.3089 28.2972H28.3089L28.3089 28.2972C28.3089 28.2972 28.3089 28.2972 28.3089 28.2972C28.3089 28.2972 28.3089 28.2972 28.3089 28.2972H28.3089C28.3089 28.2972 28.3089 28.2972 28.3089 28.2972C28.3089 28.2972 28.3089 28.2972 28.3089 28.2972C28.3089 28.2972 28.3089 28.2972 28.3089 28.2972H28.3089H28.3089C28.3089 28.2972 28.3089 28.2972 28.3089 28.2972C28.3089 28.2972 28.3089 28.2972 28.3089 28.2972L28.3089 28.2972H28.309C28.309 28.2972 28.309 28.2972 28.309 28.2972C28.309 28.2972 28.309 28.2972 28.309 28.2972C28.309 28.2972 28.309 28.2972 28.309 28.2972H28.309C28.309 28.2972 28.309 28.2972 28.309 28.2972C28.309 28.2972 28.309 28.2972 28.309 28.2972C28.309 28.2972 28.309 28.2972 28.309 28.2972C28.309 28.2972 28.309 28.2972 28.309 28.2972C28.309 28.2972 28.309 28.2972 28.309 28.2972C28.309 28.2972 28.309 28.2972 28.309 28.2972C28.309 28.2972 28.309 28.2972 28.309 28.2972L28.309 28.2972H28.309C28.309 28.2972 28.309 28.2972 28.309 28.2972C28.309 28.2972 28.309 28.2972 28.309 28.2972C28.309 28.2972 28.309 28.2972 28.309 28.2972H28.309C28.309 28.2972 28.309 28.2972 28.309 28.2972C28.309 28.2972 28.309 28.2972 28.309 28.2972H28.309C28.309 28.2972 28.309 28.2972 28.309 28.2972C28.309 28.2972 28.309 28.2972 28.309 28.2972C28.309 28.2972 28.309 28.2972 28.309 28.2972H28.309L28.309 28.2972C28.309 28.2972 28.309 28.2972 28.309 28.2972C28.309 28.2972 28.309 28.2972 28.309 28.2972H28.309C28.309 28.2972 28.309 28.2972 28.309 28.2972C28.309 28.2972 28.309 28.2972 28.309 28.2972C28.309 28.2972 28.309 28.2972 28.309 28.2972C28.309 28.2972 28.309 28.2972 28.309 28.2972H28.309C28.309 28.2972 28.309 28.2972 28.309 28.2972C28.309 28.2972 28.309 28.2972 28.309 28.2972C28.309 28.2972 28.309 28.2972 28.309 28.2972H28.309C28.309 28.2972 28.309 28.2972 28.309 28.2971C28.309 28.2971 28.309 28.2971 28.309 28.2971C28.309 28.2971 28.309 28.2971 28.309 28.2971H28.309C28.309 28.2971 28.309 28.2971 28.309 28.2971C28.309 28.2971 28.309 28.2971 28.309 28.2971C28.309 28.2971 28.309 28.2971 28.309 28.2971C28.309 28.2971 28.309 28.2971 28.309 28.2971H28.309C28.309 28.2971 28.309 28.2971 28.309 28.2971C28.309 28.2971 28.309 28.2971 28.309 28.2971C28.309 28.2971 28.309 28.2971 28.309 28.2971H28.309C28.309 28.2971 28.309 28.2971 28.309 28.2971C28.309 28.2971 28.309 28.2971 28.309 28.2971H28.309C28.309 28.2971 28.309 28.2971 28.309 28.2971C28.309 28.2971 28.309 28.2971 28.309 28.2971C28.309 28.2971 28.309 28.2971 28.309 28.2971H28.309L28.309 28.2971C28.309 28.2971 28.309 28.2971 28.309 28.2971C28.309 28.2971 28.309 28.2971 28.309 28.2971H28.309C28.309 28.2971 28.309 28.2971 28.309 28.2971C28.309 28.2971 28.309 28.2971 28.309 28.2971C28.309 28.2971 28.309 28.2971 28.309 28.2971C28.309 28.2971 28.309 28.2971 28.309 28.2971H28.309C28.309 28.2971 28.309 28.2971 28.309 28.2971C28.309 28.2971 28.309 28.2971 28.309 28.2971C28.309 28.2971 28.309 28.2971 28.309 28.2971H28.309C28.309 28.2971 28.309 28.2971 28.309 28.2971C28.309 28.2971 28.309 28.2971 28.309 28.2971C28.309 28.2971 28.309 28.2971 28.309 28.2971H28.309C28.309 28.2971 28.309 28.2971 28.309 28.2971C28.309 28.2971 28.309 28.2971 28.309 28.2971C28.309 28.2971 28.309 28.2971 28.309 28.2971C28.309 28.2971 28.309 28.2971 28.309 28.2971H28.309C28.309 28.2971 28.309 28.2971 28.309 28.2971C28.309 28.2971 28.309 28.2971 28.309 28.2971L28.309 28.2971H28.309C28.309 28.2971 28.309 28.2971 28.3091 28.2971C28.3091 28.2971 28.3091 28.2971 28.3091 28.2971C28.3091 28.2971 28.3091 28.2971 28.3091 28.2971H28.3091C28.3091 28.2971 28.3091 28.2971 28.3091 28.2971C28.3091 28.2971 28.3091 28.2971 28.3091 28.2971H28.3091C28.3091 28.2971 28.3091 28.2971 28.3091 28.2971C28.3091 28.2971 28.3091 28.2971 28.3091 28.2971C28.3091 28.2971 28.3091 28.2971 28.3091 28.2971H28.3091L28.3091 28.2971C28.3091 28.2971 28.3091 28.2971 28.3091 28.2971C28.3091 28.2971 28.3091 28.2971 28.3091 28.2971C28.3091 28.2971 28.3091 28.2971 28.3091 28.2971H28.3091C28.3091 28.2971 28.3091 28.2971 28.3091 28.2971C28.3091 28.2971 28.3091 28.2971 28.3091 28.2971C28.3091 28.2971 28.3091 28.2971 28.3091 28.2971H28.3091C28.3091 28.2971 28.3091 28.2971 28.3091 28.2971C28.3091 28.2971 28.3091 28.2971 28.3091 28.2971C28.3091 28.2971 28.3091 28.2971 28.3091 28.2971H28.3091C28.3091 28.2971 28.3091 28.2971 28.3091 28.2971C28.3091 28.2971 28.3091 28.2971 28.3091 28.2971C28.3091 28.2971 28.3091 28.2971 28.3091 28.2971H28.3091H28.3091C28.3091 28.2971 28.3091 28.2971 28.3091 28.2971C28.3091 28.2971 28.3091 28.2971 28.3091 28.2971C28.3091 28.2971 28.3091 28.2971 28.3091 28.2971H28.3091C28.3091 28.2971 28.3091 28.2971 28.3091 28.2971C28.3091 28.2971 28.3091 28.2971 28.3091 28.2971C28.3091 28.2971 28.3091 28.2971 28.3091 28.2971H28.3091C28.3091 28.2971 28.3091 28.2971 28.3091 28.2971C28.3091 28.2971 28.3091 28.2971 28.3091 28.2971H28.3091C28.3091 28.2971 28.3091 28.2971 28.3091 28.2971C28.3091 28.2971 28.3091 28.2971 28.3091 28.2971C28.3091 28.2971 28.3091 28.2971 28.3091 28.2971H28.3091L28.3091 28.2971C28.3091 28.2971 28.3091 28.2971 28.3091 28.2971C28.3091 28.2971 28.3091 28.2971 28.3091 28.2971C28.3091 28.2971 28.3091 28.2971 28.3091 28.2971C28.3091 28.2971 28.3091 28.2971 28.3091 28.2971C28.3091 28.2971 28.3091 28.2971 28.3091 28.2971C28.3091 28.2971 28.3091 28.2971 28.3091 28.2971C28.3091 28.2971 28.3091 28.2971 28.3091 28.2971H28.3091C28.3091 28.2971 28.3091 28.2971 28.3091 28.2971C28.3091 28.2971 28.3091 28.2971 28.3091 28.2971C28.3091 28.2971 28.3091 28.2971 28.3091 28.2971H28.3091L28.3091 28.2971C28.3091 28.2971 28.3091 28.2971 28.3091 28.2971C28.3091 28.2971 28.3091 28.2971 28.3091 28.2971H28.3091C28.3091 28.2971 28.3091 28.2971 28.3091 28.2971C28.3091 28.2971 28.3091 28.2971 28.3091 28.2971C28.3091 28.2971 28.3091 28.2971 28.3091 28.2971C28.3091 28.2971 28.3091 28.2971 28.3091 28.2971H28.3091C28.3091 28.2971 28.3091 28.2971 28.3091 28.2971C28.3091 28.2971 28.3091 28.2971 28.3091 28.2971L28.3091 28.2971H28.3091C28.3091 28.2971 28.3091 28.2971 28.3091 28.297C28.3091 28.297 28.3091 28.297 28.3091 28.297C28.3091 28.297 28.3091 28.297 28.3091 28.297H28.3091C28.3091 28.297 28.3091 28.297 28.3091 28.297C28.3091 28.297 28.3091 28.297 28.3091 28.297C28.3091 28.297 28.3091 28.297 28.3091 28.297C28.3091 28.297 28.3091 28.297 28.3091 28.297C28.3091 28.297 28.3091 28.297 28.3091 28.297C28.3091 28.297 28.3091 28.297 28.3091 28.297C28.3091 28.297 28.3091 28.297 28.3091 28.297L28.3091 28.297C28.3091 28.297 28.3091 28.297 28.3091 28.297C28.3091 28.297 28.3091 28.297 28.3091 28.297C28.3091 28.297 28.3091 28.297 28.3091 28.297H28.3092C28.3092 28.297 28.3092 28.297 28.3092 28.297C28.3092 28.297 28.3092 28.297 28.3092 28.297C28.3092 28.297 28.3092 28.297 28.3092 28.297H28.3092L28.3092 28.297C28.3092 28.297 28.3092 28.297 28.3092 28.297C28.3092 28.297 28.3092 28.297 28.3092 28.297H28.3092C28.3092 28.297 28.3092 28.297 28.3092 28.297C28.3092 28.297 28.3092 28.297 28.3092 28.297C28.3092 28.297 28.3092 28.297 28.3092 28.297H28.3092H28.3092C28.3092 28.297 28.3092 28.297 28.3092 28.297C28.3092 28.297 28.3092 28.297 28.3092 28.297L28.3092 28.297H28.3092C28.3092 28.297 28.3092 28.297 28.3092 28.297C28.3092 28.297 28.3092 28.297 28.3092 28.297C28.3092 28.297 28.3092 28.297 28.3092 28.297H28.3092C28.3092 28.297 28.3092 28.297 28.3092 28.297C28.3092 28.297 28.3092 28.297 28.3092 28.297C28.3092 28.297 28.3092 28.297 28.3092 28.297C28.3092 28.297 28.3092 28.297 28.3092 28.297C28.3092 28.297 28.3092 28.297 28.3092 28.297C28.3092 28.297 28.3092 28.297 28.3092 28.297C28.3092 28.297 28.3092 28.297 28.3092 28.297L28.3092 28.297C28.3092 28.297 28.3092 28.297 28.3092 28.297C28.3092 28.297 28.3092 28.297 28.3092 28.297C28.3092 28.297 28.3092 28.297 28.3092 28.297C28.3092 28.297 28.3092 28.297 28.3092 28.297H28.3092C28.3092 28.297 28.3092 28.297 28.3092 28.297C28.3092 28.297 28.3092 28.297 28.3092 28.297H28.3092C28.3092 28.297 28.3092 28.297 28.3092 28.297C28.3092 28.297 28.3092 28.297 28.3092 28.297C28.3092 28.297 28.3092 28.297 28.3092 28.297H28.3092L28.3092 28.297C28.3092 28.297 28.3092 28.297 28.3092 28.297C28.3092 28.297 28.3092 28.297 28.3092 28.297H28.3092C28.3092 28.297 28.3092 28.297 28.3092 28.297C28.3092 28.297 28.3092 28.297 28.3092 28.297C28.3092 28.297 28.3092 28.297 28.3092 28.297C28.3092 28.297 28.3092 28.297 28.3092 28.297H28.3092C28.3092 28.297 28.3092 28.297 28.3092 28.297C28.3092 28.297 28.3092 28.297 28.3092 28.297L28.3092 28.297H28.3092C28.3092 28.297 28.3092 28.297 28.3092 28.297C28.3092 28.297 28.3092 28.297 28.3092 28.297C28.3092 28.297 28.3092 28.297 28.3092 28.297H28.3092C28.3092 28.297 28.3092 28.297 28.3092 28.297C28.3092 28.297 28.3092 28.297 28.3092 28.297C28.3092 28.297 28.3092 28.297 28.3092 28.297C28.3092 28.297 28.3092 28.297 28.3092 28.297C28.3092 28.297 28.3092 28.297 28.3092 28.297C28.3092 28.297 28.3092 28.297 28.3092 28.297C28.3092 28.297 28.3092 28.297 28.3092 28.297C28.3092 28.297 28.3092 28.297 28.3092 28.297H28.3092C28.3092 28.297 28.3092 28.297 28.3092 28.297C28.3092 28.297 28.3092 28.297 28.3092 28.297H28.3092C28.3092 28.297 28.3092 28.297 28.3092 28.297C28.3092 28.297 28.3092 28.297 28.3092 28.297C28.3092 28.297 28.3092 28.297 28.3092 28.297H28.3092L28.3092 28.297C28.3092 28.297 28.3092 28.297 28.3092 28.297C28.3092 28.297 28.3092 28.297 28.3092 28.297H28.3092C28.3092 28.297 28.3092 28.297 28.3092 28.297C28.3092 28.297 28.3092 28.297 28.3092 28.297C28.3092 28.297 28.3092 28.297 28.3092 28.297H28.3092H28.3092C28.3092 28.297 28.3092 28.297 28.3092 28.297C28.3093 28.297 28.3093 28.297 28.3093 28.297L28.3093 28.297H28.3093C28.3093 28.297 28.3093 28.297 28.3093 28.297C28.3093 28.297 28.3093 28.297 28.3093 28.297C28.3093 28.297 28.3093 28.297 28.3093 28.297H28.3093C28.3093 28.297 28.3093 28.297 28.3093 28.297C28.3093 28.297 28.3093 28.297 28.3093 28.297C28.3093 28.297 28.3093 28.297 28.3093 28.297C28.3093 28.297 28.3093 28.297 28.3093 28.297C28.3093 28.297 28.3093 28.297 28.3093 28.297C28.3093 28.297 28.3093 28.297 28.3093 28.297C28.3093 28.297 28.3093 28.297 28.3093 28.297L28.3093 28.2969H28.3093C28.3093 28.2969 28.3093 28.2969 28.3093 28.2969C28.3093 28.2969 28.3093 28.2969 28.3093 28.2969C28.3093 28.2969 28.3093 28.2969 28.3093 28.2969H28.3093C28.3093 28.2969 28.3093 28.2969 28.3093 28.2969C28.3093 28.2969 28.3093 28.2969 28.3093 28.2969H28.3093C28.3093 28.2969 28.3093 28.2969 28.3093 28.2969C28.3093 28.2969 28.3093 28.2969 28.3093 28.2969C28.3093 28.2969 28.3093 28.2969 28.3093 28.2969H28.3093L28.3093 28.2969C28.3093 28.2969 28.3093 28.2969 28.3093 28.2969C28.3093 28.2969 28.3093 28.2969 28.3093 28.2969H28.3093C28.3093 28.2969 28.3093 28.2969 28.3093 28.2969C28.3093 28.2969 28.3093 28.2969 28.3093 28.2969C28.3093 28.2969 28.3093 28.2969 28.3093 28.2969C28.3093 28.2969 28.3093 28.2969 28.3093 28.2969H28.3093C28.3093 28.2969 28.3093 28.2969 28.3093 28.2969C28.3093 28.2969 28.3093 28.2969 28.3093 28.2969C28.3093 28.2969 28.3093 28.2969 28.3093 28.2969H28.3093C28.3093 28.2969 28.3093 28.2969 28.3093 28.2969C28.3093 28.2969 28.3093 28.2969 28.3093 28.2969C28.3093 28.2969 28.3093 28.2969 28.3093 28.2969H28.3093C28.3093 28.2969 28.3093 28.2969 28.3093 28.2969C28.3093 28.2969 28.3093 28.2969 28.3093 28.2969C28.3093 28.2969 28.3093 28.2969 28.3093 28.2969C28.3093 28.2969 28.3093 28.2969 28.3093 28.2969H28.3093C28.3093 28.2969 28.3093 28.2969 28.3093 28.2969C28.3093 28.2969 28.3093 28.2969 28.3093 28.2969C28.3093 28.2969 28.3093 28.2969 28.3093 28.2969H28.3093C28.3093 28.2969 28.3093 28.2969 28.3093 28.2969L27.7576 27.5471ZM27.7178 1.97067C25.2708 4.22271 23.4536 7.14991 22.5622 10.4578L23.461 10.7C24.3056 7.56626 26.0276 4.79139 28.3482 2.65565L27.7178 1.97067ZM23.0116 10.1135H17.1873V11.0444H23.0116V10.1135ZM17.6228 10.7432C19.2623 6.39809 23.2734 3.21703 28.0755 2.77667L27.9905 1.84964C22.8248 2.32333 18.5141 5.74416 16.7518 10.4146L17.6228 10.7432ZM16.8287 15.1178C16.8287 14.1126 16.9483 13.1358 17.1739 12.2009L16.2689 11.9826C16.0263 12.9885 15.8978 14.0385 15.8978 15.1178H16.8287ZM17.3733 18.7627C17.0194 17.6109 16.8287 16.387 16.8287 15.1178H15.8978C15.8978 16.4807 16.1026 17.7967 16.4834 19.0361L17.3733 18.7627ZM22.826 18.4339H16.9283V19.3649H22.826V18.4339ZM21.9482 15.1174C21.9482 16.4503 22.0943 17.7497 22.3715 19.0001L23.2804 18.7987C23.0177 17.6139 22.8792 16.3821 22.8792 15.1174H21.9482ZM22.2174 12.0113C22.0405 13.0204 21.9482 14.0583 21.9482 15.1174H22.8792C22.8792 14.1124 22.9667 13.1283 23.1343 12.1721L22.2174 12.0113ZM16.7214 12.5572H22.6759V11.6263H16.7214V12.5572ZM30.3672 2.77651C35.17 3.21624 39.1819 6.39756 40.8217 10.7432L41.6926 10.4146C39.9301 5.74358 35.6185 2.32249 30.452 1.84947L30.3672 2.77651ZM41.2571 10.1135H35.4311V11.0444H41.2571V10.1135ZM35.8806 10.4578C34.9891 7.14982 33.1719 4.22256 30.7248 1.97049L30.0944 2.65548C32.4151 4.79124 34.1371 7.56618 34.9817 10.7L35.8806 10.4578ZM35.7669 12.5572H41.723V11.6263H35.7669V12.5572ZM36.4945 15.1174C36.4945 14.0583 36.4023 13.0204 36.2253 12.0113L35.3084 12.1721C35.4761 13.1283 35.5636 14.1124 35.5636 15.1174H36.4945ZM36.0712 19.0001C36.3484 17.7497 36.4945 16.4503 36.4945 15.1174H35.5636C35.5636 16.3821 35.425 17.6139 35.1624 18.7987L36.0712 19.0001ZM41.5161 18.4339H35.6168V19.3649H41.5161V18.4339ZM41.6157 15.1178C41.6157 16.387 41.425 17.6109 41.0711 18.7627L41.961 19.0361C42.3418 17.7967 42.5466 16.4807 42.5466 15.1178H41.6157ZM41.2706 12.2009C41.4961 13.1358 41.6157 14.1126 41.6157 15.1178H42.5466C42.5466 14.0385 42.4182 12.9885 42.1755 11.9826L41.2706 12.2009ZM40.52 20.2204C38.7241 24.1903 34.8976 27.0442 30.3676 27.4591L30.4525 28.3861C35.3257 27.9398 39.4381 24.8705 41.3682 20.6041L40.52 20.2204ZM30.6867 27.5483L30.686 27.5477L30.1326 28.2963L30.1334 28.2969L30.6867 27.5483ZM30.7245 28.2645C32.9784 26.1903 34.6979 23.5434 35.6521 20.5537L34.7652 20.2707C33.8612 23.1032 32.2316 25.6125 30.0941 27.5795L30.7245 28.2645ZM35.2086 20.8777H40.9441V19.9468H35.2086V20.8777ZM23.7573 12.0036C23.5628 13.012 23.4611 14.053 23.4611 15.1174H24.392C24.392 14.1125 24.488 13.1305 24.6714 12.1799L23.7573 12.0036ZM34.2284 11.6263H24.2143V12.5572H34.2284V11.6263ZM34.9817 15.1174C34.9817 14.053 34.8799 13.012 34.6854 12.0036L33.7714 12.1799C33.9547 13.1305 34.0508 14.1125 34.0508 15.1174H34.9817ZM34.5154 19.0098C34.8202 17.7619 34.9817 16.4582 34.9817 15.1174H34.0508C34.0508 16.3832 33.8983 17.6127 33.611 18.789L34.5154 19.0098ZM24.3795 19.3649H34.0632V18.4339H24.3795V19.3649ZM23.4611 15.1174C23.4611 16.4582 23.6225 17.7619 23.9274 19.0098L24.8317 18.789C24.5444 17.6127 24.392 16.3832 24.392 15.1174H23.4611ZM25.0304 10.7117C25.854 7.94433 27.4342 5.50177 29.5318 3.62435L28.9109 2.93069C26.6879 4.92037 25.012 7.51004 24.1382 10.4461L25.0304 10.7117ZM33.8584 10.1135H24.5843V11.0444H33.8584V10.1135ZM28.9109 3.62435C31.0086 5.50177 32.5887 7.94433 33.4123 10.7117L34.3045 10.4461C33.4307 7.51004 31.7548 4.92037 29.5318 2.93069L28.9109 3.62435ZM29.5318 26.6104C27.6217 24.9008 26.1406 22.7225 25.2692 20.2571L24.3915 20.5673C25.316 23.1828 26.8866 25.4922 28.9109 27.304L29.5318 26.6104ZM33.1735 20.2571C32.3021 22.7225 30.8211 24.9008 28.9109 26.6104L29.5318 27.304C31.5562 25.4922 33.1268 23.1828 34.0512 20.5673L33.1735 20.2571ZM24.8304 20.8777H33.6124V19.9468H24.8304V20.8777Z" fill="#BCBFC1" mask="url(#path-10-inside-1)"/>
<path d="M74.1085 14.3108V14.4243H77.7227V14.3108L76.7955 13.4719V6.30022L77.7227 5.46131V5.34778H74.1085V5.46131L75.0357 6.29391V13.4782L74.1085 14.3108ZM84.4213 7.88971L84.2636 5.80192C83.881 5.62531 83.4731 5.48234 83.04 5.37301C82.6069 5.25947 82.1779 5.20271 81.7532 5.20271C81.2823 5.20271 80.8492 5.25317 80.4539 5.35409C80.0586 5.4508 79.718 5.60008 79.4321 5.80192C79.1461 6.00376 78.9212 6.25606 78.7572 6.55883C78.5974 6.86159 78.5154 7.21481 78.5112 7.61849C78.507 7.98012 78.5805 8.2997 78.7319 8.57724C78.8875 8.85477 79.0894 9.10497 79.3374 9.32783C79.5898 9.54649 79.8715 9.74623 80.1827 9.92705C80.498 10.1037 80.8155 10.2761 81.1351 10.4443C81.4168 10.5914 81.6881 10.7407 81.9488 10.8921C82.2137 11.0393 82.4471 11.1991 82.6489 11.3715C82.8507 11.5397 83.0105 11.7268 83.1283 11.9328C83.2502 12.1347 83.3091 12.3618 83.3049 12.6141C83.3049 12.8033 83.2712 12.9967 83.204 13.1943C83.1367 13.392 83.0316 13.5707 82.8886 13.7305C82.7498 13.8861 82.5711 14.0143 82.3524 14.1152C82.138 14.2162 81.8794 14.2666 81.5766 14.2666H81.3748C81.0678 14.2666 80.7819 14.1993 80.517 14.0648C80.252 13.926 80.0039 13.7431 79.7727 13.516C79.5414 13.289 79.3248 13.0304 79.123 12.7402C78.9254 12.4459 78.7382 12.1431 78.5616 11.8319H78.467L78.6247 13.9828C78.7845 14.0543 78.9653 14.1258 79.1671 14.1972C79.369 14.2687 79.5876 14.3339 79.8231 14.3928C80.0586 14.4474 80.3067 14.4916 80.5674 14.5252C80.8281 14.5589 81.093 14.5757 81.3622 14.5757C81.8415 14.5757 82.2894 14.5273 82.7057 14.4306C83.122 14.3339 83.4836 14.1825 83.7906 13.9765C84.1017 13.7704 84.3456 13.5055 84.5222 13.1817C84.7031 12.8579 84.7956 12.4711 84.7998 12.0211C84.804 11.6343 84.7346 11.2958 84.5916 11.0056C84.4529 10.7155 84.2636 10.4569 84.0239 10.2298C83.7885 9.99853 83.513 9.79038 83.1977 9.60536C82.8865 9.42034 82.5606 9.24163 82.22 9.06922C81.9256 8.92205 81.6418 8.77697 81.3685 8.634C81.0951 8.49103 80.8534 8.33965 80.6431 8.17986C80.4371 8.01586 80.271 7.83925 80.1448 7.65003C80.0229 7.4566 79.964 7.24004 79.9682 7.00035C79.9724 6.77328 80.0124 6.56934 80.088 6.38852C80.1679 6.2035 80.2752 6.04792 80.4097 5.92176C80.5485 5.79141 80.7125 5.69049 80.9017 5.619C81.0909 5.54752 81.2949 5.51177 81.5135 5.51177C81.686 5.51177 81.8563 5.52439 82.0245 5.54962C82.1969 5.57485 82.3777 5.62952 82.5669 5.71362C82.815 5.85238 83.0358 6.02479 83.2292 6.23083C83.4268 6.43267 83.5971 6.63872 83.7401 6.84897C83.8873 7.05922 84.0092 7.25896 84.1059 7.44819C84.2027 7.63321 84.2783 7.78038 84.333 7.88971H84.4213ZM90.0603 5.20271C89.3959 5.20271 88.7861 5.32045 88.2311 5.55593C87.676 5.7872 87.1987 6.11099 86.7993 6.52729C86.404 6.94358 86.0949 7.43978 85.8721 8.01586C85.6534 8.58775 85.5441 9.2164 85.5441 9.90182C85.5441 10.583 85.6534 11.2117 85.8721 11.7878C86.0949 12.3597 86.404 12.8516 86.7993 13.2637C87.1987 13.6758 87.676 13.9975 88.2311 14.2288C88.7861 14.4601 89.3959 14.5757 90.0603 14.5757C90.7289 14.5757 91.3407 14.4601 91.8957 14.2288C92.4508 13.9975 92.9281 13.6758 93.3276 13.2637C93.7312 12.8474 94.0424 12.3533 94.2611 11.7815C94.4839 11.2054 94.5954 10.5746 94.5954 9.8892C94.5954 9.20799 94.4839 8.58144 94.2611 8.00956C94.0382 7.43347 93.727 6.93728 93.3276 6.52098C92.9281 6.10468 92.4487 5.7809 91.8894 5.54962C91.3344 5.31834 90.7246 5.20271 90.0603 5.20271ZM87.4489 9.90182C87.4489 9.22901 87.5036 8.62349 87.6129 8.08525C87.7265 7.5428 87.8926 7.08235 88.1112 6.7039C88.3341 6.32124 88.6074 6.02899 88.9312 5.82715C89.255 5.62111 89.6313 5.51808 90.0603 5.51808C90.4892 5.51808 90.8676 5.62111 91.1956 5.82715C91.5236 6.02899 91.7969 6.31914 92.0156 6.69759C92.2385 7.07604 92.4067 7.53649 92.5202 8.07894C92.6337 8.61718 92.6905 9.22481 92.6905 9.90182C92.6905 10.5746 92.6337 11.1801 92.5202 11.7184C92.4067 12.2566 92.2385 12.715 92.0156 13.0934C91.7927 13.4719 91.5173 13.762 91.1893 13.9639C90.8655 14.1657 90.4892 14.2666 90.0603 14.2666C89.6313 14.2666 89.255 14.1657 88.9312 13.9639C88.6074 13.7578 88.3341 13.4656 88.1112 13.0871C87.8926 12.7087 87.7265 12.2503 87.6129 11.7121C87.5036 11.1738 87.4489 10.5704 87.4489 9.90182ZM95.592 16.3229L99.8054 4.5278H99.3828L95.163 16.3229H95.592ZM100.26 14.3108V14.4243H103.874V14.3108L102.947 13.4719V6.30022L103.874 5.46131V5.34778H100.26V5.46131L101.187 6.29391V13.4782L100.26 14.3108ZM108.806 9.60536H107.147V5.65685H109.778L111.108 7.75095H111.172V5.34778H104.46V5.46131L105.388 6.29391V13.4782L104.46 14.3108V14.4243H111.556L111.884 12.0211L111.821 12.0148L110.169 14.1152H107.147V9.91443H108.806L109.74 11.1192H109.853V8.47631H109.74L108.806 9.60536ZM120.046 5.80192C119.613 5.64213 119.191 5.51177 118.778 5.41085C118.366 5.30573 117.946 5.24265 117.517 5.22163C117.391 5.20901 117.267 5.20271 117.145 5.20271C116.426 5.20271 115.776 5.32255 115.196 5.56224C114.62 5.79772 114.13 6.12781 113.726 6.55252C113.322 6.97302 113.011 7.47342 112.793 8.05371C112.574 8.6298 112.465 9.26055 112.465 9.94597C112.465 10.623 112.578 11.2453 112.805 11.813C113.036 12.3807 113.358 12.8706 113.77 13.2827C114.182 13.6905 114.674 14.008 115.246 14.2351C115.818 14.4622 116.449 14.5757 117.138 14.5757C117.643 14.5757 118.135 14.521 118.614 14.4117C119.098 14.2982 119.575 14.1531 120.046 13.9765L120.223 11.5102H120.097C120.055 11.649 119.989 11.8361 119.901 12.0716C119.813 12.3071 119.689 12.5552 119.529 12.8159C119.369 13.0724 119.17 13.3205 118.93 13.5602C118.69 13.7957 118.398 13.9849 118.053 14.1279L117.977 14.1657C117.834 14.2036 117.7 14.2309 117.574 14.2477C117.448 14.2603 117.33 14.2666 117.22 14.2666C116.766 14.2666 116.363 14.1657 116.009 13.9639C115.656 13.7578 115.358 13.4677 115.114 13.0934C114.87 12.715 114.685 12.2587 114.559 11.7247C114.433 11.1865 114.369 10.5872 114.369 9.92705C114.369 9.27527 114.428 8.68026 114.546 8.14202C114.664 7.59957 114.838 7.13491 115.07 6.74805C115.301 6.36119 115.589 6.06053 115.934 5.84607C116.283 5.62741 116.686 5.51808 117.145 5.51808C117.275 5.51808 117.412 5.52649 117.555 5.54331C117.702 5.56013 117.855 5.58957 118.015 5.63162L118.053 5.65054C118.402 5.79351 118.696 5.98484 118.936 6.22453C119.176 6.46001 119.373 6.706 119.529 6.96251C119.689 7.21901 119.813 7.46711 119.901 7.7068C119.989 7.94228 120.055 8.1315 120.097 8.27447H120.223L120.046 5.80192ZM124.733 8.19878C124.762 8.10207 124.806 7.96961 124.865 7.80141C124.928 7.629 125.008 7.44398 125.105 7.24635C125.202 7.04871 125.317 6.84687 125.452 6.64082C125.586 6.43478 125.74 6.24765 125.912 6.07945C126.085 5.91125 126.278 5.77459 126.493 5.66946C126.707 5.56434 126.942 5.51177 127.199 5.51177C127.439 5.51177 127.653 5.55803 127.842 5.65054C128.032 5.74305 128.191 5.87551 128.322 6.04792C128.452 6.21612 128.551 6.42216 128.618 6.66605C128.69 6.90994 128.725 7.18537 128.725 7.49234C128.725 7.92546 128.631 8.37329 128.442 8.83584C128.257 9.2984 127.981 9.78828 127.615 10.3055C127.249 10.8185 126.795 11.3652 126.253 11.9455C125.71 12.5215 125.084 13.1397 124.373 13.7999L124.436 14.4243H130.41L130.788 11.4409L130.725 11.4345L129.186 13.106H125.742C126.495 12.5257 127.167 12.0022 127.76 11.5355C128.357 11.0645 128.862 10.6167 129.274 10.192C129.69 9.76726 130.008 9.34675 130.227 8.93046C130.449 8.50995 130.561 8.05791 130.561 7.57434C130.561 7.21691 130.492 6.89312 130.353 6.60298C130.218 6.30863 130.016 6.05843 129.747 5.85238C129.478 5.64634 129.142 5.48654 128.738 5.37301C128.334 5.25947 127.868 5.20271 127.338 5.20271C127.102 5.20691 126.879 5.21953 126.669 5.24055C126.463 5.25737 126.259 5.2847 126.057 5.32255C125.855 5.36039 125.652 5.41085 125.446 5.47393C125.239 5.5328 125.017 5.60639 124.777 5.69469L124.607 8.19878H124.733ZM137.007 6.72913C136.507 7.42296 136.019 8.09997 135.544 8.76015C135.073 9.41614 134.629 10.0595 134.213 10.6903C133.801 11.3168 133.429 11.9307 133.097 12.5321C132.764 13.1334 132.491 13.7242 132.277 14.3045V14.4243H134.062C134.297 13.6338 134.56 12.8685 134.85 12.1284C135.144 11.3841 135.453 10.6608 135.777 9.95858C136.105 9.25635 136.444 8.57513 136.793 7.91494C137.142 7.25055 137.491 6.60508 137.84 5.97853L137.758 5.34778H131.696V6.72913H137.007ZM145.8 9.8892C145.8 9.20799 145.703 8.58144 145.51 8.00956C145.321 7.43347 145.058 6.93938 144.721 6.52729C144.385 6.11099 143.988 5.7872 143.529 5.55593C143.071 5.32465 142.575 5.20901 142.041 5.20901C141.507 5.20901 141.012 5.32465 140.558 5.55593C140.104 5.7872 139.711 6.11099 139.379 6.52729C139.047 6.93938 138.786 7.43347 138.597 8.00956C138.412 8.58144 138.319 9.20799 138.319 9.8892C138.319 10.5704 138.414 11.1991 138.603 11.7752C138.792 12.347 139.053 12.8411 139.385 13.2574C139.717 13.6695 140.111 13.9933 140.565 14.2288C141.019 14.4601 141.511 14.5757 142.041 14.5757C142.575 14.5757 143.071 14.4601 143.529 14.2288C143.988 13.9933 144.385 13.6695 144.721 13.2574C145.058 12.8411 145.321 12.347 145.51 11.7752C145.703 11.1991 145.8 10.5704 145.8 9.8892ZM140.224 9.8892C140.224 9.21219 140.258 8.60457 140.325 8.06633C140.396 7.52388 140.506 7.06343 140.653 6.68498C140.8 6.30652 140.987 6.01638 141.214 5.81454C141.446 5.6127 141.721 5.51177 142.041 5.51177C142.364 5.51177 142.642 5.6127 142.873 5.81454C143.109 6.01638 143.302 6.30652 143.454 6.68498C143.605 7.06343 143.716 7.52388 143.788 8.06633C143.859 8.60457 143.895 9.21219 143.895 9.8892C143.895 10.5662 143.859 11.1759 143.788 11.7184C143.716 12.2566 143.605 12.715 143.454 13.0934C143.302 13.4719 143.109 13.7641 142.873 13.9702C142.642 14.172 142.364 14.2729 142.041 14.2729C141.721 14.2729 141.446 14.172 141.214 13.9702C140.987 13.7641 140.8 13.4719 140.653 13.0934C140.506 12.715 140.396 12.2566 140.325 11.7184C140.258 11.1759 140.224 10.5662 140.224 9.8892ZM154.302 9.8892C154.302 9.20799 154.206 8.58144 154.012 8.00956C153.823 7.43347 153.56 6.93938 153.224 6.52729C152.887 6.11099 152.49 5.7872 152.032 5.55593C151.573 5.32465 151.077 5.20901 150.543 5.20901C150.009 5.20901 149.515 5.32465 149.061 5.55593C148.607 5.7872 148.214 6.11099 147.881 6.52729C147.549 6.93938 147.288 7.43347 147.099 8.00956C146.914 8.58144 146.822 9.20799 146.822 9.8892C146.822 10.5704 146.916 11.1991 147.106 11.7752C147.295 12.347 147.556 12.8411 147.888 13.2574C148.22 13.6695 148.613 13.9933 149.067 14.2288C149.521 14.4601 150.013 14.5757 150.543 14.5757C151.077 14.5757 151.573 14.4601 152.032 14.2288C152.49 13.9933 152.887 13.6695 153.224 13.2574C153.56 12.8411 153.823 12.347 154.012 11.7752C154.206 11.1991 154.302 10.5704 154.302 9.8892ZM148.727 9.8892C148.727 9.21219 148.76 8.60457 148.828 8.06633C148.899 7.52388 149.008 7.06343 149.156 6.68498C149.303 6.30652 149.49 6.01638 149.717 5.81454C149.948 5.6127 150.224 5.51177 150.543 5.51177C150.867 5.51177 151.144 5.6127 151.376 5.81454C151.611 6.01638 151.805 6.30652 151.956 6.68498C152.107 7.06343 152.219 7.52388 152.29 8.06633C152.362 8.60457 152.398 9.21219 152.398 9.8892C152.398 10.5662 152.362 11.1759 152.29 11.7184C152.219 12.2566 152.107 12.715 151.956 13.0934C151.805 13.4719 151.611 13.7641 151.376 13.9702C151.144 14.172 150.867 14.2729 150.543 14.2729C150.224 14.2729 149.948 14.172 149.717 13.9702C149.49 13.7641 149.303 13.4719 149.156 13.0934C149.008 12.715 148.899 12.2566 148.828 11.7184C148.76 11.1759 148.727 10.5662 148.727 9.8892ZM155.236 6.84897V6.94358H156.542V13.4719L155.608 14.3108V14.4243H159.229V14.3108L158.301 13.4719V5.18378H158.201L155.236 6.84897ZM160.301 8.85477C160.301 8.99353 160.324 9.12179 160.37 9.23953C160.421 9.35306 160.49 9.45188 160.578 9.53598C160.667 9.62008 160.77 9.68526 160.888 9.73151C161.009 9.77777 161.14 9.8009 161.279 9.8009C161.426 9.8009 161.558 9.77777 161.676 9.73151C161.798 9.68526 161.901 9.62008 161.985 9.53598C162.069 9.45188 162.134 9.35306 162.181 9.23953C162.231 9.12179 162.256 8.99353 162.256 8.85477C162.256 8.716 162.231 8.58985 162.181 8.47631C162.134 8.35857 162.069 8.25765 161.985 8.17355C161.901 8.08945 161.798 8.02427 161.676 7.97802C161.558 7.93176 161.426 7.90864 161.279 7.90864C161.136 7.90864 161.003 7.93176 160.881 7.97802C160.763 8.02427 160.66 8.08945 160.572 8.17355C160.488 8.25765 160.421 8.35857 160.37 8.47631C160.324 8.58985 160.301 8.716 160.301 8.85477ZM161.279 12.6897C161.136 12.6897 161.003 12.7129 160.881 12.7591C160.763 12.8054 160.66 12.8706 160.572 12.9547C160.488 13.0388 160.421 13.1376 160.37 13.2511C160.324 13.3647 160.301 13.4908 160.301 13.6296C160.301 13.7683 160.324 13.8966 160.37 14.0143C160.421 14.1321 160.49 14.233 160.578 14.3171C160.667 14.397 160.77 14.4601 160.888 14.5063C161.009 14.5526 161.14 14.5757 161.279 14.5757C161.569 14.5757 161.804 14.4895 161.985 14.3171C162.166 14.1405 162.256 13.9113 162.256 13.6296C162.256 13.495 162.231 13.371 162.181 13.2574C162.134 13.1397 162.069 13.0388 161.985 12.9547C161.901 12.8706 161.798 12.8054 161.676 12.7591C161.558 12.7129 161.426 12.6897 161.279 12.6897ZM163.411 8.19878C163.44 8.10207 163.484 7.96961 163.543 7.80141C163.606 7.629 163.686 7.44398 163.783 7.24635C163.879 7.04871 163.995 6.84687 164.13 6.64082C164.264 6.43478 164.418 6.24765 164.59 6.07945C164.762 5.91125 164.956 5.77459 165.17 5.66946C165.385 5.56434 165.62 5.51177 165.877 5.51177C166.116 5.51177 166.331 5.55803 166.52 5.65054C166.709 5.74305 166.869 5.87551 167 6.04792C167.13 6.21612 167.229 6.42216 167.296 6.66605C167.367 6.90994 167.403 7.18537 167.403 7.49234C167.403 7.92546 167.309 8.37329 167.119 8.83584C166.934 9.2984 166.659 9.78828 166.293 10.3055C165.927 10.8185 165.473 11.3652 164.931 11.9455C164.388 12.5215 163.762 13.1397 163.051 13.7999L163.114 14.4243H169.087L169.466 11.4409L169.403 11.4345L167.864 13.106H164.42C165.172 12.5257 165.845 12.0022 166.438 11.5355C167.035 11.0645 167.54 10.6167 167.952 10.192C168.368 9.76726 168.686 9.34675 168.904 8.93046C169.127 8.50995 169.239 8.05791 169.239 7.57434C169.239 7.21691 169.169 6.89312 169.031 6.60298C168.896 6.30863 168.694 6.05843 168.425 5.85238C168.156 5.64634 167.819 5.48654 167.416 5.37301C167.012 5.25947 166.545 5.20271 166.016 5.20271C165.78 5.20691 165.557 5.21953 165.347 5.24055C165.141 5.25737 164.937 5.2847 164.735 5.32255C164.533 5.36039 164.329 5.41085 164.123 5.47393C163.917 5.5328 163.694 5.60639 163.455 5.69469L163.284 8.19878H163.411ZM177.905 9.8892C177.905 9.20799 177.809 8.58144 177.615 8.00956C177.426 7.43347 177.163 6.93938 176.827 6.52729C176.49 6.11099 176.093 5.7872 175.635 5.55593C175.176 5.32465 174.68 5.20901 174.146 5.20901C173.612 5.20901 173.118 5.32465 172.664 5.55593C172.21 5.7872 171.816 6.11099 171.484 6.52729C171.152 6.93938 170.891 7.43347 170.702 8.00956C170.517 8.58144 170.425 9.20799 170.425 9.8892C170.425 10.5704 170.519 11.1991 170.708 11.7752C170.898 12.347 171.158 12.8411 171.49 13.2574C171.823 13.6695 172.216 13.9933 172.67 14.2288C173.124 14.4601 173.616 14.5757 174.146 14.5757C174.68 14.5757 175.176 14.4601 175.635 14.2288C176.093 13.9933 176.49 13.6695 176.827 13.2574C177.163 12.8411 177.426 12.347 177.615 11.7752C177.809 11.1991 177.905 10.5704 177.905 9.8892ZM172.329 9.8892C172.329 9.21219 172.363 8.60457 172.43 8.06633C172.502 7.52388 172.611 7.06343 172.758 6.68498C172.905 6.30652 173.093 6.01638 173.32 5.81454C173.551 5.6127 173.826 5.51177 174.146 5.51177C174.47 5.51177 174.747 5.6127 174.979 5.81454C175.214 6.01638 175.407 6.30652 175.559 6.68498C175.71 7.06343 175.822 7.52388 175.893 8.06633C175.965 8.60457 176 9.21219 176 9.8892C176 10.5662 175.965 11.1759 175.893 11.7184C175.822 12.2566 175.71 12.715 175.559 13.0934C175.407 13.4719 175.214 13.7641 174.979 13.9702C174.747 14.172 174.47 14.2729 174.146 14.2729C173.826 14.2729 173.551 14.172 173.32 13.9702C173.093 13.7641 172.905 13.4719 172.758 13.0934C172.611 12.715 172.502 12.2566 172.43 11.7184C172.363 11.1759 172.329 10.5662 172.329 9.8892ZM178.839 6.84897V6.94358H180.144V13.4719L179.211 14.3108V14.4243H182.831V14.3108L181.904 13.4719V5.18378H181.803L178.839 6.84897ZM188.338 12.2293C188.338 12.5279 188.296 12.8033 188.212 13.0556C188.128 13.3037 188.006 13.5181 187.846 13.699C187.686 13.8756 187.488 14.0143 187.253 14.1152C187.022 14.2162 186.757 14.2666 186.458 14.2666C186.126 14.2666 185.83 14.193 185.569 14.0459C185.308 13.8987 185.077 13.7011 184.875 13.453C184.673 13.2049 184.495 12.9189 184.339 12.5951C184.183 12.2713 184.042 11.9328 183.916 11.5796H183.79L183.96 14.0332C184.07 14.1005 184.213 14.1678 184.389 14.2351C184.57 14.2982 184.77 14.3549 184.989 14.4054C185.211 14.4559 185.447 14.4958 185.695 14.5252C185.943 14.5589 186.189 14.5757 186.433 14.5757C186.967 14.5757 187.455 14.5147 187.896 14.3928C188.342 14.2666 188.725 14.09 189.044 13.8629C189.364 13.6359 189.612 13.3625 189.789 13.043C189.969 12.7234 190.06 12.3681 190.06 11.977C190.06 11.649 189.999 11.3483 189.877 11.075C189.755 10.7975 189.583 10.5515 189.36 10.337C189.141 10.1184 188.876 9.93125 188.565 9.77567C188.254 9.61588 187.909 9.49183 187.531 9.40352C188.262 9.22691 188.819 8.95989 189.202 8.60247C189.585 8.24504 189.776 7.81823 189.776 7.32204C189.776 7.01086 189.705 6.72703 189.562 6.47052C189.423 6.20981 189.221 5.98694 188.956 5.80192C188.695 5.6127 188.378 5.46552 188.004 5.36039C187.634 5.25527 187.215 5.20271 186.748 5.20271C186.483 5.20271 186.227 5.21742 185.979 5.24686C185.731 5.27629 185.495 5.31414 185.272 5.36039C185.054 5.40665 184.852 5.45921 184.667 5.51808C184.482 5.57695 184.318 5.63582 184.175 5.69469L183.998 8.19878C184.019 8.19878 184.038 8.19878 184.055 8.19878C184.072 8.19458 184.091 8.19248 184.112 8.19248C184.175 8.02007 184.246 7.83505 184.326 7.63741C184.406 7.43978 184.497 7.24214 184.598 7.0445C184.703 6.84266 184.82 6.65134 184.951 6.47052C185.081 6.2855 185.23 6.1215 185.399 5.97853C185.567 5.83556 185.754 5.72203 185.96 5.63793C186.166 5.55383 186.395 5.51177 186.647 5.51177C186.875 5.51177 187.072 5.55803 187.24 5.65054C187.413 5.73885 187.556 5.86289 187.669 6.02268C187.787 6.18248 187.873 6.37591 187.928 6.60298C187.987 6.82584 188.016 7.06974 188.016 7.33465C188.016 7.66264 187.964 7.95279 187.859 8.20509C187.758 8.45319 187.608 8.66975 187.411 8.85477C187.217 9.03558 186.978 9.18696 186.692 9.30891C186.406 9.43085 186.08 9.52757 185.714 9.59906V9.86397C186.084 9.89341 186.429 9.96699 186.748 10.0847C187.068 10.1983 187.346 10.3539 187.581 10.5515C187.816 10.7491 188.001 10.9888 188.136 11.2706C188.271 11.5481 188.338 11.8677 188.338 12.2293ZM81.81 22.8019C81.3769 22.6421 80.9543 22.5118 80.5422 22.4109C80.1301 22.3057 79.7096 22.2427 79.2807 22.2216C79.1545 22.209 79.0305 22.2027 78.9085 22.2027C78.1895 22.2027 77.5398 22.3225 76.9595 22.5622C76.3834 22.7977 75.8935 23.1278 75.4899 23.5525C75.0862 23.973 74.775 24.4734 74.5563 25.0537C74.3377 25.6298 74.2283 26.2606 74.2283 26.946C74.2283 27.623 74.3419 28.2453 74.569 28.813C74.8002 29.3807 75.1219 29.8706 75.534 30.2827C75.9461 30.6905 76.4381 31.008 77.01 31.2351C77.5819 31.4622 78.2126 31.5757 78.9022 31.5757C79.4068 31.5757 79.8988 31.521 80.3782 31.4117C80.8618 31.2982 81.339 31.1531 81.81 30.9765L81.9866 28.5102H81.8605C81.8184 28.649 81.7532 28.8361 81.6649 29.0716C81.5766 29.3071 81.4526 29.5552 81.2928 29.8159C81.133 30.0724 80.9333 30.3205 80.6936 30.5602C80.4539 30.7957 80.1616 30.9849 79.8168 31.1279L79.7411 31.1657C79.5982 31.2036 79.4636 31.2309 79.3374 31.2477C79.2113 31.2603 79.0936 31.2666 78.9842 31.2666C78.5301 31.2666 78.1264 31.1657 77.7732 30.9639C77.42 30.7578 77.1214 30.4677 76.8775 30.0934C76.6336 29.715 76.4486 29.2587 76.3224 28.7247C76.1963 28.1865 76.1332 27.5872 76.1332 26.927C76.1332 26.2753 76.1921 25.6803 76.3098 25.142C76.4276 24.5996 76.6021 24.1349 76.8334 23.7481C77.0646 23.3612 77.3527 23.0605 77.6975 22.8461C78.0465 22.6274 78.4502 22.5181 78.9085 22.5181C79.0389 22.5181 79.1756 22.5265 79.3185 22.5433C79.4657 22.5601 79.6192 22.5896 79.779 22.6316L79.8168 22.6505C80.1658 22.7935 80.4602 22.9848 80.6999 23.2245C80.9396 23.46 81.1372 23.706 81.2928 23.9625C81.4526 24.219 81.5766 24.4671 81.6649 24.7068C81.7532 24.9423 81.8184 25.1315 81.8605 25.2745H81.9866L81.81 22.8019ZM85.9982 25.1609C86.3935 25.1609 86.6899 25.3502 86.8876 25.7286C87.0894 26.1029 87.1903 26.6895 87.1903 27.4884L84.6169 27.6272C84.6295 27.2529 84.6694 26.9144 84.7367 26.6117C84.804 26.3047 84.8965 26.044 85.0142 25.8295C85.132 25.6151 85.2728 25.4511 85.4368 25.3375C85.6008 25.2198 85.788 25.1609 85.9982 25.1609ZM88.6095 30.0051C88.4077 30.1943 88.1428 30.3541 87.8148 30.4845C87.4868 30.6148 87.1273 30.68 86.7362 30.68C86.404 30.68 86.1075 30.6212 85.8468 30.5034C85.5861 30.3815 85.3653 30.207 85.1845 29.9799C85.0037 29.7486 84.8628 29.469 84.7619 29.141C84.6652 28.813 84.6126 28.4409 84.6042 28.0246C84.6042 27.9825 84.6042 27.9447 84.6042 27.911C84.6042 27.8732 84.6063 27.8353 84.6105 27.7975H88.8303C88.8303 27.398 88.7672 27.0238 88.6411 26.6747C88.5191 26.3215 88.3404 26.0146 88.1049 25.7538C87.8694 25.4931 87.5814 25.2871 87.2408 25.1357C86.9002 24.9843 86.5112 24.9086 86.0739 24.9086C85.6113 24.9086 85.1866 24.9927 84.7998 25.1609C84.4129 25.3291 84.0786 25.5667 83.7969 25.8737C83.5193 26.1765 83.3028 26.5402 83.1472 26.9649C82.9916 27.3896 82.9138 27.8585 82.9138 28.3715C82.9138 28.8424 82.9853 29.2756 83.1283 29.6708C83.2712 30.0619 83.4731 30.3983 83.7338 30.68C83.9945 30.9618 84.3099 31.1825 84.6799 31.3423C85.05 31.4979 85.4621 31.5757 85.9162 31.5757C86.5722 31.5757 87.1273 31.4432 87.5814 31.1783C88.0355 30.9092 88.4077 30.5476 88.6978 30.0934L88.6095 30.0051ZM94.2863 24.978C94.198 24.9444 94.1076 24.9213 94.0151 24.9086C93.9268 24.8918 93.8343 24.8834 93.7375 24.8834C93.5357 24.8834 93.3297 24.9149 93.1194 24.978C92.9134 25.0369 92.7157 25.121 92.5265 25.2303C92.3373 25.3354 92.1628 25.4616 92.003 25.6088C91.8474 25.7517 91.7191 25.9052 91.6182 26.0692V24.978L91.5488 24.9086L89.2024 25.4259V25.5331L89.9783 26.0314V30.6737L89.1141 31.3234V31.4243H92.5139V31.3234L91.6182 30.6737V26.3594C91.7191 26.2374 91.8495 26.1302 92.0093 26.0377C92.1733 25.9452 92.3499 25.8989 92.5391 25.8989C92.7073 25.8989 92.8566 25.9284 92.9869 25.9872C93.1173 26.0461 93.235 26.1218 93.3402 26.2143C93.4495 26.3026 93.5462 26.4035 93.6303 26.5171C93.7186 26.6306 93.8027 26.7441 93.8826 26.8577H93.9772L94.2863 24.978ZM99.0737 25.2934V25.0726H97.1247V23.5841H97.0175L95.5478 24.814L94.6711 25.2177V25.2934H95.491V29.8159C95.491 30.106 95.5352 30.3604 95.6235 30.5791C95.716 30.7978 95.8401 30.9807 95.9956 31.1279C96.1554 31.275 96.3426 31.3865 96.557 31.4622C96.7715 31.5379 97.0048 31.5757 97.2571 31.5757C97.48 31.5757 97.6903 31.5505 97.8879 31.5C98.0897 31.4495 98.2748 31.3823 98.443 31.2982C98.6154 31.2099 98.7688 31.111 98.9034 31.0017C99.0422 30.8882 99.1599 30.7725 99.2566 30.6548L99.1936 30.5602C99.0506 30.6569 98.8761 30.7368 98.67 30.7999C98.464 30.8587 98.2432 30.8882 98.0077 30.8882C97.7218 30.8882 97.5031 30.802 97.3518 30.6296C97.2046 30.453 97.131 30.1943 97.131 29.8537V25.2934H99.0737ZM99.7738 25.4259V25.5394L100.55 26.0314V30.6737L99.6855 31.3234V31.4243H103.047V31.3234L102.19 30.6737V24.978L102.12 24.9086L99.7738 25.4259ZM100.36 22.9785C100.36 23.1089 100.384 23.2287 100.43 23.3381C100.476 23.4474 100.539 23.542 100.619 23.6219C100.703 23.7018 100.802 23.7628 100.916 23.8048C101.033 23.8469 101.159 23.8679 101.294 23.8679C101.433 23.8679 101.559 23.8469 101.672 23.8048C101.79 23.7628 101.891 23.7018 101.975 23.6219C102.063 23.542 102.131 23.4474 102.177 23.3381C102.223 23.2287 102.246 23.1089 102.246 22.9785C102.246 22.8524 102.223 22.7346 102.177 22.6253C102.131 22.516 102.063 22.4235 101.975 22.3478C101.891 22.2679 101.79 22.2048 101.672 22.1586C101.559 22.1123 101.433 22.0892 101.294 22.0892C101.159 22.0892 101.033 22.1123 100.916 22.1586C100.802 22.2006 100.703 22.2616 100.619 22.3415C100.539 22.4214 100.476 22.516 100.43 22.6253C100.384 22.7346 100.36 22.8524 100.36 22.9785ZM106.075 30.6737V25.2934H107.532V25.0726H106.075L105.709 23.9373C105.613 23.6387 105.564 23.3633 105.564 23.111C105.564 22.8587 105.602 22.64 105.678 22.455C105.753 22.27 105.863 22.1249 106.006 22.0198C106.149 21.9147 106.317 21.8621 106.51 21.8621C106.552 21.8621 106.599 21.8705 106.649 21.8873C106.7 21.8999 106.731 21.9084 106.744 21.9126C106.92 22.1817 107.091 22.4466 107.255 22.7073C107.423 22.9638 107.604 23.2498 107.797 23.5651H107.911L108.163 21.9819C107.986 21.8978 107.763 21.8179 107.494 21.7423C107.225 21.6624 106.895 21.6224 106.504 21.6224C106.13 21.6224 105.772 21.6813 105.432 21.799C105.091 21.9168 104.805 22.0934 104.574 22.3289C104.347 22.5601 104.195 22.8503 104.12 23.1993C104.044 23.5441 104.082 23.9478 104.233 24.4103L104.441 25.0726H103.451V25.2934H104.435V30.68L103.577 31.3108V31.4243H107.028V31.3108L106.075 30.6737ZM108.138 25.4259V25.5394L108.913 26.0314V30.6737L108.049 31.3234V31.4243H111.411V31.3234L110.553 30.6737V24.978L110.484 24.9086L108.138 25.4259ZM108.724 22.9785C108.724 23.1089 108.747 23.2287 108.794 23.3381C108.84 23.4474 108.903 23.542 108.983 23.6219C109.067 23.7018 109.166 23.7628 109.279 23.8048C109.397 23.8469 109.523 23.8679 109.658 23.8679C109.797 23.8679 109.923 23.8469 110.036 23.8048C110.154 23.7628 110.255 23.7018 110.339 23.6219C110.427 23.542 110.495 23.4474 110.541 23.3381C110.587 23.2287 110.61 23.1089 110.61 22.9785C110.61 22.8524 110.587 22.7346 110.541 22.6253C110.495 22.516 110.427 22.4235 110.339 22.3478C110.255 22.2679 110.154 22.2048 110.036 22.1586C109.923 22.1123 109.797 22.0892 109.658 22.0892C109.523 22.0892 109.397 22.1123 109.279 22.1586C109.166 22.2006 109.067 22.2616 108.983 22.3415C108.903 22.4214 108.84 22.516 108.794 22.6253C108.747 22.7346 108.724 22.8524 108.724 22.9785ZM114.925 25.1609C115.32 25.1609 115.616 25.3502 115.814 25.7286C116.016 26.1029 116.117 26.6895 116.117 27.4884L113.543 27.6272C113.556 27.2529 113.596 26.9144 113.663 26.6117C113.73 26.3047 113.823 26.044 113.941 25.8295C114.058 25.6151 114.199 25.4511 114.363 25.3375C114.527 25.2198 114.714 25.1609 114.925 25.1609ZM117.536 30.0051C117.334 30.1943 117.069 30.3541 116.741 30.4845C116.413 30.6148 116.054 30.68 115.663 30.68C115.33 30.68 115.034 30.6212 114.773 30.5034C114.512 30.3815 114.292 30.207 114.111 29.9799C113.93 29.7486 113.789 29.469 113.688 29.141C113.592 28.813 113.539 28.4409 113.531 28.0246C113.531 27.9825 113.531 27.9447 113.531 27.911C113.531 27.8732 113.533 27.8353 113.537 27.7975H117.757C117.757 27.398 117.694 27.0238 117.567 26.6747C117.445 26.3215 117.267 26.0146 117.031 25.7538C116.796 25.4931 116.508 25.2871 116.167 25.1357C115.827 24.9843 115.438 24.9086 115 24.9086C114.538 24.9086 114.113 24.9927 113.726 25.1609C113.339 25.3291 113.005 25.5667 112.723 25.8737C112.446 26.1765 112.229 26.5402 112.074 26.9649C111.918 27.3896 111.84 27.8585 111.84 28.3715C111.84 28.8424 111.912 29.2756 112.055 29.6708C112.198 30.0619 112.399 30.3983 112.66 30.68C112.921 30.9618 113.236 31.1825 113.606 31.3423C113.976 31.4979 114.388 31.5757 114.843 31.5757C115.499 31.5757 116.054 31.4432 116.508 31.1783C116.962 30.9092 117.334 30.5476 117.624 30.0934L117.536 30.0051ZM122.002 25.1609C122.283 25.1609 122.529 25.2534 122.74 25.4385C122.95 25.6193 123.089 25.901 123.156 26.2837V30.3457C122.798 30.6527 122.391 30.8062 121.932 30.8062C121.394 30.8062 120.973 30.5749 120.671 30.1123C120.372 29.6498 120.223 28.9749 120.223 28.0876C120.223 27.6377 120.263 27.2319 120.343 26.8703C120.427 26.5086 120.545 26.2017 120.696 25.9494C120.852 25.6971 121.039 25.5036 121.257 25.3691C121.48 25.2303 121.728 25.1609 122.002 25.1609ZM122.531 22.4361V22.5496L123.156 23.0479V25.3123C122.798 25.0432 122.367 24.9086 121.863 24.9086C121.346 24.9086 120.877 24.9969 120.456 25.1736C120.04 25.3502 119.685 25.5983 119.39 25.9178C119.1 26.2332 118.875 26.6117 118.715 27.0532C118.56 27.4905 118.482 27.9699 118.482 28.4913C118.482 28.9413 118.541 29.3554 118.659 29.7339C118.776 30.1123 118.945 30.4382 119.163 30.7116C119.386 30.9849 119.655 31.1972 119.971 31.3486C120.286 31.5 120.641 31.5757 121.037 31.5757C121.289 31.5757 121.52 31.5484 121.73 31.4937C121.941 31.439 122.132 31.3654 122.304 31.2729C122.481 31.1804 122.641 31.0774 122.784 30.9639C122.931 30.8461 123.068 30.7284 123.194 30.6106L123.396 31.5757L125.471 31.1216V31.0459L124.796 30.4593V21.9882L124.714 21.9189L122.531 22.4361Z" fill="#14171A"/>
</svg>
