<svg width="962" height="274" viewBox="0 0 962 274" fill="none" xmlns="http://www.w3.org/2000/svg">
<path d="M708.51 91.1429C707.488 91.1429 705.444 90.8862 701.355 90.8862C697.522 90.8862 694.2 91.1429 690.878 91.9131C677.591 94.4802 668.902 101.925 661.492 109.626V94.2235H619.584V230.795H661.492V173.805C661.492 167.13 661.748 160.969 662.514 155.321C663.281 149.674 664.814 144.796 667.369 140.945C669.925 136.838 673.502 133.757 678.102 131.447C682.701 129.136 689.09 128.11 697.011 128.11C700.078 128.11 703.144 128.366 706.21 128.88C709.021 129.393 712.088 130.163 714.899 130.933V92.4265C713.11 91.9131 710.81 91.3997 708.51 91.1429Z" fill="#2A49AB"/>
<path d="M820.435 91.1429C819.412 91.1429 817.368 90.8862 813.28 90.8862C809.447 90.8862 806.125 91.1429 802.803 91.9131C789.515 94.4802 780.827 101.925 773.416 109.626V94.2235H731.509V230.795H773.416V173.805C773.416 167.13 773.672 160.969 774.438 155.321C775.205 149.674 776.738 144.796 779.294 140.945C781.849 136.838 785.426 133.757 790.026 131.447C794.626 129.136 801.014 128.11 808.936 128.11C812.002 128.11 815.068 128.366 818.135 128.88C820.946 129.393 824.012 130.163 826.823 130.933V92.4265C825.29 91.9131 822.99 91.3997 820.435 91.1429Z" fill="#2A49AB"/>
<path d="M378.617 88.8326H322.144V50.0688H478.53V88.8326H422.057V230.795H378.361V88.8326H378.617Z" fill="#2A49AB"/>
<path d="M596.586 207.177C589.943 215.906 581.51 222.323 571.033 227.201C560.812 231.822 550.079 234.132 539.091 234.132C528.615 234.132 518.904 232.335 509.705 228.998C500.506 225.661 492.584 220.783 485.685 214.622C478.785 208.461 473.419 200.76 469.586 192.031C465.753 183.303 463.709 173.291 463.709 162.509C463.709 151.727 465.753 141.715 469.586 132.987C473.419 124.259 478.785 116.558 485.685 110.396C492.584 104.235 500.506 99.3578 509.705 96.0205C518.904 92.6832 528.87 90.8862 539.091 90.8862C548.802 90.8862 557.49 92.6832 565.411 96.0205C573.333 99.3578 579.977 104.235 585.599 110.396C590.965 116.558 595.309 124.259 598.375 132.987C601.442 141.715 602.719 151.727 602.719 162.509V175.602H505.361C507.15 183.56 510.727 189.978 516.349 194.855C521.971 199.733 528.87 202.043 537.047 202.043C543.947 202.043 549.824 200.503 554.423 197.422C559.279 194.342 563.367 190.234 566.945 185.613L596.586 207.177ZM561.067 147.106C561.323 139.918 559.023 134.014 554.168 128.88C549.313 123.746 543.18 121.178 535.514 121.178C530.914 121.178 526.826 121.949 523.248 123.489C519.671 125.029 516.604 126.826 514.049 129.137C511.494 131.447 509.45 134.271 508.172 137.351C506.894 140.432 505.872 143.769 505.872 147.106H561.067Z" fill="#2A49AB"/>
<path d="M831.678 191.518V191.004C831.678 160.712 855.187 146.593 888.662 146.593C902.972 146.593 913.193 148.903 923.414 152.241V149.93C923.414 133.501 913.193 124.516 893.006 124.516C877.674 124.516 866.941 127.34 853.909 131.96L843.943 101.925C859.531 95.2504 874.863 90.8862 898.883 90.8862C920.859 90.8862 936.702 96.5339 946.668 106.546C957.145 116.814 962 132.217 962 150.957V231.565H923.159V216.419C913.449 226.944 899.905 234.132 880.229 234.132C853.654 234.132 831.678 218.986 831.678 191.518ZM923.925 182.533V180.222C923.925 177.142 921.881 174.575 919.07 173.548C912.938 171.494 905.783 170.211 898.117 170.211C880.996 170.211 870.263 176.885 870.263 189.464V189.978C870.263 200.503 879.207 206.921 892.239 206.921C911.149 206.921 923.925 196.909 923.925 182.533Z" fill="#2A49AB"/>
<path fill-rule="evenodd" clip-rule="evenodd" d="M151.106 0.261719C184.788 0.261719 215.998 12.3687 239.792 33.1679C271.62 57.6924 262.35 147.098 230.213 123.505C159.45 123.194 27.8115 85.3212 67.0557 33.1679C71.0729 27.8905 76.017 23.5444 81.5792 19.5088H81.2702C82.1972 19.0431 83.1242 18.4998 84.0512 17.9566C84.9783 17.4133 85.9053 16.8701 86.8323 16.4044L86.8324 16.4044C89.6135 14.8522 92.3945 13.3 95.4846 12.0583C112.48 4.60782 131.33 0.261719 151.106 0.261719ZM174.901 272.824C160.687 273.756 132.258 251.404 124.224 221.913C109.082 166.034 231.45 137.474 242.883 136.543C274.093 137.474 281.819 174.727 258.952 213.221C229.287 262.58 175.519 272.824 174.901 272.824Z" fill="#2849A9"/>
<path fill-rule="evenodd" clip-rule="evenodd" d="M14.8319 77.871C24.7202 80.665 85.2861 61.4179 103.209 34.0996C103.518 33.7891 117.423 12.369 90.5393 12.0586C87.4492 12.0586 78.7969 12.369 70.4536 17.336C66.4365 19.8195 62.7284 22.303 59.0203 25.0969C53.2354 29.3791 47.7505 34.5655 42.5656 39.4682L42.5655 39.4682L42.3338 39.6874C37.0806 44.6544 32.1364 50.5527 27.8103 56.4509C23.4842 62.3492 19.467 68.8684 16.0679 75.3875C15.9134 75.8532 15.6817 76.2412 15.4499 76.6293C15.2181 77.0173 14.9864 77.4054 14.8319 77.871ZM86.5227 272.825C88.3768 270.031 89.6128 236.194 88.3768 227.502C87.1408 218.809 84.3597 201.114 67.6731 171.933C64.8921 167.277 51.6046 145.546 41.7163 132.198C36.1541 124.409 30.0403 117.174 23.9266 109.939L23.9265 109.939C18.8317 103.909 13.7369 97.8803 8.96128 91.5305C8.65227 92.3066 8.42052 93.0051 8.18876 93.7036C7.957 94.4021 7.72524 95.1005 7.41624 95.8766C4.94416 103.017 3.0901 110.467 1.85406 118.228C0.61802 125.989 0 133.75 0 141.821C0 149.893 0.61802 157.653 1.85406 165.414C3.0901 173.175 5.25317 180.626 7.41624 187.766C9.5793 194.906 12.6694 202.046 16.0685 208.565C19.4676 215.084 23.4847 221.603 27.8109 227.502C32.137 233.4 37.0812 238.988 42.3343 244.265C47.2785 249.542 53.1497 254.509 59.0209 258.856L59.0214 258.856L59.022 258.856C63.6568 261.96 68.2915 265.065 72.9263 267.858C81.4414 272.873 84.6554 272.842 86.2799 272.827C86.3651 272.826 86.4458 272.825 86.5227 272.825ZM288.924 141.821C288.924 160.757 285.215 178.763 278.726 195.216C262.985 212.18 163.473 174.549 147.893 168.658C146.652 168.188 145.943 167.92 145.852 167.897C130.093 161.068 82.5051 139.958 78.179 107.052C71.9988 59.5552 167.792 26.3385 210.126 25.0968C215.07 25.0968 230.521 25.4072 239.482 32.5472C269.765 59.2448 288.924 98.3597 288.924 141.821ZM188.806 260.098C185.098 272.205 199.003 276.551 211.364 270.652C236.084 257.614 256.479 237.436 270.384 213.532C271.311 212.29 270.384 211.049 268.839 211.359C255.552 212.601 195.604 236.504 188.806 260.098Z" fill="#5795ED"/>
</svg>
