<?xml version="1.0" standalone="no"?>
<!DOCTYPE svg PUBLIC "-//W3C//DTD SVG 20010904//EN"
 "http://www.w3.org/TR/2001/REC-SVG-20010904/DTD/svg10.dtd">
<svg version="1.0" xmlns="http://www.w3.org/2000/svg"
 width="220.000000pt" height="220.000000pt" viewBox="0 0 220.000000 220.000000"
 preserveAspectRatio="xMidYMid meet">
<metadata>
Created by potrace 1.14, written by Peter Selinger 2001-2017
</metadata>
<g transform="translate(0.000000,220.000000) scale(0.100000,-0.100000)"
fill="#000000" stroke="none">
<path d="M113 1836 c-18 -5 -33 -13 -33 -17 0 -5 -6 -9 -14 -9 -7 0 -20 -8
-27 -17 -12 -14 -12 -16 1 -9 8 4 6 0 -4 -8 -11 -9 -16 -16 -10 -16 5 0 2 -5
-6 -10 -13 -8 -15 -90 -14 -637 1 -345 4 -639 8 -652 3 -14 11 -28 18 -33 7
-4 9 -8 4 -8 -5 0 4 -11 19 -24 16 -14 32 -23 36 -21 4 3 11 -1 17 -8 9 -10
214 -12 995 -12 924 0 986 1 1004 18 11 9 22 15 24 13 2 -2 13 6 24 17 12 11
14 17 5 13 -12 -6 -12 -5 1 6 8 7 20 27 25 43 6 18 10 269 9 653 0 506 -3 624
-13 631 -8 5 -12 10 -11 12 11 12 -52 68 -83 75 -5 1 -9 3 -10 4 -8 8 -1938 4
-1965 -4z"/>
</g>
</svg>
