<svg width="32" height="32" viewBox="0 0 32 32" fill="none" xmlns="http://www.w3.org/2000/svg">
<path fill-rule="evenodd" clip-rule="evenodd" d="M16 32C24.8366 32 32 24.8366 32 16C32 7.16344 24.8366 0 16 0C7.16344 0 0 7.16344 0 16C0 24.8366 7.16344 32 16 32Z" fill="#F3BA2F"/>
<path d="M11.1318 14.0946L15.769 9.45764L20.4087 14.0971L23.1069 11.3989L15.769 4.06079L8.43359 11.3964L11.1318 14.0946Z" fill="white"/>
<path d="M9.22651 15.9995L6.52832 13.3013L3.83 15.9996L6.52819 18.6978L9.22651 15.9995Z" fill="white"/>
<path d="M11.1319 17.9051L15.7691 22.5421L20.4085 17.9028L23.1083 20.5996L23.1069 20.6011L15.7691 27.9389L8.43346 20.6035L8.42969 20.5997L11.1319 17.9051Z" fill="white"/>
<path d="M25.0107 18.6991L27.709 16.0007L25.0108 13.3025L22.3125 16.0009L25.0107 18.6991Z" fill="white"/>
<path d="M18.5065 15.9985H18.5077L15.7696 13.2605L13.7462 15.2839H13.746L13.5136 15.5165L13.034 15.9961L13.0303 15.9998L13.034 16.0038L15.7696 18.7394L18.5077 16.0014L18.509 15.9998L18.5065 15.9985Z" fill="white"/>
</svg>
