<svg width="34" height="34" viewBox="0 0 34 34" fill="none" xmlns="http://www.w3.org/2000/svg">
<g clip-path="url(#clip0)">
<path d="M16.6354 33.2708C7.48592 33.2708 0 25.7848 0 16.6354C0 7.48592 7.48592 0 16.6354 0C25.7848 0 33.2708 7.48592 33.2708 16.6354C33.2708 25.7848 25.7848 33.2708 16.6354 33.2708Z" fill="#002868"/>
<path d="M25.0198 26.6167H8.25129C7.37295 26.6167 6.6543 25.8981 6.6543 25.0198V8.25129C6.6543 7.37295 7.37295 6.6543 8.25129 6.6543H25.0198C25.8981 6.6543 26.6167 7.37295 26.6167 8.25129V25.0198C26.6167 25.8981 25.8981 26.6167 25.0198 26.6167Z" fill="white"/>
<path d="M10.5502 24.607C10.4976 24.607 10.455 24.5591 10.455 24.5065V21.8242C10.455 21.7717 10.4124 21.7238 10.3599 21.7238H9.41298C9.35974 21.7238 9.3125 21.6812 9.3125 21.6286V21.1102C9.3125 21.0577 9.36041 21.0098 9.41298 21.0098H12.3275C12.3801 21.0098 12.428 21.057 12.428 21.1102V21.6286C12.428 21.6812 12.3801 21.7238 12.3275 21.7238H11.3859C11.3334 21.7238 11.2855 21.771 11.2855 21.8242V24.5065C11.2855 24.5591 11.2429 24.607 11.1903 24.607H10.5502Z" fill="#002868"/>
<path d="M15.3369 21.1102C15.3369 21.0577 15.3794 21.0098 15.432 21.0098H16.0668C16.1194 21.0098 16.1673 21.057 16.1673 21.1102V22.9408C16.1673 24.0254 15.5538 24.6549 14.5803 24.6549C13.6121 24.6549 13.0039 24.0254 13.0039 22.9408V21.1102C13.0039 21.0577 13.0465 21.0098 13.0991 21.0098H13.7339C13.7864 21.0098 13.8343 21.057 13.8343 21.1102V22.9668C13.8343 23.5011 14.1092 23.8817 14.5856 23.8817C15.062 23.8817 15.3369 23.5011 15.3369 22.9668V21.1102Z" fill="#002868"/>
<path d="M19.0833 22.1842C18.9988 22.1842 18.9722 22.1522 18.9403 22.089C18.8291 21.8295 18.5856 21.6658 18.2156 21.6658C17.8822 21.6658 17.6021 21.7822 17.6021 22.0045C17.6021 22.248 17.8616 22.3485 18.4325 22.417C19.3002 22.5175 19.7973 22.7824 19.7973 23.4697C19.7973 24.2423 19.1199 24.6495 18.2529 24.6495C17.5016 24.6495 16.8562 24.2842 16.7557 23.5176C16.745 23.4438 16.7823 23.4172 16.8562 23.4172H17.4384C17.5123 23.4172 17.5549 23.4491 17.5762 23.507C17.6553 23.7612 17.9255 23.9568 18.3168 23.9568C18.6608 23.9568 18.9622 23.8297 18.9622 23.5602C18.9622 23.2375 18.6448 23.1796 18.01 23.0998C17.28 23.0046 16.7723 22.793 16.7723 22.1209C16.7723 21.4489 17.3492 20.9678 18.2535 20.9678C19.068 20.9678 19.6343 21.4069 19.7507 22.063C19.7667 22.1369 19.7454 22.1848 19.6662 22.1848H19.0833V22.1842Z" fill="#002868"/>
<path d="M20.517 24.607C20.4645 24.607 20.4219 24.5591 20.4219 24.5065V21.1102C20.4219 21.0577 20.4645 21.0098 20.517 21.0098H21.9557C23.0243 21.0098 23.8547 21.745 23.8547 22.819C23.8547 23.877 23.035 24.607 21.9557 24.607H20.517ZM21.9557 23.8923C22.5326 23.8923 22.9817 23.4372 22.9817 22.8077C22.9817 22.1782 22.5319 21.7231 21.9503 21.7231H21.3528C21.3002 21.7231 21.2576 21.7703 21.2576 21.8236V23.7965C21.2576 23.8491 21.3002 23.8917 21.3528 23.8917H21.9557V23.8923Z" fill="#002868"/>
<path d="M26.0839 19.031H7.18609C7.0397 19.031 6.91992 18.9112 6.91992 18.7648V8.25124C6.91992 7.51928 7.5188 6.92041 8.25075 6.92041H25.0192C25.7512 6.92041 26.35 7.51928 26.35 8.25124V18.7648C26.35 18.9112 26.2303 19.031 26.0839 19.031Z" fill="#002868"/>
<path d="M17.5 16.8721H15.7699C15.6601 16.8721 15.5703 16.7823 15.5703 16.6725V9.35294C15.5703 9.24315 15.6601 9.15332 15.7699 9.15332H17.5C17.6098 9.15332 17.6996 9.24315 17.6996 9.35294V16.6725C17.6996 16.7823 17.6098 16.8721 17.5 16.8721Z" fill="white"/>
<path d="M20.5613 11.2826H12.7094C12.5996 11.2826 12.5098 11.1928 12.5098 11.083V9.35294C12.5098 9.24315 12.5996 9.15332 12.7094 9.15332H20.5613C20.6711 9.15332 20.7609 9.24315 20.7609 9.35294V11.083C20.7609 11.1928 20.6711 11.2826 20.5613 11.2826Z" fill="white"/>
</g>
<defs>
<clipPath id="clip0">
<path d="M0 0H33.2708V33.2708H0V0Z" fill="white"/>
</clipPath>
</defs>
</svg>
