<svg width="32" height="32" viewBox="0 0 32 32" fill="none" xmlns="http://www.w3.org/2000/svg">
<path d="M16 32C24.8366 32 32 24.8366 32 16C32 7.16344 24.8366 0 16 0C7.16344 0 0 7.16344 0 16C0 24.8366 7.16344 32 16 32Z" fill="#172852"/>
<path d="M12.9946 7.52289C14.7981 6.8483 16.828 6.84676 18.6655 7.40122C21.0573 8.14357 23.0765 9.94864 24.1315 12.2142C24.4226 12.8595 24.7013 13.5326 24.7291 14.2503C23.3845 13.471 21.9106 12.9658 20.4336 12.5053C18.071 11.6536 15.5975 11.0622 13.3611 9.89166C12.8406 9.58054 12.1768 9.26173 12.0351 8.61332C11.9781 8.0527 12.571 7.74005 12.9946 7.52289Z" fill="#FFD83D"/>
<path d="M7.55077 12.9747C8.07288 11.5578 8.92921 10.2425 10.092 9.26758C10.3877 11.6995 11.4227 14.0498 13.1323 15.8179C15.1823 17.9479 18.1024 19.2555 21.0734 19.2062C22.2531 19.2432 23.4067 18.9706 24.5572 18.7503C23.4252 22.841 18.9418 25.5563 14.788 24.9033C12.2806 24.5829 9.96574 23.0982 8.56882 21.0021C6.99323 18.6857 6.59587 15.61 7.55077 12.9747Z" fill="#FFD83D"/>
<path d="M20.4336 12.5059C21.9106 12.9664 23.3845 13.4715 24.7291 14.2509L24.82 14.2986C24.9447 15.2366 25.0356 16.193 24.8693 17.1325C24.1931 16.846 23.6448 16.3424 23.0719 15.8973C21.9691 14.9794 20.8433 13.929 20.4336 12.5059Z" fill="#FF6F03"/>
</svg>
