<svg width="40" height="40" viewBox="0 0 40 40" fill="none" xmlns="http://www.w3.org/2000/svg">
<path fill-rule="evenodd" clip-rule="evenodd" d="M3.47656 7.28502C3.47656 5.18167 5.18167 3.47656 7.28503 3.47656H14.0098C14.8512 3.47656 15.5332 4.15861 15.5332 4.99995C15.5332 5.84129 14.8512 6.52333 14.0098 6.52333H7.28503C6.86435 6.52333 6.52333 6.86435 6.52333 7.28502V14.0479C6.52333 14.8892 5.84129 15.5713 4.99995 15.5713C4.15861 15.5713 3.47656 14.8892 3.47656 14.0479V7.28502ZM24.5017 4.99995C24.5017 4.15861 25.1838 3.47656 26.0251 3.47656H32.7149C34.8182 3.47656 36.5233 5.18167 36.5233 7.28503V14.0479C36.5233 14.8892 35.8413 15.5713 34.9999 15.5713C34.1586 15.5713 33.4766 14.8892 33.4766 14.0479V7.28503C33.4766 6.86436 33.1355 6.52333 32.7149 6.52333H26.0251C25.1838 6.52333 24.5017 5.84129 24.5017 4.99995ZM4.99995 24.5051C5.84129 24.5051 6.52333 25.1872 6.52333 26.0285V32.7149C6.52333 33.1355 6.86436 33.4766 7.28503 33.4766H14.0098C14.8512 33.4766 15.5332 34.1586 15.5332 34.9999C15.5332 35.8413 14.8512 36.5233 14.0098 36.5233H7.28503C5.18168 36.5233 3.47656 34.8182 3.47656 32.7149V26.0285C3.47656 25.1872 4.15861 24.5051 4.99995 24.5051ZM34.9999 24.5051C35.8413 24.5051 36.5233 25.1872 36.5233 26.0285V32.7149C36.5233 34.8182 34.8182 36.5233 32.7149 36.5233H26.0251C25.1838 36.5233 24.5017 35.8413 24.5017 34.9999C24.5017 34.1586 25.1838 33.4766 26.0251 33.4766H32.7149C33.1355 33.4766 33.4766 33.1355 33.4766 32.7149V26.0285C33.4766 25.1872 34.1586 24.5051 34.9999 24.5051Z" fill="#5FA4F8"/>
<path d="M19.1216 20.3887C14.4841 20.3887 10.7134 24.1594 10.7134 28.7969C10.7134 29.6637 11.4068 30.4005 12.317 30.4005H27.4431C28.3099 30.4005 29.0467 29.707 29.0467 28.7969C29.0467 24.1594 25.276 20.3887 20.6385 20.3887H19.1216Z" fill="#1E4DD8"/>
<path d="M19.9023 9.59766C17.2585 9.59766 15.1348 11.7214 15.1348 14.3652C15.1348 17.009 17.2585 19.1761 19.9023 19.1761C22.5461 19.1761 24.6698 17.0523 24.6698 14.3652C24.6698 11.7647 22.5461 9.59766 19.9023 9.59766Z" fill="#1E4DD8"/>
</svg>
